<?xml version="1.0" encoding="utf-8"?>
<!-- Generator: Adobe Illustrator 22.0.0, SVG Export Plug-In . SVG Version: 6.00 Build 0)  -->
<svg version="1.1" id="图层_1" xmlns="http://www.w3.org/2000/svg" xmlns:xlink="http://www.w3.org/1999/xlink" x="0px" y="0px"
	 viewBox="0 0 58 86" style="enable-background:new 0 0 58 86;" xml:space="preserve">
<style type="text/css">
	.st0{fill:#4AE8F8;}
</style>
<path class="st0" d="M60.5,57.5c-1-1.4-3.4-2.5-8.2,0.3c0.4-2-1.1-3.2-3-3.2c-1.7,0-3.6,0.4-5.1,2c-2.2-2.9-4.5-2.5-8.9,0.2
	c-1.7,1-3.2,1.9-4.3,2.5c-0.3,0.2-0.5,0.3-0.8,0.4c0.4,0.1,0.9,0.2,1.4,0.2c6.2,0,11.1,0,11.1,5.3c0,4.1-4.8,5.3-7.3,5.4h-8.8
	c-4.7,0-9.3-4.9-9.3-4.9s5.5,2.2,9.3,2.2h8.8c0,0,4.7-0.2,4.7-2.7c0-2.3-2.4-2.7-6.1-2.7c-6.1,0-9-2.7-9-2.7s-4.7-3.4-6.2-4.3
	c-3.4-2.1-5.3-3.2-11.4-0.9C3.5,56.1-2.8,59-2.8,59l7.6,16.8l3.6-2.2c2.2-1.4,4.2-1.3,7,0c3.2,1.5,7.6,2.9,10.7,3.9
	c4.7,1.5,5.5,1.3,8.5-0.5c2.6-1.5,21.2-12.4,23.2-13.8C60.9,61.2,61.9,59.3,60.5,57.5L60.5,57.5z M37.3,31h-6v5h6L37.3,31L37.3,31z
	 M37.3,16.8h-6v4.5h6L37.3,16.8L37.3,16.8z M37.3,23.8h-6v4.8h6L37.3,23.8L37.3,23.8z M15,44.2h28.3c2.3,0,4.1-1.9,4.1-4.2V11.6
	c0-2.3-1.9-4.2-4.1-4.2H15c-2.3,0-4.1,1.9-4.1,4.2v28.4C10.8,42.4,12.7,44.2,15,44.2z M28.7,14.3H40V36h2.6v2.5H25.9V36h2.8
	L28.7,14.3L28.7,14.3z M16.2,23.4v-2.5h4.5V17c-1.2,0.2-2.4,0.4-3.6,0.6c-0.1-0.6-0.4-1.5-0.7-2.1c3.2-0.5,6.9-1.4,9.2-2.3l1.6,2.2
	c-1.2,0.4-2.5,0.8-3.9,1.1v4.4h3.8v2.5h-3.8v0.5c0.8,0.9,3.4,4.1,4,4.8l-1.6,2.1c-0.5-1-1.5-2.7-2.4-4.1v12.6h-2.6V27.7
	c-1,2.6-2.3,5-3.6,6.7c-0.3-0.8-0.9-1.9-1.3-2.5c1.7-2,3.5-5.4,4.6-8.5L16.2,23.4L16.2,23.4z"/>
</svg>
