<?xml version="1.0" encoding="utf-8"?>
<!-- Generator: Adobe Illustrator 22.0.0, SVG Export Plug-In . SVG Version: 6.00 Build 0)  -->
<svg version="1.1" id="图层_1" xmlns="http://www.w3.org/2000/svg" xmlns:xlink="http://www.w3.org/1999/xlink" x="0px" y="0px"
	 viewBox="0 0 58 86" style="enable-background:new 0 0 58 86;" xml:space="preserve">
<style type="text/css">
	.st0{fill:#4AE8F8;}
</style>
<path class="st0" d="M15.8,72.1l5.4-12.9H9.7l19-18.2l-5.3,12.7H34C34,53.6,15.8,72.1,15.8,72.1z M11.2,17.4c0-1.6,1.4-3,3.2-3h15.2
	c1.8,0,3.2,1.4,3.2,3v15.9c0,1.6-1.4,3-3.2,3H14.3c-1.8,0-3.2-1.4-3.2-3C11.2,33.3,11.2,17.4,11.2,17.4z M58.8,21.1
	c-2.4-2-6.5-5.4-7.7-6.5c-0.7-0.6-2.3-1-3.4,0c-1,1-0.6,2.3,0.2,3c1.1,1,3.5,2.9,4.9,4.3c-1.1,1.3-3,2.7-4.2,3.9
	c-0.1,0.1-0.1,0.3-0.1,0.4c0,0.7,0,1.2,0,1.5c0,0.3,0.3,0.4,0.5,0.4h6c0.4,0,0.5,0.4,0.5,0.4v36.2c0,2-1.2,2.6-2.4,2.6
	c-1.2,0-2.5-0.6-2.5-2.6V35c0-2.7-0.3-3.9-3.5-4c-0.8,0-4,0-5.7,0V12.1c0-2.5-2.1-4.5-4.8-4.5H7.5c-2.6,0-4.8,2-4.8,4.5v60.5H0
	c-1.1,0-2,0.8-2,1.9v2.7c0,1,0.9,1.9,2,1.9h44c1.1,0,2-0.9,2-1.9v-2.7c0-1-0.9-1.9-2-1.9h-2.6V35.3h3.3c1.2,0,1.3,1.1,1.3,1.1v28.5
	c0,7.3,6.4,7.3,7.1,7.3c1,0,7,0,7-7.3V23.1C60,23.1,60,22.1,58.8,21.1z"/>
</svg>
