<svg xmlns="http://www.w3.org/2000/svg" viewBox="0 0 56.03 55.01"><defs><style>.cls-1{fill:#06d3ff;}</style></defs><title>标志建筑</title><g id="图层_2" data-name="图层 2"><g id="图层_1-2" data-name="图层 1"><path class="cls-1" d="M14.09,20H24.55a1.86,1.86,0,1,0,0-3.71H14.09a1.85,1.85,0,0,0-1.86,1.85A1.76,1.76,0,0,0,14.09,20Zm31.47,19.1a1.77,1.77,0,0,0-1.85-1.86H40.25a1.89,1.89,0,0,0-1.86,1.86,1.77,1.77,0,0,0,1.86,1.85h3.46A1.74,1.74,0,0,0,45.56,39.07Zm-21-1.86H14.09a1.86,1.86,0,0,0-1.86,1.86,1.77,1.77,0,0,0,1.86,1.85H24.55a1.74,1.74,0,0,0,1.86-1.85A1.76,1.76,0,0,0,24.55,37.21Zm0-10.49H14.09a1.86,1.86,0,0,0-1.86,1.85,1.77,1.77,0,0,0,1.86,1.86H24.55a1.74,1.74,0,0,0,1.86-1.86A1.77,1.77,0,0,0,24.55,26.72Z"/><path class="cls-1" d="M54.17,51.3h-1.6V32.06A3.38,3.38,0,0,0,50.77,29L35.18,18.79v-16L35,2.39A3.68,3.68,0,0,0,31.5,0a4.65,4.65,0,0,0-.82.08L6,7.42A3.84,3.84,0,0,0,3.52,11V51.3H1.86A1.89,1.89,0,0,0,0,53.16,1.77,1.77,0,0,0,1.86,55H37.6a1.86,1.86,0,1,0,0-3.71H35.13V23l13.7,8.89V51.27H46A1.86,1.86,0,1,0,46,55h8.13A1.79,1.79,0,0,0,56,53.07,1.85,1.85,0,0,0,54.17,51.3ZM7.2,11.08,31.39,3.83v47.5H7.2Z"/></g></g></svg>