<svg xmlns="http://www.w3.org/2000/svg" viewBox="0 0 52.69 60.24"><defs><style>.cls-1{fill:#06d3ff;}</style></defs><title>设备设备</title><g id="图层_2" data-name="图层 2"><g id="图层_1-2" data-name="图层 1"><path class="cls-1" d="M33.12,20.34c-.38,2.63-1.88,5.27-4.52,6V58a2.42,2.42,0,0,1-2.25,2.26A2.43,2.43,0,0,1,24.09,58V26.36a6.44,6.44,0,0,1-4.52-6,6.78,6.78,0,1,1,13.55,0ZM16.56,38.41A19.11,19.11,0,0,1,4.89,20.72a19.24,19.24,0,0,1,9-16.56,2,2,0,0,0,.75-3A2.46,2.46,0,0,0,11.29.39,23.73,23.73,0,0,0,0,20.72a24.51,24.51,0,0,0,15.06,22.2h.75a2.55,2.55,0,0,0,2.26-1.5,2.56,2.56,0,0,0-1.51-3ZM20,30.5a10.83,10.83,0,0,1-6-9.78,11.56,11.56,0,0,1,5.27-9.41,2,2,0,0,0,.75-3,2,2,0,0,0-3-.76A14.86,14.86,0,0,0,9.41,20.72a14.54,14.54,0,0,0,8.66,13.55c.37,0,.75.37,1.13.37a2.06,2.06,0,0,0,1.88-1.13C21.45,32.38,21.08,30.88,20,30.5ZM41.4.39A2.47,2.47,0,0,0,38,1.14a2,2,0,0,0,.76,3,19.26,19.26,0,0,1,9,16.56c0,7.9-4.89,15.05-11.67,17.69a2.3,2.3,0,0,0,.75,4.51h.76a24.52,24.52,0,0,0,15-22.2A23.71,23.71,0,0,0,41.4.39Zm1.88,20.33A15.68,15.68,0,0,0,35.76,7.54a2,2,0,0,0-3,.76,2.37,2.37,0,0,0,.76,3,10.74,10.74,0,0,1,5.27,9.41,10.84,10.84,0,0,1-6,9.78,2,2,0,0,0-.75,3,2.06,2.06,0,0,0,1.88,1.13A1.39,1.39,0,0,0,35,34.27C40.27,32,43.28,26.74,43.28,20.72Z"/></g></g></svg>