<svg xmlns="http://www.w3.org/2000/svg" viewBox="0 0 67.38 54.88"><defs><style>.cls-1{fill:#06d3ff;}</style></defs><title>摄像头</title><g id="图层_2" data-name="图层 2"><g id="图层_1-2" data-name="图层 1"><path class="cls-1" d="M19,45.2a.49.49,0,0,1-.3-.1l-2.7-2a.5.5,0,0,1-.09-.72l5.85-7.2A.51.51,0,0,1,22.1,35a.54.54,0,0,1,.3.1l2.7,2a.5.5,0,0,1,.2.34.58.58,0,0,1-.11.38L19.34,45A.5.5,0,0,1,19,45.2Z"/><path class="cls-1" d="M22.1,35.47l-5.85,7.2,2.7,2,5.85-7.2Z"/><rect class="cls-1" x="9.11" y="34.86" width="4.38" height="16.3" rx="0.5" ry="0.5" transform="translate(54.31 31.71) rotate(90)"/><path class="cls-1" d="M19,41.32H3.65V44.7H19Z"/><path class="cls-1" d="M1.5,54.88a5,5,0,0,1-1.25-.12C.11,54.7,0,53.92,0,53.38V32.65A5.19,5.19,0,0,1,.11,31.4c.06-.14.84-.25,1.39-.25H4a5.19,5.19,0,0,1,1.25.11c.14.06.25.84.25,1.39V53.38a5.08,5.08,0,0,1-.11,1.24A2.8,2.8,0,0,1,4,54.88Zm44.08-2.49h-.17s-.56-.31-1-.6L3.56,26.3a11.42,11.42,0,0,1-1.05-.71l0-.13,0-.14a10.16,10.16,0,0,1,.65-1.08l.24-.36a8.72,8.72,0,0,1,.81-1.06h.26l1,.61L46,48.92a5,5,0,0,1,1,.75A3.07,3.07,0,0,1,46.58,51l-.16.28a9,9,0,0,1-.66,1.08l-.14,0Z"/><path class="cls-1" d="M1.5,31.65a1,1,0,0,0-1,1V53.37a1,1,0,0,0,1,1H4a1,1,0,0,0,1-1V32.65a1,1,0,0,0-1-1Zm2-7.13a1,1,0,0,0,.29,1.36L44.65,51.37A1,1,0,0,0,46,51l.15-.28a1.08,1.08,0,0,0-.36-1.41L5.17,23.86a1,1,0,0,0-1.4.3Z"/><path class="cls-1" d="M45.59,52.39h-.22l-.13,0a9,9,0,0,1-.66-1.08L44.42,51a5.83,5.83,0,0,1-.51-1.14c0-.15.6-.63,1.08-.91l6.37-3.72c.47-.28.94-.53,1-.57h.25a7.79,7.79,0,0,1,.79,1.08l.06.11a8.74,8.74,0,0,1,.63,1.1l0,.13,0,.13a12,12,0,0,1-1.05.7l-6.4,3.9C46.14,52.09,45.64,52.38,45.59,52.39Z"/><path class="cls-1" d="M45,51a1,1,0,0,0,1.34.35l6.4-3.91a1,1,0,0,0,.32-1.37L53,46a1.05,1.05,0,0,0-1.4-.35l-6.37,3.72a1,1,0,0,0-.38,1.38Z"/><path class="cls-1" d="M47.38,44.94a7.62,7.62,0,0,1-1.51,0,16.92,16.92,0,0,1-3.21-1.5L5.33,21A10.81,10.81,0,0,1,2.5,18.27l-.63-2.45a11,11,0,0,1,1.26-3.7L8.05,3.86A16.72,16.72,0,0,1,10.54.78,3.69,3.69,0,0,1,13,0a4.21,4.21,0,0,1,2.22.63c.16.1,17.71,10.81,52,31.94a.52.52,0,0,1,.24.43v.18a21.61,21.61,0,0,1-2,1.28l-14.8,9A17.05,17.05,0,0,1,47.38,44.94Zm-.64-4.34a14.46,14.46,0,0,0,1.89-1.06l9.08-5.7a1.14,1.14,0,0,0,0-2.1L14.58,5.46a2,2,0,0,0-2.73.68L6.92,14.41a2,2,0,0,0,.69,2.75L44.83,39.57A12.85,12.85,0,0,0,46.74,40.6Z"/><path class="cls-1" d="M16.61,2.09A10.74,10.74,0,0,0,12.91.84l-1.76.43A10.66,10.66,0,0,0,8.48,4.12L3.55,12.38a10.82,10.82,0,0,0-1.23,3.71l.42,1.76a11.18,11.18,0,0,0,2.85,2.68L42.89,43A13.64,13.64,0,0,0,46,44.36c.74.19,3.47-.8,4.41-1.37l14.8-9a1.12,1.12,0,0,0,0-2.09ZM48.77,40a9.53,9.53,0,0,1-2,1.06,9.27,9.27,0,0,1-2.05-1L7.39,17.61c-.94-.57-1.82-1.14-1.94-1.26a6.59,6.59,0,0,1,1-2.17L11.4,5.92A22.58,22.58,0,0,1,12.65,4a6.4,6.4,0,0,1,2.16,1L58.64,31.73a1.14,1.14,0,0,1,0,2.11Z"/></g></g></svg>