<?xml version="1.0" encoding="utf-8"?>
<!-- Generator: Adobe Illustrator 22.0.0, SVG Export Plug-In . SVG Version: 6.00 Build 0)  -->
<svg version="1.1" id="图层_1" xmlns="http://www.w3.org/2000/svg" xmlns:xlink="http://www.w3.org/1999/xlink" x="0px" y="0px"
	 viewBox="0 0 100 100" style="enable-background:new 0 0 100 100;" xml:space="preserve">
<style type="text/css">
	.st0{fill:url(#SVGID_1_);}
</style>
<linearGradient id="SVGID_1_" gradientUnits="userSpaceOnUse" x1="2.188" y1="50.5897" x2="100.9818" y2="50.5897">
	<stop  offset="0" style="stop-color:#2ECBFF"/>
	<stop  offset="0.9981" style="stop-color:#18FFF7"/>
</linearGradient>
<path class="st0" d="M5.7,40h42.3c7.8,0,14.1-6.3,14.1-14.1s-6.3-14.1-14.1-14.1c-7.8,0-14.1,6.3-14.1,14.1H41
	c0-3.9,3.2-7.1,7.1-7.1s7.1,3.2,7.1,7.1c0,3.9-3.2,7.1-7.1,7.1H5.7c-1.9,0-3.5,1.6-3.5,3.5C2.2,38.4,3.8,40,5.7,40z M83.3,61.2H5.7
	c-1.9,0-3.5,1.6-3.5,3.5c0,2,1.6,3.5,3.5,3.5h77.6c3.9,0,7.1,3.2,7.1,7.1c0,3.9-3.2,7.1-7.1,7.1c-3.9,0-7.1-3.2-7.1-7.1h-7.1
	c0,7.8,6.3,14.1,14.1,14.1s14.1-6.3,14.1-14.1S91.1,61.2,83.3,61.2z M5.7,54.1h77.6c9.7,0,17.6-7.9,17.6-17.6
	c0-9.7-7.9-17.6-17.6-17.6s-17.6,7.9-17.6,17.6c0,1.2,0.2,2.4,0.4,3.5h7.3c-0.4-1.1-0.6-2.3-0.6-3.5c0-5.8,4.7-10.6,10.6-10.6
	c5.8,0,10.6,4.7,10.6,10.6c0,5.5-4.3,10-9.7,10.5c-0.2,0-0.3,0.1-0.5,0.1l-78.1,0c-1.9,0-3.5,1.6-3.5,3.5
	C2.2,52.5,3.8,54.1,5.7,54.1z"/>
</svg>
