<?xml version="1.0" encoding="utf-8"?>
<!-- Generator: Adobe Illustrator 22.0.0, SVG Export Plug-In . SVG Version: 6.00 Build 0)  -->
<svg version="1.1" id="图层_1" xmlns="http://www.w3.org/2000/svg" xmlns:xlink="http://www.w3.org/1999/xlink" x="0px" y="0px"
	 viewBox="0 0 58 86" style="enable-background:new 0 0 58 86;" xml:space="preserve">
<style type="text/css">
	.st0{fill:#00F0C6;}
</style>
<path class="st0" d="M2.9,18.9l-0.4-3.4c-0.4-2.1,1.3-4.2,3.4-4.2l44.4-4.6c2.1-0.4,4.2,1.3,4.2,3.4l0.4,3.4L2.9,18.9z M12.1,8.5
	c-0.4-2.1,1.3-4.2,3.4-4.2L39,1.7C41,1.3,43.1,3,43.1,5.1v1.3l-31,3.4L12.1,8.5L12.1,8.5z M47.3,76.4c0,2.5-1.7,4.2-3.8,4.2H15.9
	c-2.1,0-3.8-1.7-3.8-3.8L5,21.4h49.5L47.3,76.4L47.3,76.4z M9.2,52.9h5.4v0.4c0,7.5,6.3,13.8,13.8,13.8c3.4,0,6.7-1.3,9.2-3.4
	c-7.5,2.1-15.1-2.1-17.2-9.2c0-0.4-0.4-0.8-0.4-1.7h6.3L18,44.5L9.2,52.9L9.2,52.9z M31,35.3c-3.4,0-6.7,1.3-9.2,3.4
	c7.5-2.1,15.1,2.1,17.2,9.2c0,0.4,0.4,0.8,0.4,1.7h-5.9l8.4,8.4l8.4-8.4h-5.4v-0.4C44.8,41.6,38.5,35.3,31,35.3z M13.8,81.8h31.9
	c0.4,0,0.8,0.4,0.8,0.8v2.5c0,0.4-0.4,0.8-0.8,0.8H13.8c-0.4,0-0.8-0.4-0.8-0.8v-2.5C13,81.8,13.4,81.8,13.8,81.8z"/>
</svg>
