<?xml version="1.0" encoding="utf-8"?>
<!-- Generator: Adobe Illustrator 22.0.0, SVG Export Plug-In . SVG Version: 6.00 Build 0)  -->
<svg version="1.1" id="图层_1" xmlns="http://www.w3.org/2000/svg" xmlns:xlink="http://www.w3.org/1999/xlink" x="0px" y="0px"
	 viewBox="0 0 58 86" style="enable-background:new 0 0 58 86;" xml:space="preserve">
<style type="text/css">
	.st0{fill:#00F0C6;}
</style>
<path class="st0" d="M60.1,26.9L55,15.8c-1.2-2.6-3.6-4.3-6.3-4.3H9.2c-2.6,0-5.1,1.7-6.3,4.3l-5.1,11.1c-2.8,7.2,1.4,15.7,8.4,16.4
	c3.9,0.4,7.7-1.7,9.9-5.3c0.7-1.2,2.1-1.5,3.2-0.7c0.2,0.2,0.5,0.4,0.6,0.7c2,3.2,5.3,5.3,9,5.3s7.1-2.1,9-5.3
	c0.7-1.2,2.1-1.5,3.2-0.7c0.2,0.2,0.5,0.4,0.6,0.7c2.2,3.6,6,5.7,9.9,5.3C58.8,42.7,62.9,34.2,60.1,26.9z M52.7,48.3
	c-0.6,0.1-1.3,0.1-1.9,0.1c-3.4,0-6.8-1.3-9.5-3.6c-0.8-0.7-2-0.7-2.9,0c-2.7,2.3-6,3.6-9.5,3.6c-3.4,0-6.8-1.3-9.5-3.6
	c-0.8-0.7-2-0.7-2.9,0c-3.2,2.8-7.3,4-11.4,3.5c-1.2-0.2-2.4,0.8-2.5,2.2c0,0.1,0,0.2,0,0.3V76c0,2.9,2,5.2,4.5,5.2h43.6
	c2.5,0,4.5-2.3,4.5-5.2V50.9C55.3,49.3,54.1,48.1,52.7,48.3z M43.3,67.6H14.7c-1.3,0-2.3-1.1-2.3-2.6c0-1.4,1-2.6,2.3-2.6h28.5
	c1.3,0,2.3,1.1,2.3,2.6C45.5,66.4,44.5,67.6,43.3,67.6z"/>
</svg>
