<?xml version="1.0" encoding="UTF-8"?>
<svg width="1920px" height="1080px" viewBox="0 0 1920 1080" version="1.1" xmlns="http://www.w3.org/2000/svg" xmlns:xlink="http://www.w3.org/1999/xlink">
    <!-- Generator: Sketch 56 (81588) - https://sketch.com -->
    <title>bg_line</title>
    <desc>Created with Sketch.</desc>
    <g id="页面-1" stroke="none" stroke-width="1" fill="none" fill-rule="evenodd" opacity="0.5" stroke-linecap="square">
        <g id="nbiot-网络监测中心省份">
            <g id="bg_line" transform="translate(0.000000, -27.000000)">
                <path d="M0,38 L1931.07299,38" id="直线" stroke="#002F5E"></path>
                <path d="M0,52 L1931.07299,52" id="直线备份" stroke="#002F5E"></path>
                <path d="M0,66 L1931.07299,66" id="直线备份-2" stroke="#002F5E"></path>
                <path d="M0,80 L1931.07299,80" id="直线备份-3" stroke="#002F5E"></path>
                <path d="M0,94 L1931.07299,94" id="直线备份-4" stroke="#002F5E"></path>
                <path d="M0,108 L1931.07299,108" id="直线备份-5" stroke="#002F5E"></path>
                <path d="M0,122 L1931.07299,122" id="直线备份-6" stroke="#002F5E"></path>
                <path d="M0,136 L1931.07299,136" id="直线备份-7" stroke="#002F5E"></path>
                <path d="M0,150 L1931.07299,150" id="直线备份-8" stroke="#002F5E"></path>
                <path d="M0,164 L1931.07299,164" id="直线备份-9" stroke="#002F5E"></path>
                <path d="M0,178 L1931.07299,178" id="直线备份-10" stroke="#002F5E"></path>
                <path d="M0,192 L1931.07299,192" id="直线备份-11" stroke="#002F5E"></path>
                <path d="M0,206 L1931.07299,206" id="直线备份-12" stroke="#002F5E"></path>
                <path d="M0,220 L1931.07299,220" id="直线备份-13" stroke="#002F5E"></path>
                <path d="M0,234 L1931.07299,234" id="直线备份-14" stroke="#002F5E"></path>
                <path d="M0,248 L1931.07299,248" id="直线备份-15" stroke="#002F5E"></path>
                <path d="M0,262 L1931.07299,262" id="直线备份-16" stroke="#002F5E"></path>
                <path d="M0,276 L1931.07299,276" id="直线备份-17" stroke="#002F5E"></path>
                <path d="M0,290 L1931.07299,290" id="直线备份-18" stroke="#002F5E"></path>
                <path d="M0,304 L1931.07299,304" id="直线备份-19" stroke="#002F5E"></path>
                <path d="M0,318 L1931.07299,318" id="直线备份-20" stroke="#002F5E"></path>
                <path d="M0,332 L1931.07299,332" id="直线备份-21" stroke="#002F5E"></path>
                <path d="M0,346 L1931.07299,346" id="直线备份-22" stroke="#002F5E"></path>
                <path d="M0,360 L1931.07299,360" id="直线备份-23" stroke="#002F5E"></path>
                <path d="M0,374 L1931.07299,374" id="直线备份-24" stroke="#002F5E"></path>
                <path d="M0,388 L1931.07299,388" id="直线备份-25" stroke="#002F5E"></path>
                <path d="M0,402 L1931.07299,402" id="直线备份-26" stroke="#002F5E"></path>
                <path d="M0,416 L1931.07299,416" id="直线备份-27" stroke="#002F5E"></path>
                <path d="M0,430 L1931.07299,430" id="直线备份-28" stroke="#002F5E"></path>
                <path d="M0,444 L1931.07299,444" id="直线备份-29" stroke="#002F5E"></path>
                <path d="M0,458 L1931.07299,458" id="直线备份-30" stroke="#002F5E"></path>
                <path d="M0,472 L1931.07299,472" id="直线备份-31" stroke="#002F5E"></path>
                <path d="M0,486 L1931.07299,486" id="直线备份-32" stroke="#002F5E"></path>
                <path d="M0,500 L1931.07299,500" id="直线备份-33" stroke="#002F5E"></path>
                <path d="M0,514 L1931.07299,514" id="直线备份-34" stroke="#002F5E"></path>
                <path d="M0,528 L1931.07299,528" id="直线备份-35" stroke="#002F5E"></path>
                <path d="M0,542 L1931.07299,542" id="直线备份-36" stroke="#002F5E"></path>
                <path d="M0,556 L1931.07299,556" id="直线备份-37" stroke="#002F5E"></path>
                <path d="M0,570 L1931.07299,570" id="直线备份-38" stroke="#002F5E"></path>
                <path d="M0,584 L1931.07299,584" id="直线备份-39" stroke="#002F5E"></path>
                <path d="M0,598 L1931.07299,598" id="直线备份-40" stroke="#002F5E"></path>
                <path d="M0,612 L1931.07299,612" id="直线备份-41" stroke="#002F5E"></path>
                <path d="M0,626 L1931.07299,626" id="直线备份-42" stroke="#002F5E"></path>
                <path d="M0,640 L1931.07299,640" id="直线备份-43" stroke="#002F5E"></path>
                <path d="M0,654 L1931.07299,654" id="直线备份-44" stroke="#002F5E"></path>
                <path d="M0,668 L1931.07299,668" id="直线备份-45" stroke="#002F5E"></path>
                <path d="M0,682 L1931.07299,682" id="直线备份-46" stroke="#002F5E"></path>
                <path d="M0,696 L1931.07299,696" id="直线备份-47" stroke="#002F5E"></path>
                <path d="M0,710 L1931.07299,710" id="直线备份-48" stroke="#002F5E"></path>
                <path d="M0,724 L1931.07299,724" id="直线备份-49" stroke="#002F5E"></path>
                <path d="M0,738 L1931.07299,738" id="直线备份-50" stroke="#002F5E"></path>
                <path d="M0,752 L1931.07299,752" id="直线备份-51" stroke="#002F5E"></path>
                <path d="M0,766 L1931.07299,766" id="直线备份-52" stroke="#002F5E"></path>
                <path d="M0,780 L1931.07299,780" id="直线备份-53" stroke="#002F5E"></path>
                <path d="M0,794 L1931.07299,794" id="直线备份-54" stroke="#002F5E"></path>
                <path d="M0,808 L1931.07299,808" id="直线备份-55" stroke="#002F5E"></path>
                <path d="M0,822 L1931.07299,822" id="直线备份-56" stroke="#002F5E"></path>
                <path d="M0,836 L1931.07299,836" id="直线备份-57" stroke="#002F5E"></path>
                <path d="M0,850 L1931.07299,850" id="直线备份-58" stroke="#002F5E"></path>
                <path d="M0,864 L1931.07299,864" id="直线备份-59" stroke="#002F5E"></path>
                <path d="M0,878 L1931.07299,878" id="直线备份-60" stroke="#002F5E"></path>
                <path d="M0,892 L1931.07299,892" id="直线备份-61" stroke="#002F5E"></path>
                <path d="M0,906 L1931.07299,906" id="直线备份-62" stroke="#002F5E"></path>
                <path d="M0,920 L1931.07299,920" id="直线备份-63" stroke="#002F5E"></path>
                <path d="M0,934 L1931.07299,934" id="直线备份-64" stroke="#002F5E"></path>
                <path d="M0,948 L1931.07299,948" id="直线备份-65" stroke="#002F5E"></path>
                <path d="M0,962 L1931.07299,962" id="直线备份-66" stroke="#002F5E"></path>
                <path d="M0,976 L1931.07299,976" id="直线备份-67" stroke="#002F5E"></path>
                <path d="M0,990 L1931.07299,990" id="直线备份-68" stroke="#002F5E"></path>
                <path d="M0,1004 L1931.07299,1004" id="直线备份-69" stroke="#002F5E"></path>
                <path d="M0,1018 L1931.07299,1018" id="直线备份-70" stroke="#002F5E"></path>
                <path d="M0,1032 L1931.07299,1032" id="直线备份-71" stroke="#002F5E"></path>
                <path d="M0,1046 L1931.07299,1046" id="直线备份-72" stroke="#002F5E"></path>
                <path d="M0,1060 L1931.07299,1060" id="直线备份-73" stroke="#002F5E"></path>
                <path d="M0,1074 L1931.07299,1074" id="直线备份-74" stroke="#002F5E"></path>
                <path d="M0,1088 L1931.07299,1088" id="直线备份-75" stroke="#002F5E"></path>
                <path d="M0,1102 L1931.07299,1102" id="直线备份-76" stroke="#002F5E"></path>
                <path d="M-558,572 L585.45109,572" id="直线" stroke="#002F5E" transform="translate(14.000000, 572.000000) rotate(-90.000000) translate(-14.000000, -572.000000) "></path>
                <path d="M-544,572 L599.45109,572" id="直线备份" stroke="#002F5E" transform="translate(28.000000, 572.000000) rotate(-90.000000) translate(-28.000000, -572.000000) "></path>
                <path d="M-530,572 L613.45109,572" id="直线备份-2" stroke="#002F5E" transform="translate(42.000000, 572.000000) rotate(-90.000000) translate(-42.000000, -572.000000) "></path>
                <path d="M-516,572 L627.45109,572" id="直线备份-3" stroke="#002F5E" transform="translate(56.000000, 572.000000) rotate(-90.000000) translate(-56.000000, -572.000000) "></path>
                <path d="M-502,572 L641.45109,572" id="直线备份-4" stroke="#002F5E" transform="translate(70.000000, 572.000000) rotate(-90.000000) translate(-70.000000, -572.000000) "></path>
                <path d="M-488,572 L655.45109,572" id="直线备份-5" stroke="#002F5E" transform="translate(84.000000, 572.000000) rotate(-90.000000) translate(-84.000000, -572.000000) "></path>
                <path d="M-474,572 L669.45109,572" id="直线备份-6" stroke="#002F5E" transform="translate(98.000000, 572.000000) rotate(-90.000000) translate(-98.000000, -572.000000) "></path>
                <path d="M-460,572 L683.45109,572" id="直线备份-7" stroke="#002F5E" transform="translate(112.000000, 572.000000) rotate(-90.000000) translate(-112.000000, -572.000000) "></path>
                <path d="M-446,572 L697.45109,572" id="直线备份-8" stroke="#002F5E" transform="translate(126.000000, 572.000000) rotate(-90.000000) translate(-126.000000, -572.000000) "></path>
                <path d="M-432,572 L711.45109,572" id="直线备份-9" stroke="#002F5E" transform="translate(140.000000, 572.000000) rotate(-90.000000) translate(-140.000000, -572.000000) "></path>
                <path d="M-418,572 L725.45109,572" id="直线备份-10" stroke="#002F5E" transform="translate(154.000000, 572.000000) rotate(-90.000000) translate(-154.000000, -572.000000) "></path>
                <path d="M-404,572 L739.45109,572" id="直线备份-11" stroke="#002F5E" transform="translate(168.000000, 572.000000) rotate(-90.000000) translate(-168.000000, -572.000000) "></path>
                <path d="M-390,572 L753.45109,572" id="直线备份-12" stroke="#002F5E" transform="translate(182.000000, 572.000000) rotate(-90.000000) translate(-182.000000, -572.000000) "></path>
                <path d="M-376,572 L767.45109,572" id="直线备份-13" stroke="#002F5E" transform="translate(196.000000, 572.000000) rotate(-90.000000) translate(-196.000000, -572.000000) "></path>
                <path d="M-362,572 L781.45109,572" id="直线备份-14" stroke="#002F5E" transform="translate(210.000000, 572.000000) rotate(-90.000000) translate(-210.000000, -572.000000) "></path>
                <path d="M-348,572 L795.45109,572" id="直线备份-15" stroke="#002F5E" transform="translate(224.000000, 572.000000) rotate(-90.000000) translate(-224.000000, -572.000000) "></path>
                <path d="M-334,572 L809.45109,572" id="直线备份-16" stroke="#002F5E" transform="translate(238.000000, 572.000000) rotate(-90.000000) translate(-238.000000, -572.000000) "></path>
                <path d="M-320,572 L823.45109,572" id="直线备份-17" stroke="#002F5E" transform="translate(252.000000, 572.000000) rotate(-90.000000) translate(-252.000000, -572.000000) "></path>
                <path d="M-306,572 L837.45109,572" id="直线备份-18" stroke="#002F5E" transform="translate(266.000000, 572.000000) rotate(-90.000000) translate(-266.000000, -572.000000) "></path>
                <path d="M-292,572 L851.45109,572" id="直线备份-19" stroke="#002F5E" transform="translate(280.000000, 572.000000) rotate(-90.000000) translate(-280.000000, -572.000000) "></path>
                <path d="M-278,572 L865.45109,572" id="直线备份-20" stroke="#002F5E" transform="translate(294.000000, 572.000000) rotate(-90.000000) translate(-294.000000, -572.000000) "></path>
                <path d="M-264,572 L879.45109,572" id="直线备份-21" stroke="#002F5E" transform="translate(308.000000, 572.000000) rotate(-90.000000) translate(-308.000000, -572.000000) "></path>
                <path d="M-250,572 L893.45109,572" id="直线备份-22" stroke="#002F5E" transform="translate(322.000000, 572.000000) rotate(-90.000000) translate(-322.000000, -572.000000) "></path>
                <path d="M-236,572 L907.45109,572" id="直线备份-23" stroke="#002F5E" transform="translate(336.000000, 572.000000) rotate(-90.000000) translate(-336.000000, -572.000000) "></path>
                <path d="M-222,572 L921.45109,572" id="直线备份-24" stroke="#002F5E" transform="translate(350.000000, 572.000000) rotate(-90.000000) translate(-350.000000, -572.000000) "></path>
                <path d="M-208,572 L935.45109,572" id="直线备份-25" stroke="#002F5E" transform="translate(364.000000, 572.000000) rotate(-90.000000) translate(-364.000000, -572.000000) "></path>
                <path d="M-194,572 L949.45109,572" id="直线备份-26" stroke="#002F5E" transform="translate(378.000000, 572.000000) rotate(-90.000000) translate(-378.000000, -572.000000) "></path>
                <path d="M-180,572 L963.45109,572" id="直线备份-27" stroke="#002F5E" transform="translate(392.000000, 572.000000) rotate(-90.000000) translate(-392.000000, -572.000000) "></path>
                <path d="M-166,572 L977.45109,572" id="直线备份-28" stroke="#002F5E" transform="translate(406.000000, 572.000000) rotate(-90.000000) translate(-406.000000, -572.000000) "></path>
                <path d="M-152,572 L991.45109,572" id="直线备份-29" stroke="#002F5E" transform="translate(420.000000, 572.000000) rotate(-90.000000) translate(-420.000000, -572.000000) "></path>
                <path d="M-138,572 L1005.45109,572" id="直线备份-30" stroke="#002F5E" transform="translate(434.000000, 572.000000) rotate(-90.000000) translate(-434.000000, -572.000000) "></path>
                <path d="M-124,572 L1019.45109,572" id="直线备份-31" stroke="#002F5E" transform="translate(448.000000, 572.000000) rotate(-90.000000) translate(-448.000000, -572.000000) "></path>
                <path d="M-110,572 L1033.45109,572" id="直线备份-32" stroke="#002F5E" transform="translate(462.000000, 572.000000) rotate(-90.000000) translate(-462.000000, -572.000000) "></path>
                <path d="M-96,572 L1047.45109,572" id="直线备份-33" stroke="#002F5E" transform="translate(476.000000, 572.000000) rotate(-90.000000) translate(-476.000000, -572.000000) "></path>
                <path d="M-82,572 L1061.45109,572" id="直线备份-34" stroke="#002F5E" transform="translate(490.000000, 572.000000) rotate(-90.000000) translate(-490.000000, -572.000000) "></path>
                <path d="M-68,572 L1075.45109,572" id="直线备份-35" stroke="#002F5E" transform="translate(504.000000, 572.000000) rotate(-90.000000) translate(-504.000000, -572.000000) "></path>
                <path d="M-54,572 L1089.45109,572" id="直线备份-36" stroke="#002F5E" transform="translate(518.000000, 572.000000) rotate(-90.000000) translate(-518.000000, -572.000000) "></path>
                <path d="M-40,572 L1103.45109,572" id="直线备份-37" stroke="#002F5E" transform="translate(532.000000, 572.000000) rotate(-90.000000) translate(-532.000000, -572.000000) "></path>
                <path d="M-26,572 L1117.45109,572" id="直线备份-38" stroke="#002F5E" transform="translate(546.000000, 572.000000) rotate(-90.000000) translate(-546.000000, -572.000000) "></path>
                <path d="M-12,572 L1131.45109,572" id="直线备份-39" stroke="#002F5E" transform="translate(560.000000, 572.000000) rotate(-90.000000) translate(-560.000000, -572.000000) "></path>
                <path d="M2,572 L1145.45109,572" id="直线备份-40" stroke="#002F5E" transform="translate(574.000000, 572.000000) rotate(-90.000000) translate(-574.000000, -572.000000) "></path>
                <path d="M16,572 L1159.45109,572" id="直线备份-41" stroke="#002F5E" transform="translate(588.000000, 572.000000) rotate(-90.000000) translate(-588.000000, -572.000000) "></path>
                <path d="M30,572 L1173.45109,572" id="直线备份-42" stroke="#002F5E" transform="translate(602.000000, 572.000000) rotate(-90.000000) translate(-602.000000, -572.000000) "></path>
                <path d="M44,572 L1187.45109,572" id="直线备份-43" stroke="#002F5E" transform="translate(616.000000, 572.000000) rotate(-90.000000) translate(-616.000000, -572.000000) "></path>
                <path d="M58,572 L1201.45109,572" id="直线备份-44" stroke="#002F5E" transform="translate(630.000000, 572.000000) rotate(-90.000000) translate(-630.000000, -572.000000) "></path>
                <path d="M72,572 L1215.45109,572" id="直线备份-45" stroke="#002F5E" transform="translate(644.000000, 572.000000) rotate(-90.000000) translate(-644.000000, -572.000000) "></path>
                <path d="M86,572 L1229.45109,572" id="直线备份-46" stroke="#002F5E" transform="translate(658.000000, 572.000000) rotate(-90.000000) translate(-658.000000, -572.000000) "></path>
                <path d="M100,572 L1243.45109,572" id="直线备份-47" stroke="#002F5E" transform="translate(672.000000, 572.000000) rotate(-90.000000) translate(-672.000000, -572.000000) "></path>
                <path d="M114,572 L1257.45109,572" id="直线备份-48" stroke="#002F5E" transform="translate(686.000000, 572.000000) rotate(-90.000000) translate(-686.000000, -572.000000) "></path>
                <path d="M128,572 L1271.45109,572" id="直线备份-49" stroke="#002F5E" transform="translate(700.000000, 572.000000) rotate(-90.000000) translate(-700.000000, -572.000000) "></path>
                <path d="M142,572 L1285.45109,572" id="直线备份-50" stroke="#002F5E" transform="translate(714.000000, 572.000000) rotate(-90.000000) translate(-714.000000, -572.000000) "></path>
                <path d="M156,572 L1299.45109,572" id="直线备份-51" stroke="#002F5E" transform="translate(728.000000, 572.000000) rotate(-90.000000) translate(-728.000000, -572.000000) "></path>
                <path d="M170,572 L1313.45109,572" id="直线备份-52" stroke="#002F5E" transform="translate(742.000000, 572.000000) rotate(-90.000000) translate(-742.000000, -572.000000) "></path>
                <path d="M184,572 L1327.45109,572" id="直线备份-53" stroke="#002F5E" transform="translate(756.000000, 572.000000) rotate(-90.000000) translate(-756.000000, -572.000000) "></path>
                <path d="M198,572 L1341.45109,572" id="直线备份-54" stroke="#002F5E" transform="translate(770.000000, 572.000000) rotate(-90.000000) translate(-770.000000, -572.000000) "></path>
                <path d="M212,572 L1355.45109,572" id="直线备份-55" stroke="#002F5E" transform="translate(784.000000, 572.000000) rotate(-90.000000) translate(-784.000000, -572.000000) "></path>
                <path d="M226,572 L1369.45109,572" id="直线备份-56" stroke="#002F5E" transform="translate(798.000000, 572.000000) rotate(-90.000000) translate(-798.000000, -572.000000) "></path>
                <path d="M240,572 L1383.45109,572" id="直线备份-57" stroke="#002F5E" transform="translate(812.000000, 572.000000) rotate(-90.000000) translate(-812.000000, -572.000000) "></path>
                <path d="M254,572 L1397.45109,572" id="直线备份-58" stroke="#002F5E" transform="translate(826.000000, 572.000000) rotate(-90.000000) translate(-826.000000, -572.000000) "></path>
                <path d="M268,572 L1411.45109,572" id="直线备份-59" stroke="#002F5E" transform="translate(840.000000, 572.000000) rotate(-90.000000) translate(-840.000000, -572.000000) "></path>
                <path d="M282,572 L1425.45109,572" id="直线备份-60" stroke="#002F5E" transform="translate(854.000000, 572.000000) rotate(-90.000000) translate(-854.000000, -572.000000) "></path>
                <path d="M296,572 L1439.45109,572" id="直线备份-61" stroke="#002F5E" transform="translate(868.000000, 572.000000) rotate(-90.000000) translate(-868.000000, -572.000000) "></path>
                <path d="M310,572 L1453.45109,572" id="直线备份-62" stroke="#002F5E" transform="translate(882.000000, 572.000000) rotate(-90.000000) translate(-882.000000, -572.000000) "></path>
                <path d="M324,572 L1467.45109,572" id="直线备份-63" stroke="#002F5E" transform="translate(896.000000, 572.000000) rotate(-90.000000) translate(-896.000000, -572.000000) "></path>
                <path d="M338,572 L1481.45109,572" id="直线备份-64" stroke="#002F5E" transform="translate(910.000000, 572.000000) rotate(-90.000000) translate(-910.000000, -572.000000) "></path>
                <path d="M352,572 L1495.45109,572" id="直线备份-65" stroke="#002F5E" transform="translate(924.000000, 572.000000) rotate(-90.000000) translate(-924.000000, -572.000000) "></path>
                <path d="M366,572 L1509.45109,572" id="直线备份-66" stroke="#002F5E" transform="translate(938.000000, 572.000000) rotate(-90.000000) translate(-938.000000, -572.000000) "></path>
                <path d="M380,572 L1523.45109,572" id="直线备份-67" stroke="#002F5E" transform="translate(952.000000, 572.000000) rotate(-90.000000) translate(-952.000000, -572.000000) "></path>
                <path d="M394,572 L1537.45109,572" id="直线备份-68" stroke="#002F5E" transform="translate(966.000000, 572.000000) rotate(-90.000000) translate(-966.000000, -572.000000) "></path>
                <path d="M408,572 L1551.45109,572" id="直线备份-69" stroke="#002F5E" transform="translate(980.000000, 572.000000) rotate(-90.000000) translate(-980.000000, -572.000000) "></path>
                <path d="M422,572 L1565.45109,572" id="直线备份-70" stroke="#002F5E" transform="translate(994.000000, 572.000000) rotate(-90.000000) translate(-994.000000, -572.000000) "></path>
                <path d="M436,572 L1579.45109,572" id="直线备份-71" stroke="#002F5E" transform="translate(1008.000000, 572.000000) rotate(-90.000000) translate(-1008.000000, -572.000000) "></path>
                <path d="M450,572 L1593.45109,572" id="直线备份-72" stroke="#002F5E" transform="translate(1022.000000, 572.000000) rotate(-90.000000) translate(-1022.000000, -572.000000) "></path>
                <path d="M464,572 L1607.45109,572" id="直线备份-73" stroke="#002F5E" transform="translate(1036.000000, 572.000000) rotate(-90.000000) translate(-1036.000000, -572.000000) "></path>
                <path d="M478,572 L1621.45109,572" id="直线备份-74" stroke="#002F5E" transform="translate(1050.000000, 572.000000) rotate(-90.000000) translate(-1050.000000, -572.000000) "></path>
                <path d="M492,572 L1635.45109,572" id="直线备份-75" stroke="#002F5E" transform="translate(1064.000000, 572.000000) rotate(-90.000000) translate(-1064.000000, -572.000000) "></path>
                <path d="M506,572 L1649.45109,572" id="直线备份-76" stroke="#002F5E" transform="translate(1078.000000, 572.000000) rotate(-90.000000) translate(-1078.000000, -572.000000) "></path>
                <path d="M520,572 L1663.45109,572" id="直线备份-77" stroke="#002F5E" transform="translate(1092.000000, 572.000000) rotate(-90.000000) translate(-1092.000000, -572.000000) "></path>
                <path d="M534,572 L1677.45109,572" id="直线备份-78" stroke="#002F5E" transform="translate(1106.000000, 572.000000) rotate(-90.000000) translate(-1106.000000, -572.000000) "></path>
                <path d="M547.725545,572 L1691.17663,572" id="直线备份-79" stroke="#002F5E" transform="translate(1119.725545, 572.000000) rotate(-90.000000) translate(-1119.725545, -572.000000) "></path>
                <path d="M1692.25,571.279129 L574.75,571.279129" id="直线-3" stroke="#032D63" transform="translate(1133.750000, 571.000000) rotate(-90.000000) translate(-1133.750000, -571.000000) "></path>
                <path d="M1706.25,571.279129 L588.75,571.279129" id="直线-3备份" stroke="#032D63" transform="translate(1147.750000, 571.000000) rotate(-90.000000) translate(-1147.750000, -571.000000) "></path>
                <path d="M1720.25,571.279129 L602.75,571.279129" id="直线-3备份-2" stroke="#032D63" transform="translate(1161.750000, 571.000000) rotate(-90.000000) translate(-1161.750000, -571.000000) "></path>
                <path d="M1734.25,571.279129 L616.75,571.279129" id="直线-3备份-3" stroke="#032D63" transform="translate(1175.750000, 571.000000) rotate(-90.000000) translate(-1175.750000, -571.000000) "></path>
                <path d="M1748.25,571.279129 L630.75,571.279129" id="直线-3备份-4" stroke="#032D63" transform="translate(1189.750000, 571.000000) rotate(-90.000000) translate(-1189.750000, -571.000000) "></path>
                <path d="M1762.25,571.279129 L644.75,571.279129" id="直线-3备份-5" stroke="#032D63" transform="translate(1203.750000, 571.000000) rotate(-90.000000) translate(-1203.750000, -571.000000) "></path>
                <path d="M1776.25,571.279129 L658.75,571.279129" id="直线-3备份-6" stroke="#032D63" transform="translate(1217.750000, 571.000000) rotate(-90.000000) translate(-1217.750000, -571.000000) "></path>
                <path d="M1790.25,571.279129 L672.75,571.279129" id="直线-3备份-7" stroke="#032D63" transform="translate(1231.750000, 571.000000) rotate(-90.000000) translate(-1231.750000, -571.000000) "></path>
                <path d="M1804.25,571.279129 L686.75,571.279129" id="直线-3备份-8" stroke="#032D63" transform="translate(1245.750000, 571.000000) rotate(-90.000000) translate(-1245.750000, -571.000000) "></path>
                <path d="M1818.25,571.279129 L700.75,571.279129" id="直线-3备份-9" stroke="#032D63" transform="translate(1259.750000, 571.000000) rotate(-90.000000) translate(-1259.750000, -571.000000) "></path>
                <path d="M1832.25,571.279129 L714.75,571.279129" id="直线-3备份-10" stroke="#032D63" transform="translate(1273.750000, 571.000000) rotate(-90.000000) translate(-1273.750000, -571.000000) "></path>
                <path d="M1846.25,571.279129 L728.75,571.279129" id="直线-3备份-11" stroke="#032D63" transform="translate(1287.750000, 571.000000) rotate(-90.000000) translate(-1287.750000, -571.000000) "></path>
                <path d="M1860.25,571.279129 L742.75,571.279129" id="直线-3备份-12" stroke="#032D63" transform="translate(1301.750000, 571.000000) rotate(-90.000000) translate(-1301.750000, -571.000000) "></path>
                <path d="M1874.25,571.279129 L756.75,571.279129" id="直线-3备份-13" stroke="#032D63" transform="translate(1315.750000, 571.000000) rotate(-90.000000) translate(-1315.750000, -571.000000) "></path>
                <path d="M1888.25,571.279129 L770.75,571.279129" id="直线-3备份-14" stroke="#032D63" transform="translate(1329.750000, 571.000000) rotate(-90.000000) translate(-1329.750000, -571.000000) "></path>
                <path d="M1902.25,571.279129 L784.75,571.279129" id="直线-3备份-15" stroke="#032D63" transform="translate(1343.750000, 571.000000) rotate(-90.000000) translate(-1343.750000, -571.000000) "></path>
                <path d="M1916.25,571.279129 L798.75,571.279129" id="直线-3备份-16" stroke="#032D63" transform="translate(1357.750000, 571.000000) rotate(-90.000000) translate(-1357.750000, -571.000000) "></path>
                <path d="M1930.25,571.279129 L812.75,571.279129" id="直线-3备份-17" stroke="#032D63" transform="translate(1371.750000, 571.000000) rotate(-90.000000) translate(-1371.750000, -571.000000) "></path>
                <path d="M1944.25,571.279129 L826.75,571.279129" id="直线-3备份-18" stroke="#032D63" transform="translate(1385.750000, 571.000000) rotate(-90.000000) translate(-1385.750000, -571.000000) "></path>
                <path d="M1958.25,571.279129 L840.75,571.279129" id="直线-3备份-19" stroke="#032D63" transform="translate(1399.750000, 571.000000) rotate(-90.000000) translate(-1399.750000, -571.000000) "></path>
                <path d="M1972.25,571.279129 L854.75,571.279129" id="直线-3备份-20" stroke="#032D63" transform="translate(1413.750000, 571.000000) rotate(-90.000000) translate(-1413.750000, -571.000000) "></path>
                <path d="M1986.25,571.279129 L868.75,571.279129" id="直线-3备份-21" stroke="#032D63" transform="translate(1427.750000, 571.000000) rotate(-90.000000) translate(-1427.750000, -571.000000) "></path>
                <path d="M2000.25,571.279129 L882.75,571.279129" id="直线-3备份-22" stroke="#032D63" transform="translate(1441.750000, 571.000000) rotate(-90.000000) translate(-1441.750000, -571.000000) "></path>
                <path d="M2014.25,571.279129 L896.75,571.279129" id="直线-3备份-23" stroke="#032D63" transform="translate(1455.750000, 571.000000) rotate(-90.000000) translate(-1455.750000, -571.000000) "></path>
                <path d="M2028.25,571.279129 L910.75,571.279129" id="直线-3备份-24" stroke="#032D63" transform="translate(1469.750000, 571.000000) rotate(-90.000000) translate(-1469.750000, -571.000000) "></path>
                <path d="M2042.25,571.279129 L924.75,571.279129" id="直线-3备份-25" stroke="#032D63" transform="translate(1483.750000, 571.000000) rotate(-90.000000) translate(-1483.750000, -571.000000) "></path>
                <path d="M2056.25,571.279129 L938.75,571.279129" id="直线-3备份-26" stroke="#032D63" transform="translate(1497.750000, 571.000000) rotate(-90.000000) translate(-1497.750000, -571.000000) "></path>
                <path d="M2070.25,571.279129 L952.75,571.279129" id="直线-3备份-27" stroke="#032D63" transform="translate(1511.750000, 571.000000) rotate(-90.000000) translate(-1511.750000, -571.000000) "></path>
                <path d="M2084.25,571.279129 L966.75,571.279129" id="直线-3备份-28" stroke="#032D63" transform="translate(1525.750000, 571.000000) rotate(-90.000000) translate(-1525.750000, -571.000000) "></path>
                <path d="M2098.25,571.279129 L980.75,571.279129" id="直线-3备份-29" stroke="#032D63" transform="translate(1539.750000, 571.000000) rotate(-90.000000) translate(-1539.750000, -571.000000) "></path>
                <path d="M2112.25,571.279129 L994.75,571.279129" id="直线-3备份-30" stroke="#032D63" transform="translate(1553.750000, 571.000000) rotate(-90.000000) translate(-1553.750000, -571.000000) "></path>
                <path d="M2126.25,571.279129 L1008.75,571.279129" id="直线-3备份-31" stroke="#032D63" transform="translate(1567.750000, 571.000000) rotate(-90.000000) translate(-1567.750000, -571.000000) "></path>
                <path d="M2140.25,571.279129 L1022.75,571.279129" id="直线-3备份-32" stroke="#032D63" transform="translate(1581.750000, 571.000000) rotate(-90.000000) translate(-1581.750000, -571.000000) "></path>
                <path d="M2154.25,571.279129 L1036.75,571.279129" id="直线-3备份-33" stroke="#032D63" transform="translate(1595.750000, 571.000000) rotate(-90.000000) translate(-1595.750000, -571.000000) "></path>
                <path d="M2168.25,571.279129 L1050.75,571.279129" id="直线-3备份-34" stroke="#032D63" transform="translate(1609.750000, 571.000000) rotate(-90.000000) translate(-1609.750000, -571.000000) "></path>
                <path d="M2182.25,571.279129 L1064.75,571.279129" id="直线-3备份-35" stroke="#032D63" transform="translate(1623.750000, 571.000000) rotate(-90.000000) translate(-1623.750000, -571.000000) "></path>
                <path d="M2196.25,571.279129 L1078.75,571.279129" id="直线-3备份-36" stroke="#032D63" transform="translate(1637.750000, 571.000000) rotate(-90.000000) translate(-1637.750000, -571.000000) "></path>
                <path d="M2210.25,571.279129 L1092.75,571.279129" id="直线-3备份-37" stroke="#032D63" transform="translate(1651.750000, 571.000000) rotate(-90.000000) translate(-1651.750000, -571.000000) "></path>
                <path d="M2224.25,571.279129 L1106.75,571.279129" id="直线-3备份-38" stroke="#032D63" transform="translate(1665.750000, 571.000000) rotate(-90.000000) translate(-1665.750000, -571.000000) "></path>
                <path d="M2238.25,571.279129 L1120.75,571.279129" id="直线-3备份-39" stroke="#032D63" transform="translate(1679.750000, 571.000000) rotate(-90.000000) translate(-1679.750000, -571.000000) "></path>
                <path d="M2252.25,571.279129 L1134.75,571.279129" id="直线-3备份-40" stroke="#032D63" transform="translate(1693.750000, 571.000000) rotate(-90.000000) translate(-1693.750000, -571.000000) "></path>
                <path d="M2266.25,571.279129 L1148.75,571.279129" id="直线-3备份-41" stroke="#032D63" transform="translate(1707.750000, 571.000000) rotate(-90.000000) translate(-1707.750000, -571.000000) "></path>
                <path d="M2280.25,571.279129 L1162.75,571.279129" id="直线-3备份-42" stroke="#032D63" transform="translate(1721.750000, 571.000000) rotate(-90.000000) translate(-1721.750000, -571.000000) "></path>
                <path d="M2294.25,571.279129 L1176.75,571.279129" id="直线-3备份-43" stroke="#032D63" transform="translate(1735.750000, 571.000000) rotate(-90.000000) translate(-1735.750000, -571.000000) "></path>
                <path d="M2308.25,571.279129 L1190.75,571.279129" id="直线-3备份-44" stroke="#032D63" transform="translate(1749.750000, 571.000000) rotate(-90.000000) translate(-1749.750000, -571.000000) "></path>
                <path d="M2322.25,571.279129 L1204.75,571.279129" id="直线-3备份-45" stroke="#032D63" transform="translate(1763.750000, 571.000000) rotate(-90.000000) translate(-1763.750000, -571.000000) "></path>
                <path d="M2336.25,571.279129 L1218.75,571.279129" id="直线-3备份-46" stroke="#032D63" transform="translate(1777.750000, 571.000000) rotate(-90.000000) translate(-1777.750000, -571.000000) "></path>
                <path d="M2350.25,571.279129 L1232.75,571.279129" id="直线-3备份-47" stroke="#032D63" transform="translate(1791.750000, 571.000000) rotate(-90.000000) translate(-1791.750000, -571.000000) "></path>
                <path d="M2364.25,571.279129 L1246.75,571.279129" id="直线-3备份-48" stroke="#032D63" transform="translate(1805.750000, 571.000000) rotate(-90.000000) translate(-1805.750000, -571.000000) "></path>
                <path d="M2378.25,571.279129 L1260.75,571.279129" id="直线-3备份-49" stroke="#032D63" transform="translate(1819.750000, 571.000000) rotate(-90.000000) translate(-1819.750000, -571.000000) "></path>
                <path d="M2392.25,571.279129 L1274.75,571.279129" id="直线-3备份-50" stroke="#032D63" transform="translate(1833.750000, 571.000000) rotate(-90.000000) translate(-1833.750000, -571.000000) "></path>
                <path d="M2406.25,571.279129 L1288.75,571.279129" id="直线-3备份-51" stroke="#032D63" transform="translate(1847.750000, 571.000000) rotate(-90.000000) translate(-1847.750000, -571.000000) "></path>
                <path d="M2420.25,571.279129 L1302.75,571.279129" id="直线-3备份-52" stroke="#032D63" transform="translate(1861.750000, 571.000000) rotate(-90.000000) translate(-1861.750000, -571.000000) "></path>
                <path d="M2434.25,571.279129 L1316.75,571.279129" id="直线-3备份-53" stroke="#032D63" transform="translate(1875.750000, 571.000000) rotate(-90.000000) translate(-1875.750000, -571.000000) "></path>
                <path d="M2448.25,571.279129 L1330.75,571.279129" id="直线-3备份-54" stroke="#032D63" transform="translate(1889.750000, 571.000000) rotate(-90.000000) translate(-1889.750000, -571.000000) "></path>
                <path d="M2462.25,571.279129 L1344.75,571.279129" id="直线-3备份-55" stroke="#032D63" transform="translate(1903.750000, 571.000000) rotate(-90.000000) translate(-1903.750000, -571.000000) "></path>
                <path d="M2476.25,571.279129 L1358.75,571.279129" id="直线-3备份-56" stroke="#032D63" transform="translate(1917.750000, 571.000000) rotate(-90.000000) translate(-1917.750000, -571.000000) "></path>
            </g>
        </g>
    </g>
</svg>