<?xml version="1.0" encoding="UTF-8"?>
<svg width="216px" height="4px" viewBox="0 0 216 4" version="1.1" xmlns="http://www.w3.org/2000/svg" xmlns:xlink="http://www.w3.org/1999/xlink">
    <!-- Generator: Sketch 57.1 (83088) - https://sketch.com -->
    <title>形状结合</title>
    <desc>Created with Sketch.</desc>
    <g id="页面-1" stroke="none" stroke-width="1" fill="none" fill-rule="evenodd" opacity="0.24">
        <g id="1014" transform="translate(-859.000000, -693.000000)" fill="#1EDBF7">
            <g id="编组" transform="translate(800.632812, 462.000000)">
                <path d="M64.3671875,231 L60.3671875,235 L58.3671875,235 L62.3671875,231 L64.3671875,231 Z M70.3671875,231 L66.3671875,235 L64.3671875,235 L68.3671875,231 L70.3671875,231 Z M76.3671875,231 L72.3671875,235 L70.3671875,235 L74.3671875,231 L76.3671875,231 Z M82.3671875,231 L78.3671875,235 L76.3671875,235 L80.3671875,231 L82.3671875,231 Z M88.3671875,231 L84.3671875,235 L82.3671875,235 L86.3671875,231 L88.3671875,231 Z M94.3671875,231 L90.3671875,235 L88.3671875,235 L92.3671875,231 L94.3671875,231 Z M100.367188,231 L96.3671875,235 L94.3671875,235 L98.3671875,231 L100.367188,231 Z M106.367188,231 L102.367188,235 L100.367188,235 L104.367188,231 L106.367188,231 Z M112.367188,231 L108.367188,235 L106.367188,235 L110.367188,231 L112.367188,231 Z M118.367188,231 L114.367188,235 L112.367188,235 L116.367188,231 L118.367188,231 Z M124.367188,231 L120.367188,235 L118.367188,235 L122.367188,231 L124.367188,231 Z M130.367188,231 L126.367188,235 L124.367188,235 L128.367188,231 L130.367188,231 Z M136.367188,231 L132.367188,235 L130.367188,235 L134.367188,231 L136.367188,231 Z M142.367188,231 L138.367188,235 L136.367188,235 L140.367188,231 L142.367188,231 Z M148.367188,231 L144.367188,235 L142.367188,235 L146.367188,231 L148.367188,231 Z M154.367188,231 L150.367188,235 L148.367188,235 L152.367188,231 L154.367188,231 Z M160.367188,231 L156.367188,235 L154.367188,235 L158.367188,231 L160.367188,231 Z M166.367188,231 L162.367188,235 L160.367188,235 L164.367188,231 L166.367188,231 Z M172.367188,231 L168.367188,235 L166.367188,235 L170.367188,231 L172.367188,231 Z M178.367188,231 L174.367188,235 L172.367188,235 L176.367188,231 L178.367188,231 Z M184.367188,231 L180.367188,235 L178.367188,235 L182.367188,231 L184.367188,231 Z M190.367188,231 L186.367188,235 L184.367188,235 L188.367188,231 L190.367188,231 Z M196.367188,231 L192.367188,235 L190.367188,235 L194.367188,231 L196.367188,231 Z M202.367188,231 L198.367188,235 L196.367188,235 L200.367188,231 L202.367188,231 Z M208.367188,231 L204.367188,235 L202.367188,235 L206.367188,231 L208.367188,231 Z M214.367188,231 L210.367188,235 L208.367188,235 L212.367188,231 L214.367188,231 Z M220.367188,231 L216.367188,235 L214.367188,235 L218.367188,231 L220.367188,231 Z M226.367188,231 L222.367188,235 L220.367188,235 L224.367188,231 L226.367188,231 Z M232.367188,231 L228.367188,235 L226.367188,235 L230.367188,231 L232.367188,231 Z M238.367188,231 L234.367188,235 L232.367188,235 L236.367188,231 L238.367188,231 Z M244.367188,231 L240.367188,235 L238.367188,235 L242.367188,231 L244.367188,231 Z M250.367188,231 L246.367188,235 L244.367188,235 L248.367188,231 L250.367188,231 Z M256.367188,231 L252.367188,235 L250.367188,235 L254.367188,231 L256.367188,231 Z M262.367188,231 L258.367188,235 L256.367188,235 L260.367188,231 L262.367188,231 Z M268.367188,231 L264.367188,235 L262.367188,235 L266.367188,231 L268.367188,231 Z M274.367188,231 L270.367188,235 L268.367188,235 L272.367188,231 L274.367188,231 Z" id="形状结合"></path>
            </g>
        </g>
    </g>
</svg>