<?xml version="1.0" encoding="UTF-8"?>
<svg width="85px" height="103px" viewBox="0 0 85 103" version="1.1" xmlns="http://www.w3.org/2000/svg" xmlns:xlink="http://www.w3.org/1999/xlink">
    <!-- Generator: Sketch 56 (81588) - https://sketch.com -->
    <title>编组 28</title>
    <desc>Created with Sketch.</desc>
    <g id="页面-1" stroke="none" stroke-width="1" fill="none" fill-rule="evenodd">
        <g id="编组-28">
            <g id="编组-27" transform="translate(0.000000, 2.000000)">
                <path d="M0,17.1111111 C0.964539007,17.4567901 1.44680851,17.6296296 1.44680851,17.6296296 C1.44680851,17.6296296 1.92907801,17.4567901 2.65248227,17.6296296 C3.37588652,17.8024691 4.09929078,17.1111111 4.58156028,17.6296296 C4.90307329,17.9753086 4.82269504,18.436214 4.34042553,19.0123457 C4.17966903,19.473251 4.26004728,19.81893 4.58156028,20.0493827 C4.90307329,20.2798354 4.90307329,20.6255144 4.58156028,21.0864198 C5.54609929,21.5473251 6.10874704,21.7777778 6.26950355,21.7777778 C6.5106383,21.7777778 7.4751773,22.2962963 7.95744681,22.4691358 C8.43971631,22.6419753 10.1276596,22.4691358 10.6099291,22.8148148 C11.0921986,23.1604938 12.0567376,23.5061728 12.2978723,23.1604938 C12.4586288,22.9300412 12.6997636,22.6995885 13.0212766,22.4691358 C14.3073286,22.6995885 15.1111111,22.8148148 15.4326241,22.8148148 C15.9148936,22.8148148 18.8085106,22.9876543 18.0851064,23.6790123 C17.3617021,24.3703704 16.6382979,25.0617284 17.3617021,25.5802469 C18.0851064,26.0987654 16.6382979,26.7901235 17.3617021,26.962963 C18.0851064,27.1358025 17.8439716,28 18.5673759,28 C19.2907801,28 21.7021277,28 21.7021277,26.962963 C21.7021277,26.2716049 21.4609929,26.0411523 20.9787234,26.2716049 C20.6572104,25.9259259 20.3356974,25.6954733 20.0141844,25.5802469 C19.5319149,25.4074074 20.4964539,24.7160494 21.7021277,24.7160494 C22.5059102,24.7160494 22.6666667,24.3703704 22.1843972,23.6790123 C23.3096927,23.6790123 24.1938534,23.6790123 24.8368794,23.6790123 C25.8014184,22.9876543 27.0070922,23.1604938 27.0070922,23.1604938 C27.0070922,23.1604938 27.248227,22.1234568 28.212766,22.1234568 C29.177305,22.1234568 29.177305,22.1234568 29.6595745,22.1234568 C29.9810875,22.1234568 30.463357,22.0082305 31.106383,21.7777778 C31.9101655,22.1234568 32.3120567,22.1234568 32.3120567,21.7777778 C32.3120567,21.4320988 32.5531915,21.2016461 33.035461,21.0864198 L33.5177305,21.7777778 L33.7588652,21.0864198 L35.2056738,21.2592593 L36.4113475,20.5679012 L37.1347518,20.2222222 L37.1347518,19.0123457 L37.1347518,17.9753086 L37.858156,18.4938272 L38.3404255,19.5308642 L40.0283688,19.5308642 L40.2695035,18.8395062 L41.2340426,18.8395062 L42.4397163,18.1481481 L42.9219858,17.6296296 L43.6453901,17.6296296 L44.8510638,17.4567901 L46.2978723,17.6296296 L47.0212766,17.1111111 L48.2269504,17.1111111 L49.9148936,16.4197531 L51.3617021,16.2469136 L52.0851064,15.382716 L53.5319149,15.037037 L53.0496454,14.345679 L54.4964539,14.1728395 L54.9787234,13.4814815 L55.7021277,13.4814815 L56.6666667,12.7901235 L57.1489362,12.7901235 L58.3546099,11.5802469 L58.5957447,10.8888889 L59.5602837,10.3703704 L58.8368794,9.67901235 L59.8014184,9.50617284 L60.5248227,9.16049383 L61.248227,9.50617284 L62.212766,8.2962963 L63.177305,7.60493827 L63.4184397,7.08641975 L65.106383,6.22222222 C65.9101655,5.99176955 66.3120567,5.81893004 66.3120567,5.7037037 C66.3120567,5.58847737 66.2316785,5.30041152 66.070922,4.83950617 L65.8297872,4.14814815 L66.3120567,2.9382716 L66.070922,2.07407407 L67.035461,1.90123457 L67.2765957,1.03703704 L67.7588652,0.518518519 L68,0 L0,0" id="路径-9" fill="#0098CB"></path>
                <path d="M23.4067416,28.5333333 L22.4359551,28.3555556 L22.1932584,28 L21.4651685,28.3555556 L19.7662921,28.3555556 L19.0382022,28.7111111 L17.8247191,28.7111111 L16.8539326,28.7111111 L16.611236,29.0666667 L15.3977528,29.0666667 L14.6696629,29.4222222 L14.6696629,29.7777778 L14.9123596,29.9555556 L13.4561798,30.8444444 L12.9707865,31.3777778 L12.2426966,31.5555556 L12,32.8 L12,33.6888889 L12.9707865,34.7555556 L15.1550562,35.8222222 L16.1258427,36 L17.3393258,36 L18.0674157,35.6444444 C18.0674157,35.4074074 18.3101124,35.3481481 18.7955056,35.4666667 C19.2808989,35.5851852 19.6853933,35.3481481 20.0089888,34.7555556 C20.1707865,34.4 20.494382,34.2222222 20.9797753,34.2222222 C21.4651685,34.2222222 21.7078652,33.8666667 21.7078652,33.1555556 L21.9505618,32.6222222 L21.9505618,32.0888889 L22.6786517,31.2 C23.4876404,30.7259259 23.8921348,30.4296296 23.8921348,30.3111111 C23.8921348,30.1333333 24.1348315,29.2444444 23.8921348,29.0666667 C23.7303371,28.9481481 23.5685393,28.7703704 23.4067416,28.5333333 Z" id="路径-10" fill="#0098CB"></path>
                <path d="M75.5,5 L75,5 L74.5,5.52426619 L73.5,6.04853238 L73,6.39804317 L72.75,7.09706476 L72.25,7.79608635 L71.75,8.14559714 L71.25,8.66986333 L71,9.36888492 L70.75,9.71839571 L70.5,10.4174173 L69.75,11.2911943 L69,12.1649713 L69.25,12.8639928 L69.5,13.5630144 L69.25,14.0872806 L69.25,14.9610576 L70.25,15.6600792 L70.5,16.5338562 L72.25,17.2328778 C72.9166667,17.5823886 73.25,17.8153958 73.25,17.9318994 C73.25,18.1066547 73.5,19.1551871 74,18.9804317 C74.5,18.8056763 74.75,18.6309209 74.75,17.2328778 C74.75,16.300849 75.1666667,15.6600792 76,15.3105684 L76.75,13.9125252 L77,12.6892375 L77.25,10.9416835 L77.5,9.36888492 L78,8.84461873 L78,7.62133095 L77.25,7.09706476 L77.75,6.74755397 L77.75,6.22328778 L77.5,5.52426619 L76.75,5.34951079 L75.5,5 Z" id="路径-11" fill="#0098CB"></path>
                <path d="M17,43 C18.2857143,44 19.2857143,45.3333333 20,47" id="路径-12" stroke="#0098CB" stroke-width="1.92"></path>
                <path d="M22.75,57 C23.25,58.6049383 23,60.2716049 22,62" id="路径-13" stroke="#0098CB" stroke-width="1.92"></path>
                <path d="M12.16,78 C11.7866667,79.75 12.0666667,81.75 13,84" id="路径-14" stroke="#0098CB" stroke-width="1.92"></path>
                <path d="M34,94 C36.8965517,93.7777778 39.2298851,93.1111111 41,92" id="路径-15" stroke="#0098CB" stroke-width="2.16"></path>
                <path d="M53,78 C54.8333333,76.5555556 56.1666667,75.2222222 57,74" id="路径-16" stroke="#0098CB" stroke-width="2.16"></path>
                <path d="M68,62 C69.1851852,60.3870968 69.8518519,58.7204301 70,57" id="路径-17" stroke="#0098CB" stroke-width="2.16"></path>
                <path d="M69,46 C69,42.875 69,40.875 69,40" id="路径-18" stroke="#0098CB" stroke-width="1.92"></path>
                <path d="M70,34 C70.1111111,32.5641026 70.4444444,31.2307692 71,30" id="路径-19" stroke="#0098CB" stroke-width="1.92"></path>
                <path d="M76,23 C78.3333333,20.7777778 79.6666667,19.1111111 80,18" id="路径-20" stroke="#0098CB" stroke-width="2.16"></path>
                <path d="M82.94,12 C83.1,9.17647059 83.1,7.17647059 82.94,6" id="路径-21" stroke="#0098CB" stroke-width="1.92"></path>
            </g>
            <g id="编组-27">
                <path d="M0,17.1111111 C0.964539007,17.4567901 1.44680851,17.6296296 1.44680851,17.6296296 C1.44680851,17.6296296 1.92907801,17.4567901 2.65248227,17.6296296 C3.37588652,17.8024691 4.09929078,17.1111111 4.58156028,17.6296296 C4.90307329,17.9753086 4.82269504,18.436214 4.34042553,19.0123457 C4.17966903,19.473251 4.26004728,19.81893 4.58156028,20.0493827 C4.90307329,20.2798354 4.90307329,20.6255144 4.58156028,21.0864198 C5.54609929,21.5473251 6.10874704,21.7777778 6.26950355,21.7777778 C6.5106383,21.7777778 7.4751773,22.2962963 7.95744681,22.4691358 C8.43971631,22.6419753 10.1276596,22.4691358 10.6099291,22.8148148 C11.0921986,23.1604938 12.0567376,23.5061728 12.2978723,23.1604938 C12.4586288,22.9300412 12.6997636,22.6995885 13.0212766,22.4691358 C14.3073286,22.6995885 15.1111111,22.8148148 15.4326241,22.8148148 C15.9148936,22.8148148 18.8085106,22.9876543 18.0851064,23.6790123 C17.3617021,24.3703704 16.6382979,25.0617284 17.3617021,25.5802469 C18.0851064,26.0987654 16.6382979,26.7901235 17.3617021,26.962963 C18.0851064,27.1358025 17.8439716,28 18.5673759,28 C19.2907801,28 21.7021277,28 21.7021277,26.962963 C21.7021277,26.2716049 21.4609929,26.0411523 20.9787234,26.2716049 C20.6572104,25.9259259 20.3356974,25.6954733 20.0141844,25.5802469 C19.5319149,25.4074074 20.4964539,24.7160494 21.7021277,24.7160494 C22.5059102,24.7160494 22.6666667,24.3703704 22.1843972,23.6790123 C23.3096927,23.6790123 24.1938534,23.6790123 24.8368794,23.6790123 C25.8014184,22.9876543 27.0070922,23.1604938 27.0070922,23.1604938 C27.0070922,23.1604938 27.248227,22.1234568 28.212766,22.1234568 C29.177305,22.1234568 29.177305,22.1234568 29.6595745,22.1234568 C29.9810875,22.1234568 30.463357,22.0082305 31.106383,21.7777778 C31.9101655,22.1234568 32.3120567,22.1234568 32.3120567,21.7777778 C32.3120567,21.4320988 32.5531915,21.2016461 33.035461,21.0864198 L33.5177305,21.7777778 L33.7588652,21.0864198 L35.2056738,21.2592593 L36.4113475,20.5679012 L37.1347518,20.2222222 L37.1347518,19.0123457 L37.1347518,17.9753086 L37.858156,18.4938272 L38.3404255,19.5308642 L40.0283688,19.5308642 L40.2695035,18.8395062 L41.2340426,18.8395062 L42.4397163,18.1481481 L42.9219858,17.6296296 L43.6453901,17.6296296 L44.8510638,17.4567901 L46.2978723,17.6296296 L47.0212766,17.1111111 L48.2269504,17.1111111 L49.9148936,16.4197531 L51.3617021,16.2469136 L52.0851064,15.382716 L53.5319149,15.037037 L53.0496454,14.345679 L54.4964539,14.1728395 L54.9787234,13.4814815 L55.7021277,13.4814815 L56.6666667,12.7901235 L57.1489362,12.7901235 L58.3546099,11.5802469 L58.5957447,10.8888889 L59.5602837,10.3703704 L58.8368794,9.67901235 L59.8014184,9.50617284 L60.5248227,9.16049383 L61.248227,9.50617284 L62.212766,8.2962963 L63.177305,7.60493827 L63.4184397,7.08641975 L65.106383,6.22222222 C65.9101655,5.99176955 66.3120567,5.81893004 66.3120567,5.7037037 C66.3120567,5.58847737 66.2316785,5.30041152 66.070922,4.83950617 L65.8297872,4.14814815 L66.3120567,2.9382716 L66.070922,2.07407407 L67.035461,1.90123457 L67.2765957,1.03703704 L67.7588652,0.518518519 L68,0 L0,0" id="路径-9" fill="#006DCA"></path>
                <path d="M23.4067416,28.5333333 L22.4359551,28.3555556 L22.1932584,28 L21.4651685,28.3555556 L19.7662921,28.3555556 L19.0382022,28.7111111 L17.8247191,28.7111111 L16.8539326,28.7111111 L16.611236,29.0666667 L15.3977528,29.0666667 L14.6696629,29.4222222 L14.6696629,29.7777778 L14.9123596,29.9555556 L13.4561798,30.8444444 L12.9707865,31.3777778 L12.2426966,31.5555556 L12,32.8 L12,33.6888889 L12.9707865,34.7555556 L15.1550562,35.8222222 L16.1258427,36 L17.3393258,36 L18.0674157,35.6444444 C18.0674157,35.4074074 18.3101124,35.3481481 18.7955056,35.4666667 C19.2808989,35.5851852 19.6853933,35.3481481 20.0089888,34.7555556 C20.1707865,34.4 20.494382,34.2222222 20.9797753,34.2222222 C21.4651685,34.2222222 21.7078652,33.8666667 21.7078652,33.1555556 L21.9505618,32.6222222 L21.9505618,32.0888889 L22.6786517,31.2 C23.4876404,30.7259259 23.8921348,30.4296296 23.8921348,30.3111111 C23.8921348,30.1333333 24.1348315,29.2444444 23.8921348,29.0666667 C23.7303371,28.9481481 23.5685393,28.7703704 23.4067416,28.5333333 Z" id="路径-10" fill="#006DCA"></path>
                <path d="M75.5,5 L75,5 L74.5,5.52426619 L73.5,6.04853238 L73,6.39804317 L72.75,7.09706476 L72.25,7.79608635 L71.75,8.14559714 L71.25,8.66986333 L71,9.36888492 L70.75,9.71839571 L70.5,10.4174173 L69.75,11.2911943 L69,12.1649713 L69.25,12.8639928 L69.5,13.5630144 L69.25,14.0872806 L69.25,14.9610576 L70.25,15.6600792 L70.5,16.5338562 L72.25,17.2328778 C72.9166667,17.5823886 73.25,17.8153958 73.25,17.9318994 C73.25,18.1066547 73.5,19.1551871 74,18.9804317 C74.5,18.8056763 74.75,18.6309209 74.75,17.2328778 C74.75,16.300849 75.1666667,15.6600792 76,15.3105684 L76.75,13.9125252 L77,12.6892375 L77.25,10.9416835 L77.5,9.36888492 L78,8.84461873 L78,7.62133095 L77.25,7.09706476 L77.75,6.74755397 L77.75,6.22328778 L77.5,5.52426619 L76.75,5.34951079 L75.5,5 Z" id="路径-11" fill="#006DCA"></path>
                <path d="M17,43 C18.2857143,44 19.2857143,45.3333333 20,47" id="路径-12" stroke="#006DCA" stroke-width="1.92"></path>
                <path d="M22.75,57 C23.25,58.6049383 23,60.2716049 22,62" id="路径-13" stroke="#006DCA" stroke-width="1.92"></path>
                <path d="M12.16,78 C11.7866667,79.75 12.0666667,81.75 13,84" id="路径-14" stroke="#006DCA" stroke-width="1.92"></path>
                <path d="M34,94 C36.8965517,93.7777778 39.2298851,93.1111111 41,92" id="路径-15" stroke="#006DCA" stroke-width="2.16"></path>
                <path d="M53,78 C54.8333333,76.5555556 56.1666667,75.2222222 57,74" id="路径-16" stroke="#006DCA" stroke-width="2.16"></path>
                <path d="M68,62 C69.1851852,60.3870968 69.8518519,58.7204301 70,57" id="路径-17" stroke="#006DCA" stroke-width="2.16"></path>
                <path d="M69,46 C69,42.875 69,40.875 69,40" id="路径-18" stroke="#006DCA" stroke-width="1.92"></path>
                <path d="M70,34 C70.1111111,32.5641026 70.4444444,31.2307692 71,30" id="路径-19" stroke="#006DCA" stroke-width="1.92"></path>
                <path d="M76,23 C78.3333333,20.7777778 79.6666667,19.1111111 80,18" id="路径-20" stroke="#006DCA" stroke-width="2.16"></path>
                <path d="M82.94,12 C83.1,9.17647059 83.1,7.17647059 82.94,6" id="路径-21" stroke="#006DCA" stroke-width="1.92"></path>
            </g>
            <rect id="矩形" stroke="#006DCA" opacity="0.499186198" x="0.5" y="0.5" width="83" height="102"></rect>
        </g>
    </g>
</svg>