<?xml version="1.0" encoding="UTF-8"?>
<svg width="670px" height="41px" viewBox="0 0 670 41" version="1.1" xmlns="http://www.w3.org/2000/svg" xmlns:xlink="http://www.w3.org/1999/xlink">
    <!-- Generator: Sketch 56 (81588) - https://sketch.com -->
    <title>title_1</title>
    <desc>Created with Sketch.</desc>
    <g id="页面-1" stroke="none" stroke-width="1" fill="none" fill-rule="evenodd">
        <g id="nbiot-网络监测中心省份" transform="translate(-625.000000, -47.000000)">
            <g id="编组" transform="translate(69.000000, 40.000000)">
                <g id="title_1" transform="translate(556.000000, 7.000000)">
                    <polyline id="路径" stroke="#084A76" stroke-width="2" points="60 3 92 39 578 39 610 3"></polyline>
                    <g id="编组-8">
                        <polygon id="矩形" fill="#136BA6" points="8 2.22044605e-15 59 2.22044605e-15 62 4 8 4"></polygon>
                        <rect id="矩形" fill="#2094E1" x="0" y="2" width="16" height="2"></rect>
                    </g>
                    <g id="编组-8备份" transform="translate(639.000000, 2.000000) scale(-1, 1) translate(-639.000000, -2.000000) translate(608.000000, 0.000000)">
                        <polygon id="矩形" fill="#136BA6" points="8 2.22044605e-15 59 2.22044605e-15 62 4 8 4"></polygon>
                        <rect id="矩形" fill="#2094E1" x="0" y="2" width="16" height="2"></rect>
                    </g>
                    <rect id="矩形" fill="#2094E1" x="207" y="37" width="256" height="4"></rect>
                    <rect id="矩形备份" fill="#136BA6" x="131" y="37" width="48" height="4"></rect>
                    <rect id="矩形备份-2" fill="#136BA6" x="491" y="37" width="48" height="4"></rect>
                </g>
            </g>
        </g>
    </g>
</svg>