<svg xmlns="http://www.w3.org/2000/svg" viewBox="0 0 58 86" style="enable-background:new 0 0 58 86" xml:space="preserve"><path d="m15.8 72.1 5.4-12.9H9.7l19-18.2-5.3 12.7H34c0-.1-18.2 18.4-18.2 18.4zm-4.6-54.7c0-1.6 1.4-3 3.2-3h15.2c1.8 0 3.2 1.4 3.2 3v15.9c0 1.6-1.4 3-3.2 3H14.3c-1.8 0-3.2-1.4-3.2-3 .1 0 .1-15.9.1-15.9zm47.6 3.7c-2.4-2-6.5-5.4-7.7-6.5-.7-.6-2.3-1-3.4 0-1 1-.6 2.3.2 3 1.1 1 3.5 2.9 4.9 4.3-1.1 1.3-3 2.7-4.2 3.9-.1.1-.1.3-.1.4v1.5c0 .3.3.4.5.4h6c.4 0 .5.4.5.4v36.2c0 2-1.2 2.6-2.4 2.6s-2.5-.6-2.5-2.6V35c0-2.7-.3-3.9-3.5-4h-5.7V12.1c0-2.5-2.1-4.5-4.8-4.5H7.5c-2.6 0-4.8 2-4.8 4.5v60.5H0c-1.1 0-2 .8-2 1.9v2.7c0 1 .9 1.9 2 1.9h44c1.1 0 2-.9 2-1.9v-2.7c0-1-.9-1.9-2-1.9h-2.6V35.3h3.3c1.2 0 1.3 1.1 1.3 1.1v28.5c0 7.3 6.4 7.3 7.1 7.3 1 0 7 0 7-7.3V23.1c-.1 0-.1-1-1.3-2z" style="fill:#4ae8f8"/></svg>