<svg version="1.1" id="图层_1" xmlns="http://www.w3.org/2000/svg" x="0" y="0" viewBox="0 0 58 86" style="enable-background:new 0 0 58 86" xml:space="preserve"><style>.st0{fill:#4ae8f8}</style><path class="st0" d="M33.6 83.6H-7.9c-1.4 0-2.6-1.2-2.6-2.6 0-1.4 1.2-2.6 2.6-2.6h41.5c1.4 0 2.6 1.2 2.6 2.6 0 1.4-1.2 2.6-2.6 2.6zm27.1-71.1H13.1c-1.4 0-2.6-1.2-2.6-2.6s1.2-2.6 2.6-2.6h47.6c1.4 0 2.6 1.2 2.6 2.6s-1.2 2.6-2.6 2.6z"/><path class="st0" d="M60.7 16.1H30.4c-1.4 0-2.6-1.2-2.6-2.6V9.9c0-1.4 1.2-2.6 2.6-2.6h30.3c1.4 0 2.6 1.2 2.6 2.6v3.6c0 1.4-1.2 2.6-2.6 2.6zM22.8 80.5h-20c-.6 0-1.1-.5-1.1-1.1L3.6 57c0-.6.5-1.1 1.1-1.1H21c.6 0 1.1.5 1.1 1.1l1.8 22.4c0 .6-.5 1.1-1.1 1.1z"/><path class="st0" d="M14.1 57.9h-2.6c-.6 0-1.1-.5-1.1-1.1V8.4c0-.6.5-1.1 1.1-1.1h2.6c.6 0 1.1.5 1.1 1.1v48.4c0 .6-.5 1.1-1.1 1.1zm32.7-24.5h-2.6c-.6 0-1.1-.5-1.1-1.1v-8.1c0-.6.5-1.1 1.1-1.1h2.6c.6 0 1.1.5 1.1 1.1v8.1c0 .6-.5 1.1-1.1 1.1zm14.9-5-1.8 1.8c-.4.4-1.1.4-1.5 0l-5.7-5.7c-.4-.4-.4-1.1 0-1.5l1.8-1.8c.4-.4 1.1-.4 1.5 0l5.7 5.7c.4.3.4 1.1 0 1.5zM31 30.2l-1.8-1.8c-.4-.4-.4-1.1 0-1.5l5.7-5.7c.4-.4 1.1-.4 1.5 0l1.8 1.8c.4.4.4 1.1 0 1.5l-5.7 5.7c-.4.4-1.1.4-1.5 0z"/></svg>