<svg xmlns="http://www.w3.org/2000/svg" viewBox="0 0 58 86" style="enable-background:new 0 0 58 86" xml:space="preserve"><path d="M21.2 58.6c-4.8-.7-9.5-1.8-14.8-2.9.9 9.9 1.5 18.3 2.5 26.7.1 1.2 1.8 3.3 2.8 3.4 10.2.2 20.4.1 30.5.1 1.1-10 2.1-19.4 3.3-30.3-5.4 1.2-10.2 2.5-15 3.2-3 .3-6.3.2-9.3-.2zM4.7 43.8c6.2-.5 11.6 1.1 16.9-2.2 2.1-1.3 6.9-1.3 9 .1 5.4 3.5 10.8 1.4 16.3 2 .5-4.1.8-7.7 1.2-11.7H3.5c.5 4.2.8 7.8 1.2 11.8zM56.9-.1c-3 .8-4.4 1-6.9 1.6C38.2 4 33 4.8 32 15.2c-.4 3.4-.1 2.7-3.9 2.7-5.6 0-11.3.3-16.9 0-4.1-.2-6.8.9-7.8 5.4h44.8c-.8-7.5-7-4.6-11.1-5.5.3-6.9.8-9.1 8.9-11.1 4-.9 8-1.6 12-2.7L56.9-.1zM.3 29.9h51v-5.2H0c.2 2.1.3 3.6.3 5.2zm15.3 16H4.8c.6 3.1 1 5.9 1.4 8.6h9.4v-8.6zm20.7 8.6h9.3c.3-2.9.6-5.7 1-8.7H36.3c.1 3 .1 5.8 0 8.7z" style="fill:#4ae8f8"/></svg>