<svg xmlns="http://www.w3.org/2000/svg" viewBox="0 0 58 86" style="enable-background:new 0 0 58 86" xml:space="preserve"><path d="M60.1 26.9 55 15.8c-1.2-2.6-3.6-4.3-6.3-4.3H9.2c-2.6 0-5.1 1.7-6.3 4.3l-5.1 11.1C-5 34.1-.8 42.6 6.2 43.3c3.9.4 7.7-1.7 9.9-5.3.7-1.2 2.1-1.5 3.2-.7.2.2.5.4.6.7 2 3.2 5.3 5.3 9 5.3s7.1-2.1 9-5.3c.7-1.2 2.1-1.5 3.2-.7.2.2.5.4.6.7 2.2 3.6 6 5.7 9.9 5.3 7.2-.6 11.3-9.1 8.5-16.4zm-7.4 21.4c-.6.1-1.3.1-1.9.1-3.4 0-6.8-1.3-9.5-3.6-.8-.7-2-.7-2.9 0-2.7 2.3-6 3.6-9.5 3.6-3.4 0-6.8-1.3-9.5-3.6-.8-.7-2-.7-2.9 0-3.2 2.8-7.3 4-11.4 3.5-1.2-.2-2.4.8-2.5 2.2V76c0 2.9 2 5.2 4.5 5.2h43.6c2.5 0 4.5-2.3 4.5-5.2V50.9c.1-1.6-1.1-2.8-2.5-2.6zm-9.4 19.3H14.7c-1.3 0-2.3-1.1-2.3-2.6 0-1.4 1-2.6 2.3-2.6h28.5c1.3 0 2.3 1.1 2.3 2.6 0 1.4-1 2.6-2.2 2.6z" style="fill:#4ae8f8"/></svg>