<svg xmlns="http://www.w3.org/2000/svg" viewBox="0 0 58 86" style="enable-background:new 0 0 58 86" xml:space="preserve"><path d="M60.5 57.5c-1-1.4-3.4-2.5-8.2.3.4-2-1.1-3.2-3-3.2-1.7 0-3.6.4-5.1 2-2.2-2.9-4.5-2.5-8.9.2-1.7 1-3.2 1.9-4.3 2.5-.3.2-.5.3-.8.4.4.1.9.2 1.4.2 6.2 0 11.1 0 11.1 5.3 0 4.1-4.8 5.3-7.3 5.4h-8.8c-4.7 0-9.3-4.9-9.3-4.9s5.5 2.2 9.3 2.2h8.8s4.7-.2 4.7-2.7c0-2.3-2.4-2.7-6.1-2.7-6.1 0-9-2.7-9-2.7s-4.7-3.4-6.2-4.3c-3.4-2.1-5.3-3.2-11.4-.9C3.5 56.1-2.8 59-2.8 59l7.6 16.8 3.6-2.2c2.2-1.4 4.2-1.3 7 0 3.2 1.5 7.6 2.9 10.7 3.9 4.7 1.5 5.5 1.3 8.5-.5 2.6-1.5 21.2-12.4 23.2-13.8 3.1-2 4.1-3.9 2.7-5.7zM37.3 31h-6v5h6v-5zm0-14.2h-6v4.5h6v-4.5zm0 7h-6v4.8h6v-4.8zM15 44.2h28.3c2.3 0 4.1-1.9 4.1-4.2V11.6c0-2.3-1.9-4.2-4.1-4.2H15c-2.3 0-4.1 1.9-4.1 4.2V40c-.1 2.4 1.8 4.2 4.1 4.2zm13.7-29.9H40V36h2.6v2.5H25.9V36h2.8V14.3zm-12.5 9.1v-2.5h4.5V17l-3.6.6c-.1-.6-.4-1.5-.7-2.1 3.2-.5 6.9-1.4 9.2-2.3l1.6 2.2c-1.2.4-2.5.8-3.9 1.1v4.4h3.8v2.5h-3.8v.5c.8.9 3.4 4.1 4 4.8l-1.6 2.1c-.5-1-1.5-2.7-2.4-4.1v12.6h-2.6V27.7c-1 2.6-2.3 5-3.6 6.7-.3-.8-.9-1.9-1.3-2.5 1.7-2 3.5-5.4 4.6-8.5h-4.2z" style="fill:#4ae8f8"/></svg>