<svg xmlns="http://www.w3.org/2000/svg" viewBox="0 0 58 86" style="enable-background:new 0 0 58 86" xml:space="preserve"><path d="M56.1 75.7h-1.6V33.2c0-1.9-.5-3.4-1.6-4.8-1-1.2-2.4-2-3.7-2H36.4V15.3c0-1.9-.5-3.4-1.6-4.8-1-1.2-2.4-2-3.7-2H9.4c-1.5 0-2.7.8-3.7 2-1.1 1.4-1.6 3.1-1.6 4.8v60.4h-2c-1 0-1.7.9-1.7 2.2 0 1.2.7 2.3 1.7 2.3H56c1 0 1.7-.9 1.7-2.2 0-1.2-.6-2.3-1.6-2.3zm-37.2-9h-7.7V57h7.7v9.7zm0-17.5h-7.7v-9.7h7.7v9.7zm0-17.4h-7.7v-9.7h7.7v9.7zm10.9 34.9h-7.7V57h7.7v9.7zm0-17.5h-7.7v-9.7h7.7v9.7zm0-17.4h-7.7v-9.7h7.7v9.7zm18.6 34.9h-7.7V57h7.7v9.7zm0-17.5h-7.7v-9.7h7.7v9.7z" style="fill:#4ae8f8"/></svg>