<svg xmlns="http://www.w3.org/2000/svg" viewBox="0 0 50.92 50.86"><g data-name="图层 2"><path d="M48.6 49.86a1 1 0 0 1-1 1H3.38a1 1 0 0 1-1-1v-2.27a1 1 0 0 1 1-1H47.6a1 1 0 0 1 1 1zM26.31.24a1.5 1.5 0 0 0-1.63 0L.29 17.57c-.45.32-.37.58.18.58h2.65a3.69 3.69 0 0 0 1.82-.58L24.67 3.72a1.54 1.54 0 0 1 1.64 0L46 17.57a3.69 3.69 0 0 0 1.82.58h2.63c.55 0 .63-.26.18-.58zm2.41 39.34a2.06 2.06 0 0 1-.72-1.51V22.41a2.06 2.06 0 0 1 .74-1.51c.41-.28.65-1.33.1-1.33h-6.67c-.55 0-.77.33-.49.74S23 21.86 23 22.41v15.66a2.05 2.05 0 0 1-.73 1.51c-.41.28-.65 1.32-.1 1.32h6.65c.55 0 .31-1.04-.1-1.32zm-12.8 0a2.06 2.06 0 0 1-.74-1.51V22.41a2.06 2.06 0 0 1 .74-1.51c.41-.28.65-1.33.1-1.33H9.37c-.55 0-.77.33-.49.74s1.32 1.55 1.32 2.1v15.66a2.05 2.05 0 0 1-.73 1.51c-.41.28-.65 1.32-.1 1.32H16c.57 0 .33-1.04-.08-1.32zm25.6 0a2.06 2.06 0 0 1-.74-1.51V22.41a2.06 2.06 0 0 1 .74-1.51c.41-.28.65-1.33.1-1.33H35c-.55 0-.77.33-.49.74s1.32 1.55 1.32 2.1v15.66a2.05 2.05 0 0 1-.73 1.51c-.41.28-.65 1.32-.1 1.32h6.65c.52 0 .28-1.04-.13-1.32zm.75-21.43c.55 0 .64-.26.19-.59L26.31 5.93a1.5 1.5 0 0 0-1.63 0L8.53 17.56c-.45.33-.36.59.19.59zm2.78 25.18a1 1 0 0 0-1-1H6.94a1 1 0 0 0-1 1v.84a1 1 0 0 0 1 1h37.11a1 1 0 0 0 1-1z" style="fill:#06d3ff" data-name="图层 1"/></g></svg>