<svg xmlns="http://www.w3.org/2000/svg" viewBox="0 0 50.92 50.86"><defs><style>.cls-1{fill:#06d3ff;}</style></defs><title>名胜古迹</title><g id="图层_2" data-name="图层 2"><g id="图层_1-2" data-name="图层 1"><path class="cls-1" d="M48.6,49.86a1,1,0,0,1-1,1H3.38a1,1,0,0,1-1-1V47.59a1,1,0,0,1,1-1H47.6a1,1,0,0,1,1,1ZM26.31.24a1.5,1.5,0,0,0-1.63,0L.29,17.57c-.45.32-.37.58.18.58H3.12a3.69,3.69,0,0,0,1.82-.58L24.67,3.72a1.54,1.54,0,0,1,1.64,0L46,17.57a3.69,3.69,0,0,0,1.82.58h2.63c.55,0,.63-.26.18-.58Zm2.41,39.34A2.06,2.06,0,0,1,28,38.07V22.41a2.06,2.06,0,0,1,.74-1.51c.41-.28.65-1.33.1-1.33H22.17c-.55,0-.77.33-.49.74S23,21.86,23,22.41V38.07a2.05,2.05,0,0,1-.73,1.51c-.41.28-.65,1.32-.1,1.32h6.65C29.37,40.9,29.13,39.86,28.72,39.58Zm-12.8,0a2.06,2.06,0,0,1-.74-1.51V22.41a2.06,2.06,0,0,1,.74-1.51c.41-.28.65-1.33.1-1.33H9.37c-.55,0-.77.33-.49.74s1.32,1.55,1.32,2.1V38.07a2.05,2.05,0,0,1-.73,1.51c-.41.28-.65,1.32-.1,1.32H16C16.57,40.9,16.33,39.86,15.92,39.58Zm25.6,0a2.06,2.06,0,0,1-.74-1.51V22.41a2.06,2.06,0,0,1,.74-1.51c.41-.28.65-1.33.1-1.33H35c-.55,0-.77.33-.49.74s1.32,1.55,1.32,2.1V38.07a2.05,2.05,0,0,1-.73,1.51c-.41.28-.65,1.32-.1,1.32h6.65C42.17,40.9,41.93,39.86,41.52,39.58Zm.75-21.43c.55,0,.64-.26.19-.59L26.31,5.93a1.5,1.5,0,0,0-1.63,0L8.53,17.56c-.45.33-.36.59.19.59Zm2.78,25.18a1,1,0,0,0-1-1H6.94a1,1,0,0,0-1,1v.84a1,1,0,0,0,1,1H44.05a1,1,0,0,0,1-1Z"/></g></g></svg>