<svg xmlns="http://www.w3.org/2000/svg" viewBox="0 0 59.32 63.88"><g data-name="图层 2"><path d="M57.07 0 37.22 3.76A2.87 2.87 0 0 0 35 6.46v.77H22.48A16.68 16.68 0 0 1 9.91 1.49 2.25 2.25 0 0 0 8.22.75a2.27 2.27 0 0 0-1.47 4A21.62 21.62 0 0 0 10.43 8 18.29 18.29 0 0 0 0 24.43v25.41a2.28 2.28 0 1 0 4.56 0V24.43a13.73 13.73 0 0 1 11.76-13.54 20.93 20.93 0 0 0 6.16 1h3.27v3L13.35 22a2.28 2.28 0 0 0-1.12 2v36.83a3.06 3.06 0 0 0 3 3.05h25.58a3.05 3.05 0 0 0 3-3.05V24a2.32 2.32 0 0 0-1.13-2l-12.4-7.15v-3H35v.74a2.87 2.87 0 0 0 2.24 2.71L57.07 19a1.83 1.83 0 0 0 2.25-1.86V1.9A1.83 1.83 0 0 0 57.07 0zM39.29 47.24h-6.47a1.15 1.15 0 0 1-1.14-1.14v-8.37a1.15 1.15 0 0 1 1.14-1.14h6.47zm0-22V32H29.4a2.29 2.29 0 0 0-2.28 2.28v15.24a2.29 2.29 0 0 0 2.28 2.28h9.89v6a1.53 1.53 0 0 1-1.53 1.52H18.3a1.52 1.52 0 0 1-1.52-1.52V25.28L28 18.78zm16.38-11.55a.93.93 0 0 1-1.13.94L39.6 12a1.42 1.42 0 0 1-1.12-1.34v-2.3A1.43 1.43 0 0 1 39.6 7l14.94-2.62a.93.93 0 0 1 1.13.94z" style="fill:#06d3ff" data-name="图层 1"/></g></svg>