<svg xmlns="http://www.w3.org/2000/svg" viewBox="0 0 67.38 54.88"><defs><style>.cls-1{fill:#06d3ff}</style></defs><g id="图层_2" data-name="图层 2"><g id="图层_1-2" data-name="图层 1"><path class="cls-1" d="M19 45.2a.49.49 0 0 1-.3-.1l-2.7-2a.5.5 0 0 1-.09-.72l5.85-7.2a.51.51 0 0 1 .34-.18.54.54 0 0 1 .3.1l2.7 2a.5.5 0 0 1 .2.34.58.58 0 0 1-.11.38L19.34 45a.5.5 0 0 1-.34.2z"/><path class="cls-1" d="m22.1 35.47-5.85 7.2 2.7 2 5.85-7.2z"/><rect class="cls-1" x="9.11" y="34.86" width="4.38" height="16.3" rx=".5" ry=".5" transform="rotate(90 11.3 43.01)"/><path class="cls-1" d="M19 41.32H3.65v3.38H19z"/><path class="cls-1" d="M1.5 54.88a5 5 0 0 1-1.25-.12C.11 54.7 0 53.92 0 53.38V32.65a5.19 5.19 0 0 1 .11-1.25c.06-.14.84-.25 1.39-.25H4a5.19 5.19 0 0 1 1.25.11c.14.06.25.84.25 1.39v20.73a5.08 5.08 0 0 1-.11 1.24 2.8 2.8 0 0 1-1.39.26zm44.08-2.49h-.17s-.56-.31-1-.6L3.56 26.3a11.42 11.42 0 0 1-1.05-.71v-.27a10.16 10.16 0 0 1 .65-1.08l.24-.36a8.72 8.72 0 0 1 .81-1.06h.26l1 .61L46 48.92a5 5 0 0 1 1 .75 3.07 3.07 0 0 1-.42 1.33l-.16.28a9 9 0 0 1-.66 1.08h-.14z"/><path class="cls-1" d="M1.5 31.65a1 1 0 0 0-1 1v20.72a1 1 0 0 0 1 1H4a1 1 0 0 0 1-1V32.65a1 1 0 0 0-1-1zm2-7.13a1 1 0 0 0 .29 1.36l40.86 25.49A1 1 0 0 0 46 51l.15-.28a1.08 1.08 0 0 0-.36-1.41L5.17 23.86a1 1 0 0 0-1.4.3z"/><path class="cls-1" d="M45.59 52.39h-.35a9 9 0 0 1-.66-1.08l-.16-.31a5.83 5.83 0 0 1-.51-1.14c0-.15.6-.63 1.08-.91l6.37-3.72c.47-.28.94-.53 1-.57h.25a7.79 7.79 0 0 1 .79 1.08l.06.11a8.74 8.74 0 0 1 .63 1.1v.26a12 12 0 0 1-1.05.7l-6.4 3.9c-.5.28-1 .57-1.05.58z"/><path class="cls-1" d="M45 51a1 1 0 0 0 1.34.35l6.4-3.91a1 1 0 0 0 .32-1.37L53 46a1.05 1.05 0 0 0-1.4-.35l-6.37 3.72a1 1 0 0 0-.38 1.38zm2.38-6.06a7.62 7.62 0 0 1-1.51 0 16.92 16.92 0 0 1-3.21-1.5L5.33 21a10.81 10.81 0 0 1-2.83-2.73l-.63-2.45a11 11 0 0 1 1.26-3.7l4.92-8.26A16.72 16.72 0 0 1 10.54.78 3.69 3.69 0 0 1 13 0a4.21 4.21 0 0 1 2.22.63c.16.1 17.71 10.81 52 31.94a.52.52 0 0 1 .24.43v.18a21.61 21.61 0 0 1-2 1.28l-14.8 9a17.05 17.05 0 0 1-3.28 1.48zm-.64-4.34a14.46 14.46 0 0 0 1.89-1.06l9.08-5.7a1.14 1.14 0 0 0 0-2.1L14.58 5.46a2 2 0 0 0-2.73.68l-4.93 8.27a2 2 0 0 0 .69 2.75l37.22 22.41a12.85 12.85 0 0 0 1.91 1.03z"/><path class="cls-1" d="M16.61 2.09a10.74 10.74 0 0 0-3.7-1.25l-1.76.43a10.66 10.66 0 0 0-2.67 2.85l-4.93 8.26a10.82 10.82 0 0 0-1.23 3.71l.42 1.76a11.18 11.18 0 0 0 2.85 2.68L42.89 43A13.64 13.64 0 0 0 46 44.36c.74.19 3.47-.8 4.41-1.37l14.8-9a1.12 1.12 0 0 0 0-2.09zM48.77 40a9.53 9.53 0 0 1-2 1.06 9.27 9.27 0 0 1-2.05-1L7.39 17.61c-.94-.57-1.82-1.14-1.94-1.26a6.59 6.59 0 0 1 1-2.17l4.95-8.26A22.58 22.58 0 0 1 12.65 4a6.4 6.4 0 0 1 2.16 1l43.83 26.73a1.14 1.14 0 0 1 0 2.11z"/></g></g></svg>