<svg xmlns="http://www.w3.org/2000/svg" viewBox="0 0 100 100" style="enable-background:new 0 0 100 100" xml:space="preserve"><linearGradient id="a" gradientUnits="userSpaceOnUse" x1="93.396" y1="36.048" x2="100" y2="36.048"><stop offset="0" style="stop-color:#2ecbff"/><stop offset=".998" style="stop-color:#18fff7"/></linearGradient><path d="M100 35.4c-.2-1-1-1.6-1.7-1.5l-3.8.7c-.8.2-1.2 1-1 2s1 1.6 1.7 1.5l3.8-.8c.7-.1 1.1-.9 1-1.9z" style="fill:url(#a)"/><linearGradient id="b" gradientUnits="userSpaceOnUse" x1="87.156" y1="22.026" x2="92.941" y2="22.026"><stop offset="0" style="stop-color:#2ecbff"/><stop offset=".998" style="stop-color:#18fff7"/></linearGradient><path d="M87.8 24.5c.7.7 1.7.7 2.2.1l2.6-2.9c.5-.6.4-1.6-.4-2.2-.7-.7-1.7-.7-2.2-.1l-2.6 2.9c-.5.6-.3 1.6.4 2.2z" style="fill:url(#b)"/><linearGradient id="c" gradientUnits="userSpaceOnUse" x1="73.897" y1="15.184" x2="78.052" y2="15.184"><stop offset="0" style="stop-color:#2ecbff"/><stop offset=".998" style="stop-color:#18fff7"/></linearGradient><path d="M75.4 18.5c1 .2 1.8-.3 2-1.1l.7-3.8c.1-.8-.5-1.5-1.5-1.7-1-.2-1.8.3-2 1.1l-.7 3.8c-.1.7.5 1.5 1.5 1.7z" style="fill:url(#c)"/><linearGradient id="d" gradientUnits="userSpaceOnUse" x1="57.584" y1="17.718" x2="62.955" y2="17.718"><stop offset="0" style="stop-color:#2ecbff"/><stop offset=".998" style="stop-color:#18fff7"/></linearGradient><path d="M59.8 20.3c.4.7 1.4.8 2.2.2.8-.5 1.1-1.5.7-2.1l-2.1-3.3c-.4-.7-1.4-.8-2.2-.2-.8.5-1.1 1.5-.7 2.1l2.1 3.3z" style="fill:url(#d)"/><linearGradient id="e" gradientUnits="userSpaceOnUse" x1="91.843" y1="50.436" x2="98.359" y2="50.436"><stop offset="0" style="stop-color:#2ecbff"/><stop offset=".998" style="stop-color:#18fff7"/></linearGradient><path d="m97.5 49.4-3.6-1.3c-.7-.3-1.6.3-1.9 1.2-.3.9 0 1.9.7 2.1l3.6 1.3c.7.3 1.6-.3 1.9-1.2.4-.9 0-1.8-.7-2.1z" style="fill:url(#e)"/><linearGradient id="f" gradientUnits="userSpaceOnUse" x1="0" y1="56.493" x2="90.276" y2="56.493"><stop offset="0" style="stop-color:#2ecbff"/><stop offset=".998" style="stop-color:#18fff7"/></linearGradient><path d="M75.6 46.4c-3.5-12.7-15-21.5-28.3-21.5-11 0-21.1 6.2-26.1 16C9.3 42.1 0 52.2 0 64.6c0 11.9 8.7 21.9 20.3 23.6l49.6-.2h2.8c10-1.8 17.6-10.7 17.6-21.2 0-9.3-6-17.5-14.7-20.4zm-7.1 36H24.8l-1-.1c-9.6-.5-17.2-8.5-17.2-18.1 0-9.6 7.4-17.5 17-18.1 5.5.3 11 3.3 13.9 7.5.4.7 1.1 1.1 1.9 1.1 1.2 0 2.2-1 2.2-2.2 0-.3-.1-.6-.2-.9-.1-.1-.2-.3-.3-.4-.1-.1-.1-.2-.2-.3C37.6 46 33.1 43 27.4 42c4.2-6.8 11.8-11.1 19.9-11.1 11 0 20.4 7.5 22.8 18.3l.3 1.3 1.3.3c7 1.9 11.9 8.2 11.9 15.5 0 8.5-6.6 15.6-15.1 16.1z" style="fill:url(#f)"/><linearGradient id="g" gradientUnits="userSpaceOnUse" x1="61.639" y1="35.414" x2="91.531" y2="35.414"><stop offset="0" style="stop-color:#2ecbff"/><stop offset=".998" style="stop-color:#18fff7"/></linearGradient><path d="M69.5 20.4c-2.2.1-4.1.6-6 1.5-.3.1-.5.2-.8.4-.1 0-.2.1-.3.1v.1c-.5.5-.8 1.2-.8 1.9.1 1.4 1.2 2.4 2.6 2.3.1 0 .3-.1.4-.1v.1c1.6-.7 3.3-1.2 5.1-1.3 8.7-.6 16.2 6.1 16.8 14.8.2 2.4-.3 4.8-1.2 6.9 0 .1-.1.1-.1.2s0 .1-.1.2c0 .2-.1.5-.1.7.1 1.4 1.3 2.5 2.7 2.4.7 0 1.3-.4 1.8-.9.1-.1.1-.2.1-.4.1-.2.2-.5.3-.7 1.1-2.7 1.5-5.4 1.3-8.7-.5-11.5-10.3-20.3-21.7-19.5z" style="fill:url(#g)"/></svg>