<svg xmlns="http://www.w3.org/2000/svg" viewBox="0 0 100 100" style="enable-background:new 0 0 100 100" xml:space="preserve"><linearGradient id="a" gradientUnits="userSpaceOnUse" x1="2.188" y1="50.59" x2="100.982" y2="50.59"><stop offset="0" style="stop-color:#2ecbff"/><stop offset=".998" style="stop-color:#18fff7"/></linearGradient><path d="M5.7 40H48c7.8 0 14.1-6.3 14.1-14.1S55.8 11.8 48 11.8s-14.1 6.3-14.1 14.1H41c0-3.9 3.2-7.1 7.1-7.1s7.1 3.2 7.1 7.1c0 3.9-3.2 7.1-7.1 7.1H5.7c-1.9 0-3.5 1.6-3.5 3.5S3.8 40 5.7 40zm77.6 21.2H5.7c-1.9 0-3.5 1.6-3.5 3.5 0 2 1.6 3.5 3.5 3.5h77.6c3.9 0 7.1 3.2 7.1 7.1 0 3.9-3.2 7.1-7.1 7.1-3.9 0-7.1-3.2-7.1-7.1h-7.1c0 7.8 6.3 14.1 14.1 14.1s14.1-6.3 14.1-14.1-6.2-14.1-14-14.1zM5.7 54.1h77.6c9.7 0 17.6-7.9 17.6-17.6 0-9.7-7.9-17.6-17.6-17.6s-17.6 7.9-17.6 17.6c0 1.2.2 2.4.4 3.5h7.3c-.4-1.1-.6-2.3-.6-3.5 0-5.8 4.7-10.6 10.6-10.6 5.8 0 10.6 4.7 10.6 10.6 0 5.5-4.3 10-9.7 10.5-.2 0-.3.1-.5.1H5.7c-1.9 0-3.5 1.6-3.5 3.5s1.6 3.5 3.5 3.5z" style="fill:url(#a)"/></svg>