<svg xmlns="http://www.w3.org/2000/svg" viewBox="0 0 100 100" style="enable-background:new 0 0 100 100" xml:space="preserve"><linearGradient id="a" gradientUnits="userSpaceOnUse" x1="50.957" y1="105.422" x2="50.957" y2="-4.578"><stop offset="0" style="stop-color:#2ecbff"/><stop offset=".998" style="stop-color:#18fff7"/></linearGradient><path d="M66.2 55.1V10.7c0-8.4-6.9-15.3-15.3-15.3S35.7 2.3 35.7 10.7v44.4c-7.6 5.1-12.2 13.7-12.2 22.8 0 15.2 12.3 27.5 27.5 27.5s27.5-12.3 27.5-27.5c0-9.1-4.7-17.7-12.3-22.8zM51 99.3c-11.8 0-21.4-9.6-21.4-21.4 0-7.6 4.1-14.7 10.7-18.5 1-.5 1.5-1.5 1.5-2.6V41.3H51c1.7 0 3-1.4 3-3.1 0-1.7-1.3-3-3-3.1h-9.2V29H51c1.7 0 3-1.4 3-3.1s-1.3-3-3-3.1h-9.2V10.7c0-5.1 4.1-9.2 9.2-9.2s9.2 4.1 9.2 9.2v46.1c0 1.1.6 2.1 1.5 2.6 6.6 3.8 10.7 10.9 10.7 18.5 0 11.8-9.6 21.4-21.4 21.4z" style="fill:url(#a)"/><linearGradient id="b" gradientUnits="userSpaceOnUse" x1="48.188" y1="80.921" x2="64.906" y2="80.921"><stop offset="0" style="stop-color:#2ecbff"/><stop offset=".998" style="stop-color:#18fff7"/></linearGradient><path d="M62.1 72.5c-.7 0-1.5.3-2 .8s-.8 1.2-.8 2c0 4.6-3.7 8.4-8.4 8.4-1.5 0-2.8 1.3-2.8 2.8 0 1.5 1.2 2.8 2.8 2.8 7.7 0 13.9-6.3 13.9-13.9 0-.7-.3-1.5-.8-2-.4-.6-1.1-.9-1.9-.9z" style="fill:url(#b)"/></svg>