<svg xmlns="http://www.w3.org/2000/svg" viewBox="0 0 58 86" style="enable-background:new 0 0 58 86" xml:space="preserve"><path d="m2.9 18.9-.4-3.4c-.4-2.1 1.3-4.2 3.4-4.2l44.4-4.6c2.1-.4 4.2 1.3 4.2 3.4l.4 3.4-52 5.4zm9.2-10.4c-.4-2.1 1.3-4.2 3.4-4.2L39 1.7c2-.4 4.1 1.3 4.1 3.4v1.3l-31 3.4V8.5zm35.2 67.9c0 2.5-1.7 4.2-3.8 4.2H15.9c-2.1 0-3.8-1.7-3.8-3.8L5 21.4h49.5l-7.2 55zM9.2 52.9h5.4v.4c0 7.5 6.3 13.8 13.8 13.8 3.4 0 6.7-1.3 9.2-3.4-7.5 2.1-15.1-2.1-17.2-9.2 0-.4-.4-.8-.4-1.7h6.3L18 44.5l-8.8 8.4zM31 35.3c-3.4 0-6.7 1.3-9.2 3.4 7.5-2.1 15.1 2.1 17.2 9.2 0 .4.4.8.4 1.7h-5.9l8.4 8.4 8.4-8.4h-5.4v-.4c-.1-7.6-6.4-13.9-13.9-13.9zM13.8 81.8h31.9c.4 0 .8.4.8.8v2.5c0 .4-.4.8-.8.8H13.8c-.4 0-.8-.4-.8-.8v-2.5c0-.8.4-.8.8-.8z" style="fill:#00f0c6"/></svg>