<svg xmlns="http://www.w3.org/2000/svg" viewBox="0 0 100 100" style="enable-background:new 0 0 100 100" xml:space="preserve"><linearGradient id="a" gradientUnits="userSpaceOnUse" x1="1.927" y1="44.125" x2="99.523" y2="44.125"><stop offset="0" style="stop-color:#2ecbff"/><stop offset=".998" style="stop-color:#18fff7"/></linearGradient><path d="m84 33.5-.2-.1-.1-.2c-4-13.4-16.4-22.4-30.7-22.4-11.8 0-22.6 6.3-28.2 16.5l-.1.1h-.2C11.7 29.2 1.9 40 1.9 52.9c0 11.4 7.8 21.5 19 24.5h.7c1.6 0 3-1.3 3-3 0-1.2-.7-2.2-1.9-2.7l-.1-.1c-.1-.1-.2-.1-.2-.2-9.1-3.1-14.1-9.7-14.1-18.7 0-10.1 8-18.5 18.3-19.2 5.9.3 12 3.5 15.1 8l.1.1c.6.9 1.6 1.4 2.6 1.4 1.8 0 3.2-1.4 3.2-3.1 0-.4-.1-.7-.2-1.1-.1-.1-.1-.2-.1-.3s-.1-.2-.2-.2l-.1-.2c0-.1-.1-.1-.1-.1l-.1-.2c-3.7-4.9-8.5-8.1-14.3-9.5l-.5-.1.3-.4c4.8-6.6 12.6-10.6 20.9-10.6 12 0 22.3 8 25 19.5l.4 1.4c.1.2.2.4.5.5l1.4.4c7.5 2 12.8 8.7 12.8 16.3 0 7.9-4.8 14.5-12 16.5-.1 0-.1.1-.2.1-1.1.5-1.8 1.5-1.8 2.7 0 1.6 1.3 3 3 3 .1 0 .2 0 .4-.1.1 0 .2 0 .2-.1.3-.1.5-.2.7-.2 9.6-3.3 16-12 16-21.9-.1-9.8-6.3-18.5-15.6-21.8z" style="fill:url(#a)"/><linearGradient id="b" gradientUnits="userSpaceOnUse" x1="27.105" y1="76.239" x2="74.326" y2="76.239"><stop offset="0" style="stop-color:#2ecbff"/><stop offset=".998" style="stop-color:#18fff7"/></linearGradient><path d="m37.6 62.5-5.4 6.9c-.6.9-.2 2.3.8 3.1 1 .8 2.4.9 3.1.1l5.4-6.9c.7-.9.3-2.3-.8-3.2-1-.9-2.4-.9-3.1 0zm10.8 0L43 69.4c-.6.9-.2 2.3.8 3.1 1 .8 2.4.9 3.1.1l5.4-6.9c.7-.9.3-2.3-.8-3.2-1-.9-2.4-.9-3.1 0zm10.9 0-5.4 6.9c-.6.9-.2 2.3.8 3.1 1 .8 2.4.9 3.1.1l5.4-6.9c.7-.9.3-2.3-.8-3.2-1-.9-2.5-.9-3.1 0zm10.8 0-5.4 6.9c-.6.9-.2 2.3.8 3.1 1 .8 2.4.9 3.1.1l5.4-6.9c.7-.9.3-2.3-.8-3.2-1-.9-2.4-.9-3.1 0zM32.8 79.9l-5.4 7c-.6.9-.2 2.3.8 3.1 1 .8 2.4.9 3.1.1l5.4-6.9c.7-.9.3-2.3-.8-3.2-1-1-2.5-1-3.1-.1zm10.8 0-5.4 6.9c-.6.9-.2 2.3.8 3.1 1 .8 2.4.9 3.1.1l5.4-6.9c.7-.9.3-2.3-.8-3.2-1-.9-2.4-.9-3.1 0zm10.8 0L49 86.8c-.6.9-.2 2.3.8 3.1s2.4.9 3.1.1l5.4-6.9c.7-.9.3-2.3-.8-3.2-1-.9-2.4-.9-3.1 0zm10.8 0-5.4 6.9c-.6.9-.2 2.3.8 3.1s2.4.9 3.1.1l5.4-6.9c.7-.9.3-2.3-.8-3.2-.9-.9-2.3-.9-3.1 0z" style="fill:url(#b)"/></svg>