<?xml version="1.0" encoding="utf-8"?>
<!-- Generator: Adobe Illustrator 22.0.0, SVG Export Plug-In . SVG Version: 6.00 Build 0)  -->
<svg version="1.1" id="图层_1" xmlns="http://www.w3.org/2000/svg" xmlns:xlink="http://www.w3.org/1999/xlink" x="0px" y="0px"
	 viewBox="0 0 100 100" style="enable-background:new 0 0 100 100;" xml:space="preserve">
<style type="text/css">
	.st0{fill:url(#SVGID_1_);}
	.st1{fill:url(#SVGID_2_);}
</style>
<g>
	<linearGradient id="SVGID_1_" gradientUnits="userSpaceOnUse" x1="1.9271" y1="44.125" x2="99.523" y2="44.125">
		<stop  offset="0" style="stop-color:#2ECBFF"/>
		<stop  offset="0.9981" style="stop-color:#18FFF7"/>
	</linearGradient>
	<path class="st0" d="M84,33.5l-0.2-0.1l-0.1-0.2c-4-13.4-16.4-22.4-30.7-22.4c-11.8,0-22.6,6.3-28.2,16.5l-0.1,0.1h-0.2
		C11.7,29.2,1.9,40,1.9,52.9c0,11.4,7.8,21.5,19,24.5h0.7c1.6,0,3-1.3,3-3c0-1.2-0.7-2.2-1.9-2.7l-0.1-0.1c-0.1-0.1-0.2-0.1-0.2-0.2
		c-9.1-3.1-14.1-9.7-14.1-18.7c0-10.1,8-18.5,18.3-19.2c5.9,0.3,12,3.5,15.1,8l0.1,0.1c0.6,0.9,1.6,1.4,2.6,1.4
		c1.8,0,3.2-1.4,3.2-3.1c0-0.4-0.1-0.7-0.2-1.1c-0.1-0.1-0.1-0.2-0.1-0.3s-0.1-0.2-0.2-0.2L47,38.1c0-0.1-0.1-0.1-0.1-0.1l-0.1-0.2
		c-3.7-4.9-8.5-8.1-14.3-9.5l-0.5-0.1l0.3-0.4c4.8-6.6,12.6-10.6,20.9-10.6c12,0,22.3,8,25,19.5l0.4,1.4c0.1,0.2,0.2,0.4,0.5,0.5
		l1.4,0.4c7.5,2,12.8,8.7,12.8,16.3c0,7.9-4.8,14.5-12,16.5c-0.1,0-0.1,0.1-0.2,0.1c-1.1,0.5-1.8,1.5-1.8,2.7c0,1.6,1.3,3,3,3
		c0.1,0,0.2,0,0.4-0.1c0.1,0,0.2,0,0.2-0.1c0.3-0.1,0.5-0.2,0.7-0.2c9.6-3.3,16-12,16-21.9C99.5,45.5,93.3,36.8,84,33.5z"/>
	<linearGradient id="SVGID_2_" gradientUnits="userSpaceOnUse" x1="27.1045" y1="76.2386" x2="74.3255" y2="76.2386">
		<stop  offset="0" style="stop-color:#2ECBFF"/>
		<stop  offset="0.9981" style="stop-color:#18FFF7"/>
	</linearGradient>
	<path class="st1" d="M37.6,62.5l-5.4,6.9c-0.6,0.9-0.2,2.3,0.8,3.1c1,0.8,2.4,0.9,3.1,0.1l5.4-6.9c0.7-0.9,0.3-2.3-0.8-3.2
		C39.7,61.6,38.3,61.6,37.6,62.5z M48.4,62.5L43,69.4c-0.6,0.9-0.2,2.3,0.8,3.1c1,0.8,2.4,0.9,3.1,0.1l5.4-6.9
		c0.7-0.9,0.3-2.3-0.8-3.2C50.5,61.6,49.1,61.6,48.4,62.5z M59.3,62.5l-5.4,6.9c-0.6,0.9-0.2,2.3,0.8,3.1c1,0.8,2.4,0.9,3.1,0.1
		l5.4-6.9c0.7-0.9,0.3-2.3-0.8-3.2C61.4,61.6,59.9,61.6,59.3,62.5z M70.1,62.5l-5.4,6.9c-0.6,0.9-0.2,2.3,0.8,3.1
		c1,0.8,2.4,0.9,3.1,0.1l5.4-6.9c0.7-0.9,0.3-2.3-0.8-3.2C72.2,61.6,70.8,61.6,70.1,62.5z M32.8,79.9l-5.4,7
		c-0.6,0.9-0.2,2.3,0.8,3.1c1,0.8,2.4,0.9,3.1,0.1l5.4-6.9c0.7-0.9,0.3-2.3-0.8-3.2C34.9,79,33.4,79,32.8,79.9z M43.6,79.9l-5.4,6.9
		c-0.6,0.9-0.2,2.3,0.8,3.1c1,0.8,2.4,0.9,3.1,0.1l5.4-6.9c0.7-0.9,0.3-2.3-0.8-3.2C45.7,79,44.3,79,43.6,79.9z M54.4,79.9l-5.4,6.9
		c-0.6,0.9-0.2,2.3,0.8,3.1s2.4,0.9,3.1,0.1l5.4-6.9c0.7-0.9,0.3-2.3-0.8-3.2C56.5,79,55.1,79,54.4,79.9z M65.2,79.9l-5.4,6.9
		c-0.6,0.9-0.2,2.3,0.8,3.1s2.4,0.9,3.1,0.1l5.4-6.9c0.7-0.9,0.3-2.3-0.8-3.2C67.4,79,66,79,65.2,79.9z"/>
</g>
</svg>
