<?xml version="1.0" encoding="utf-8"?>
<!-- Generator: Adobe Illustrator 22.0.0, SVG Export Plug-In . SVG Version: 6.00 Build 0)  -->
<svg version="1.1" id="图层_1" xmlns="http://www.w3.org/2000/svg" xmlns:xlink="http://www.w3.org/1999/xlink" x="0px" y="0px"
	 viewBox="0 0 100 100" style="enable-background:new 0 0 100 100;" xml:space="preserve">
<style type="text/css">
	.st0{fill:url(#SVGID_1_);}
</style>
<linearGradient id="SVGID_1_" gradientUnits="userSpaceOnUse" x1="8.6756" y1="49.6526" x2="91" y2="49.6526">
	<stop  offset="0" style="stop-color:#2ECBFF"/>
	<stop  offset="0.9981" style="stop-color:#18FFF7"/>
</linearGradient>
<path class="st0" d="M30.1,36.3l16.9,8.8V27.4l-12.2-6.3c-1.4-0.7-1.9-2.4-1.1-3.6c0.8-1.3,2.6-1.7,4-1l9.2,4.8V9.9
	c0-1.5,1.3-2.7,2.9-2.7c1.6,0,2.9,1.2,2.9,2.7v11.5l9.4-4.9c1.4-0.7,3.2-0.3,4,0.9c0.8,1.3,0.4,2.9-1.1,3.6c0,0,0,0,0,0l-12.3,6.4
	v17.5l16.9-8.8V23.6c0-1.5,1.3-2.7,2.9-2.7c1.6,0,2.9,1.2,2.9,2.7v9.6l11-5.7c1.4-0.7,3.2-0.3,4,1c0.8,1.3,0.3,2.9-1.1,3.6
	l-11.1,5.8l9.4,4.9c1.4,0.7,1.9,2.4,1.1,3.6c-0.8,1.3-2.6,1.7-4,1l-12.3-6.4l-16.9,8.8l17.4,9.1l12.3-6.4c1.4-0.7,3.2-0.3,4,1
	c0.8,1.3,0.3,2.9-1.1,3.6l-9.4,4.9l10.5,5.5c1.4,0.7,1.9,2.4,1,3.6c-0.8,1.3-2.6,1.7-4,1l-10.4-5.4V76c0,1.5-1.3,2.7-2.9,2.7
	s-2.9-1.2-2.9-2.7V63.4l-17.5-9.1v18.2l12.3,6.4c1.4,0.7,1.9,2.4,1,3.6c-0.8,1.3-2.6,1.7-4,1l-9.4-4.9v10.9c0,1.5-1.3,2.7-2.9,2.7
	c-1.6,0-2.9-1.2-2.9-2.7V78.6l-9.2,4.8c-1.4,0.7-3.2,0.3-4-1c-0.8-1.3-0.3-2.9,1.1-3.6l0,0l12.2-6.3V54.2l-17.4,9.1v12.9
	c0,1.5-1.3,2.7-2.9,2.7c-1.6,0-2.9-1.2-2.9-2.7v-9.8l-10.5,5.5c-1.4,0.7-3.2,0.3-4-0.9s-0.4-2.9,1.1-3.6c0,0,0,0,0,0l10.4-5.4
	L11.3,57c-1.4-0.8-1.8-2.4-1-3.7c0.8-1.2,2.5-1.6,3.9-0.9l12.2,6.3L44,49.7L27,40.8l-12.2,6.3c-1.4,0.7-3.2,0.3-4-0.9
	c-0.8-1.3-0.4-2.9,1.1-3.6c0,0,0,0,0,0l9.2-4.8l-11-5.7c-1.4-0.7-1.9-2.4-1.1-3.6c0.8-1.3,2.6-1.7,4-1l11.1,5.8v-9.8
	c0-1.5,1.3-2.7,2.9-2.7c1.6,0,2.9,1.2,2.9,2.7V36.3z"/>
</svg>
