<svg xmlns="http://www.w3.org/2000/svg" viewBox="0 0 100 100" style="enable-background:new 0 0 100 100" xml:space="preserve"><linearGradient id="a" gradientUnits="userSpaceOnUse" x1="8.676" y1="49.653" x2="91" y2="49.653"><stop offset="0" style="stop-color:#2ecbff"/><stop offset=".998" style="stop-color:#18fff7"/></linearGradient><path d="M30.1 36.3 47 45.1V27.4l-12.2-6.3c-1.4-.7-1.9-2.4-1.1-3.6.8-1.3 2.6-1.7 4-1l9.2 4.8V9.9c0-1.5 1.3-2.7 2.9-2.7 1.6 0 2.9 1.2 2.9 2.7v11.5l9.4-4.9c1.4-.7 3.2-.3 4 .9.8 1.3.4 2.9-1.1 3.6l-12.3 6.4v17.5l16.9-8.8V23.6c0-1.5 1.3-2.7 2.9-2.7 1.6 0 2.9 1.2 2.9 2.7v9.6l11-5.7c1.4-.7 3.2-.3 4 1 .8 1.3.3 2.9-1.1 3.6l-11.1 5.8 9.4 4.9c1.4.7 1.9 2.4 1.1 3.6-.8 1.3-2.6 1.7-4 1L72.4 41l-16.9 8.8 17.4 9.1 12.3-6.4c1.4-.7 3.2-.3 4 1 .8 1.3.3 2.9-1.1 3.6L78.7 62l10.5 5.5c1.4.7 1.9 2.4 1 3.6-.8 1.3-2.6 1.7-4 1l-10.4-5.4V76c0 1.5-1.3 2.7-2.9 2.7S70 77.5 70 76V63.4l-17.5-9.1v18.2l12.3 6.4c1.4.7 1.9 2.4 1 3.6-.8 1.3-2.6 1.7-4 1l-9.4-4.9v10.9c0 1.5-1.3 2.7-2.9 2.7-1.6 0-2.9-1.2-2.9-2.7V78.6l-9.2 4.8c-1.4.7-3.2.3-4-1-.8-1.3-.3-2.9 1.1-3.6l12.2-6.3V54.2l-17.4 9.1v12.9c0 1.5-1.3 2.7-2.9 2.7-1.6 0-2.9-1.2-2.9-2.7v-9.8L13 71.9c-1.4.7-3.2.3-4-.9s-.4-2.9 1.1-3.6L20.5 62l-9.2-5c-1.4-.8-1.8-2.4-1-3.7.8-1.2 2.5-1.6 3.9-.9l12.2 6.3 17.6-9-17-8.9-12.2 6.3c-1.4.7-3.2.3-4-.9-.8-1.3-.4-2.9 1.1-3.6l9.2-4.8-11-5.7c-1.4-.7-1.9-2.4-1.1-3.6.8-1.3 2.6-1.7 4-1l11.1 5.8v-9.8c0-1.5 1.3-2.7 2.9-2.7 1.6 0 2.9 1.2 2.9 2.7v12.8z" style="fill:url(#a)"/></svg>