<?xml version="1.0" encoding="utf-8"?>
<!-- Generator: Adobe Illustrator 22.0.0, SVG Export Plug-In . SVG Version: 6.00 Build 0)  -->
<svg version="1.1" id="图层_1" xmlns="http://www.w3.org/2000/svg" xmlns:xlink="http://www.w3.org/1999/xlink" x="0px" y="0px"
	 viewBox="0 0 100 100" style="enable-background:new 0 0 100 100;" xml:space="preserve">
<style type="text/css">
	.st0{fill:url(#SVGID_1_);}
</style>
<linearGradient id="SVGID_1_" gradientUnits="userSpaceOnUse" x1="1.9317" y1="50.4587" x2="99.9317" y2="50.4587">
	<stop  offset="0" style="stop-color:#2ECBFF"/>
	<stop  offset="0.9981" style="stop-color:#18FFF7"/>
</linearGradient>
<path class="st0" d="M50.9,19c-17.4,0-31.5,14.1-31.5,31.5c0,17.4,14.1,31.5,31.5,31.5c17.4,0,31.5-14.1,31.5-31.5
	C82.4,33,68.3,19,50.9,19z M50.9,74.9c-13.5,0-24.5-11-24.5-24.5S37.4,26,50.9,26s24.5,11,24.5,24.5S64.4,74.9,50.9,74.9z M50.9,1.5
	C49,1.5,47.4,3,47.4,5v7c0,1.9,1.6,3.5,3.5,3.5c1.9,0,3.5-1.6,3.5-3.5V5C54.4,3,52.9,1.5,50.9,1.5z M50.9,85.4
	c-1.9,0-3.5,1.6-3.5,3.5v7c0,1.9,1.6,3.5,3.5,3.5c1.9,0,3.5-1.6,3.5-3.5v-7C54.4,87,52.9,85.4,50.9,85.4z M16.3,15.8
	c-1.4,1.4-1.4,3.6,0,5l5,5c1.4,1.3,3.6,1.2,5-0.2c1.3-1.3,1.3-3.4,0-4.8l-5-5C19.9,14.5,17.6,14.5,16.3,15.8z M75.7,75.2
	c-1.4,1.4-1.4,3.6,0,5l5,5c1.4,1.3,3.6,1.2,5-0.2c1.3-1.3,1.3-3.4,0-4.8l-5-5C79.2,73.8,77,73.8,75.7,75.2z M1.9,50.4
	c0,1.9,1.6,3.5,3.5,3.5h7c1.9,0,3.5-1.6,3.5-3.5s-1.6-3.5-3.5-3.5h-7C3.5,46.9,1.9,48.5,1.9,50.4z M85.9,50.4c0,1.9,1.6,3.5,3.5,3.5
	h7c1.9,0,3.5-1.6,3.5-3.5s-1.6-3.5-3.5-3.5h-7C87.5,46.9,85.9,48.5,85.9,50.4z M16.3,85.1c1.4,1.4,3.6,1.4,5,0l5-5
	c1.3-1.4,1.2-3.6-0.2-5c-1.3-1.3-3.4-1.3-4.8,0l-5,5C14.9,81.5,14.9,83.7,16.3,85.1z M75.7,25.7c1.4,1.4,3.6,1.4,5,0l5-5
	c1.3-1.4,1.2-3.6-0.2-5c-1.3-1.3-3.4-1.3-4.8,0l-5,5C74.3,22.1,74.3,24.3,75.7,25.7z"/>
</svg>
