<svg xmlns="http://www.w3.org/2000/svg" viewBox="0 0 100 100" style="enable-background:new 0 0 100 100" xml:space="preserve"><linearGradient id="a" gradientUnits="userSpaceOnUse" x1="1.932" y1="50.459" x2="99.932" y2="50.459"><stop offset="0" style="stop-color:#2ecbff"/><stop offset=".998" style="stop-color:#18fff7"/></linearGradient><path d="M50.9 19c-17.4 0-31.5 14.1-31.5 31.5S33.5 82 50.9 82s31.5-14.1 31.5-31.5C82.4 33 68.3 19 50.9 19zm0 55.9c-13.5 0-24.5-11-24.5-24.5S37.4 26 50.9 26s24.5 11 24.5 24.5-11 24.4-24.5 24.4zm0-73.4C49 1.5 47.4 3 47.4 5v7c0 1.9 1.6 3.5 3.5 3.5s3.5-1.6 3.5-3.5V5c0-2-1.5-3.5-3.5-3.5zm0 83.9c-1.9 0-3.5 1.6-3.5 3.5v7c0 1.9 1.6 3.5 3.5 3.5s3.5-1.6 3.5-3.5v-7c0-1.9-1.5-3.5-3.5-3.5zM16.3 15.8c-1.4 1.4-1.4 3.6 0 5l5 5c1.4 1.3 3.6 1.2 5-.2 1.3-1.3 1.3-3.4 0-4.8l-5-5c-1.4-1.3-3.7-1.3-5 0zm59.4 59.4c-1.4 1.4-1.4 3.6 0 5l5 5c1.4 1.3 3.6 1.2 5-.2 1.3-1.3 1.3-3.4 0-4.8l-5-5c-1.5-1.4-3.7-1.4-5 0zM1.9 50.4c0 1.9 1.6 3.5 3.5 3.5h7c1.9 0 3.5-1.6 3.5-3.5s-1.6-3.5-3.5-3.5h-7c-1.9 0-3.5 1.6-3.5 3.5zm84 0c0 1.9 1.6 3.5 3.5 3.5h7c1.9 0 3.5-1.6 3.5-3.5s-1.6-3.5-3.5-3.5h-7c-1.9 0-3.5 1.6-3.5 3.5zM16.3 85.1c1.4 1.4 3.6 1.4 5 0l5-5c1.3-1.4 1.2-3.6-.2-5-1.3-1.3-3.4-1.3-4.8 0l-5 5c-1.4 1.4-1.4 3.6 0 5zm59.4-59.4c1.4 1.4 3.6 1.4 5 0l5-5c1.3-1.4 1.2-3.6-.2-5-1.3-1.3-3.4-1.3-4.8 0l-5 5c-1.4 1.4-1.4 3.6 0 5z" style="fill:url(#a)"/></svg>