<svg class="icon" viewBox="0 0 1271 1024" xmlns="http://www.w3.org/2000/svg" width="930.908" height="750"><path d="M984.298 143.585c.628-15.765 12.71-30.181 28.384-32.876 19.577-4.087 39.833 12.755 40.286 32.606 2.65 27.666.584 55.467 1.213 83.223-23.444 0-46.884 0-70.377.044.588-27.666-.944-55.331.494-82.997zM475.486 365.272c7.815-7.5 21.783-2.111 24.118 7.904 4.132 11.588-9.88 24.388-20.974 18.19-10.15-4.402-12.081-19.537-3.144-26.094zm5.075 202.464c34.987-31.618 80.798-51.555 128.225-52.457 48.82-2.52 98.273 14.102 135.86 45.271 6.916 4.671 8.313 13.2 10.558 20.615-23.044-8.493-39.702-27.936-62.652-36.649-66.695-30.63-149.468-15.898-203.093 33.685-2.56 0-7.68.045-10.24.09.354-2.65.983-7.905 1.342-10.555zm502.973 227.301c52.458 7.73 105.41 16.573 154.992 36.024 15.63 7.011 33.864 14.552 41.234 31.26 5.385 12.26-6.153 23.533-15.41 29.956-24.611 15.72-53.265 23.534-81.245 30.855-67.369 16.388-136.493 24.522-205.43 30.59-130.829 10.913-262.422 12.17-393.52 5.384-81.112-4.536-162.314-11.857-242.257-26.992-37.727-7.68-75.992-15.814-110.71-32.966-11.766-6.427-25.375-14.776-28.114-28.968-.719-13.564 11.452-22.86 21.962-29.013 27.89-15.54 59.015-24.572 90.498-29.373.674 24.657-2.2 49.628 2.066 74.06 5.03 24.343 29.956 39.653 53.985 38.22 218.633 1.842 437.35.36 655.988.944 25.645 1.527 51.515-16.389 55.602-42.397 3.638-29.063-.809-58.39.359-87.584z" fill="#e6e6e6"/><path d="M1052.474 85.962c-13.204-14.91-34.313-16.438-52.902-16.258-206.69.718-413.377-.719-620.018.988-21.513.898-45.631-4.087-64.674 8.533-15.54 9.836-23.624 28.295-22.995 46.305-.018 41.804-.014 83.613-.01 125.417h13.497c-.022-40.219.01-80.438-.058-120.656-.18-12.62 2.245-26.499 12.216-35.257 8.982-9.252 22.456-11.048 34.762-10.913 206.731.27 413.462.045 620.194.09 17.83.359 35.88-1.617 53.535 1.706 11.363 2.515 18.324 12.665 26.36 20.21-14.099-4.985-28.695-12.8-44.06-8.667-23.04 4.49-39.568 27.216-38.22 50.436-.09 229.143 0 458.24-.045 687.383-.18 15.85-1.217 35.296-17.202 43.695-20.03 14.322-51.065-1.393-52.233-25.78-3.143-36.24.674-72.758-2.07-109.087-198.104-.23-396.212-.095-594.32-.05.63-18.998 1.348-37.95 1.213-56.949-.094-128.902-.032-257.832-.054-386.762h-13.514c.036 148.094.112 296.183-.175 444.25-25.106-.224-50.257-.404-75.363.18-1.078 22.321-.853 44.638-.808 67.009.673 24.657-2.201 49.628 2.066 74.06 5.03 24.343 29.956 39.653 53.984 38.22 218.633 1.842 437.351.36 655.989.944 25.645 1.527 51.514-16.389 55.601-42.397 3.638-29.059-.808-58.386.36-87.58.184-184.894.049-369.803.049-554.706 27.89-.09 55.781.449 83.672-.719 1.033-33.415.18-66.874.943-100.334.224-18.684-.764-39.882-15.72-53.31zM939.295 909.474c-17.38 2.38-34.986.849-52.412 1.122-197.66.045-395.318-.18-592.932.135-17.516-.36-37.771 2.78-51.964-10.105-11.228-9.297-13.339-24.702-13.07-38.4.136-34.762.225-69.524.18-104.29 218.903-.046 437.85-.046 656.798 0 .539 31.797-1.213 63.685.718 95.438.809 20.704 16.618 39.392 36.873 43.7 15.36 4.311 30.316-2.92 44.553-7.636-8.533 7.864-16.527 18.244-28.744 20.036zm114.886-682.936c-23.444 0-46.884 0-70.377.044.588-27.666-.944-55.331.494-82.997.628-15.765 12.71-30.181 28.384-32.876 19.577-4.087 39.833 12.755 40.286 32.606 2.65 27.666.584 55.467 1.213 83.223z" fill="#e6e6e6"/><path d="M343.574 273.511h.014l.009-.004.004.009 48.205 9.476 41.445-24.225.004-.01.01.005.017-.009.01.014 48.2 9.476 41.449-24.23v-.01l.013.005.01-.009.004.01 27.428 5.259-24.99-11.507-44.75 16.824-.104.225-.247-.094-.251.094-.103-.225-45.223-17.004-45.217 17.004-.108.225-.247-.094-.252.094-.103-.225-45.222-17.004-51.788 18.558v-11.646l51.774-18.809.005-.013.009.004.013-.004.005.013 45.559 17.125 45.559-17.125v-.013l.013.004.014-.004.004.013 45.56 17.125 45.554-17.125.004-.013.014.004.013-.004.01.013 70.278 32.364 4.671 2.151 2.061.948-4.904 8.502-5.771-1.114-66.91-12.827-41.172 24.064-.054.238-.264-.054-.23.135-.148-.207-47.84-9.404-41.144 24.046-.059.238-.265-.05-.224.13-.144-.201-47.85-9.41-43.309 23.157-10.734-8.04 51.681-26.825zm435.03 118.973-15.15-15.118 15.127-15.153a7.23 7.23 0 0 0 2.116-5.133c0-1.94-.764-3.76-2.134-5.125-2.735-2.74-7.509-2.744-10.258 0l-15.122 15.153-15.153-15.121c-2.749-2.736-7.5-2.745-10.262.013a7.271 7.271 0 0 0 .013 10.258l15.149 15.126-15.118 15.15a7.202 7.202 0 0 0-2.124 5.128 7.206 7.206 0 0 0 2.138 5.134c1.37 1.37 3.189 2.124 5.124 2.124s3.755-.75 5.138-2.129l15.122-15.158 15.15 15.122c2.734 2.74 7.531 2.731 10.257-.009a7.267 7.267 0 0 0-.013-10.262zm-268.046 0-15.153-15.118 15.126-15.153a7.211 7.211 0 0 0 2.116-5.133c0-1.94-.76-3.76-2.134-5.125-2.74-2.74-7.509-2.744-10.258 0l-15.126 15.153-15.153-15.121c-2.745-2.736-7.496-2.745-10.263.013a7.276 7.276 0 0 0 .014 10.258l15.149 15.126-15.118 15.15a7.202 7.202 0 0 0-2.124 5.128c0 1.94.759 3.764 2.133 5.134a7.202 7.202 0 0 0 5.129 2.124 7.21 7.21 0 0 0 5.133-2.129l15.122-15.158 15.154 15.122c2.735 2.74 7.532 2.731 10.258-.009a7.267 7.267 0 0 0-.005-10.262zm-296.51 8.717-8.255-8.237 8.241-8.254a3.916 3.916 0 0 0 1.15-2.798 3.92 3.92 0 0 0-1.159-2.794 4.042 4.042 0 0 0-5.592 0l-8.241 8.255-8.255-8.241a4.042 4.042 0 0 0-5.591.004 3.97 3.97 0 0 0 .004 5.592l8.255 8.241-8.237 8.255a3.907 3.907 0 0 0-1.154 2.793c0 1.056.413 2.053 1.163 2.798a3.934 3.934 0 0 0 5.592 0l8.241-8.259 8.255 8.241a4.042 4.042 0 0 0 5.591-.004 3.97 3.97 0 0 0-.009-5.592zm931.821 305.426-18.018-17.969 17.987-18.019a8.594 8.594 0 0 0 2.52-6.099 8.542 8.542 0 0 0-2.533-6.095c-3.261-3.26-8.933-3.265-12.199 0l-17.987 18.024-18.019-17.988c-3.265-3.256-8.915-3.265-12.202.018a8.65 8.65 0 0 0 .013 12.199l18.019 17.982-17.979 18.01c-1.63 1.626-2.524 3.8-2.524 6.1s.903 4.473 2.533 6.098a8.569 8.569 0 0 0 6.095 2.529c2.3 0 4.464-.898 6.1-2.529l17.986-18.023 18.015 17.983c3.251 3.26 8.955 3.247 12.198-.013a8.65 8.65 0 0 0-.005-12.208z" fill="#e6e6e6"/></svg>