<?xml version="1.0" encoding="UTF-8"?>
<svg width="1004px" height="575px" viewBox="0 0 1004 575" version="1.1" xmlns="http://www.w3.org/2000/svg" xmlns:xlink="http://www.w3.org/1999/xlink">
    <!-- Generator: Sketch 57.1 (83088) - https://sketch.com -->
    <title>华中 2</title>
    <desc>Created with Sketch.</desc>
    <defs>
        <path d="M658.400382,312 L660.237667,312.423265 L662.074951,312.050389 L662.450171,312.634898 L662.372539,312.060466 L663.097102,312.100777 L663.925173,313.370573 L669.48878,314.136481 L672.594049,315.769076 L677.458971,315.517132 L677.924761,316.928016 L679.360948,316.514829 L680.124327,314.983012 L680.952398,314.962856 L681.237048,314.338036 L683.19078,314.690757 L684.549335,316.293118 L686.994734,314.99309 L686.464251,317.452059 L684.963371,318.177656 L685.06688,321.029657 L687.175875,319.507918 L687.162936,318.913331 L688.133333,319.255975 L692.390139,317.49237 L695.57304,316.837316 L696.530498,316.010942 L697.16449,315.910164 L697.267999,316.403974 L696.155278,318.197812 L694.266239,318.127267 L693.308781,319.18543 L693.567553,319.76994 L690.966891,320.102505 L689.905924,321.735099 L687.331138,321.906421 L685.222143,324.476245 L684.510519,324.234379 L684.898678,325.645263 L682.737928,326.763893 L682.026304,326.300317 L679.580904,327.418946 L678.092963,330.008926 L676.669715,330.512813 L676.009845,332.860927 L677.847129,333.616758 L681.042969,333.052404 L682.686173,333.778002 L682.401524,334.433055 L683.346043,334.614454 L683.203718,335.471062 L684.044729,335.249352 L686.205478,336.378059 L686.451312,338.272675 L687.952192,339.72387 L690.242328,339.995969 L690.604609,339.340916 L692.739482,339.955658 L695.094311,339.552548 L695.57304,339.018428 L696.1294,339.492082 L697.177429,339.300605 L697.720851,340.006047 L698.652431,339.713792 L698.134886,341.497553 L699.014713,342.727037 L701.460112,343.734811 L701.524805,344.440253 L704.992355,344.329398 L704.151345,346.818601 L706.118015,348.985315 L706.001568,350.265189 L704.746522,349.99309 L702.741035,350.829542 L702.650465,351.575295 L698.160764,353.046646 L696.737515,351.907861 L696.491682,350.678376 L695.262513,350.013245 L694.990802,348.551972 L693.684001,348.078318 L693.114702,348.521739 L692.3772,347.483732 L689.802415,347.574431 L688.974343,348.088396 L688.120394,350.406277 L689.504827,350.557443 L689.246054,351.897783 L688.430921,352.018716 L689.595397,354.911028 L685.920829,355.324215 L685.674995,356.15059 L684.808107,356.170746 L684.303501,358.035128 L685.118634,358.83127 L683.928281,361.753815 L681.547575,362.499568 L679.684413,362.469335 L678.131779,361.380939 L677.601296,361.844515 L678.015331,363.477109 L677.226076,364.031385 L682.388585,365.966312 L682.388585,369.977253 L684.109422,370.027642 L684.12236,370.531529 L685.830258,370.198963 L688.172149,372.768788 L689.970617,372.657933 L690.462284,371.388137 L691.471497,371.670314 L691.665576,371.247049 L691.91141,371.831558 L694.292116,370.269508 L692.9465,371.19666 L693.567553,371.488914 L694.486195,376.356464 L694.07216,381.858912 L692.480709,382.393032 L690.229389,382.0907 L687.305261,383.672905 L687.12412,384.620213 L685.325652,386.262885 L685.222143,387.693925 L686.761839,389.659084 L687.796929,389.911028 L688.637939,391.493234 L689.892985,390.545926 L691.769085,391.997121 L693.464044,391.493234 L694.550889,393.014973 L696.271725,393.438238 L696.737515,394.194069 L693.360535,395.645263 L693.360535,396.985603 L691.937287,397.287936 L691.600883,398.325943 L694.123914,400.764757 L693.813387,401.722142 L694.615582,402.13533 L693.632247,402.76015 L693.968651,403.818313 L695.223697,404.029945 L696.595191,405.370285 L696.737515,408.907573 L697.733789,410.963432 L698.872388,410.832422 L699.803969,411.547941 L703.219764,409.854881 L704.319547,409.864958 L705.186435,407.577311 L706.441481,407.285056 L710.245435,409.09905 L708.809249,411.114598 L706.221524,412.827815 L706.674376,413.099914 L706.195647,413.664267 L707.321307,414.712352 L707.968238,414.218543 L709.275039,414.63173 L711.811009,412.989058 L713.712986,412.575871 L714.088206,411.568097 L713.066055,410.822344 L715.343252,409.431615 L716.01606,409.703714 L716.093692,410.832422 L717.374615,410.560322 L717.736897,411.104521 L718.746109,410.580478 L719.289531,412.928592 L720.544577,413.422401 L720.71278,414.248776 L722.614757,414.00691 L723.442828,414.954218 L728.450075,414.541031 L730.468499,415.579038 L730.377929,416.788367 L731.413019,417.22171 L731.697668,417.816297 L731.02486,418.622517 L729.511042,418.703138 L728.96762,421.534984 L729.886262,423.056723 L731.270694,423.217967 L731.839993,423.772243 L731.477712,424.235819 L732.52574,424.05442 L733.159733,425.334293 L734.505349,426.029657 L735.372237,427.672329 L735.126403,430.232076 L735.954475,430.564642 L735.488684,431.501872 L736.174431,432.549957 L735.242851,433.174777 L733.457321,434.101929 L734.350086,434.63605 L733.897234,435.936078 L730.287359,436.530665 L729.769814,437.850849 L728.708847,437.498128 L725.888228,438.092715 L723.856864,440.148575 L721.747869,439.181111 L720.42813,437.488051 L717.478124,439.372589 L717.193475,438.757846 L716.559482,439.171034 L716.779439,440.541607 L715.200927,441.841635 L713.622415,441.861791 L713.505968,442.66801 L712.820221,442.033113 L712.160351,442.335445 L712.212106,443.595163 L713.182502,443.544774 L713.712986,444.572704 L713.570661,446.870429 L714.618689,447.706882 L712.92373,449.158077 L712.652019,450.21624 L710.905305,451.294558 L706.894333,451.798445 L704.500688,453.884538 L704.66889,454.922545 L703.905511,455.74892 L704.837092,456.68615 L704.358363,457.784624 L705.949813,459.155197 L705.354637,460.455226 L703.996082,460.102505 L702.055289,461.976965 L702.003534,463.196372 L703.16801,463.287072 L703.504414,464.204146 L701.912964,465.201843 L701.511866,466.260006 L697.669096,467.761589 L698.458352,468.940685 L696.439927,470.17017 L696.50462,471.843075 L695.404838,473.344659 L695.728303,475.289663 L693.179395,476.861791 L694.408564,479.078894 L693.464044,479.532393 L693.968651,480.026202 L693.606369,480.741722 L693.903958,481.547941 L692.532464,481.205298 L691.549129,483.38209 L692.855929,485.901526 L690.928075,486.254247 L690.216451,485.43795 L688.53443,485.115462 L687.007673,483.200691 L685.985522,482.898359 L681.03003,484.541031 L680.305467,483.946444 L677.717743,484.541031 L677.057873,485.97207 L675.02651,485.236395 L674.431333,486.395335 L673.603262,485.730204 L669.876939,487 L668.673647,485.589116 L667.871453,485.800749 L667.405662,485.024762 L665.684826,484.399942 L668.246673,483.361935 L669.372333,481.547941 L669.294701,480.509934 L671.55896,479.522315 L672.02475,478.645551 L673.43506,478.756407 L674.780676,478.16182 L673.978482,477.426145 L674.884185,475.924561 L671.571898,473.979557 L669.152376,475.400518 L664.843816,475.471062 L663.381751,476.277282 L663.472322,474.755543 L662.265,473.459 L661.0528,473.747768 L659.978894,475.229197 L659.073191,475.25943 L658.866173,474.775698 L655.98086,475.471062 L655.346868,474.735387 L652.565065,474.251656 L651.542914,473.596602 L651.374711,472.568673 L649.123391,473.022171 L648.605847,474.080334 L646.768563,474.997409 L645.358253,475.561762 L644.245531,475.178808 L644.34904,476.378059 L646.173386,476.28736 L647.053212,477.113735 L645.953429,477.647855 L646.703869,478.665707 L646.13457,479.482004 L646.613299,480.812266 L644.232593,481.275842 L642.899915,481.275842 L640.894429,478.000576 L639.00539,478.061042 L637.426878,477.285056 L636.650561,477.839332 L636.081262,477.143968 L634.41218,477.597466 L633.571169,477.002879 L632.057351,480.056435 L632.988932,481.023899 L632.691343,482.082062 L630.517655,483.47279 L625.355145,482.837892 L623.026194,484.873596 L620.968953,484.430176 L621.6547,482.62626 L620.865444,480.187446 L621.473559,479.532393 L620.658426,479.23006 L620.956014,478.433919 L620.283206,478.010654 L619.442196,478.484308 L618.213027,477.809099 L615.444162,479.41146 L615.418285,480.620789 L614.61609,480.862655 L613.77508,480.923121 L613.128149,479.834725 L613.788018,477.597466 L615.534732,476.811402 L615.457101,475.854017 L618.691756,473.626836 L619.390441,471.359344 L618.821142,469.817449 L621.033646,469.021307 L620.787812,468.124388 L621.887595,467.711201 L619.248116,467.207314 L618.458861,467.872445 L617.462587,467.26778 L617.164998,465.715808 L618.238904,463.952203 L618.200088,462.057587 L613.826834,461.251368 L613.386921,460.344371 L612.597665,462.168442 L609.971125,462.249064 L609.64766,461.33199 L609.143054,461.6444 L607.538665,461.049813 L605.830767,463.266916 L603.695894,464.435934 L602.854884,466.10884 L601.67747,466.290239 L600.745889,464.798733 L600.073081,465.504175 L598.649832,465.141376 L598.947421,463.377771 L597.989963,463.539015 L596.993689,462.984739 L595.402239,465.312698 L594.134254,465.504175 L594.703553,466.925137 L594.069561,467.620501 L591.999381,467.439102 L592.995655,465.977829 L591.662977,465.111143 L589.825693,465.816585 L589.075253,465.342931 L588.842358,464.667722 L589.515166,464.042902 L588.376568,462.390153 L589.023499,461.604089 L586.733363,462.17852 L585.646519,461.130435 L587.8849,458.167578 L587.030951,456.46444 L585.840598,455.879931 L589.657491,455.013245 L589.605736,453.380651 L588.324813,453.310107 L590.278545,452.342643 L589.566921,450.558883 L588.712972,450.639505 L588.91999,449.682119 L585.245421,449.420098 L583.951559,450.568961 L582.903531,450.568961 L583.110549,449.863519 L579.203085,451.647279 L577.715144,450.468183 L579.228963,450.054996 L579.63006,448.56349 L582.191907,447.485171 L581.984889,446.930895 L582.981163,446.537864 L583.459892,445.308379 L583.744541,445.681255 L584.585552,445.197524 L586.086432,445.5704 L586.189941,444.764181 L588.674156,443.393608 L588.324813,441.055572 L586.345204,440.460985 L586.836872,439.735387 L586.151125,437.991938 L587.367355,436.913619 L586.112309,436.550821 L587.470864,433.497265 L586.086432,433.366254 L585.659457,432.8019 L585.685334,430.141376 L586.435774,428.841348 L584.210332,428.408005 L586.177002,426.815721 L585.154851,426.140513 L585.064281,424.709473 L586.435774,422.270659 L584.909017,421.182263 L582.929408,420.013245 L583.304628,419.09617 L582.230723,417.22171 L579.681814,418.239562 L580.069973,416.879067 L578.866681,416.093003 L579.513612,414.289087 L578.957252,414.309243 L578.633786,413.492946 L577.676328,413.734811 L577.624574,413.170458 L577.145845,413.543334 L575.851983,412.878203 L575.50264,410.540167 L574.428734,410.469623 L573.057241,412.606104 L571.905703,412.253383 L571.621054,411.104521 L571,411.06421 L571.866888,410.086669 L573.264259,410.298301 L573.548908,408.534696 L572.96667,407.617622 L574.131146,404.755543 L571.310527,402.679528 L571.698686,401.228333 L574.118208,401.41981 L575.321499,400.442269 L575.101543,399.807371 L576.046062,399.756982 L576.731809,401.057011 L578.21975,401.097322 L581.751994,398.759286 L583.00704,398.870141 L582.528311,400.089548 L583.369321,400.553124 L586.086432,399.081774 L586.746301,401.137633 L588.570647,399.253095 L589.916263,398.477109 L590.576133,398.759286 L593.810788,395.877052 L597.511234,395.151454 L597.795883,396.139073 L598.753341,396.592571 L600.202467,393.891736 L599.413211,392.238986 L600.629441,391.473078 L599.775492,387.835013 L596.579653,386.565217 L597.071321,386.010942 L594.457719,385.255111 L592.995655,385.456666 L593.073287,383.289951 L590.589072,382.816297 L591.520652,381.617046 L590.653765,380.286784 L591.404205,379.641808 L590.692581,378.422401 L591.26188,377.263461 L590.964292,375.721566 L589.178762,374.310682 L589.696307,372.305212 L591.494775,370.692773 L591.210125,369.906709 L595.971538,369.916787 L597.718252,370.602073 L598.908605,369.553988 L600.124835,369.896631 L600.810582,369.312122 L599.956633,368.455514 L599.736676,366.661676 L597.860576,365.694212 L595.259914,365.099626 L594.108376,365.603513 L593.577893,365.17017 L594.017806,362.721278 L588.26012,361.481716 L589.372841,360.292542 L590.912537,360.262309 L591.481836,359.607256 L592.814514,360.252232 L595.01408,360.030521 L597.938208,360.877052 L600.124835,360.61503 L601.237556,361.370861 L604.39458,361.179384 L606.6459,359.919666 L607.266954,361.441405 L608.185596,361.441405 L609.052483,362.328246 L609.621783,361.55226 L610.799197,361.501872 L611.032092,360.645263 L612.36477,360.655341 L613.503369,359.879355 L614.266747,358.639793 L613.904466,355.102505 L611.045031,353.570688 L610.139327,351.635762 L607.370463,350.74892 L607.176383,350.103945 L608.483184,349.307803 L607.008181,348.098474 L607.952701,346.042614 L604.653352,344.823208 L604.420457,344.178232 L605.61081,343.452635 L605.287345,342.243305 L604.459273,342.31385 L603.385367,340.802188 L604.032299,339.955658 L603.73471,339.330838 L608.677263,339.492082 L609.815862,338.534696 L612.157752,338.443997 L612.610604,337.345523 L613.218719,337.788943 L616.323988,336.186582 L617.475525,336.438526 L623.129703,335.561762 L624.798785,334.040023 L624.772907,333.364814 L626.90778,332.739994 L627.308877,332.105096 L629.391995,331.964008 L630.65998,332.709761 L631.138709,328.860063 L633.66174,329.63605 L634.813277,329.283329 L634.7874,329.787216 L635.576656,329.867838 L636.637623,329.384106 L640.234559,329.787216 L640.79092,329.081774 L641.192017,329.756982 L642.485879,330.069392 L643.456276,329.243018 L645.280621,329.353873 L646.458036,328.507342 L646.341588,327.771667 L648.38589,328.043766 L649.873831,326.370861 L651.361773,326.622804 L651.374711,325.826663 L654.583489,324.99021 L655.463316,323.166139 L656.679546,323.33746 L655.864413,320.505615 L657.197091,320.203282 L656.886564,317.835013 L657.688758,317.865246 L657.895776,317.300893 L657.261784,317.109415 L657.145336,315.718687 L657.999285,315.496977 L657.210029,315.053556 L657.85696,314.801612 L657.442925,314.509358 L658.400382,312 Z M590.653765,454.952779 L590.071527,455.607832 L590.60201,455.466743 L590.653765,454.952779 Z M585.323,419.662 L585.310114,419.670602 L585.58,420.994 L585.594764,420.990786 L585.323,419.662 Z" id="path-1"></path>
        <filter x="-5.1%" y="-4.9%" width="110.3%" height="109.7%" filterUnits="objectBoundingBox" id="filter-2">
            <feGaussianBlur stdDeviation="8" in="SourceAlpha" result="shadowBlurInner1"></feGaussianBlur>
            <feOffset dx="-1" dy="-1" in="shadowBlurInner1" result="shadowOffsetInner1"></feOffset>
            <feComposite in="shadowOffsetInner1" in2="SourceAlpha" operator="arithmetic" k2="-1" k3="1" result="shadowInnerInner1"></feComposite>
            <feColorMatrix values="0 0 0 0 0.206573933   0 0 0 0 0.918783158   0 0 0 0 1  0 0 0 1 0" type="matrix" in="shadowInnerInner1" result="shadowMatrixInner1"></feColorMatrix>
            <feGaussianBlur stdDeviation="0.5" in="SourceAlpha" result="shadowBlurInner2"></feGaussianBlur>
            <feOffset dx="0" dy="2" in="shadowBlurInner2" result="shadowOffsetInner2"></feOffset>
            <feComposite in="shadowOffsetInner2" in2="SourceAlpha" operator="arithmetic" k2="-1" k3="1" result="shadowInnerInner2"></feComposite>
            <feColorMatrix values="0 0 0 0 0.199599848   0 0 0 0 0.961825321   0 0 0 0 1  0 0 0 1 0" type="matrix" in="shadowInnerInner2" result="shadowMatrixInner2"></feColorMatrix>
            <feGaussianBlur stdDeviation="0.5" in="SourceAlpha" result="shadowBlurInner3"></feGaussianBlur>
            <feOffset dx="0" dy="-2" in="shadowBlurInner3" result="shadowOffsetInner3"></feOffset>
            <feComposite in="shadowOffsetInner3" in2="SourceAlpha" operator="arithmetic" k2="-1" k3="1" result="shadowInnerInner3"></feComposite>
            <feColorMatrix values="0 0 0 0 0   0 0 0 0 0.862745098   0 0 0 0 0.976470588  0 0 0 1 0" type="matrix" in="shadowInnerInner3" result="shadowMatrixInner3"></feColorMatrix>
            <feMerge>
                <feMergeNode in="shadowMatrixInner1"></feMergeNode>
                <feMergeNode in="shadowMatrixInner2"></feMergeNode>
                <feMergeNode in="shadowMatrixInner3"></feMergeNode>
            </feMerge>
        </filter>
    </defs>
    <g id="组件" stroke="none" stroke-width="1" fill="none" fill-rule="evenodd">
        <g id="画板备份" transform="translate(1.000000, 0.000000)" fill-rule="nonzero">
            <g id="华中-2" transform="translate(-0.496208, 0.000000)">
                <g id="华中">
                    <use fill="#0B9BF2" xlink:href="#path-1"></use>
                    <use fill="black" fill-opacity="1" filter="url(#filter-2)" xlink:href="#path-1"></use>
                    <path stroke="#FFFFFF" stroke-width="1" d="M661.839043,312.60846 L662.174398,312.540399 L661.654186,312.320495 L661.839043,312.60846 Z M662.982484,312.840363 L662.949097,312.593316 L663.069327,312.600005 L662.939886,312.525159 L662.868035,311.993503 L662.344765,312.559694 L662.816569,312.585943 L662.982484,312.840363 Z M669.33372,314.619851 L669.420591,314.63181 L669.256103,314.579044 L669.33372,314.619851 Z M677.103791,316.036196 L677.48483,316.016463 L676.984176,315.673881 L677.103791,316.036196 Z M680.437526,315.475537 L680.571835,315.206027 L680.136493,315.482864 L680.437526,315.475537 Z M681.530857,314.899163 L681.692055,314.545324 L681.148215,314.830082 L681.530857,314.899163 Z M682.925414,315.150932 L683.101947,315.182803 L682.809405,315.014104 L682.925414,315.150932 Z M686.278979,315.939865 L687.22944,315.434579 L686.505978,314.887648 L686.278979,315.939865 Z M686.02695,317.108106 L685.975495,317.346617 L686.246624,317.001904 L686.02695,317.108106 Z M687.678555,319.625648 L687.662818,318.902454 L686.996461,319.384804 L687.678555,319.625648 Z M694.010768,317.664386 L694.206485,317.624688 L694.051912,317.618915 L694.010768,317.664386 Z M696.494385,316.702589 L696.749491,316.482408 L696.772797,316.478704 L696.778634,316.506551 L696.783847,316.476947 L697.242983,316.403965 L696.675125,316.012741 L696.737554,316.310571 L696.620396,316.499444 L696.60899,316.504742 L696.617998,316.50331 L696.494385,316.702589 Z M695.883557,317.687316 L695.730384,317.934249 L696.173937,317.69816 L695.883557,317.687316 Z M692.838839,319.359054 L693.110355,319.972349 L693.504131,319.273978 L692.838839,319.359054 Z M689.623036,321.252817 L689.486676,321.462645 L689.872728,321.236203 L689.623036,321.252817 Z M685.055262,323.891436 L684.835637,324.159049 L685.383043,324.002841 L685.055262,323.891436 Z M684.309165,325.387425 L684.416589,325.777894 L684.668804,325.201239 L684.309165,325.387425 Z M682.766755,326.185938 L682.508054,326.319868 L683.010844,326.344946 L682.766755,326.185938 Z M677.751617,329.599365 L677.659416,329.759854 L677.926092,329.537594 L677.751617,329.599365 Z M680.980135,333.571236 L681.129918,333.544786 L680.840996,333.509796 L680.980135,333.571236 Z M682.029499,334.034609 L682.484201,334.235393 L682.227598,333.578731 L682.029499,334.034609 Z M682.772885,335.013514 L683.251739,335.105481 L682.852805,334.532503 L682.772885,335.013514 Z M683.9849,335.782207 L684.172186,335.732834 L683.813226,335.69253 L683.9849,335.782207 Z M685.743145,336.700659 L685.973976,336.821237 L685.709635,336.442397 L685.743145,336.700659 Z M690.849257,339.931679 L691.042151,339.582901 L690.466255,339.821392 L690.849257,339.931679 Z M695.620053,339.715108 L695.945372,339.352147 L695.248919,339.399145 L695.620053,339.715108 Z M696.96738,339.847258 L697.267292,339.792463 L696.781327,339.605733 L696.96738,339.847258 Z M697.912409,340.469979 L698.802099,340.190866 L698.172235,339.574467 L697.912409,340.469979 Z M700.989835,344.0818 L701.269601,344.197094 L700.962201,343.780473 L700.989835,344.0818 Z M704.287962,344.852173 L705.008332,344.829143 L704.518661,344.169354 L704.287962,344.852173 Z M705.600172,349.158737 L705.747784,349.321364 L705.620072,348.940011 L705.600172,349.158737 Z M705.554863,349.656725 L705.503625,350.219884 L706.107509,349.776541 L705.554863,349.656725 Z M702.192464,351.199225 L702.154112,351.515014 L702.494755,351.100159 L702.192464,351.199225 Z M698.262008,352.487301 L698.005054,352.571509 L698.473142,352.656236 L698.262008,352.487301 Z M697.192102,351.631236 L697.049894,351.517451 L697.227811,351.809827 L697.192102,351.631236 Z M695.710443,349.68712 L695.500469,349.573499 L695.754087,349.921841 L695.710443,349.68712 Z M693.219671,347.806208 L692.807458,348.127275 L693.522297,348.232143 L693.219671,347.806208 Z M688.911005,350.995576 L689.450554,351.054489 L689.013892,350.462661 L688.911005,350.995576 Z M688.822271,351.455182 L688.75512,351.803001 L689.172677,351.403196 L688.822271,351.455182 Z M688.885939,354.487652 L689.131577,355.097767 L689.539526,354.414159 L688.885939,354.487652 Z M685.299525,355.659185 L685.195751,356.008023 L685.663373,355.650725 L685.299525,355.659185 Z M684.528746,358.954043 L684.769272,359.188966 L684.655571,358.642664 L684.528746,358.954043 Z M683.554061,361.347082 L683.465217,361.565209 L683.778818,361.276677 L683.554061,361.347082 Z M681.475061,361.998326 L681.398112,362.02243 L681.555687,361.999634 L681.475061,361.998326 Z M679.845852,361.971889 L679.692526,361.969401 L679.971419,362.059911 L679.845852,361.971889 Z M677.44596,363.265984 L677.530674,363.600021 L677.727975,363.067931 L677.44596,363.265984 Z M681.888585,366.312876 L682.213104,366.434506 L681.888585,365.966312 L681.888585,366.312876 Z M683.621735,370.513576 L684.094787,370.527428 L683.609586,370.040476 L683.621735,370.513576 Z M685.649983,370.743458 L685.925824,370.689746 L685.460696,370.535747 L685.649983,370.743458 Z M690.764692,371.991867 L690.928552,371.568677 L690.327648,371.869669 L690.764692,371.991867 Z M691.525928,372.204709 L691.748042,372.266812 L692.120075,371.455449 L691.665576,371.247049 L691.204681,371.440893 L691.525928,372.204709 Z M692.947537,371.749743 L693.090277,371.656088 L693.123588,371.832589 L693.354659,371.941326 L693.119177,371.637125 L694.566409,370.687555 L694.008428,369.857778 L691.946332,371.278597 L692.947537,371.749743 Z M693.982669,376.384547 L693.994869,376.449191 L693.987605,376.318947 L693.982669,376.384547 Z M693.598469,381.490482 L693.573569,381.821395 L693.913071,381.384896 L693.598469,381.490482 Z M692.431933,381.881993 L692.321621,381.919016 L692.547257,381.89748 L692.431933,381.881993 Z M686.664227,384.363095 L686.633018,384.526306 L686.786919,384.251031 L686.664227,384.363095 Z M687.460715,390.343791 L687.67868,390.396844 L687.355424,390.145706 L687.460715,390.343791 Z M689.889267,391.175175 L690.194209,390.945005 L689.587066,390.941417 L689.889267,391.175175 Z M693.264528,392.074174 L693.606524,391.972503 L693.057163,391.783833 L693.264528,392.074174 Z M695.953481,393.874864 L696.119113,393.915603 L696.00801,393.963347 L696.311853,394.456388 L696.540106,393.734689 L696.132946,393.909659 L695.846063,393.700558 L695.953481,393.874864 Z M692.860535,396.580659 L692.860535,396.985603 L693.256642,396.496516 L692.860535,396.580659 Z M693.552019,400.907357 L693.776412,401.124259 L693.648306,400.610494 L693.552019,400.907357 Z M693.611804,402.18074 L694.386632,402.579831 L694.347431,401.713317 L693.611804,402.18074 Z M694.986189,404.496954 L695.140558,404.522985 L694.874228,404.387537 L694.986189,404.496954 Z M696.103585,405.588968 L696.245722,405.727877 L696.095595,405.390387 L696.103585,405.588968 Z M698.728397,411.352289 L698.929542,411.329144 L698.567822,411.228956 L698.728397,411.352289 Z M703.334713,410.355955 L703.441813,410.30287 L703.215183,410.35486 L703.334713,410.355955 Z M705.559511,408.003812 L705.65399,407.754488 L705.299833,408.064282 L705.559511,408.003812 Z M706.384327,407.811743 L706.554879,407.772027 L706.226264,407.736367 L706.384327,407.811743 Z M709.492588,409.293981 L710.030218,409.550361 L709.838235,408.808898 L709.492588,409.293981 Z M708.455881,410.748898 L708.402049,410.824446 L708.533231,410.697688 L708.455881,410.748898 Z M705.912316,413.22534 L706.416858,413.528498 L706.293083,412.776471 L705.912316,413.22534 Z M708.065152,414.773583 L708.271613,414.615989 L707.817502,414.695281 L708.065152,414.773583 Z M712.006285,413.458299 L712.082838,413.408711 L711.917153,413.477662 L712.006285,413.458299 Z M713.964952,410.859241 L713.360753,410.418422 L713.326658,411.249059 L713.964952,410.859241 Z M715.389087,409.989494 L715.528671,409.904247 L715.538696,410.049999 L715.828599,410.167242 L715.517239,409.738023 L715.525954,409.864731 L715.155791,409.895143 L715.389087,409.989494 Z M717.146498,411.119937 L717.478509,411.049409 L716.958408,410.837399 L717.146498,411.119937 Z M718.404349,411.321329 L718.976527,411.024221 L718.258984,410.693213 L718.404349,411.321329 Z M720.10879,413.788247 L720.361509,413.887682 L720.054624,413.522128 L720.10879,413.788247 Z M722.413604,414.536517 L722.677832,414.502916 L722.238306,414.335978 L722.413604,414.536517 Z M728.348625,415.051102 L728.491194,415.039337 L728.221408,414.985678 L728.348625,415.051102 Z M729.945148,415.87214 L730.239832,416.023686 L729.969896,415.541696 L729.945148,415.87214 Z M731.044267,417.609381 L731.17384,417.663627 L731.108004,417.742518 L731.246685,418.032199 L731.313782,417.495936 L731.185259,417.649943 L730.962035,417.437612 L731.044267,417.609381 Z M730.780623,418.134815 L730.640974,418.302155 L730.998269,418.123224 L730.780623,418.134815 Z M731.043824,423.694924 L731.21285,423.71461 L730.921899,423.576216 L731.043824,423.694924 Z M731.16991,423.817682 L731.491198,424.130492 L731.446027,423.464362 L731.16991,423.817682 Z M732.243332,424.610735 L732.611015,424.547094 L732.077697,424.27636 L732.243332,424.610735 Z M734.136391,426.401809 L734.275805,426.473853 L734.063148,426.26302 L734.136391,426.401809 Z M734.860228,427.773414 L734.930036,427.905692 L734.874527,427.62453 L734.860228,427.773414 Z M735.265802,430.826878 L735.768134,431.028621 L735.506723,430.342115 L735.265802,430.826878 Z M735.485384,432.410058 L735.756031,432.82371 L735.89592,432.134708 L735.485384,432.410058 Z M733.743974,434.856079 L734.093382,435.065122 L733.877913,434.471573 L733.743974,434.856079 Z M733.5228,435.491015 L733.425061,435.771602 L733.815973,435.442726 L733.5228,435.491015 Z M729.477432,437.226739 L729.304306,437.668359 L729.927552,437.376383 L729.477432,437.226739 Z M723.747206,439.548172 L723.501198,439.797147 L724.065341,439.694111 L723.747206,439.548172 Z M722.067222,438.77751 L721.956346,438.726648 L722.142216,438.873718 L722.067222,438.77751 Z M717.69133,438.643071 L717.208949,438.951228 L717.931845,439.162498 L717.69133,438.643071 Z M716.240342,440.337853 L716.285756,440.620835 L716.461574,440.155651 L716.240342,440.337853 Z M715.018761,441.343921 L714.883062,441.45568 L715.194543,441.341676 L715.018761,441.343921 Z M713.147177,441.65443 L713.011103,442.596534 L713.845657,442.301116 L713.147177,441.65443 Z M712.88617,444.060835 L713.20843,444.044101 L712.738181,443.774075 L712.88617,444.060835 Z M713.205416,444.679445 L713.268665,444.802004 L713.213942,444.541792 L713.205416,444.679445 Z M713.834098,447.720409 L714.30679,448.097674 L714.293504,447.327073 L713.834098,447.720409 Z M712.217859,449.896661 L712.16773,450.091886 L712.389367,449.790782 L712.217859,449.896661 Z M710.735139,450.812005 L710.642653,450.869101 L710.842981,450.798457 L710.735139,450.812005 Z M704.136376,454.762143 L704.175328,455.002524 L704.301615,454.583268 L704.136376,454.762143 Z M704.243037,456.797747 L704.482471,457.038633 L704.37873,456.48639 L704.243037,456.797747 Z M705.33874,459.288799 L705.62353,459.534063 L705.495192,458.947064 L705.33874,459.288799 Z M705.074522,459.865923 L704.900016,460.247092 L705.480286,459.971271 L705.074522,459.865923 Z M702.809145,463.760635 L703.129183,463.785562 L702.698596,463.459264 L702.809145,463.760635 Z M702.895411,463.995806 L703.035,464.376338 L703.238833,463.780511 L702.895411,463.995806 Z M701.123041,465.875124 L701.044327,466.082785 L701.329888,465.794298 L701.123041,465.875124 Z M697.752562,468.785147 L698.042847,469.218814 L698.198243,468.513669 L697.752562,468.785147 Z M695.998259,471.688241 L696.004994,471.862396 L696.101241,471.547634 L695.998259,471.688241 Z M695.179982,475.040402 L695.235077,475.371689 L695.465822,474.8641 L695.179982,475.040402 Z M693.714199,478.857638 L693.971271,479.321331 L694.192148,478.628157 L693.714199,478.857638 Z M693.357044,480.127264 L693.618941,480.383558 L693.52257,479.800343 L693.357044,480.127264 Z M693.107286,480.833539 L693.434892,481.721081 L694.025149,481.062851 L693.107286,480.833539 Z M692.100694,485.531404 L692.412083,486.131744 L692.765943,485.40969 L692.100694,485.531404 Z M691.117985,485.711201 L690.838088,485.762411 L691.304966,485.925685 L691.117985,485.711201 Z M688.810124,484.659213 L688.628578,484.624406 L688.925368,484.803745 L688.810124,484.659213 Z M681.134228,483.979736 L680.872706,484.066427 L681.347212,484.154513 L681.134228,483.979736 Z M676.796188,485.345519 L676.60382,485.762701 L677.228131,485.501951 L676.796188,485.345519 Z M674.266571,485.621671 L673.986557,486.166919 L674.744448,486.005516 L674.266571,485.621671 Z M670.037046,486.417209 L669.715664,486.526724 L670.257371,486.675544 L670.037046,486.417209 Z M668.106928,485.221519 L667.743908,485.31729 L668.300151,485.54342 L668.106928,485.221519 Z M667.079416,484.374367 L665.855471,483.929963 L665.872588,484.863349 L667.079416,484.374367 Z M669.819766,480.826405 L669.793309,480.472643 L669.494602,480.968235 L669.819766,480.826405 Z M672.312465,479.169709 L672.466306,478.880133 L671.985569,479.144014 L672.312465,479.169709 Z M674.6179,477.334118 L674.316426,477.057643 L674.406629,477.684388 L674.6179,477.334118 Z M669.012629,474.902739 L668.899169,474.969373 L669.144191,474.900585 L669.012629,474.902739 Z M663.934769,475.401354 L663.140313,475.839438 L663.880868,476.306988 L663.934769,475.401354 Z M659.717676,474.737638 L659.574072,474.935736 L659.962213,474.729475 L659.717676,474.737638 Z M659.39831,474.748299 L659.05651,474.759708 L659.532865,475.062708 L659.39831,474.748299 Z M656.160395,474.913479 L655.863714,474.98498 L656.359619,475.144655 L656.160395,474.913479 Z M652.750005,473.776312 L652.650725,473.759048 L652.834847,473.830684 L652.750005,473.776312 Z M652.000358,473.295895 L651.812696,473.175631 L652.036351,473.51586 L652.000358,473.295895 Z M648.231073,473.708575 L648.156691,473.860653 L648.382545,473.632968 L648.231073,473.708575 Z M645.345444,475.028571 L645.172492,475.09755 L645.520966,475.088978 L645.345444,475.028571 Z M645.985971,476.797295 L646.198213,476.786743 L645.831077,476.65181 L645.985971,476.797295 Z M646.181709,476.981141 L646.710903,477.478185 L646.83478,476.663971 L646.181709,476.981141 Z M646.088635,478.673804 L646.301425,478.96242 L646.293756,478.379687 L646.088635,478.673804 Z M645.945393,480.432931 L646.142837,480.981574 L646.517733,480.321484 L645.945393,480.432931 Z M643.181329,480.777939 L642.899915,480.775842 L643.326328,481.014744 L643.181329,480.777939 Z M639.114049,477.557308 L638.989394,477.561298 L639.225974,477.61233 L639.114049,477.557308 Z M636.740943,477.160438 L636.360024,477.432407 L637.03744,477.522591 L636.740943,477.160438 Z M634.508442,477.053184 L634.28108,477.114959 L634.700823,477.189196 L634.508442,477.053184 Z M632.43004,481.164334 L632.628762,481.37071 L632.507604,480.888534 L632.43004,481.164334 Z M632.261545,481.763468 L632.210015,481.946697 L632.421876,481.660888 L632.261545,481.763468 Z M630.399912,482.954543 L630.248188,483.051616 L630.578686,482.976529 L630.399912,482.954543 Z M622.886145,484.331927 L622.697136,484.497137 L623.131545,484.384821 L622.886145,484.331927 Z M621.643064,484.063992 L621.074304,483.941401 L621.436322,484.607843 L621.643064,484.063992 Z M621.431484,480.312619 L621.341153,480.033496 L621.231882,480.527627 L621.431484,480.312619 Z M621.302286,478.935584 L620.832301,478.761267 L621.126777,479.405124 L621.302286,478.935584 Z M619.439164,477.91217 L619.196835,478.048649 L619.682927,478.046074 L619.439164,477.91217 Z M614.92617,480.246932 L614.918399,480.610092 L615.27395,480.142075 L614.92617,480.246932 Z M614.524885,480.367922 L614.471755,480.38394 L614.580234,480.363942 L614.524885,480.367922 Z M614.047148,480.40227 L613.739224,480.424409 L614.204887,480.667649 L614.047148,480.40227 Z M613.669463,479.766852 L613.557956,479.579253 L613.607724,479.976174 L613.669463,479.766852 Z M614.202627,477.95918 L614.267594,477.738915 L613.99321,478.053423 L614.202627,477.95918 Z M615.978837,476.101841 L615.955465,475.813606 L615.740655,476.265838 L615.978837,476.101841 Z M619.464815,470.117217 L619.290192,469.644266 L618.990434,470.287917 L619.464815,470.117217 Z M621.39058,468.432052 L621.270027,467.992219 L620.963661,468.592445 L621.39058,468.432052 Z M618.411271,467.258677 L618.136653,467.490107 L618.718282,467.44501 L618.411271,467.258677 Z M617.911826,466.955551 L617.722008,466.840345 L617.953641,467.173621 L617.911826,466.955551 Z M617.692379,465.811096 L617.656053,465.621649 L617.592054,465.975853 L617.692379,465.811096 Z M614.166298,460.805523 L613.917483,460.759654 L614.276711,461.033168 L614.166298,460.805523 Z M612.264894,461.678421 L612.13878,461.969887 L612.582325,461.668678 L612.264894,461.678421 Z M610.321087,461.738087 L609.955785,461.7493 L610.442654,462.082749 L610.321087,461.738087 Z M609.087646,461.090634 L608.879855,461.21928 L609.316806,461.17556 L609.087646,461.090634 Z M605.498653,462.878722 L605.434665,462.961788 L605.590622,462.828361 L605.498653,462.878722 Z M602.523953,465.653926 L602.408158,465.88426 L602.778749,465.61467 L602.523953,465.653926 Z M601.926994,465.745897 L601.601335,465.796069 L602.101547,466.025364 L601.926994,465.745897 Z M599.913139,464.947416 L599.711257,465.15909 L600.196586,465.019669 L599.913139,464.947416 Z M599.219466,464.770592 L598.773337,464.65687 L599.142863,465.22457 L599.219466,464.770592 Z M598.079829,463.01684 L597.906928,463.045958 L598.233049,463.102084 L598.079829,463.01684 Z M595.112328,464.850808 L594.989472,465.030521 L595.32758,464.818303 L595.112328,464.850808 Z M594.122793,466.819995 L594.239418,467.11109 L594.334071,466.588265 L594.122793,466.819995 Z M593.866758,467.100815 L593.700078,467.283629 L594.113206,467.12241 L593.866758,467.100815 Z M592.893326,467.015518 L592.043027,466.94101 L592.412501,467.720761 L592.893326,467.015518 Z M589.880538,465.259937 L589.64647,465.34981 L590.092565,465.393762 L589.880538,465.259937 Z M589.490654,465.013855 L589.342125,464.920108 L589.547926,465.179895 L589.490654,465.013855 Z M589.421208,464.812515 L589.31503,464.504687 L589.182604,465.0341 L589.421208,464.812515 Z M589.002138,462.416869 L588.788317,462.106494 L588.762633,462.707885 L589.002138,462.416869 Z M586.88077,461.626057 L586.611717,461.693543 L587.08044,461.818607 L586.88077,461.626057 Z M586.312639,461.078187 L585.993596,460.770522 L586.045467,461.431832 L586.312639,461.078187 Z M587.330292,456.0544 L586.060981,455.43112 L585.951312,456.367519 L587.330292,456.0544 Z M590.093671,452.992135 L590.09096,452.906616 L588.352308,452.810863 L588.546693,453.758179 L590.093671,452.992135 Z M589.346048,450.077512 L588.665975,450.141718 L589.201677,450.745179 L589.346048,450.077512 Z M583.761612,450.068961 L583.619577,450.195078 L583.951559,450.068961 L583.761612,450.068961 Z M583.571345,450.068961 L582.903531,450.068961 L583.383299,450.709753 L583.571345,450.068961 Z M579.273803,451.065362 L578.995447,451.192431 L579.513622,451.255403 L579.273803,451.065362 Z M578.800436,450.690249 L578.02568,450.076307 L577.8468,450.950539 L578.800436,450.690249 Z M580.049405,448.929469 L580.112905,448.693337 L579.824034,449.02433 L580.049405,448.929469 Z M582.625054,447.215851 L582.453285,446.755953 L582.168378,447.39601 L582.625054,447.215851 Z M583.602746,446.31952 L583.925818,445.489798 L583.459892,445.308379 L583.06246,445.611774 L583.602746,446.31952 Z M584.660354,445.731307 L584.834846,445.630943 L584.464997,445.682773 L584.660354,445.731307 Z M586.653569,445.07944 L586.68587,444.827852 L586.431475,445.201972 L586.653569,445.07944 Z M587.140977,440.177933 L586.489034,439.982119 L586.759128,440.741461 L587.140977,440.177933 Z M586.744363,438.134189 L586.616426,437.808922 L586.48283,438.366066 L586.744363,438.134189 Z M586.802375,436.229828 L586.25116,436.070487 L586.569136,436.754067 L586.802375,436.229828 Z M586.352481,432.889197 L586.133537,432.868478 L586.48517,433.064579 L586.352481,432.889197 Z M586.161092,432.636229 L586.058196,432.500226 L586.159434,432.806763 L586.161092,432.636229 Z M586.184033,430.277585 L586.185311,430.146239 L586.118366,430.391343 L586.184033,430.277585 Z M585.358056,428.122101 L584.305898,427.917222 L584.524957,428.796606 L585.358056,428.122101 Z M585.63813,425.860514 L585.43044,425.723318 L585.653853,426.108931 L585.63813,425.860514 Z M585.572629,424.825575 L585.563282,424.677891 L585.500094,424.954558 L585.572629,424.825575 Z M583.555732,419.80283 L583.183652,419.58271 L583.392172,420.202584 L583.555732,419.80283 Z M580.44198,417.397615 L579.496388,417.775217 L580.162628,418.376742 L580.44198,417.397615 Z M579.470569,415.890266 L579.140135,415.674406 L579.337331,416.26179 L579.470569,415.890266 Z M579.292011,413.796787 L578.93915,413.809571 L579.422087,414.125047 L579.292011,413.796787 Z M578.120836,413.106817 L577.553869,413.25004 L578.174239,413.68915 L578.120836,413.106817 Z M577.090488,412.952679 L576.838602,413.148871 L577.374442,413.098651 L577.090488,412.952679 Z M576.308605,412.55074 L576.08058,412.43352 L576.346493,412.804315 L576.308605,412.55074 Z M573.712345,410.660035 L573.588411,410.853096 L573.678971,410.866811 L573.712345,410.660035 Z M572.841245,412.017014 L572.636476,412.335998 L573.203677,412.128029 L572.841245,412.017014 Z M572.322921,411.858249 L572.05214,411.775308 L572.391029,412.133136 L572.322921,411.858249 Z M572.026189,410.660622 L572.018419,410.62926 L571.032386,410.56526 L571.374092,411.395956 L572.026189,410.660622 Z M572.060686,410.621721 L572.240979,410.418415 L571.792016,410.581031 L572.060686,410.621721 Z M573.526959,407.567266 L573.388783,407.349628 L573.429804,407.806054 L573.526959,407.567266 Z M571.881713,402.4791 L571.60691,402.276841 L571.793547,402.808724 L571.881713,402.4791 Z M572.074159,401.75961 L572.181706,401.357529 L571.65924,401.726774 L572.074159,401.75961 Z M575.86675,400.488726 L575.791416,400.271278 L576.072698,400.256272 L575.716136,400.053983 L575.573993,399.643693 L575.128179,400.306661 L575.753127,400.273321 L575.86675,400.488726 Z M581.88217,399.272731 L582.02797,399.176224 L581.708001,399.257347 L581.88217,399.272731 Z M582.297435,399.30941 L582.963047,399.368202 L582.541622,398.687422 L582.297435,399.30941 Z M585.794545,399.808437 L586.324521,399.521448 L585.610354,399.23458 L585.794545,399.808437 Z M588.881143,399.651221 L588.929891,399.600865 L588.820428,399.686234 L588.881143,399.651221 Z M589.949505,399.035122 L590.166045,398.910248 L589.719671,398.936839 L589.949505,399.035122 Z M594.041266,396.34138 L594.14342,396.250356 L593.906998,396.367708 L594.041266,396.34138 Z M597.157713,395.730295 L597.607443,395.64211 L597.030791,395.289926 L597.157713,395.730295 Z M600.056126,392.425 L599.864404,392.023523 L599.679651,392.662082 L600.056126,392.425 Z M597.426721,386.363759 L596.764277,386.100552 L596.9537,386.897014 L597.426721,386.363759 Z M593.516633,384.880117 L592.927373,384.96135 L593.495334,385.474569 L593.516633,384.880117 Z M591.484918,382.478097 L590.682717,382.325145 L590.983934,383.123027 L591.484918,382.478097 Z M591.311703,380.380605 L591.072667,380.013799 L590.979667,380.665977 L591.311703,380.380605 Z M591.259633,378.402076 L591.124423,378.170386 L591.141359,378.642852 L591.259633,378.402076 Z M589.744279,374.120285 L589.488754,373.918375 L589.6629,374.435622 L589.744279,374.120285 Z M590.142663,372.576559 L590.180445,372.430152 L590.030082,372.677494 L590.142663,372.576559 Z M591.923506,370.40822 L591.680251,369.736467 L591.209067,370.406708 L591.923506,370.40822 Z M595.876455,370.416587 L595.97048,370.416786 L595.788925,370.382246 L595.876455,370.416587 Z M599.034855,370.109019 L599.239021,369.929255 L598.77302,370.035254 L599.034855,370.109019 Z M600.43201,368.224163 L600.310736,368.102511 L600.452916,368.394661 L600.43201,368.224163 Z M594.187969,365.022911 L594.105898,365.058824 L594.122026,364.969044 L593.894211,364.782945 L594.011458,365.100149 L593.907937,365.145447 L594.03462,365.162814 L594.070016,365.258574 L594.085954,365.169851 L594.424694,365.216288 L594.187969,365.022911 Z M589.228393,361.178718 L588.365353,360.992916 L588.625215,361.823339 L589.228393,361.178718 Z M589.593708,360.788302 L589.737936,360.634165 L589.382657,360.792446 L589.593708,360.788302 Z M591.608318,360.223948 L591.859228,359.935243 L591.26402,360.057318 L591.608318,360.223948 Z M594.967968,360.537703 L595.064224,360.528 L594.87504,360.5108 L594.967968,360.537703 Z M599.998611,361.133732 L600.184324,361.111479 L599.843888,361.028635 L599.998611,361.133732 Z M606.396622,360.6321 L606.890051,360.356003 L606.182969,360.108598 L606.396622,360.6321 Z M607.975149,361.941405 L608.185596,361.941405 L607.828043,361.790913 L607.975149,361.941405 Z M609.882952,362.041541 L610.024925,361.848024 L609.643161,362.051803 L609.882952,362.041541 Z M611.413514,361.148162 L611.514578,360.776442 L611.028311,361.145249 L611.413514,361.148162 Z M611.427491,353.208348 L611.281139,353.129947 L611.497877,353.358719 L611.427491,353.208348 Z M607.773466,350.352978 L607.744084,350.343567 L607.766521,350.329898 L607.655176,349.959871 L607.534026,350.276288 L607.522976,350.272748 L607.531903,350.281834 L607.436523,350.530943 L607.649292,350.401317 L607.849256,350.604847 L607.773466,350.352978 Z M607.623646,347.956513 L607.325194,347.711818 L607.462525,348.307212 L607.623646,347.956513 Z M605.044696,344.434788 L604.9921,344.415349 L605.029454,344.392579 L604.890737,344.008418 L604.680701,344.605166 L604.926845,344.455126 L605.123632,344.653394 L605.044696,344.434788 Z M604.701451,341.791407 L604.416831,341.815654 L604.866885,342.024277 L604.701451,341.791407 Z M604.006386,340.813012 L603.792979,340.512615 L603.782641,341.10579 L604.006386,340.813012 Z M604.539292,339.857352 L604.186125,339.115839 L603.718407,339.830572 L604.539292,339.857352 Z M610.006471,339.027689 L610.137648,338.917389 L609.835212,339.034322 L610.006471,339.027689 Z M612.830283,338.124514 L613.072863,337.536091 L612.316016,337.749525 L612.830283,338.124514 Z M616.393144,336.71354 L616.553269,336.630913 L616.217122,336.675028 L616.393144,336.71354 Z M625.287469,333.73519 L625.272541,333.345666 L624.913353,333.844684 L625.287469,333.73519 Z M627.595982,332.586796 L627.731589,332.372145 L627.342664,332.603954 L627.595982,332.586796 Z M629.271665,332.473303 L629.425782,332.462865 L629.138515,332.394993 L629.271665,332.473303 Z M631.561344,329.513164 L631.634887,328.921766 L630.991723,329.33797 L631.561344,329.513164 Z M634.277332,329.970421 L634.959714,329.761404 L634.313935,329.257685 L634.277332,329.970421 Z M636.719289,329.896388 L636.845048,329.839051 L636.581936,329.880995 L636.719289,329.896388 Z M640.732781,329.962913 L641.183515,329.391401 L640.361046,329.337133 L640.732781,329.962913 Z M643.627056,329.754317 L643.78045,329.623689 L643.425949,329.742097 L643.627056,329.754317 Z M646.940267,328.355762 L646.83544,327.693497 L646.275619,328.267296 L646.940267,328.355762 Z M650.063394,326.910075 L650.247435,326.703157 L649.790358,326.863844 L650.063394,326.910075 Z M651.868472,326.21466 L651.874645,325.834788 L651.500835,326.310494 L651.868472,326.21466 Z M655.755066,323.712172 L655.913665,323.383361 L655.393573,323.661251 L655.755066,323.712172 Z M656.491354,320.876091 L656.344903,320.367308 L655.975032,320.993225 L656.491354,320.876091 Z M657.45928,318.356953 L657.38232,317.770009 L656.867733,318.334658 L657.45928,318.356953 Z M657.731683,316.729027 L657.406344,316.630769 L657.76004,317.067696 L657.731683,316.729027 Z M657.678744,316.096776 L657.643593,315.676967 L657.270985,316.202642 L657.678744,316.096776 Z M658.376987,315.13567 L657.454935,314.617642 L657.391477,315.519471 L658.376987,315.13567 Z M658.048503,314.324801 L657.731262,314.100871 L657.910075,314.687601 L658.048503,314.324801 Z M658.712346,312.584965 L658.867533,312.178243 L658.288135,312.487238 L658.712346,312.584965 Z M697.904054,339.424545 L698.116952,339.700918 L697.571183,339.528973 L697.904054,339.424545 Z M689.131581,352.420239 L688.504298,352.513302 L688.894741,351.831977 L689.131581,352.420239 Z M699.86127,410.96149 L700.108535,411.151407 L699.58192,411.099952 L699.86127,410.96149 Z M713.176545,443.04441 L712.725271,442.626598 L712.673705,442.650223 L712.690936,443.069625 L713.176545,443.04441 Z M646.712611,477.834998 L646.171862,478.097619 L646.355874,477.351142 L646.712611,477.834998 Z M578.820604,449.648165 L579.097307,449.57264 L578.746117,449.925148 L578.820604,449.648165 Z M585.662011,444.949758 L586.206986,445.085151 L585.590502,445.506729 L585.662011,444.949758 Z M586.275092,439.673115 L586.422948,439.454911 L586.37157,439.918403 L586.275092,439.673115 Z M582.749393,419.132841 L582.841864,418.906831 L582.870785,419.344726 L582.749393,419.132841 Z M590.762431,379.534095 L591.078302,379.262615 L590.972362,379.893824 L590.762431,379.534095 Z M610.412613,361.017958 L610.777819,361.002329 L610.316712,361.370693 L610.412613,361.017958 Z M605.031122,343.220422 L605.350566,343.0257 L605.12779,343.58183 L605.031122,343.220422 Z M613.263824,337.203025 L613.513307,337.384941 L612.989438,337.344612 L613.263824,337.203025 Z M656.642094,319.816484 L657.086471,319.715673 L656.701334,320.268286 L656.642094,319.816484 Z M588.593229,456.518385 L591.305968,453.466388 L591.064835,455.861031 L588.593229,456.518385 Z M590.437325,455.026001 L590.390727,455.005555 L590.139185,455.072455 L590.107105,455.391035 L590.115179,455.404144 L590.437325,455.026001 Z M585.579959,420.993814 L585.594764,420.990786 L585.488412,420.502228 L585.473648,420.505442 L585.579959,420.993814 Z M585.32651,419.667258 L585.310114,419.670602 L585.587719,420.086457 L585.600605,420.077855 L585.32651,419.667258 Z M585.663861,418.833287 L586.183556,421.374324 L585.191318,421.59032 L584.75306,419.441294 L585.663861,418.833287 Z" stroke-linejoin="square"></path>
                </g>
            </g>
        </g>
    </g>
</svg>