<?xml version="1.0" encoding="UTF-8"?>
<svg width="1004px" height="575px" viewBox="0 0 1004 575" version="1.1" xmlns="http://www.w3.org/2000/svg" xmlns:xlink="http://www.w3.org/1999/xlink">
    <!-- Generator: Sketch 57.1 (83088) - https://sketch.com -->
    <title>华东 2</title>
    <desc>Created with Sketch.</desc>
    <defs>
        <path d="M725.554007,282 L725.593186,282.111091 L728.335718,283.322994 L728.557732,284.100631 L735.544659,284.423805 L736.432717,285.171145 L737.830102,283.999639 L741.656587,283.898647 L743.367405,284.666186 L744.203224,286.898106 L745.692027,287.635347 L745.639789,288.837151 L747.272248,289.513796 L747.037174,289.96826 L748.578216,289.190622 L748.695753,289.624887 L747.6118,289.988458 L749.283438,291.917403 L746.109937,291.008476 L745.052103,291.21046 L743.027853,293.775654 L743.680837,297.734536 L746.162176,299.007033 L746.540906,300.198738 L746.645384,299.67358 L747.428964,300.340126 L748.40844,300.198738 L748.225604,301.309648 L752.966267,300.269432 L753.64537,301.430839 L753.906564,300.511812 L756.583797,300.28963 L758.973718,298.259693 L759.143494,297.441659 L758.059541,296.320649 L762.1211,295.169342 L765.568854,292.957619 L766.012883,291.725518 L764.354304,291.250857 L766.678927,291.149865 L772.960631,288.928043 L776.316968,289.241118 L776.121073,289.806673 L777.322563,290.766096 L779.516589,290.856988 L779.425171,292.472858 L780.130393,292.937421 L782.781508,292.927322 L783.343074,292.543553 L782.912104,292.169883 L784.348669,292.664743 L783.356133,293.058611 L784.740459,294.553291 L786.69941,295.361226 L788.253512,295.401623 L788.397168,294.957259 L789.964329,295.623805 L789.820673,295.027953 L792.7591,294.745176 L792.693802,295.553111 L793.529621,295.593508 L793.124771,294.543192 L794.940066,293.391885 L796.154616,293.401984 L796.38969,293.967538 L795.762826,294.179621 L796.546406,295.44202 L797.774016,294.896664 L799.145282,295.755095 L801.704978,295.401623 L801.378486,296.118665 L802.05759,296.340848 L801.979232,295.81569 L804.134078,295.502615 L805.400867,295.946979 L802.893409,296.694319 L803.468035,297.017493 L802.788932,296.9367 L802.801991,297.835528 L804.05572,299.188819 L802.997886,299.370604 L803.25908,299.936159 L801.861694,299.79477 L800.477369,301.774211 L800.529608,302.218575 L802.606096,301.875203 L802.266544,303.955636 L801.796396,303.955636 L802.070649,303.339585 L800.856099,303.450676 L800.738562,304.430298 L799.719908,304.824166 L796.637824,304.803968 L797.081853,303.804148 L796.115437,303.087106 L794.404619,303.804148 L793.934471,302.794229 L793.203129,302.895221 L787.705006,305.26853 L787.874781,306.480433 L787.156499,305.874482 L785.184488,305.874482 L787.143439,304.793868 L785.341204,305.308927 L785.458741,304.803968 L784.727399,306.116862 L780.052035,307.38936 L777.544577,308.88404 L776.081894,308.783048 L775.546447,307.853922 L774.880403,307.843823 L774.096823,308.520469 L776.538982,309.217313 L776.591221,310.560505 L775.742342,310.964472 L775.363612,312.166276 L774.162121,310.651398 L772.973691,310.802885 L772.059513,311.802705 L772.764736,312.822723 L771.576305,312.701533 L771.328172,313.529666 L771.968096,313.711452 L772.490483,315.97367 L769.734891,316.246348 L766.287137,317.407755 L765.438258,317.135077 L766.665867,314.872858 L766.039003,314.347701 L765.3599,314.569883 L765.790869,315.10514 L763.518485,314.862759 L762.447592,316.488729 L763.596843,317.09468 L763.518485,317.599639 L764.5502,317.124977 L763.662142,318.46817 L764.563259,318.013706 L764.5502,318.599459 L765.490496,317.821821 L765.621093,318.559062 L763.609903,319.791163 L764.14535,318.862038 L761.546474,319.983048 L760.932669,322.427051 L759.339389,321.800902 L759.835657,322.528043 L758.647226,324.123715 L757.889765,324.012624 L758.333794,323.406673 L757.798347,323.245086 L756.805812,324.598377 L756.361783,323.406673 L755.382307,324.416592 L754.585667,324.355996 L753.475594,327.476646 L750.863659,329.597475 L750.262914,332.122272 L749.087543,332.162669 L747.402845,331.829396 L747.356,331.86 L749.035304,332.192967 L747.872993,332.809017 L747.011055,335.909468 L748.055829,337.01028 L749.231199,337.656628 L749.923362,337.303156 L752.078209,337.929306 L751.555822,338.717042 L754.755442,340.4844 L754.886039,341.070153 L760.90655,342.585032 L765.281541,344.564472 L766.313256,347.675023 L772.020334,357.440938 L770.97556,357.218756 L771.027799,358.198377 L771.693842,359.238593 L772.516602,358.875023 L772.503542,360.137421 L774.188241,361.854283 L774.710628,363.38936 L774.22742,363.702435 L775.41585,364.055906 L775.794581,366.186835 L774.841224,367.8633 L775.624805,370.115419 L777.270324,370.711271 L777.113608,371.377818 L783.343074,373.397656 L784.113595,375.609378 L783.408372,376.306222 L784.348669,377.548422 L789.206868,378.94211 L791.218058,380.67917 L792.510966,383.274662 L791.55761,384.122994 L787.574409,383.345356 L782.193822,381.123535 L778.798306,382.598016 L778.589352,383.577638 L782.567,386.795 L782.585612,386.789179 L782.69009,386.839675 L784.100535,387.132552 L789.53336,390.404689 L791.466192,392.586114 L792.589324,395.282597 L791.923281,396.524797 L785.968069,396.898467 L781.593077,398.867809 L781.588,398.836 L777.074429,400.756357 L775.742342,403.493237 L773.326302,404.250676 L772.764736,403.372047 L771.40653,403.018575 L772.111752,405.07881 L772.803915,405.644364 L774.136002,405.644364 L775.063239,406.654283 L780.156513,404.139585 L782.716209,404.099188 L785.654636,405.876646 L788.540825,409.199279 L790.408358,409.411362 L792.654623,410.522272 L795.906482,410.330388 L796.050139,410.693959 L791.55761,412.521912 L791.361715,413.380343 L788.828138,415.369883 L785.889711,416.006132 L785.341204,415.602164 L784.29643,416.622182 L784.662101,417.500812 L785.706875,416.4 L785.341204,417.914878 L786.607993,416.622182 L789.167689,415.65266 L790.499776,416.591885 L790.956865,415.581966 L789.54642,415.40018 L792.38037,414.147881 L793.699397,414.774031 L792.510966,415.672858 L793.529621,416.874662 L792.445668,417.409919 L792.35425,418.490532 L792.981115,418.591524 L792.210594,419.197475 L793.281487,419.601443 L793.699397,419.773129 L792.654623,420.772949 L790.578134,421.308206 L790.512836,418.086564 L789.885971,418.399639 L789.742315,420.904238 L787.548289,420.843643 L787.038962,419.934716 L785.91583,420.843643 L787.208738,421.560685 L784.857996,421.338503 L784.792698,422.075744 L787.94008,422.055546 L787.770304,422.812985 L788.971794,423.388638 L788.201273,423.893598 L789.259107,424.297565 L787.809483,424.933814 L785.706875,424.358161 L787.874781,425.287286 L788.488586,426.650676 L787.456872,427.85248 L784.766578,428.145356 L785.667696,428.418034 L786.385978,430.266186 L787.53523,430.306583 L786.71247,431.700271 L787.221797,433.32624 L788.305751,432.972768 L787.822543,433.932191 L786.921425,434.44725 L786.895306,433.548422 L784.897175,433.265645 L782.885985,435.992426 L781.018451,434.225068 L780.326288,432.407214 L778.889724,435.608656 L777.635995,435.972227 L776.708758,438.244545 L774.122942,438.153652 L772.555781,437.456808 L773.025929,438.224346 L775.102418,438.971686 L775.050179,439.941208 L770.714367,443.869793 L771.132276,445.162489 L772.137871,445.505861 L771.302052,446.233003 L771.445709,447.121731 L769.76101,446.566276 L769.199444,447.525699 L769.904667,447.778179 L769.316981,448.38413 L769.708772,448.808296 L768.58564,450 L767.35803,448.838593 L767.723701,448.586114 L766.56139,447.38431 L766.469972,446.687466 L765.268482,446.687466 L764.772214,446.132011 L762.969979,446.313796 L761.272221,447.424707 L760.749834,446.879351 L759.70506,447.808476 L756.87111,447.919567 L757.067005,447.606492 L755.486784,446.051217 L755.826336,445.061497 L754.559547,443.829396 L754.690144,442.718485 L753.331938,442.637692 L753.031565,443.092155 L752.300223,442.91037 L751.595001,444.970604 L750.354332,444.667628 L748.173366,446.293598 L746.305832,446.111812 L746.188295,445.404869 L744.333821,445.223084 L743.498002,445.738142 L742.76666,445.76844 L742.192034,444.940307 L742.427108,442.102435 L741.108081,439.304959 L739.658457,438.345537 L739.475621,437.224527 L740.807708,436.265104 L740.311441,435.416772 L740.912186,434.487647 L739.358084,433.538323 L737.686446,434.336159 L737.190178,433.831199 L735.91033,433.972588 L735.753614,434.558341 L734.748019,433.8211 L735.688315,433.19495 L734.996152,432.134536 L735.466301,431.20541 L734.630481,430.862038 L734.891675,428.296844 L734.016677,426.650676 L732.65847,425.953832 L732.018546,424.671235 L730.960712,424.853021 L731.313324,424.388458 L730.738698,423.833003 L729.341313,423.671416 L728.414076,422.146438 L728.962582,419.298467 L730.490564,419.217674 L731.169667,418.409739 L731.01,418.079 L730.420368,418.08 L730.42,417.663 L729.811461,417.409919 L729.902879,416.198016 L727.865569,415.1578 L722.811475,415.571867 L721.975655,414.622543 L720.055883,414.864923 L719.886107,414.03679 L718.619318,413.54193 L718.070812,411.188819 L717.052157,411.713977 L716.686486,411.16862 L715.393578,411.441298 L715.31522,410.310189 L714.636117,410.037511 L712.337614,411.431199 L713.369329,412.178539 L712.990598,413.188458 L711.070826,413.602525 L708.511129,415.248693 L707.192102,414.834626 L706.539118,415.329486 L705.402926,414.27917 L705.886134,413.713616 L705.429046,413.440938 L708.040981,411.724076 L709.490605,409.704238 L705.65106,407.886384 L704.384271,408.179261 L703.509273,410.471776 L702.399201,410.461677 L698.951446,412.158341 L698.011149,411.441298 L696.861898,411.572588 L695.856303,409.512353 L695.712646,405.967538 L694.328321,404.624346 L693.061532,404.412263 L692.721981,403.351849 L693.714516,402.725699 L692.904816,402.311632 L693.218248,401.352209 L690.671611,398.908206 L691.011163,397.867989 L692.447727,397.565014 L692.447727,396.221821 L695.856303,394.767538 L695.386155,394.010099 L693.649218,393.585933 L692.552205,392.060956 L690.841387,392.565915 L688.947734,391.111632 L687.680946,392.060956 L686.832067,390.475383 L685.787293,390.222904 L684.233191,388.253562 L684.337668,386.819477 L686.152963,385.173309 L686.335799,384.223986 L689.287286,382.638413 L691.559669,382.941389 L693.16601,382.406132 L693.583919,376.891975 L692.656682,372.014067 L692.029818,371.72119 L693.388024,370.792065 L690.985044,372.357439 L690.73691,371.771686 L690.541015,372.195852 L689.52236,371.913075 L689.026092,373.185573 L687.210797,373.296664 L684.846996,370.721371 L683.123119,371.054644 L683.110059,370.549684 L681.373122,370.499188 L681.373122,366.479711 L676.162311,364.540667 L676.958951,363.985212 L676.541042,362.349143 L677.076489,361.884581 L678.64365,362.975293 L680.524243,363.005591 L682.927223,362.258251 L684.128714,359.329486 L683.305954,358.53165 L683.815281,356.6633 L684.69028,356.643102 L684.938414,355.814968 L688.647362,355.400902 L687.471991,352.502435 L688.29475,352.381244 L688.555944,351.038052 L687.158559,350.886564 L688.020497,348.563751 L688.856316,348.048693 L691.455192,347.9578 L692.199594,348.998016 L692.774219,348.553652 L694.093247,349.028314 L694.3675,350.492696 L695.608169,351.159243 L695.856303,352.391344 L697.292867,353.532552 L701.824575,352.05807 L701.915993,351.31073 L703.940242,350.472498 L705.207031,350.745176 L705.324568,349.462579 L703.339497,347.291253 L704.188376,344.796754 L700.688383,344.907845 L700.623085,344.200902 L698.154806,343.190983 L697.266748,341.958882 L697.789135,340.171326 L698.559656,340.585392 L698.601,340.56 L697.841374,340.151127 L696.901077,340.444004 L696.352571,339.73706 L695.307796,339.928945 L694.74623,339.454283 L694.249963,339.98954 L691.886161,340.393508 L689.731315,339.787556 L689.365644,340.444004 L687.054081,340.171326 L685.539159,338.717042 L685.291025,336.818395 L683.110059,335.687286 L682.26118,335.909468 L682.391777,335.051037 L681.43842,334.869252 L681.725733,334.212804 L680.067154,333.495762 L676.854474,334.051217 L675,333.293778 L675.652984,330.940667 L677.089548,330.435708 L678.591411,327.840216 L681.05969,326.719206 L681.777972,327.183769 L683.958938,326.05266 L683.567148,324.638774 L684.28543,324.871055 L686.414157,322.295762 L689.013033,322.124076 L690.083926,320.488007 L692.708921,320.164833 L692.447727,319.57908 L693.414143,318.518665 L695.320856,318.58936 L696.443988,316.791704 L696.326451,316.296844 L695.686527,316.397836 L694.720111,317.225969 L691.507431,317.882417 L687.210797,319.649775 L686.218262,319.306402 L686.231322,319.902254 L684.115654,321.427232 L683.998117,318.579261 L685.513039,317.84202 L686.048486,315.387917 L685.90483,313.994229 L685.108189,312.954013 L684.102594,313.155996 L682.848865,310.257529 L683.802222,308.37908 L686.179083,306.01587 L689.496241,305.167538 L691.037282,302.349865 L692.499966,301.087466 L693.13989,299.077728 L694.080187,298.572768 L694.406679,296.916501 L697.371225,296.18936 L698.703312,296.482236 L699.369356,295.856087 L698.494357,295.44202 L698.481298,294.69468 L699.264878,294.825969 L700.113757,293.048512 L701.942112,294.704779 L707.871205,288.928043 L718.384244,288.645266 L720.748046,285.100451 L722.824534,284.948963 L725.554007,282 Z M781.109869,434.901713 L781.593077,435.31578 L782.024046,436.749865 L779.738603,437.507304 L779.359872,436.073219 L781.109869,434.901713 Z M792.798279,420.904238 L793.451263,422.328224 L792.563205,422.772588 L792.197534,421.954554 L790.147165,421.934355 L790.107986,421.50009 L791.54455,421.510189 L792.798279,420.904238 Z M795.749766,412.037151 L797.147151,413.511632 L796.690063,414.087286 L795.501632,413.097565 L794.496037,413.148061 L794.874768,412.259333 L795.749766,412.037151 Z M798.635954,411.350406 L798.884088,412.370424 L797.356106,411.431199 L798.635954,411.350406 Z M800.660204,409.785032 L800.399011,411.4211 L799.119162,409.906222 L800.660204,409.785032 Z M792.889697,406.290712 L793.359845,406.775473 L795.397155,406.684581 L799.275879,408.674121 L798.492298,410.077908 L796.454989,409.098287 L794.130366,409.098287 L792.889697,406.290712 Z M791.649028,407.724797 L792.550145,408.987196 L791.440073,409.471957 L791.035223,408.249955 L791.649028,407.724797 Z M800.503488,405.099008 L800.385951,405.644364 L798.231105,405.513075 L800.503488,405.099008 Z M797.343047,404.089089 L797.473643,405.553472 L794.535216,404.57385 L797.343047,404.089089 Z M799.837445,401.948061 L800.895278,402.917583 L798.309463,402.776195 L798.283343,402.008656 L799.837445,401.948061 Z M801.130353,397.827592 L802.475499,398.706222 L800.738562,398.72642 L801.130353,397.827592 Z M790.421418,388.586835 L791.714326,388.950406 L791.479252,389.839134 L790.512836,389.465464 L790.421418,388.586835 Z M785.706875,386.900271 L789.859852,388.516141 L790.199404,389.495762 L785.706875,386.900271 Z M782.115464,381.335618 L788.292691,384.638052 L792.053878,385.506583 L793.203129,386.223625 L793.124771,387.011362 L790.917686,387.758702 L783.47367,385.031921 L779.882259,382.54752 L782.115464,381.335618 Z M730.339,361.298 L730.15,361.662 L730.151013,361.662399 L730.339,361.298 Z M726.926,360.137 L726.598781,360.874662 L726.599,360.874 L726.926,360.137 Z M729.471,357.058 L728.283479,357.087466 L728.261,357.137 L729.471909,357.117764 L729.471,357.058 Z M729.502,354.925 L729.484969,354.936339 L729.484,354.954 L729.502,354.925 Z" id="path-1"></path>
        <filter x="-6.5%" y="-5.1%" width="113.0%" height="110.1%" filterUnits="objectBoundingBox" id="filter-2">
            <feGaussianBlur stdDeviation="8" in="SourceAlpha" result="shadowBlurInner1"></feGaussianBlur>
            <feOffset dx="-1" dy="-1" in="shadowBlurInner1" result="shadowOffsetInner1"></feOffset>
            <feComposite in="shadowOffsetInner1" in2="SourceAlpha" operator="arithmetic" k2="-1" k3="1" result="shadowInnerInner1"></feComposite>
            <feColorMatrix values="0 0 0 0 0.206573933   0 0 0 0 0.918783158   0 0 0 0 1  0 0 0 1 0" type="matrix" in="shadowInnerInner1" result="shadowMatrixInner1"></feColorMatrix>
            <feGaussianBlur stdDeviation="0.5" in="SourceAlpha" result="shadowBlurInner2"></feGaussianBlur>
            <feOffset dx="0" dy="2" in="shadowBlurInner2" result="shadowOffsetInner2"></feOffset>
            <feComposite in="shadowOffsetInner2" in2="SourceAlpha" operator="arithmetic" k2="-1" k3="1" result="shadowInnerInner2"></feComposite>
            <feColorMatrix values="0 0 0 0 0.199599848   0 0 0 0 0.961825321   0 0 0 0 1  0 0 0 1 0" type="matrix" in="shadowInnerInner2" result="shadowMatrixInner2"></feColorMatrix>
            <feGaussianBlur stdDeviation="0.5" in="SourceAlpha" result="shadowBlurInner3"></feGaussianBlur>
            <feOffset dx="0" dy="-2" in="shadowBlurInner3" result="shadowOffsetInner3"></feOffset>
            <feComposite in="shadowOffsetInner3" in2="SourceAlpha" operator="arithmetic" k2="-1" k3="1" result="shadowInnerInner3"></feComposite>
            <feColorMatrix values="0 0 0 0 0   0 0 0 0 0.862745098   0 0 0 0 0.976470588  0 0 0 1 0" type="matrix" in="shadowInnerInner3" result="shadowMatrixInner3"></feColorMatrix>
            <feMerge>
                <feMergeNode in="shadowMatrixInner1"></feMergeNode>
                <feMergeNode in="shadowMatrixInner2"></feMergeNode>
                <feMergeNode in="shadowMatrixInner3"></feMergeNode>
            </feMerge>
        </filter>
    </defs>
    <g id="组件" stroke="none" stroke-width="1" fill="none" fill-rule="evenodd">
        <g id="画板备份" transform="translate(1.000000, 0.000000)" fill-rule="nonzero">
            <g id="华东-2" transform="translate(-0.175515, 0.000000)">
                <g id="华东">
                    <use fill="#0B9BF2" xlink:href="#path-1"></use>
                    <use fill="black" fill-opacity="1" filter="url(#filter-2)" xlink:href="#path-1"></use>
                    <path stroke="#FFFFFF" stroke-width="1" d="M727.919265,283.685609 L728.133624,283.780332 L727.854928,283.460258 L727.919265,283.685609 Z M735.352332,284.915444 L735.521556,284.923271 L735.222717,284.806367 L735.352332,284.915444 Z M738.017661,284.494863 L738.151329,284.382802 L737.843294,284.499465 L738.017661,284.494863 Z M741.555879,284.40148 L741.669779,284.398473 L741.451922,284.35484 L741.555879,284.40148 Z M742.972344,285.03696 L743.162739,285.122379 L742.899161,284.841536 L742.972344,285.03696 Z M745.178359,287.938929 L745.470146,288.083419 L745.192499,287.613634 L745.178359,287.938929 Z M746.578166,289.767353 L746.859681,289.884039 L747.302142,290.394606 L748.80347,289.637008 L748.578216,289.190622 L748.552435,289.1976 L748.536752,289.150842 L746.971285,289.675918 L746.828142,289.284079 L746.578166,289.767353 Z M746.19292,290.51214 L745.883399,291.110529 L746.751937,290.672249 L746.19292,290.51214 Z M747.803838,290.973525 L748.905583,292.244856 L749.421108,291.43673 L747.803838,290.973525 Z M745.748729,299.356921 L745.934015,299.451941 L745.685661,299.158473 L745.748729,299.356921 Z M746.969704,300.605889 L747.135773,299.77114 L746.321417,300.054429 L746.969704,300.605889 Z M747.804215,300.791141 L748.479875,300.693608 L747.915077,300.117539 L747.804215,300.791141 Z M752.718209,300.835757 L753.07343,300.757813 L752.534639,300.521815 L752.718209,300.835757 Z M754.292885,300.981471 L754.387517,300.648503 L753.947916,301.010099 L754.292885,300.981471 Z M758.999846,296.573806 L758.418985,295.973087 L758.1959,296.801696 L758.999846,296.573806 Z M766.569747,291.65508 L766.664574,291.39195 L764.491875,290.770155 L764.376006,291.750385 L766.569747,291.65508 Z M773.023685,289.436095 L773.127358,289.399426 L772.914193,289.425882 L773.023685,289.436095 Z M775.635888,289.679758 L776.27053,289.738957 L775.844507,289.077469 L775.635888,289.679758 Z M778.988714,291.335549 L779.495893,291.35656 L779.017387,290.828746 L778.988714,291.335549 Z M782.985078,293.393807 L783.636868,292.94838 L784.185822,293.137481 L784.164244,292.199998 L783.852683,292.323635 L783.239651,291.792109 L782.749258,292.642621 L782.909634,292.697866 L782.493472,292.863012 L782.985078,293.393807 Z M788.704705,295.631406 L788.872925,295.111064 L788.397168,294.957259 L788.201473,295.417371 L788.704705,295.631406 Z M790.441695,295.470499 L790.306746,294.910764 L789.868569,295.525654 L790.441695,295.470499 Z M792.212622,295.300076 L792.806996,295.242877 L792.260725,294.704897 L792.212622,295.300076 Z M793.738753,294.74587 L793.591312,294.363361 L793.392566,294.965431 L793.738753,294.74587 Z M795.021022,293.932622 L795.083348,293.893093 L795.81982,293.899217 L795.927986,294.159447 L796.045013,293.90109 L796.150459,293.901966 L796.069352,293.847356 L796.229451,293.49391 L795.773515,293.648164 L795.692911,293.593892 L795.722626,293.665381 L795.121973,293.868596 L795.207861,293.814124 L794.935909,293.891867 L795.050376,293.892819 L795.005698,293.907935 L795.021022,293.932622 Z M797.734049,295.461536 L797.977008,295.353604 L797.508708,295.32047 L797.734049,295.461536 Z M800.873478,296.021191 L801.773375,295.896923 L801.24993,295.194425 L800.873478,296.021191 Z M802.288965,296.942627 L802.351031,296.962933 L803.222935,297.453298 L803.527104,296.520995 L802.573069,296.407492 L802.55315,296.273997 L801.620377,296.552007 L802.288751,296.927906 L802.288965,296.942627 Z M802.351031,296.962933 L802.671594,297.067811 L802.573069,296.407492 L802.280684,296.372707 L802.288751,296.927906 L802.351031,296.962933 Z M802.547828,296.238329 L802.473757,295.741902 L802.051121,296.310495 L802.547828,296.238329 Z M802.791705,296.202896 L804.084448,296.015075 L805.235364,296.418794 L805.258052,295.467809 L802.791705,296.202896 Z M803.062282,298.852209 L803.688932,299.528622 L803.971038,298.696042 L803.062282,298.852209 Z M802.43786,299.350514 L802.805152,300.145799 L803.309413,299.438699 L802.43786,299.350514 Z M802.000419,302.482149 L802.687669,302.368504 L802.112625,301.794663 L802.000419,302.482149 Z M801.940479,302.849404 L801.841535,303.455636 L801.796396,303.455636 L801.796396,303.7322 L801.773074,303.875095 L801.796396,303.878902 L801.796396,303.955636 L802.253177,304.158985 L802.874196,302.764 L801.940479,302.849404 Z M801.841535,303.455636 L801.796396,303.7322 L801.796396,303.878902 L802.266544,303.955636 L802.266544,303.455636 L801.841535,303.455636 Z M800.277926,304.072331 L800.242123,304.370734 L800.558244,303.963944 L800.277926,304.072331 Z M799.628192,304.323554 L799.53959,304.357813 L799.723184,304.324177 L799.628192,304.323554 Z M797.404742,304.308983 L796.641101,304.303978 L797.094787,305.006909 L797.404742,304.308983 Z M794.654923,303.1571 L794.211347,303.343013 L794.857908,303.593128 L794.654923,303.1571 Z M790.465558,303.532322 L787.156971,304.9605 L787.208588,305.328959 L790.465558,303.532322 Z M787.214966,305.374482 L787.379617,306.549801 L788.197186,306.098261 L787.339233,305.374482 L787.214966,305.374482 Z M787.126064,305.374482 L785.839312,305.374482 L786.020822,304.594682 L785.20381,304.828174 L785.777953,305.374482 L785.184488,305.374482 L785.425995,306.312288 L787.126064,305.374482 Z M784.393016,305.689683 L784.290597,305.873543 L784.596091,305.634412 L784.393016,305.689683 Z M777.422945,308.374451 L777.288564,308.454555 L777.579018,308.385227 L777.422945,308.374451 Z M776.382093,308.302585 L776.116335,308.284235 L776.515105,308.533392 L776.382093,308.302585 Z M776.053438,309.598724 L776.401789,309.698122 L776.03936,309.236744 L776.053438,309.598724 Z M776.078792,310.250632 L776.091599,310.579936 L776.376367,310.109021 L776.078792,310.250632 Z M775.169904,311.117416 L774.886731,312.015994 L775.755356,311.855573 L775.169904,311.117416 Z M771.73692,312.215319 L772.353462,313.107071 L772.81546,312.325303 L771.73692,312.215319 Z M771.547366,314.111717 L771.831465,314.192422 L771.480916,313.82395 L771.547366,314.111717 Z M771.875358,315.532097 L772.003303,316.086169 L772.441246,315.4761 L771.875358,315.532097 Z M766.283423,316.881399 L766.12752,316.933917 L766.440052,316.931712 L766.283423,316.881399 Z M766.165371,316.843478 L765.591173,316.659034 L765.877721,317.373555 L766.165371,316.843478 Z M764.645729,314.480159 L765.401417,315.418712 L765.8439,314.60796 L764.645729,314.480159 Z M763.048048,317.370567 L763.363644,317.536967 L763.102757,317.018009 L763.048048,317.370567 Z M763.165813,318.312272 L764.759179,317.57921 L764.133116,316.849221 L763.165813,318.312272 Z M762.770172,318.910681 L762.207443,319.761811 L764.04482,318.835161 L764.042488,318.939785 L763.348709,319.364809 L764.043114,320.040819 L764.453981,319.327868 L765.809149,318.207127 L765.223838,317.991986 L765.330964,317.806099 L765.049001,317.927722 L764.998161,317.909035 L765.004845,317.946768 L764.393089,318.210646 L764.063384,318.002561 L764.055498,318.356264 L762.770172,318.910681 Z M760.586255,321.753687 L760.447729,322.30526 L761.115551,321.961697 L760.586255,321.753687 Z M759.221657,322.51537 L759.422672,322.809901 L759.434655,322.229384 L759.221657,322.51537 Z M758.834312,323.035447 L758.424493,323.5857 L757.96232,323.517916 L758.293074,324.308161 L759.154817,323.132169 L758.834312,323.035447 Z M758.424493,323.5857 L758.246224,323.825055 L758.719781,323.629007 L758.424493,323.5857 Z M756.95075,323.555322 L756.402626,324.302671 L757.274345,324.423801 L756.95075,323.555322 Z M755.186546,323.900257 L755.023385,324.068489 L755.420229,323.918032 L755.186546,323.900257 Z M753.051523,327.176911 L753.004511,327.309073 L753.16042,327.088489 L753.051523,327.176911 Z M749.864738,331.635662 L749.776494,332.006534 L750.245739,331.622567 L749.864738,331.635662 Z M749.128003,331.660983 L749.070368,331.662964 L749.184574,331.672175 L749.128003,331.660983 Z M747.558406,332.409866 L748.938059,332.683419 L748.80115,331.751184 L747.558406,332.409866 Z M749.974212,337.838613 L750.150765,337.748452 L749.783844,337.783296 L749.974212,337.838613 Z M751.285685,338.219697 L751.938691,338.409446 L751.661508,337.652971 L751.285685,338.219697 Z M754.316457,340.813127 L754.513689,340.922071 L754.267425,340.593207 L754.316457,340.813127 Z M764.875751,344.929265 L765.075434,345.020016 L764.806965,344.721881 L764.875751,344.929265 Z M771.017912,356.716581 L771.588643,357.693213 L772.124339,356.951874 L771.017912,356.716581 Z M772.008598,359.646147 L772.718696,359.332361 L772.016629,358.86985 L772.008598,359.646147 Z M773.75159,362.123184 L773.83136,362.204478 L773.714898,362.015362 L773.75159,362.123184 Z M774.111767,363.181593 L774.237285,363.550439 L774.438751,362.969738 L774.111767,363.181593 Z M774.977558,364.447193 L775.273308,364.535157 L774.923565,364.1434 L774.977558,364.447193 Z M775.270706,366.096593 L775.302296,366.274329 L775.359944,365.93967 L775.270706,366.096593 Z M776.68177,371.029923 L777.100088,371.181399 L776.783596,370.596834 L776.68177,371.029923 Z M782.952612,373.796679 L783.188858,373.873279 L782.870907,373.562149 L782.952612,373.796679 Z M783.53754,375.47567 L783.641427,375.773872 L783.76216,375.253718 L783.53754,375.47567 Z M788.963277,379.392398 L789.068993,379.422725 L788.880045,379.32051 L788.963277,379.392398 Z M790.815268,380.991958 L790.891235,381.05757 L790.770512,380.90211 L790.815268,380.991958 Z M791.892921,383.155329 L792.06342,383.497601 L792.178587,382.901133 L791.892921,383.155329 Z M791.410289,383.584793 L791.22523,383.749465 L791.653416,383.632258 L791.410289,383.584793 Z M782.562291,387.320351 L782.734847,387.266389 L782.585612,386.789179 L782.368033,387.239356 L782.472511,387.289852 L782.562291,387.320351 Z M783.915508,387.604797 L783.998879,387.622109 L783.842566,387.560865 L783.915508,387.604797 Z M789.209859,390.793533 L789.275391,390.833002 L789.159127,390.736275 L789.209859,390.793533 Z M791.03668,392.855311 L791.091959,392.9177 L791.004629,392.778363 L791.03668,392.855311 Z M792.03645,395.255621 L792.127761,395.474846 L792.14867,395.046327 L792.03645,395.255621 Z M791.614161,396.04321 L791.482626,396.288527 L791.891969,396.025779 L791.614161,396.04321 Z M781.983815,398.143603 L781.387843,398.411871 L781.593077,398.867809 L782.086827,398.789001 L781.983815,398.143603 Z M775.387095,403.080613 L775.292765,403.27442 L775.592768,403.016134 L775.387095,403.080613 Z M773.541648,403.659169 L773.176728,403.773573 L773.747602,403.981407 L773.541648,403.659169 Z M773.916288,406.144364 L774.136002,406.144364 L773.767693,405.982519 L773.916288,406.144364 Z M780.276943,404.637747 L780.377868,404.587918 L780.164403,404.639523 L780.276943,404.637747 Z M782.580395,404.601394 L782.724099,404.599126 L782.457421,404.527007 L782.580395,404.601394 Z M785.328658,406.263821 L785.395848,406.304464 L785.277162,406.204537 L785.328658,406.263821 Z M790.265071,409.898303 L790.35194,409.908168 L790.186705,409.859546 L790.265071,409.898303 Z M794.128132,410.936194 L795.574513,410.850846 L795.585123,410.877699 L795.666875,410.845396 L795.935935,410.82952 L795.93072,410.741144 L796.050139,410.693959 L795.907207,410.342679 L795.906482,410.330388 L795.902798,410.331843 L795.861697,410.230828 L794.128132,410.936194 Z M790.913643,413.096462 L790.874246,413.269102 L791.052912,412.987098 L790.913643,413.096462 Z M788.609848,414.905562 L788.519335,414.976639 L788.722326,414.881207 L788.609848,414.905562 Z M786.004486,415.469693 L785.783899,415.517456 L786.186217,415.603535 L786.004486,415.469693 Z M784.781953,418.100849 L786.069539,416.744202 L785.220835,416.282677 L784.781953,418.100849 Z M786.888051,417.05077 L786.965107,416.972139 L786.785097,417.089765 L786.888051,417.05077 Z M789.096532,416.214276 L789.344793,416.120243 L788.879567,416.061299 L789.096532,416.214276 Z M791.387379,415.133317 L789.610334,414.904282 L789.748514,415.857518 L791.387379,415.133317 Z M792.372913,414.697818 L792.582464,414.605219 L792.16595,414.599571 L792.372913,414.697818 Z M792.740537,414.872331 L793.484977,415.225721 L793.397788,414.375243 L792.740537,414.872331 Z M792.73437,416.70972 L793.148201,417.197955 L793.30824,416.426342 L792.73437,416.70972 Z M791.820519,418.868145 L791.816943,418.910416 L792.901587,419.085159 L792.672033,418.198499 L791.820519,418.868145 Z M792.790676,419.950688 L793.105013,420.069264 L793.509395,420.235621 L793.699397,419.773129 L793.353701,419.411889 L792.790676,419.950688 Z M792.403312,420.321385 L792.308927,420.411709 L792.529817,420.288775 L792.403312,420.321385 Z M791.065226,420.666303 L790.453329,420.824032 L791.078032,421.298073 L791.065226,420.666303 Z M789.270929,420.391029 L789.243135,420.875607 L789.756119,420.404429 L789.270929,420.391029 Z M787.845756,420.351668 L787.562093,420.343834 L787.984475,420.599221 L787.845756,420.351668 Z M785.101668,420.859306 L785.02501,420.921344 L786.966237,421.997942 L787.255786,421.062904 L785.101668,420.859306 Z M787.314699,422.559569 L787.943288,422.555535 L787.452186,421.946187 L787.314699,422.559569 Z M787.956134,423.456445 L788.755752,423.839555 L788.69773,422.970442 L787.956134,423.456445 Z M787.941765,424.329715 L789.08073,424.764665 L789.058157,423.839723 L787.941765,424.329715 Z M787.770701,424.404796 L787.608533,424.475972 L787.941514,424.451562 L787.770701,424.404796 Z M787.498807,425.670136 L787.677818,425.746857 L787.418855,425.492546 L787.498807,425.670136 Z M787.902191,426.566135 L788.03266,426.855936 L788.109207,426.32499 L787.902191,426.566135 Z M787.20625,427.376809 L787.077493,427.526793 L787.402759,427.355416 L787.20625,427.376809 Z M785.289852,428.826089 L785.522881,428.896604 L785.201656,428.59916 L785.289852,428.826089 Z M786.677055,430.776726 L787.517665,430.806274 L787.10466,430.052397 L786.677055,430.776726 Z M786.595986,433.00108 L786.876613,433.896951 L786.673307,434.013156 L787.421214,434.432726 L787.402629,433.793185 L788.460764,433.448132 L787.85919,432.74786 L787.443707,433.572812 L787.397001,433.599509 L787.382847,433.112437 L786.595986,433.00108 Z M782.819115,435.240739 L782.483597,435.695636 L783.229664,435.629266 L782.819115,435.240739 Z M781.445085,433.940413 L781.36213,433.861908 L781.485725,434.047149 L781.445085,433.940413 Z M778.528263,435.192878 L778.433546,435.403958 L778.750466,435.128441 L778.528263,435.192878 Z M776.377637,437.732597 L776.245817,438.055638 L776.726323,437.744853 L776.377637,437.732597 Z M774.237453,437.657368 L774.140507,437.653961 L774.326091,437.696782 L774.237453,437.657368 Z M774.583131,439.316189 L774.933098,439.442144 L774.603142,438.944785 L774.583131,439.316189 Z M774.561974,439.708842 L774.550903,439.914307 L774.714455,439.570683 L774.561974,439.708842 Z M771.154677,445.698483 L771.9763,445.979036 L771.809694,445.128635 L771.154677,445.698483 Z M770.820814,446.389224 L770.952115,447.201517 L771.602272,446.646875 L770.820814,446.389224 Z M769.005335,447.987283 L769.736135,448.248919 L769.545745,447.430076 L769.005335,447.987283 Z M769.024944,448.804862 L769.341479,449.147554 L769.344905,448.465366 L769.024944,448.804862 Z M768.565358,449.292508 L768.221773,449.65707 L768.929264,449.636789 L768.565358,449.292508 Z M768.149894,448.89945 L767.701654,448.475382 L767.35803,448.838593 L767.64212,449.250046 L768.149894,448.89945 Z M767.035652,447.155467 L766.920799,447.036711 L767.057142,447.319273 L767.035652,447.155467 Z M765.492253,446.187466 L765.268482,446.187466 L765.641342,446.354337 L765.492253,446.187466 Z M761.345995,446.778905 L760.998452,447.006317 L761.633296,447.078839 L761.345995,446.778905 Z M759.506576,447.315873 L759.37279,447.434849 L759.685475,447.30886 L759.506576,447.315873 Z M757.561975,447.392101 L756.851525,447.419951 L756.87111,447.919567 L757.294973,448.184784 L757.703692,447.53158 L757.561975,447.392101 Z M756.061887,445.915693 L755.837514,445.694862 L755.959725,446.213473 L756.061887,445.915693 Z M755.084916,443.642886 L754.908159,443.470969 L755.056128,443.887773 L755.084916,443.642886 Z M752.809269,442.521686 L752.614441,442.816461 L753.152177,442.60692 L752.809269,442.521686 Z M751.269877,444.376515 L751.121947,444.808677 L751.713617,444.484878 L751.269877,444.376515 Z M748.029455,445.777226 L747.874514,445.892739 L748.221807,445.79595 L748.029455,445.777226 Z M746.736136,445.651335 L746.354273,445.614165 L746.799061,446.029808 L746.736136,445.651335 Z M743.346849,445.243975 L743.235691,445.312474 L743.477306,445.238571 L743.346849,445.243975 Z M743.020698,445.257487 L742.745964,445.268869 L743.177453,445.483398 L743.020698,445.257487 Z M742.705143,444.80272 L742.602827,444.655265 L742.690327,444.981583 L742.705143,444.80272 Z M740.116741,438.049258 L739.934413,437.928585 L740.151936,438.265051 L740.116741,438.049258 Z M740.018907,437.449417 L739.969101,437.144041 L739.767838,437.630248 L740.018907,437.449417 Z M740.898377,435.429877 L740.743018,435.164302 L740.731319,435.688253 L740.898377,435.429877 Z M737.793013,433.731267 L737.471079,433.884919 L738.043055,433.985688 L737.793013,433.731267 Z M736.2313,433.434088 L735.515666,433.513146 L735.459576,433.722792 L735.043649,433.41786 L735.02515,434.237271 L735.386265,433.996802 L735.270602,434.429113 L736.049244,434.155101 L735.620537,433.840799 L736.2313,433.434088 Z M735.572555,432.102846 L735.414851,431.861239 L735.442288,432.360285 L735.572555,432.102846 Z M735.165717,430.541375 L734.820483,430.399545 L735.12791,430.912687 L735.165717,430.541375 Z M733.032649,425.583841 L732.886714,425.508967 L733.105876,425.730609 L733.032649,425.583841 Z M731.833357,424.19573 L730.87603,424.360244 L731.358982,425.155314 L731.979845,424.337332 L731.833357,424.19573 Z M729.641552,423.202802 L729.398748,423.174725 L729.768538,423.411649 L729.641552,423.202802 Z M728.941543,422.051534 L728.841301,421.886671 L728.905053,422.240998 L728.941543,422.051534 Z M729.379585,419.777116 L729.453559,419.393027 L728.988983,419.79777 L729.379585,419.777116 Z M730.919926,417.579152 L730.41952,417.580001 L730.420368,418.08 L730.920368,418.079558 L730.919926,417.579152 Z M730.337236,417.087064 L730.00346,416.948252 L730.310044,417.447529 L730.337236,417.087064 Z M723.020856,415.053037 L722.770648,415.073536 L723.18675,415.24146 L723.020856,415.053037 Z M720.452692,414.310855 L719.993253,414.368861 L720.545696,414.764507 L720.452692,414.310855 Z M719.046494,413.172006 L718.80125,413.076204 L719.106264,413.428423 L719.046494,413.172006 Z M717.219215,411.065317 L716.823042,411.26956 L717.467443,411.43552 L717.219215,411.065317 Z M715.85267,410.833476 L715.290397,410.952061 L715.892383,411.406744 L715.85267,410.833476 Z M712.767327,412.359865 L713.076013,412.583466 L712.901166,412.002973 L712.767327,412.359865 Z M712.6183,412.757259 L712.522435,413.012892 L712.88518,412.699697 L712.6183,412.757259 Z M708.437552,414.701538 L708.240675,414.828152 L708.660883,414.771646 L708.437552,414.701538 Z M706.570949,414.678002 L706.237121,414.930992 L706.878524,414.96233 L706.570949,414.678002 Z M706.095405,414.238401 L705.742332,413.912014 L705.78307,414.603964 L706.095405,414.238401 Z M706.370576,413.420401 L705.685205,413.01154 L705.703684,413.858758 L706.370576,413.420401 Z M703.166129,409.968634 L703.042142,410.293484 L703.513822,409.971797 L703.166129,409.968634 Z M699.008455,411.573023 L698.730677,411.70972 L699.254635,411.760753 L699.008455,411.573023 Z M697.156231,411.035712 L696.805148,411.075819 L697.31123,411.35327 L697.156231,411.035712 Z M696.351645,409.3873 L696.305635,409.293035 L696.355893,409.492107 L696.351645,409.3873 Z M693.444752,403.969462 L693.144092,403.919127 L693.537716,404.259786 L693.444752,403.969462 Z M693.316244,403.568134 L693.198164,403.199372 L692.988759,403.77473 L693.316244,403.568134 Z M693.512725,402.060921 L693.132468,401.866464 L693.380097,402.466901 L693.512725,402.060921 Z M691.244364,398.76487 L691.017821,398.547458 L691.146929,399.063361 L691.244364,398.76487 Z M691.396879,398.29764 L691.486481,398.023144 L691.114345,398.357227 L691.396879,398.29764 Z M692.947727,396.552101 L692.947727,396.221821 L692.643942,396.681713 L692.947727,396.552101 Z M693.947254,393.144022 L693.767834,393.100207 L694.055107,393.293951 L693.947254,393.144022 Z M690.944017,392.014299 L690.699845,392.086368 L691.14593,392.169363 L690.944017,392.014299 Z M687.84697,391.31172 L687.381101,391.660839 L688.121747,391.824961 L687.84697,391.31172 Z M686.072732,389.77749 L685.904742,389.736894 L686.179796,389.91316 L686.072732,389.77749 Z M684.745978,388.09624 L684.625695,387.943818 L684.731869,388.289892 L684.745978,388.09624 Z M684.821805,387.055418 L684.836347,386.855807 L684.673547,387.189863 L684.821805,387.055418 Z M686.781822,384.551959 L686.826776,384.318546 L686.572422,384.664451 L686.781822,384.551959 Z M689.381474,383.155396 L689.523909,383.078878 L689.221206,383.134027 L689.381474,383.155396 Z M693.035366,371.639111 L692.241462,371.268193 L692.312124,372.133868 L693.035366,371.639111 Z M691.212502,371.612533 L690.712128,371.938491 L691.445438,372.162409 L691.212502,371.612533 Z M690.265269,371.600398 L690.087086,371.986212 L690.541015,372.195852 L690.674757,371.714071 L690.265269,371.600398 Z M688.676431,372.706036 L688.560264,373.003902 L688.995551,372.686506 L688.676431,372.706036 Z M687.418052,372.783045 L687.180256,372.797597 L687.579152,372.958559 L687.418052,372.783045 Z M683.607692,370.451704 L683.028212,370.563734 L683.622951,371.041717 L683.607692,370.451704 Z M681.873122,370.013513 L681.387652,369.9994 L681.873122,370.499188 L681.873122,370.013513 Z M677.231201,364.404926 L676.336689,364.07206 L676.448284,364.950813 L677.231201,364.404926 Z M677.101889,362.524502 L677.097829,362.508611 L677.110245,362.517252 L677.404159,362.262248 L677.039865,362.281685 L677.025487,362.225399 L677.007346,362.28342 L676.790866,362.29497 L676.965691,362.416645 L676.868712,362.72681 L677.101889,362.524502 Z M683.866014,358.378265 L683.654029,358.172702 L683.788351,358.663155 L683.866014,358.378265 Z M684.199605,357.154562 L684.297678,356.794805 L683.82682,357.163167 L684.199605,357.154562 Z M685.322477,356.275198 L685.417375,355.95848 L684.993889,356.311881 L685.322477,356.275198 Z M688.17452,352.904349 L687.935343,352.314539 L687.544853,352.997097 L688.17452,352.904349 Z M687.850656,350.458664 L687.212447,350.389477 L687.627325,351.060512 L687.850656,350.458664 Z M688.429371,348.899102 L688.489264,348.737699 L688.282807,348.989419 L688.429371,348.899102 Z M689.006003,348.543763 L689.118627,348.474361 L688.873793,348.548387 L689.006003,348.543763 Z M691.204652,348.466868 L691.472668,348.457494 L691.048582,348.248779 L691.204652,348.466868 Z M692.863061,349.117011 L693.080088,348.949183 L692.604919,349.024117 L692.863061,349.117011 Z M693.654504,349.401818 L693.923946,349.498779 L693.601791,349.120355 L693.654504,349.401818 Z M695.164426,351.488433 L695.371534,351.599701 L695.11801,351.257956 L695.164426,351.488433 Z M702.376866,351.661058 L702.412293,351.37144 L702.107288,351.772689 L702.376866,351.661058 Z M703.987468,350.994115 L704.131538,350.934457 L703.835027,350.961302 L703.987468,350.994115 Z M703.908155,347.172244 L703.708524,346.953882 L703.81284,347.452332 L703.908155,347.172244 Z M701.142972,344.393164 L700.672521,344.408097 L701.186264,344.861857 L701.142972,344.393164 Z M698.476691,342.782451 L698.344149,342.72822 L698.560425,342.898626 L698.476691,342.782451 Z M697.81519,341.864679 L697.672367,341.666525 L697.746674,342.099133 L697.81519,341.864679 Z M698.095981,340.903843 L698.269062,340.311577 L697.552453,340.611759 L698.095981,340.903843 Z M697.083513,339.863487 L696.752386,339.966624 L697.296115,340.137499 L697.083513,339.863487 Z M695.450006,339.394464 L695.217476,339.43717 L695.630566,339.547081 L695.450006,339.394464 Z M693.998594,339.52525 L693.883308,339.649593 L694.165735,339.496685 L693.998594,339.52525 Z M691.913022,339.881668 L691.801934,339.900653 L692.021514,339.912176 L691.913022,339.881668 Z M689.091754,339.908228 L688.928842,340.200685 L689.424219,339.947447 L689.091754,339.908228 Z M687.279295,339.694426 L687.112656,339.674768 L687.400342,339.810627 L687.279295,339.694426 Z M686.012173,338.478024 L685.885419,338.356344 L686.034943,338.652248 L686.012173,338.478024 Z M682.869797,335.233328 L682.134577,335.425762 L682.755492,335.98467 L682.869797,335.233328 Z M682.147794,334.495506 L681.532073,334.378101 L681.896469,335.06973 L682.147794,334.495506 Z M676.910689,333.53408 L676.76929,333.558527 L677.043532,333.588338 L676.910689,333.53408 Z M675.600688,332.999025 L675.189058,332.830899 L675.481794,333.427475 L675.600688,332.999025 Z M676.064995,331.325833 L676.134777,331.074364 L675.818791,331.412375 L676.064995,331.325833 Z M678.943977,328.229244 L679.024181,328.090636 L678.798169,328.295465 L678.943977,328.229244 Z M681.017623,327.287463 L681.266448,327.174455 L680.78815,327.139047 L681.017623,327.287463 Z M684.297007,325.400293 L684.04899,324.505254 L683.4133,325.114516 L684.297007,325.400293 Z M686.662206,322.780465 L686.799542,322.614319 L686.447116,322.794674 L686.662206,322.780465 Z M690.375241,320.955917 L690.502275,320.761839 L690.145022,320.98426 L690.375241,320.955917 Z M693.037577,319.674151 L692.904384,319.375452 L692.81728,319.915875 L693.037577,319.674151 Z M693.627438,319.026917 L693.783696,318.85546 L693.395618,319.018322 L693.627438,319.026917 Z M694.493116,316.76202 L694.394766,316.846298 L694.620014,316.736091 L694.493116,316.76202 Z M687.196024,319.115588 L687.020592,319.187366 L687.374269,319.177252 L687.196024,319.115588 Z M685.725681,319.65037 L685.731442,319.91321 L685.938955,319.496641 L685.725681,319.65037 Z M684.576921,320.478398 L683.823287,321.021619 L684.615229,321.406614 L684.576921,320.478398 Z M684.511187,318.885638 L684.497692,318.558643 L684.21691,319.028849 L684.511187,318.885638 Z M684.400857,312.586101 L684.004131,312.665787 L684.561503,312.957496 L684.400857,312.586101 Z M683.40097,310.274484 L683.307774,310.059029 L683.294729,310.483816 L683.40097,310.274484 Z M684.211727,308.677006 L684.248086,308.605366 L684.154755,308.73365 L684.211727,308.677006 Z M686.434984,306.466518 L686.531617,306.37044 L686.302966,306.50028 L686.434984,306.466518 Z M691.432513,302.669224 L691.47596,302.589786 L691.36397,302.728382 L691.432513,302.669224 Z M693.554874,299.422409 L693.616321,299.229429 L693.376448,299.518228 L693.554874,299.422409 Z M694.835553,297.326128 L694.897238,297.013203 L694.525788,297.402107 L694.835553,297.326128 Z M697.377414,296.702663 L697.490334,296.674966 L697.263858,296.677696 L697.377414,296.702663 Z M699.524806,295.37649 L698.988857,295.122868 L698.981221,294.685944 L698.398674,295.187806 L698.888856,295.269936 L698.994281,295.433284 L698.991728,295.287173 L699.524806,295.37649 Z M700.275624,293.869794 L700.564944,293.26399 L699.778073,293.419074 L700.275624,293.869794 Z M708.080091,289.422606 L708.220127,289.286168 L707.884649,289.427863 L708.080091,289.422606 Z M721.028351,285.58133 L721.164039,285.377849 L720.784426,285.599126 L721.028351,285.58133 Z M725.61685,282.66819 L725.920952,282.339634 L725.554007,282 L725.082472,282.166298 L725.1935,282.481115 L725.61685,282.66819 Z M747.617186,289.115521 L747.96633,289.26024 L747.48128,290.197976 L746.811919,289.521874 L747.617186,289.115521 Z M753.485027,300.166062 L754.076998,301.178455 L753.164417,301.294148 L753.485027,300.166062 Z M789.245272,294.774629 L790.160025,295.163693 L789.478257,295.740994 L789.245272,294.774629 Z M765.380931,316.192404 L765.703152,315.59862 L763.76845,315.392258 L763.1683,316.303484 L764.086826,316.787784 L765.380931,316.192404 Z M772.930206,358.145613 L771.509586,357.843503 L771.52006,358.039933 L771.883798,358.608012 L772.930206,358.145613 Z M782.791045,386.333132 L782.881443,386.406251 L782.567,386.795 L782.417765,386.31779 L782.625131,386.252942 L782.791045,386.333132 Z M786.987938,420.866484 L786.892615,420.696373 L786.80665,420.765942 L786.987938,420.866484 Z M687.87154,351.938187 L688.221888,351.886582 L687.803944,352.285803 L687.87154,351.938187 Z M684.116307,324.290869 L684.439278,324.395313 L683.900045,324.552498 L684.116307,324.290869 Z M691.977006,319.751167 L692.647825,319.66858 L692.252264,320.368461 L691.977006,319.751167 Z M693.333426,318.015329 L695.050165,318.07898 L695.692088,317.051534 L694.947106,317.689918 L694.820208,317.715848 L693.333426,318.015329 Z M698.976017,294.270601 L699.347502,294.332843 L698.813692,294.610491 L698.976017,294.270601 Z M781.132734,435.4881 L781.124441,435.493652 L781.114232,435.459682 L781.132734,435.4881 Z M781.072676,435.528305 L779.934354,436.290336 L780.086212,436.865355 L781.405287,436.428189 L781.156421,435.600068 L781.072676,435.528305 Z M792.556465,421.576449 L792.795325,422.097339 L792.339463,422.325442 L793.019675,422.568541 L793.000578,422.525818 L793.227521,421.881078 L792.806535,422.09173 L792.572692,421.568606 L793.015858,421.354415 L792.343786,421.112651 L792.501933,421.457528 L790.15209,421.43438 L790.151482,421.496166 L790.107986,421.50009 L790.104471,422.000078 L791.657378,422.010995 L792.556465,421.576449 Z M795.58858,412.593947 L796.485715,413.540577 L796.298491,413.776365 L796.672649,413.737825 L796.784237,413.85557 L796.778607,413.726911 L797.010033,413.703074 L796.768771,413.502152 L796.75558,413.200711 L796.616752,413.37555 L795.671565,412.588402 L795.595342,412.59223 L795.872822,412.521771 L795.386852,412.381089 L795.587334,412.592632 L795.269438,412.608595 L795.334743,412.455351 L795.148769,412.614654 L794.470961,412.648691 L794.956012,413.344079 L795.237713,412.68304 L795.58858,412.593947 Z M795.269438,412.608595 L795.148769,412.614654 L794.997824,412.743953 L795.237713,412.68304 L795.269438,412.608595 Z M798.249186,411.875817 L798.398257,412.488609 L799.14592,411.944461 L797.617938,411.005237 L797.387607,411.930206 L798.249186,411.875817 Z M800.066347,410.333277 L799.905263,411.342275 L800.780949,411.098419 L800.13027,410.32825 L800.699404,410.283493 L800.166457,409.706206 L800.077181,410.265412 L799.501101,409.583541 L799.158362,410.404683 L800.066347,410.333277 Z M795.286955,407.189995 L795.41944,407.184084 L795.168955,407.129468 L795.286955,407.189995 Z M798.586865,408.88264 L799.047679,409.119009 L798.839289,408.430421 L798.586865,408.88264 Z M798.285,409.423432 L798.055709,409.834208 L798.708971,409.627294 L798.285,409.423432 Z M794.456059,408.598287 L794.130366,408.598287 L794.587703,408.896189 L794.456059,408.598287 Z M793.86183,407.253575 L793.347033,406.088615 L792.530775,406.638815 L793.157481,407.284999 L793.86183,407.253575 Z M791.559252,408.459637 L791.693919,408.648296 L791.615479,408.411531 L791.974081,408.104719 L791.24207,408.015289 L791.450215,408.306884 L791.360276,408.629877 L791.559252,408.459637 Z M791.784913,408.775771 L792.143188,409.277688 L792.350046,408.528981 L791.784913,408.775771 Z M791.742315,408.794373 L791.239974,409.013742 L791.914703,409.314711 L791.742315,408.794373 Z M800.269451,405.256699 L800.416358,405.14529 L800.145577,405.128792 L800.014711,404.993665 L799.987662,405.11917 L798.261512,405.014 L798.320737,406.004975 L800.593121,405.590909 L800.269451,405.256699 Z M796.907832,404.837786 L796.97562,405.597886 L797.631778,405.079137 L796.907832,404.837786 Z M796.579469,404.728315 L794.693351,404.099516 L794.620281,405.066561 L796.579469,404.728315 Z M796.893239,404.674144 L797.428111,404.5818 L796.845023,404.133504 L796.893239,404.674144 Z M799.651309,402.455699 L800.557446,403.286188 L800.922577,402.418329 L799.576081,402.344705 L799.499612,402.316666 L799.527295,402.342037 L798.793612,402.30192 L798.783054,401.991651 L798.509103,402.286364 L798.336761,402.276941 L798.429686,402.3718 L798.302824,402.508277 L798.553793,402.498491 L798.809173,402.75919 L798.799975,402.488893 L799.651309,402.455699 Z M801.352282,398.569766 L802.202069,399.124833 L802.469685,398.206256 L801.505847,398.217464 L801.588702,398.027382 L800.930666,398.224152 L800.732748,398.226454 L801.196912,398.92621 L801.352282,398.569766 Z M790.994938,389.267504 L791.105065,389.298472 L790.995875,389.711278 L791.556413,389.425393 L791.578974,389.431737 L791.571077,389.417914 L791.65957,389.372781 L791.512893,389.316067 L791.23095,388.82255 L791.138683,389.171377 L790.978492,389.109439 L790.918734,388.535091 L790.286066,389.068166 L790.871907,389.232907 L791.010151,389.413721 L790.994938,389.267504 Z M789.463129,388.898295 L789.726978,389.659512 L790.449529,389.062821 L785.957,386.46733 L785.525572,387.366242 L789.463129,388.898295 Z M782.117238,381.903534 L780.835613,382.599039 L783.705608,384.584391 L790.924216,387.228604 L792.65913,386.641146 L792.674827,386.483344 L791.860036,385.974978 L788.180192,385.125232 L788.056957,385.078994 L782.117238,381.903534 Z M792.833249,386.582187 L792.895779,386.561014 L792.914942,386.599994 L792.897318,386.622161 L792.833249,386.582187 Z M729.895252,361.067592 L730.783355,361.527236 L730.388247,362.293119 L729.450564,361.924028 L729.895252,361.067592 Z M730.300995,361.278394 L730.333134,361.196745 L730.334146,361.197144 L730.301967,361.278895 L730.339,361.298 L730.782748,361.528408 L730.593748,361.892408 L730.15,361.662 L730.300995,361.278394 L730.301967,361.278895 L730.151013,361.662399 L729.706658,361.433163 L729.894645,361.068764 L730.300995,361.278394 Z M727.383051,360.339743 L727.055831,361.077405 L726.124173,360.717348 L726.141966,360.671218 L726.468966,359.934218 L727.383051,360.339743 Z M727.957708,356.595396 L729.963262,356.545632 L729.979454,357.609764 L727.479355,357.64948 L727.957708,356.595396 Z M728.284978,357.147881 L728.71631,357.343623 L728.738788,357.294089 L728.283479,357.087466 L728.284978,357.147881 Z M729.49721,354.954725 L729.522723,354.956125 L729.510481,354.937739 L729.484969,354.936339 L729.49721,354.954725 Z M731.140382,353.233498 L728.87762,356.87906 L728.999439,354.658918 L731.140382,353.233498 Z" stroke-linejoin="square"></path>
                </g>
            </g>
        </g>
    </g>
</svg>