<?xml version="1.0" encoding="UTF-8"?>
<svg width="1004px" height="575px" viewBox="0 0 1004 575" version="1.1" xmlns="http://www.w3.org/2000/svg" xmlns:xlink="http://www.w3.org/1999/xlink">
    <!-- Generator: Sketch 57.1 (83088) - https://sketch.com -->
    <title>华北 2</title>
    <desc>Created with Sketch.</desc>
    <defs>
        <path d="M785.575196,5 L788.365248,6.79023759 L788.144639,8.19828962 L789.740809,8.90231564 L790.817899,10.6623807 L787.378997,14.3333735 L787.301135,15.4899877 L780.579056,20.5187449 L782.733236,21.0417357 L785.951529,23.4153091 L788.066778,23.706977 L789.143867,26.2917583 L791.129347,27.0058418 L792.972079,26.7041164 L796.553727,22.2084074 L797.241508,23.1538137 L798.928516,23.0331236 L800.524686,25.0647415 L801.173535,24.722786 L801.679637,26.7443464 L806.75364,27.6495227 L805.949066,29.7012557 L804.197173,30.0532687 L804.093357,31.4914933 L804.962815,33.2817309 L805.767389,33.3119034 L805.442964,35.1323135 L806.520054,37.4053118 L806.156698,38.1395104 L808.375763,42.2530338 L807.869661,43.5705682 L809.634531,45.2702882 L810.270403,46.9197206 L811.386424,46.7588003 L815.007004,48.1769099 L821.106188,46.7889729 L822.027554,45.169713 L823.273345,45.9441416 L824.064941,45.813394 L825.440502,47.1711584 L830.332826,46.1754645 L832.344259,47.7544943 L833.304556,47.7544943 L833.810659,46.0950044 L834.680117,45.5518986 L836.081632,45.7530489 L837.015975,46.6381102 L838.612144,46.2458671 L839.312901,45.3608058 L841.025864,45.501611 L842.102954,44.1941341 L841.869368,43.1682676 L844.010571,42.3435514 L844.244157,40.4728537 L845.009799,39.8492878 L845.243385,40.3923936 L848.786102,40.6036014 L854.483,46.537535 L855.378412,48.5792105 L857.052443,48.9915686 L857.234121,50.329218 L858.453958,51.033244 L859.414255,50.7818061 L859.102807,51.5662923 L860.452414,52.5821012 L859.99822,53.1553796 L860.789816,53.8895781 L859.453186,55.7602758 L858.843268,55.2574001 L858.726475,56.0821163 L857.753201,56.0418862 L858.207395,56.5548195 L856.663134,57.4298232 L856.870766,58.0735042 L855.98833,57.8019513 L855.417343,58.2344244 L856.546341,59.1999458 L855.962376,59.6827065 L856.572295,62.2976603 L854.132621,63.3335843 L854.547885,63.5950796 L853.379956,64.3896233 L852.237981,64.4499684 L852.432636,65.2344545 L851.342569,65.1037068 L852.004395,66.0792857 L851.550201,67.0246921 L850.537996,67.3565901 L850.615858,68.6540095 L848.474655,69.8810262 L849.162435,70.404017 L847.592219,70.6554548 L847.475427,71.6310338 L848.513586,72.0132193 L847.060163,72.1741395 L847.773897,73.0692583 L845.957119,73.9844922 L847.034209,75.6842121 L846.722761,76.3681231 L845.892234,76.4888133 L846.722761,77.1023217 L846.618945,79.6770454 L846.177728,80.4213015 L845.567809,79.5362402 L845.100638,80.119576 L846.839554,81.1655575 L846.904439,82.2517691 L846.372383,82.2718841 L847.410542,83.891144 L846.644899,89.0305339 L844.905983,90.2374356 L843.608284,89.2618567 L841.324334,89.1813966 L839.819004,90.498931 L840.091521,91.8164654 L838.871684,94.2101539 L838.170927,94.1900388 L838.080088,95.7187811 L837.288491,96.0707941 L836.69155,97.5190762 L836.470941,99.7317294 L835.147288,101.320817 L835.718276,102.970249 L835.09538,104.639796 L836.133539,106.098136 L834.978588,109.407058 L833.603027,110.121142 L834.511416,108.642687 L833.421349,108.169984 L833.654935,107.164233 L832.435098,106.329459 L831.721364,104.840947 L831.890065,102.567948 L831.098468,101.682887 L826.647362,104.619681 L819.743604,110.976031 L815.357382,112.4746 L813.242133,115.542142 L803.236876,120.540727 L802.042993,122.944473 L800.2911,124.101087 L803.846794,128.234726 L807.739891,129.532145 L806.4941,130.970369 L806.948294,131.644223 L808.466602,131.302267 L808.505533,133.937336 L810.439104,135.757746 L812.891755,135.285043 L813.761213,133.323828 L816.18791,133.03216 L816.48638,131.754856 L815.396313,131.181577 L815.448221,130.417206 L816.953552,131.543648 L818.926054,131.392785 L818.08255,133.303713 L818.471859,133.836761 L819.406202,133.826704 L819.652765,132.579572 L820.119937,132.649974 L820.327569,133.524978 L819.704673,133.816646 L820.639016,134.078141 L820.042075,136.300852 L814.760441,136.843958 L813.878006,138.151435 L811.074976,137.608329 L811.049023,138.29224 L810.296357,138.483333 L810.516966,141.259207 L813.125341,144.417266 L811.918481,145.795146 L812.100158,146.489114 L810.945207,147.15291 L806.714709,147.696016 L807.363558,151.256376 L807.039133,152.976211 L805.572734,154.575356 L802.730773,153.036556 L800.71934,150.562408 L799.940721,150.562408 L799.823928,151.296606 L797.942265,152.503508 L795.359845,151.115571 L793.763675,149.104068 L793.14078,149.315276 L791.246139,148.500617 L790.182027,149.013551 L790.947669,150.290855 L789.701878,152.724773 L787.75533,153.398627 L789.351499,154.665874 L791.401863,154.102653 L793.348411,154.515011 L793.854514,155.500647 L793.322457,156.928814 L794.230847,158.296636 L796.475865,159.17164 L796.203349,161.625674 L797.734633,162.24924 L797.708679,163.023668 L795.762131,164.2708 L795.230075,168.565359 L794.34764,168.877142 L795.489614,170.918817 L796.553727,171.049565 L795.178167,171.572556 L795.878924,171.954741 L795.749154,174.579752 L797.241508,175.183203 L797.643794,176.500738 L798.630045,176.551025 L798.201805,180.161673 L801.757499,180.654491 L808.103246,177.697582 L810.568874,175.917402 L812.528399,175.625734 L812.385652,178.361378 L813.709305,178.995001 L815.162728,181.46915 L816.512334,181.982083 L815.565014,183.57117 L818.030642,187.272336 L817.835987,189.112861 L819.068801,191.375802 L818.536744,191.898792 L817.018437,191.78816 L817.290954,192.723509 L815.577991,192.542473 L815.500129,193.60857 L817.368815,194.905989 L818.147435,194.081273 L819.925282,195.791051 L821.729083,195.791051 L821.74206,195.841338 L821.768014,197.420368 L821.002372,197.782438 L821.210004,198.928995 L819.769558,202.278147 L818.108504,201.564064 L814.280292,202.418953 L813.203202,203.495107 L813.138317,204.742239 L814.085638,205.194827 L811.295585,206.160348 L808.323855,206.291096 L807.44142,207.025294 L805.67655,205.98937 L804.028472,206.160348 L802.808635,205.245114 L799.940721,204.903159 L799.408665,205.285344 L799.77202,206.110061 L801.225443,206.351441 L800.135376,207.799723 L797.124715,206.985064 L796.488842,207.668975 L794.723972,207.035352 L792.75147,207.679033 L791.518656,210.374447 L789.117914,211.742269 L788.222501,211.943419 L787.093503,210.585654 L785.289702,210.937667 L782.824075,211.631636 L781.8508,212.9894 L778.048543,215.131651 L775.505054,214.870156 L771.248602,216.801198 L770.586775,216.589991 L768.653204,217.64603 L768.782974,219.064139 L765.746359,220.351501 L762.566997,224.585715 L761.450976,224.163299 L761.645631,222.574212 L758.401384,217.676202 L758.479246,215.765274 L756.896053,215.885965 L754.534242,215.041133 L752.808302,212.78825 L752.146476,213.723599 L749.239631,214.819868 L748.512919,215.755217 L750.822823,217.867295 L750.459468,219.456382 L749.992296,220.512421 L749.512147,224.475082 L750.394583,226.144629 L751.341903,226.476527 L750.485422,227.079978 L751.199156,228.337168 L749.590009,229.564184 L749.940388,230.801259 L749.680848,230.469361 L748.525896,231.052697 L747.897,231.589 L747.941932,231.595802 L748.577804,231.052697 L748.512919,232.068506 L747.370945,232.641784 L747.669415,233.26535 L745.982407,234.130296 L745.813706,234.944955 L743.724411,235.256738 L743.594641,235.830016 L744.970202,236.363064 L744.464099,237.06709 L742.919838,237.02686 L742.154196,239.712217 L745.502258,241.955042 L747.526668,241.512512 L747.098428,242.980909 L748.422081,242.950736 L748.25338,243.534072 L749.174746,244.097293 L754.041116,244.036948 L754.430426,247.285525 L755.286907,248.512542 L754.936528,249.115993 L756.896053,249.820019 L757.363225,252.20365 L758.479246,252.153362 L758.479246,253.108826 L754.002185,254.496763 L753.405244,254.828661 L753.418221,256.065735 L752.367085,256.025505 L750.641145,257.151947 L748.954137,260.812882 L749.75871,262.462314 L749.07093,263.357433 L748.032771,263.16634 L744.697685,266.143365 L740.558026,267.108886 L738.248122,266.575838 L733.809993,268.939354 L731.96726,268.396248 L729.438,265.733 L726.984097,265.952272 L723.960459,267.82297 L724.907779,269.713782 L723.713896,269.854588 L722.325359,271.554308 L721.222315,274.933632 L720.936821,275.687946 L720.093,275.801 L720.093,275.851 L720.936821,275.738234 L721.209338,274.98392 L723.493287,279.389111 L726.15357,281.380499 L723.441379,284.317294 L721.378038,284.468156 L719.029204,287.998344 L708.582729,288.279954 L702.691176,294.032853 L700.874398,292.38342 L700.030894,294.153543 L699.252275,294.022795 L699.265252,294.767051 L700.13471,295.179409 L699.472883,295.802975 L698.149231,295.511307 L695.203455,296.235448 L694.87903,297.884881 L693.944687,298.387756 L693.308814,300.389202 L691.855392,301.646391 L690.324107,304.452438 L687.027952,305.297269 L684.666141,307.650727 L683.718821,309.521425 L684.964611,312.407932 L685.963839,312.206781 L686.755436,313.242705 L686.898183,314.630642 L684.445532,315.928062 L683.082948,314.328917 L681.123423,313.976904 L680.850906,314.60047 L680.007402,314.630642 L679.24176,316.159385 L677.801314,316.571743 L677.334143,315.163691 L672.467772,315.415128 L669.353295,313.775754 L663.773191,313.02144 L662.95564,311.754193 L662.215952,311.713963 L662.306791,312.297299 L661.930458,311.703906 L660.087726,312.086091 L658.244994,311.663676 L658.225,311.612 L657.284697,314.067421 L657.699961,314.359089 L657.051111,314.610527 L657.842707,315.053058 L656.986226,315.274323 L657.103019,316.66226 L657.738891,316.853353 L657.53126,317.416574 L656.726686,317.386401 L657.038134,319.749917 L655.701504,320.051643 L656.519055,322.877804 L655.299218,322.706826 L654.416783,324.527237 L651.19849,325.36201 L651.185513,326.156554 L649.693159,325.905116 L648.200806,327.574663 L646.150442,327.303111 L646.267234,328.037309 L645.086329,328.88214 L643.256573,328.771508 L642.283299,329.596224 L640.985601,329.284441 L640.583314,328.610587 L640.025303,329.314614 L636.417701,328.912313 L635.353588,329.395074 L634.561992,329.314614 L634.587946,328.811738 L633.432994,329.163751 L630.902481,328.389322 L630.422333,332.231293 L629.150588,331.487037 L627.061293,331.627842 L626.659006,332.261465 L624.517803,332.885031 L624.543757,333.558885 L622.869726,335.077569 L617.198782,335.952573 L616.04383,335.701135 L612.929353,337.30028 L612.319435,336.857749 L611.86524,337.954018 L609.516406,338.044536 L608.374431,339 L603.417222,338.83908 L601.976776,338.637929 L601.159226,337.4612 L601.769144,336.083321 L601.61342,333.226987 L607.154594,322.968322 L604.468358,314.620585 L605.376747,308.0832 L603.546991,306.534343 L604.28668,306.453883 L604.559196,305.729742 L603.404245,305.096119 L604.079048,304.613358 L604.066071,303.688066 L603.352337,303.456744 L604.15691,302.028577 L603.235544,301.213918 L604.533242,301.344666 L603.923324,300.92225 L605.79201,299.836038 L608.426339,297.019934 L608.672902,296.014183 L607.530927,295.611882 L607.634742,294.636303 L609.373659,294.173658 L610.061439,292.695203 L609.581291,291.317324 L610.191209,291.075943 L608.633971,290.160709 L609.425567,289.436568 L605.597355,286.137704 L605.415678,282.617574 L606.362998,281.973893 L606.674445,280.646301 L607.933213,280.616128 L609.996554,278.282785 L611.501885,278.061519 L612.215619,276.140534 L611.657609,275.014093 L613.798812,271.312927 L613.162939,269.733897 L615.550705,268.486766 L616.939243,264.835888 L617.627023,264.443645 L615.771314,263.337318 L616.199554,262.502544 L617.627,262.423 L617.627,262.409 L616.134669,262.492487 L615.706429,263.317203 L615.018648,263.387606 L614.40873,262.452257 L615.87513,260.380409 L615.563682,259.797073 L611.411046,261.205125 L608.828625,264.654853 L607.206502,265.258303 L605.584378,263.055708 L603.910347,263.417778 L603.417222,264.212322 L601.029456,262.090186 L599.45924,261.788461 L599.173747,262.753982 L600.575261,264.695083 L596.331786,266.274112 L594.839433,267.78274 L592.399759,268.2655 L591.75091,270.447981 L589.999016,272.379024 L589.07765,272.087356 L587.611251,272.529886 L587.18301,273.998284 L586.028058,274.108916 L586.300575,275.527026 L585.093715,275.406336 L583.225029,276.492547 L582.809765,277.759794 L581.486113,278.333072 L580.201391,280.062965 L579.539564,282.597459 L581.550998,284.126201 L581.550998,284.991147 L579.682311,286.781385 L578.112096,285.252642 L577.255615,285.202355 L577.787671,285.725346 L577.047983,286.419314 L577.073937,290.573068 L573.648012,291.106116 L573.673966,290.552953 L572.895347,290.472492 L570.286972,290.754103 L569.482399,291.367611 L568.44424,290.84462 L566.5496,291.629107 L564.538167,290.854678 L563.746571,288.843175 L558.594707,287.525641 L554.610771,286.328796 L554.935196,285.554368 L553.300096,284.045741 L550.65279,282.969587 L547.979531,283.552922 L544.800169,282.969587 L539.570443,280.384805 L542.503242,276.80433 L542.957436,273.817248 L547.408543,269.542805 L547.187934,268.34596 L545.345202,267.82297 L544.384905,263.377548 L541.335313,263.367491 L539.440673,264.58445 L536.170472,264.90629 L536.131541,266.958023 L533.847591,266.847391 L532.770501,269.653437 L530.953723,270.880454 L531.278148,271.594538 L529.941518,272.92213 L529.020152,275.315818 L528.630842,278.825891 L529.227784,281.169291 L527.917108,282.245446 L527.670545,283.341715 L528.851451,285.433678 L527.553752,288.712427 L525.58125,289.054383 L524.906447,290.32163 L521.636246,290.150652 L518.729401,290.673643 L514.914166,292.785721 L510.437106,293.399229 L508.192087,292.876238 L505.479896,293.248366 L505.246311,294.022795 L503.338693,294.636303 L501.677639,294.958144 L493.333436,288.923635 L489.089961,287.937999 L488.298365,284.035683 L491.283072,282.999759 L490.296821,280.233943 L489.115915,278.936523 L496.72043,275.094553 L499.276896,271.101719 L501.612754,270.287061 L502.131834,267.82297 L499.614298,264.483875 L500.25017,262.512602 L497.79752,261.748231 L496.097534,261.848806 L488.285388,263.699389 L482.393836,267.682164 L475.931296,266.384745 L473.439714,265.197958 L469.261124,266.56578 L462.941331,267.682164 L467.288622,271.021259 L463.732927,273.817248 L463.564227,274.541389 L462.305459,274.78277 L460.657381,274.330182 L459.684107,274.823 L458.269616,273.797133 L454.947507,272.871842 L455.012392,271.795688 L453.558969,271.413502 L452.455925,270.075853 L453.16966,268.949411 L449.821597,270.035623 L448.575806,268.577283 L447.148337,269.150562 L447.070475,262.854557 L441.360601,262.834442 L441.386555,261.496793 L438.414825,260.86317 L437.27285,258.087296 L433.379754,257.222349 L429.304979,254.818603 L424.192046,254.979524 L426.917214,251.871752 L431.62786,249.417718 L433.483569,246.350176 L437.091172,242.960794 L436.870563,240.939233 L434.690429,238.243819 L427.864534,237.409046 L426.07371,238.817098 L419.689032,238.545545 L414.602053,240.416243 L410.981473,243.936373 L404.557864,244.217983 L406.413573,239.018248 L406.141057,238.253877 L400.431182,234.502424 L399.92508,234.663344 L394.007573,228.558433 L397.744946,225.158993 L387,206.130176 L404.428094,208.433346 L424.892804,209.600018 L433.068306,208.262369 L437.778952,208.554037 L438.492687,207.64886 L448.08268,208.302599 L462.928354,211.24945 L466.964197,215.614412 L472.72598,216.952061 L478.046545,217.062694 L487.610585,220.924779 L496.473867,222.614442 L507.647053,221.32708 L507.491329,225.078533 L514.226386,225.370201 L515.692786,226.687735 L519.482066,223.791171 L528.280464,220.069891 L542.736828,214.920443 L552.287891,213.250896 L552.755062,212.38595 L555.35046,211.450601 L556.453504,211.380198 L557.011514,212.054052 L562.890089,212.305489 L568.236608,211.450601 L569.119043,211.832786 L572.947255,211.561233 L577.644924,212.727905 L580.214368,211.541118 L585.184554,212.124454 L589.713523,211.289681 L594.424169,208.654612 L599.653895,208.433346 L602.612648,206.914662 L604.507288,205.687645 L604.559196,204.631606 L607.336272,203.394532 L608.672902,201.191936 L614.304914,196.213466 L620.494937,193.990756 L622.947588,193.658858 L625.99718,190.068325 L629.176542,189.444759 L630.007069,188.75079 L629.968138,187.885844 L627.515487,184.86859 L623.881931,183.601343 L619.872042,178.582643 L622.714002,171.904454 L625.672755,167.63001 L628.099452,165.60845 L636.742126,165.84983 L642.088644,169.198982 L644.684042,169.36996 L648.304622,170.536632 L653.897703,170.677437 L656.557986,171.532326 L663.526628,167.821103 L668.951009,163.999247 L670.75481,161.826824 L671.14412,160.237737 L673.285323,159.21187 L675.06317,158.80957 L679.124967,159.734861 L679.124967,160.398657 L690.947003,159.081123 L694.437812,155.943178 L696.579015,154.786564 L699.174413,154.273631 L700.173641,152.020747 L699.797308,149.787979 L705.091919,143.63278 L708.037695,143.10979 L709.633865,141.912945 L711.606367,142.526454 L717.900206,142.506339 L719.094089,138.262068 L721.741394,138.151435 L722.935277,139.468969 L725.297089,139.378452 L726.322271,138.302298 L732.525271,135.355446 L732.719926,134.420097 L735.691656,134.560902 L736.716838,134.037911 L738.053467,134.872685 L739.286281,134.098256 L741.427484,134.520672 L744.321352,133.836761 L744.230514,134.460327 L746.215993,134.540787 L746.748049,135.647114 L748.149564,135.395676 L751.289995,137.256316 L752.185407,138.604023 L751.315949,139.046554 L751.043432,140.172995 L753.067842,141.198862 L754.45638,138.785058 L757.350248,137.467524 L759.802899,135.073835 L757.830397,131.905718 L757.609788,129.823813 L758.362453,129.884158 L758.453292,128.204553 L756.156365,126.876961 L757.16857,126.404258 L757.98612,127.591045 L758.946417,127.460297 L758.297568,125.700232 L756.402928,124.483273 L752.457924,124.201662 L749.953365,122.401367 L749.862526,120.279232 L748.084679,120.782107 L747.163313,120.399922 L746.709118,117.322322 L740.999244,115.371164 L736.132873,111.710229 L732.434432,111.680057 L731.40925,111.116836 L730.085597,111.348159 L730.254298,110.996146 L725.699375,111.227468 L719.600191,116.427203 L718.029976,118.539282 L713.669708,115.300762 L708.686545,113.601042 L706.026262,113.782077 L703.612542,114.687253 L698.966781,114.244723 L694.424835,117.835256 L686.573758,111.800747 L688.105042,111.710229 L687.456193,108.290674 L692.634011,106.570839 L692.634011,101.642657 L697.383588,96.6340149 L696.475199,94.8840073 L707.038467,76.2776055 L711.100264,78.6109488 L716.446783,80.3609564 L719.794846,80.4213015 L725.958915,82.8250474 L730.176436,79.7776205 L730.955055,79.787678 L732.252754,78.379626 L734.562658,77.5347948 L734.679451,76.5893884 L736.029057,76.3580656 L737.560342,74.587943 L747.967886,72.8882231 L749.680848,71.2287332 L750.693053,69.6698184 L749.914434,67.648258 L750.757938,66.8637719 L750.342675,66.2502635 L747.643461,66.2904935 L746.618279,65.5160649 L747.30606,64.8623265 L748.058725,65.0232467 L749.213677,61.1511036 L752.587694,58.4355747 L753.145704,55.0864224 L756.922007,51.385257 L757.155593,48.8004758 L757.973143,48.7602457 L757.921235,47.4929989 L759.919692,46.0346593 L759.478474,45.4211509 L760.905943,44.0432714 L760.633426,43.2688428 L761.814332,42.0116535 L762.618905,39.4671023 L763.968512,39.3765847 L768.549388,36.0576049 L768.873813,35.2530037 L769.924949,35.3334638 L770.236397,34.6596103 L771.702796,34.3277124 L772.715001,32.8894878 L772.24783,31.9541389 L773.247058,31.2299979 L773.856976,29.5805655 L773.169196,28.5748141 L773.45469,27.6897528 L771.274556,26.3822759 L771.105855,25.7285374 L772.922633,21.6049565 L768.523434,19.5532235 L765.538727,20.0058117 L764.098282,20.9009305 L762.112802,20.7500678 L761.502884,19.7543738 L762.021963,18.2256316 L761.554792,16.8175796 L765.707428,14.8463067 L769.782202,10.531633 L771.248602,9.93823963 L772.260807,8.36926737 L774.635595,6.96121533 L774.778342,6.2471318 L778.645485,5.65373844 L779.501966,6.25718932 L781.085158,6.08621157 L782.720259,5.22126532 L785.575196,5 Z" id="path-1"></path>
        <filter x="-1.8%" y="-2.5%" width="103.6%" height="105.1%" filterUnits="objectBoundingBox" id="filter-2">
            <feGaussianBlur stdDeviation="8" in="SourceAlpha" result="shadowBlurInner1"></feGaussianBlur>
            <feOffset dx="-1" dy="-1" in="shadowBlurInner1" result="shadowOffsetInner1"></feOffset>
            <feComposite in="shadowOffsetInner1" in2="SourceAlpha" operator="arithmetic" k2="-1" k3="1" result="shadowInnerInner1"></feComposite>
            <feColorMatrix values="0 0 0 0 0.206573933   0 0 0 0 0.918783158   0 0 0 0 1  0 0 0 1 0" type="matrix" in="shadowInnerInner1" result="shadowMatrixInner1"></feColorMatrix>
            <feGaussianBlur stdDeviation="0.5" in="SourceAlpha" result="shadowBlurInner2"></feGaussianBlur>
            <feOffset dx="0" dy="2" in="shadowBlurInner2" result="shadowOffsetInner2"></feOffset>
            <feComposite in="shadowOffsetInner2" in2="SourceAlpha" operator="arithmetic" k2="-1" k3="1" result="shadowInnerInner2"></feComposite>
            <feColorMatrix values="0 0 0 0 0.199599848   0 0 0 0 0.961825321   0 0 0 0 1  0 0 0 1 0" type="matrix" in="shadowInnerInner2" result="shadowMatrixInner2"></feColorMatrix>
            <feGaussianBlur stdDeviation="0.5" in="SourceAlpha" result="shadowBlurInner3"></feGaussianBlur>
            <feOffset dx="0" dy="-2" in="shadowBlurInner3" result="shadowOffsetInner3"></feOffset>
            <feComposite in="shadowOffsetInner3" in2="SourceAlpha" operator="arithmetic" k2="-1" k3="1" result="shadowInnerInner3"></feComposite>
            <feColorMatrix values="0 0 0 0 0   0 0 0 0 0.862745098   0 0 0 0 0.976470588  0 0 0 1 0" type="matrix" in="shadowInnerInner3" result="shadowMatrixInner3"></feColorMatrix>
            <feMerge>
                <feMergeNode in="shadowMatrixInner1"></feMergeNode>
                <feMergeNode in="shadowMatrixInner2"></feMergeNode>
                <feMergeNode in="shadowMatrixInner3"></feMergeNode>
            </feMerge>
        </filter>
    </defs>
    <g id="组件" stroke="none" stroke-width="1" fill="none" fill-rule="evenodd">
        <g id="画板备份" transform="translate(1.000000, 0.000000)" fill-rule="nonzero">
            <g id="华北-2" transform="translate(-0.144095, 0.000000)">
                <g id="华北">
                    <use fill="#0B9BF2" xlink:href="#path-1"></use>
                    <use fill="black" fill-opacity="1" filter="url(#filter-2)" xlink:href="#path-1"></use>
                    <path stroke="#FFFFFF" stroke-width="1" d="M787.820804,7.03497305 L788.095229,7.21105771 L787.871274,6.71284345 L787.820804,7.03497305 Z M789.395953,9.29668553 L789.539029,9.35979215 L789.314329,9.16330428 L789.395953,9.29668553 Z M790.192616,10.5985064 L790.391419,10.9233693 L790.452999,10.3205505 L790.192616,10.5985064 Z M786.817693,15.2272196 L786.802264,15.4564042 L787.001623,15.0896219 L786.817693,15.2272196 Z M782.517462,21.5038747 L782.615273,21.5276212 L782.436458,21.4441322 L782.517462,21.5038747 Z M787.715228,24.1632333 L787.99848,24.2022905 L787.605245,23.8992996 L787.715228,24.1632333 Z M796.535667,23.0335022 L796.944794,22.5199629 L796.149403,22.5025525 L796.535667,23.0335022 Z M798.699372,23.5507946 L798.964195,23.5318489 L798.535347,23.3420221 L798.699372,23.5507946 Z M800.843186,25.4620734 L801.406651,25.165117 L800.688504,24.8442147 L800.843186,25.4620734 Z M806.06554,28.034663 L806.665828,28.1417515 L806.288151,27.4669844 L806.06554,28.034663 Z M805.583155,29.2647856 L805.483578,29.5187174 L805.850569,29.2110535 L805.583155,29.2647856 Z M805.174304,33.7900134 L805.748651,33.8115522 L805.275144,33.224178 L805.174304,33.7900134 Z M805.964515,37.4005785 L806.068216,37.619421 L806.07193,37.1835348 L805.964515,37.4005785 Z M807.826629,42.2882161 L807.93571,42.4904229 L807.909014,42.0737423 L807.826629,42.2882161 Z M809.207862,45.5535483 L809.287687,45.6304263 L809.167998,45.4501412 L809.207862,45.5535483 Z M811.327055,47.2725319 L811.457782,47.2536822 L811.204073,47.2243623 L811.327055,47.2725319 Z M822.205053,45.8687869 L822.462129,45.4169879 L821.763582,45.5943529 L822.205053,45.8687869 Z M823.895033,46.3482319 L824.146422,46.3067102 L823.713697,46.1692417 L823.895033,46.3482319 Z M830.205961,46.7115345 L830.432543,46.6654202 L830.024082,46.5687549 L830.205961,46.7115345 Z M834.234308,46.4199029 L834.288912,46.2408596 L834.075551,46.5190705 L834.234308,46.4199029 Z M834.789997,46.0727925 L834.945009,45.9759647 L834.609083,46.0468271 L834.789997,46.0727925 Z M835.853212,46.2253889 L836.010598,46.2479773 L835.737781,46.1160457 L835.853212,46.2253889 Z M839.538735,45.8810556 L839.704906,45.6711801 L839.27194,45.8591251 L839.538735,45.8810556 Z M842.452983,43.4792855 L842.35689,43.0572608 L842.049081,43.6348545 L842.452983,43.4792855 Z M844.715448,40.7338631 L844.740304,40.5348055 L844.559905,40.8605433 L844.715448,40.7338631 Z M844.812107,40.6551412 L845.325547,40.2369774 L844.55048,40.0468376 L844.812107,40.6551412 Z M848.560968,41.0910673 L848.756346,41.1027152 L848.425418,40.9498775 L848.560968,41.0910673 Z M854.060785,46.81972 L854.122316,46.8838111 L854.025101,46.7383546 L854.060785,46.81972 Z M856.602747,49.3957423 L856.932855,49.4770565 L856.556992,49.0588601 L856.602747,49.3957423 Z M858.584883,51.5158185 L859.540903,51.2655007 L858.949539,50.5973098 L858.584883,51.5158185 Z M859.74221,52.6733537 L860.151732,52.9815886 L860.060507,52.271603 L859.74221,52.6733537 Z M860.127172,53.956935 L860.449803,54.2561723 L860.382992,53.598899 L860.127172,53.956935 Z M859.357856,55.0336418 L859.046362,55.4695967 L859.771262,55.3744939 L859.357856,55.0336418 Z M858.294881,55.5638495 L858.231414,56.0120079 L858.747125,55.5825429 L858.294881,55.5638495 Z M857.423817,56.4241222 L857.833059,56.8862889 L857.960906,56.119799 L857.423817,56.4241222 Z M856.100153,57.3132234 L856.39491,58.2270007 L857.017826,57.5956199 L856.100153,57.3132234 Z M855.769455,59.1934593 L856.221371,59.5799383 L856.227761,58.8145801 L855.769455,59.1934593 Z M855.989859,62.0017641 L856.085364,62.4112331 L856.376874,61.8374312 L855.989859,62.0017641 Z M853.635214,63.6112375 L854.281454,64.0181809 L854.547885,63.5950796 L854.266645,63.1816743 L853.635214,63.6112375 Z M853.214151,63.8976873 L853.098716,63.976218 L853.353571,63.8903199 L853.214151,63.8976873 Z M851.772884,64.6517369 L851.947352,65.3548682 L852.492181,64.7380128 L851.772884,64.6517369 Z M851.42917,66.1219922 L851.590623,66.359986 L851.553708,65.8627654 L851.42917,66.1219922 Z M851.191834,66.6160062 L851.099513,66.8081718 L851.394414,66.5495811 L851.191834,66.6160062 Z M850.098177,68.3743881 L850.116756,68.683962 L850.367258,68.2201913 L850.098177,68.3743881 Z M847.929992,70.0949977 L848.859791,70.8020207 L849.083377,69.9103066 L847.929992,70.0949977 Z M846.965811,71.6815307 L846.93202,71.9637904 L848.34085,72.482434 L848.458563,71.516256 L846.965811,71.6815307 Z M846.999185,72.8996711 L847.38296,73.3809768 L847.548946,72.6227197 L846.999185,72.8996711 Z M846.46702,75.7232658 L846.569591,75.8851298 L846.380816,75.9125621 L846.267723,76.1609024 L846.590714,75.9184642 L846.611867,75.9518447 L846.608642,75.9050075 L846.650858,75.8733202 L846.6069,75.8797081 L846.579171,75.4769914 L846.46702,75.7232658 Z M846.212489,77.3470104 L846.425678,77.5044929 L846.223167,77.0821774 L846.212489,77.3470104 Z M846.127026,79.4665724 L846.12444,79.5307082 L845.747627,80.1663246 L846.589436,80.1375827 L846.16106,79.5159596 L846.188844,79.4220685 L846.146074,79.4942142 L846.127026,79.4665724 Z M846.12444,79.5307082 L846.119351,79.6569012 L846.16106,79.5159596 L846.146074,79.4942142 L846.12444,79.5307082 Z M846.356148,81.4582671 L846.58183,81.5940177 L846.340444,81.1953719 L846.356148,81.4582671 Z M846.374855,81.7714335 L846.405329,82.2815835 L846.88555,81.752126 L846.374855,81.7714335 Z M846.888352,84.0030531 L846.989622,84.1610087 L846.915999,83.8174694 L846.888352,84.0030531 Z M846.182211,88.7430366 L846.150357,88.9568593 L846.35981,88.6197738 L846.182211,88.7430366 Z M844.917676,89.6206926 L844.620893,89.8266755 L845.206437,89.8377766 L844.917676,89.6206926 Z M839.566329,91.7458419 L839.601885,91.9177409 L839.646032,91.5894419 L839.566329,91.7458419 Z M838.569826,93.7012832 L838.426195,93.9831303 L838.88603,93.7103597 L838.569826,93.7012832 Z M837.599009,95.3855024 L837.580968,95.689123 L837.876926,95.2619165 L837.599009,95.3855024 Z M835.988621,99.5295408 L835.973408,99.6821237 L836.086761,99.4117209 L835.988621,99.5295408 Z M835.186972,102.963916 L835.245785,103.133812 L835.249818,102.795471 L835.186972,102.963916 Z M835.576265,106.177473 L835.726209,106.388105 L835.661469,105.933364 L835.576265,106.177473 Z M834.85415,108.246324 L834.571962,109.054789 L833.372657,109.677374 L834.02904,110.382892 L835.239194,108.413297 L834.85415,108.246324 Z M834.002682,107.877088 L833.620274,107.711259 L833.908386,108.283098 L834.002682,107.877088 Z M832.828028,105.992484 L832.717474,105.916829 L832.885948,106.113278 L832.828028,105.992484 Z M832.229861,104.74499 L832.172214,104.624766 L832.219992,104.877955 L832.229861,104.74499 Z M819.482529,110.536851 L819.404935,110.608195 L819.581952,110.502883 L819.482529,110.536851 Z M812.903557,115.152367 L812.830508,115.258303 L813.018671,115.094856 L812.903557,115.152367 Z M801.655103,122.601421 L801.595186,122.722058 L801.767512,122.527208 L801.655103,122.601421 Z M806.87232,129.770052 L807.581807,130.006497 L807.361959,129.20478 L806.87232,129.770052 Z M807.975753,131.925342 L808.576461,131.790049 L807.966657,131.309654 L807.975753,131.925342 Z M814.103104,133.786334 L814.218308,133.52647 L813.820879,133.820255 L814.103104,133.786334 Z M816.931634,132.046784 L817.061216,131.492238 L815.917225,130.890601 L815.947072,130.451083 L815.148657,130.817532 L816.804385,132.056517 L816.931634,132.046784 Z M818.131329,131.955028 L818.964184,131.891329 L818.468635,131.190875 L818.131329,131.955028 Z M819.662217,134.323977 L819.817899,134.322301 L820.030072,133.249116 L820.115539,133.072161 L820.059906,133.098211 L820.143271,132.676547 L820.116723,132.671298 L820.119937,132.649974 L820.069456,132.661953 L819.652765,132.579572 L819.578257,133.073989 L819.71143,133.094058 L819.747165,133.24465 L818.272661,133.93508 L819.662217,134.323977 Z M820.027798,134.426292 L820.504259,134.55964 L820.156128,133.948455 L820.027798,134.426292 Z M819.648478,135.838689 L819.559186,136.171165 L819.99093,135.803475 L819.648478,135.838689 Z M813.648525,137.597673 L813.463565,137.871723 L813.973115,137.660564 L813.648525,137.597673 Z M810.563562,137.89963 L810.549382,138.273279 L810.925982,137.807615 L810.563562,137.89963 Z M812.468993,144.407759 L812.739832,144.735674 L812.749217,144.087826 L812.468993,144.407759 Z M811.519673,146.246043 L811.616459,146.615745 L811.851008,146.055612 L811.519673,146.246043 Z M810.782569,146.669686 L810.696056,146.719408 L810.88154,146.65698 L810.782569,146.669686 Z M806.855036,151.254804 L806.87166,151.346021 L806.872223,151.163692 L806.855036,151.254804 Z M806.574234,152.743391 L806.547799,152.883527 L806.670616,152.638284 L806.574234,152.743391 Z M805.467821,153.949961 L805.204216,154.237429 L805.810804,154.135672 L805.467821,153.949961 Z M803.056127,152.644132 L802.968844,152.596872 L803.118739,152.721148 L803.056127,152.644132 Z M799.365344,150.996732 L799.330137,151.218056 L799.553983,150.875739 L799.365344,150.996732 Z M797.919895,151.923845 L797.67232,152.08264 L798.178972,152.063088 L797.919895,151.923845 Z M795.687402,150.723979 L795.596551,150.675151 L795.751514,150.804773 L795.687402,150.723979 Z M793.161975,148.780128 L792.980221,148.841756 L793.338286,148.855938 L793.161975,148.780128 Z M790.376188,150.309982 L790.518813,150.54792 L790.502584,150.06304 L790.376188,150.309982 Z M789.348374,152.318037 L789.256793,152.496959 L789.538312,152.252284 L789.348374,152.318037 Z M791.417124,154.616982 L791.534304,154.584793 L791.298243,154.591798 L791.417124,154.616982 Z M793.012215,154.954887 L793.244791,155.004156 L792.903622,154.743401 L793.012215,154.954887 Z M793.308963,155.532805 L793.409724,155.729037 L793.385972,155.326095 L793.308963,155.532805 Z M795.936542,159.498072 L796.294293,159.637506 L795.97892,159.116455 L795.936542,159.498072 Z M797.223239,162.580858 L797.375932,162.643037 L797.217759,162.744377 L797.20896,163.006921 L797.408446,162.656277 L797.54606,162.712317 L797.234914,162.232492 L797.223239,162.580858 Z M794.771894,168.196952 L794.733868,168.503883 L795.063505,168.09392 L794.771894,168.196952 Z M795.01737,171.098772 L795.177,171.384166 L796.492751,171.545833 L796.376036,170.582204 L795.01737,171.098772 Z M795.36404,172.243457 L795.63952,172.393701 L795.379534,171.930053 L795.36404,172.243457 Z M796.832953,175.55733 L797.054071,175.646741 L796.763302,175.329215 L796.832953,175.55733 Z M798.070545,177.023147 L798.604584,177.050377 L798.133526,176.492136 L798.070545,177.023147 Z M810.762126,176.394146 L810.86156,176.322785 L810.642486,176.411953 L810.762126,176.394146 Z M811.997216,176.210307 L812.602011,176.120286 L812.029078,175.599679 L811.997216,176.210307 Z M813.355588,179.380014 L813.493419,179.445993 L813.278189,179.248258 L813.355588,179.380014 Z M815.777784,182.237803 L816.3347,182.449465 L816.082858,181.726055 L815.777784,182.237803 Z M817.514427,187.39929 L817.614522,187.549545 L817.533415,187.219749 L817.514427,187.39929 Z M818.44924,191.283697 L818.510165,191.39553 L818.347525,191.383679 L818.186242,191.542214 L818.522737,191.418608 L818.629729,191.615001 L818.718298,191.019224 L818.44924,191.283697 Z M816.602477,192.147962 L816.810913,192.86337 L817.343504,192.226278 L816.602477,192.147962 Z M818.164574,194.791458 L818.511003,194.42452 L817.800848,194.441658 L818.164574,194.791458 Z M821.249384,196.291051 L821.729083,196.291051 L821.729083,195.844687 L821.74206,195.841338 L821.729083,195.841551 L821.729083,195.791051 L821.520073,195.844987 L821.242128,195.849555 L821.249384,196.291051 Z M821.262783,197.106201 L821.268082,197.428585 L821.554261,196.968362 L821.262783,197.106201 Z M820.69116,198.869845 L820.718006,199.018092 L820.750685,198.731445 L820.69116,198.869845 Z M819.507756,201.621354 L819.310239,202.080598 L819.967032,201.818796 L819.507756,201.621354 Z M812.770748,205.120763 L813.870095,205.645982 L813.922123,204.72232 L812.770748,205.120763 Z M811.200873,205.664031 L811.13207,205.687841 L811.273608,205.660831 L811.200873,205.664031 Z M807.391622,206.416295 L807.121627,206.640934 L807.694524,206.594089 L807.391622,206.416295 Z M804.171797,205.642796 L803.976877,205.663017 L804.328547,205.760404 L804.171797,205.642796 Z M800.330078,206.70959 L801.143526,206.844685 L800.825954,206.050761 L800.330078,206.70959 Z M799.939362,207.228702 L799.735887,207.499043 L800.265975,207.31708 L799.939362,207.228702 Z M796.347298,207.086911 L796.122663,207.328516 L796.657794,207.198385 L796.347298,207.086911 Z M791.131029,210.019837 L791.063959,210.16648 L791.271137,209.940011 L791.131029,210.019837 Z M788.935365,211.270816 L788.870394,211.307833 L789.008322,211.254427 L788.935365,211.270816 Z M788.411375,211.388528 L788.11291,211.455577 L788.606956,211.62374 L788.411375,211.388528 Z M781.508918,212.608124 L781.444422,212.6981 L781.605367,212.553783 L781.508918,212.608124 Z M777.941578,214.618019 L777.80311,214.696034 L778.099678,214.634273 L777.941578,214.618019 Z M771.21728,216.266359 L771.042029,216.345866 L771.400613,216.324866 L771.21728,216.266359 Z M768.251795,218.746253 L768.285054,219.109703 L768.587815,218.603799 L768.251795,218.746253 Z M762.392701,223.985126 L762.167165,224.285491 L762.743993,224.118091 L762.392701,223.985126 Z M761.994979,223.834587 L761.627972,223.695675 L761.947267,224.224092 L761.994979,223.834587 Z M758.907554,217.534945 L758.818236,217.400096 L758.900969,217.696558 L758.907554,217.534945 Z M756.964208,215.379318 L756.858048,215.387411 L757.064456,215.415178 L756.964208,215.379318 Z M754.841481,214.620009 L754.702644,214.570346 L754.931153,214.737059 L754.841481,214.620009 Z M751.826763,213.309798 L751.738317,213.434797 L751.970039,213.255763 L751.826763,213.309798 Z M750.270483,218.039763 L750.485424,218.236296 L750.335403,217.755843 L750.270483,218.039763 Z M750.259892,226.627239 L751.176578,226.948404 L751.053919,226.067791 L750.259892,226.627239 Z M750.548777,228.204321 L750.764342,228.584021 L750.895978,227.939571 L750.548777,228.204321 Z M749.232237,230.135786 L749.459312,230.937515 L749.940388,230.801259 L750.334259,230.493257 L749.821849,229.837989 L749.232237,230.135786 Z M747.473884,232.030641 L748.092957,232.124364 L748.902535,231.432894 L748.078821,231.020824 L748.032223,231.750352 L747.473884,232.030641 Z M747.008368,233.042387 L747.218417,233.481221 L747.441296,232.820421 L747.008368,233.042387 Z M745.394841,234.501925 L745.324094,234.843565 L745.739909,234.450431 L745.394841,234.501925 Z M744.087155,236.557101 L744.187089,236.595827 L744.058115,236.77524 L744.317644,236.646419 L744.789536,236.829283 L744.564217,236.071214 L744.21258,236.560368 L744.087155,236.557101 Z M746.810949,242.180773 L747.633446,242.000977 L747.046665,241.372524 L746.810949,242.180773 Z M747.75254,243.466128 L748.433475,243.450606 L747.941763,242.811828 L747.75254,243.466128 Z M753.598121,244.54248 L754.047316,244.536909 L753.544668,244.096442 L753.598121,244.54248 Z M754.694392,248.537247 L754.87691,248.798728 L754.854509,248.261481 L754.694392,248.537247 Z M756.459961,250.19463 L756.726992,250.29057 L756.405388,249.916185 L756.459961,250.19463 Z M757.979246,252.676399 L758.220636,252.665522 L757.979246,252.740356 L757.979246,253.108826 L758.308864,252.661547 L758.501753,252.652855 L757.979246,252.153362 L757.979246,252.676399 Z M752.912741,255.546023 L752.918248,256.07098 L753.437343,255.566101 L752.912741,255.546023 Z M749.173568,262.403213 L749.309323,262.68152 L749.362233,262.157674 L749.173568,262.403213 Z M748.860742,262.810344 L748.674453,263.052793 L749.161444,262.865694 L748.860742,262.810344 Z M744.459887,265.685408 L744.364723,265.770355 L744.584115,265.656434 L744.459887,265.685408 Z M740.557424,266.595607 L740.444456,266.621955 L740.670455,266.62169 L740.557424,266.595607 Z M733.755334,268.40198 L733.574968,268.498033 L733.951345,268.45975 L733.755334,268.40198 Z M732.237375,267.954595 L732.108613,267.916645 L732.329816,268.051932 L732.237375,267.954595 Z M724.141568,269.300683 L724.460747,269.937751 L724.849216,269.217224 L724.141568,269.300683 Z M720.57501,275.231953 L720.469194,275.510958 L720.788099,275.257742 L721.275304,276.197444 L721.30393,276.193619 L721.67959,275.153812 L720.850142,275.208479 L720.870425,275.192374 L720.57501,275.231953 Z M725.41012,281.448549 L725.853938,281.780775 L725.786249,281.041271 L725.41012,281.448549 Z M723.20801,283.833022 L723.074059,283.978065 L723.404919,283.818625 L723.20801,283.833022 Z M718.75655,287.505512 L718.612927,287.721371 L719.01573,287.498525 L718.75655,287.505512 Z M702.6787,293.346199 L702.341858,293.675115 L703.027269,293.662661 L702.6787,293.346199 Z M699.741761,293.59799 L699.579522,293.938454 L700.113696,293.660447 L699.741761,293.59799 Z M698.969072,295.179965 L699.259037,295.317487 L699.130006,295.439059 L699.37358,295.371811 L699.92045,295.631176 L699.791832,294.815493 L699.322371,295.257815 L698.969072,295.179965 Z M694.434025,297.556569 L694.38843,297.788385 L694.642065,297.444599 L694.434025,297.556569 Z M692.875006,300.103342 L692.832286,300.237806 L692.981712,300.011043 L692.875006,300.103342 Z M689.989355,304.022075 L689.885206,304.212925 L690.199966,303.968094 L689.989355,304.022075 Z M685.756242,312.758602 L686.062513,312.696948 L685.566553,312.510366 L685.756242,312.758602 Z M686.272493,313.434195 L686.358149,313.54629 L686.258059,313.29386 L686.272493,313.434195 Z M686.366306,314.346351 L686.400806,314.681797 L686.664385,314.188671 L686.366306,314.346351 Z M684.566105,315.298633 L684.211735,315.48609 L684.826112,315.60378 L684.566105,315.298633 Z M680.518704,314.112033 L680.392749,314.400241 L680.833033,314.100789 L680.518704,314.112033 Z M678.893033,315.73913 L678.794695,315.93548 L679.104152,315.678693 L678.893033,315.73913 Z M678.124832,315.959044 L677.663706,316.091051 L678.275876,316.41429 L678.124832,315.959044 Z M672.579132,314.908708 L672.441973,314.915795 L672.700665,314.97268 L672.579132,314.908708 Z M664.068459,312.556806 L663.840171,312.525947 L664.193343,312.750383 L664.068459,312.556806 Z M662.211177,311.212964 L661.91353,311.196776 L661.638278,311.253864 L661.812745,312.374233 L662.729034,312.02951 L662.211177,311.212964 Z M660.093058,311.574345 L659.986186,311.59651 L660.199445,311.598732 L660.093058,311.574345 Z M658.615502,311.235639 L658.356713,311.176316 L658.244994,311.663676 L658.711307,311.483253 L658.615502,311.235639 Z M656.693601,314.212838 L656.678384,314.252574 L657.287165,314.680162 L656.510102,314.88091 L657.598726,315.48949 L657.717642,314.568952 L657.427745,314.643844 L657.519295,313.892871 L656.693601,314.212838 Z M656.619746,316.882039 L656.633307,317.043192 L657.085875,317.179198 L657.062123,317.243626 L657.13589,317.194229 L657.594989,317.332197 L657.428404,316.998349 L657.549997,316.916925 L657.384681,316.910725 L657.269755,316.680405 L657.187572,316.903334 L656.619746,316.882039 Z M657.085875,317.179198 L657.13589,317.194229 L657.428404,316.998349 L657.384681,316.910725 L657.187572,316.903334 L657.085875,317.179198 Z M656.482787,319.362698 L656.542419,319.815239 L656.928036,319.262189 L656.482787,319.362698 Z M655.824332,322.275541 L656.038748,323.016747 L656.588458,322.382645 L655.824332,322.275541 Z M654.067627,324.101256 L653.966857,324.309137 L654.291245,324.043253 L654.067627,324.101256 Z M650.695077,325.566876 L650.685579,326.148389 L651.268584,325.663503 L650.695077,325.566876 Z M648.004274,327.044269 L647.828024,327.241446 L648.266453,327.078992 L648.004274,327.044269 Z M645.724874,327.81054 L645.773443,328.115859 L645.976313,327.630659 L645.724874,327.81054 Z M644.939571,328.372354 L644.795407,328.47549 L645.116505,328.383052 L644.939571,328.372354 Z M642.153531,329.050818 L641.960059,329.214758 L642.400105,329.110059 L642.153531,329.050818 Z M641.307037,328.84744 L641.102406,328.798276 L641.414915,329.028143 L641.307037,328.84744 Z M639.805481,328.787001 L639.633458,329.004037 L640.080717,328.817694 L639.805481,328.787001 Z M635.2699,328.883991 L635.147015,328.939741 L635.404149,328.897637 L635.2699,328.883991 Z M635.085848,328.865284 L634.612553,328.817176 L635.061327,329.340385 L635.085848,328.865284 Z M633.433293,328.640952 L633.287221,328.685472 L633.579313,328.685639 L633.433293,328.640952 Z M630.020252,331.416656 L629.926192,332.169288 L630.674877,331.799759 L630.020252,331.416656 Z M626.338035,331.834168 L626.236896,331.993468 L626.519203,331.781408 L626.338035,331.834168 Z M624.035156,333.345193 L624.044128,333.578128 L624.207804,333.188567 L624.035156,333.345193 Z M622.645025,334.606323 L622.533773,334.707251 L622.79348,334.583417 L622.645025,334.606323 Z M617.21436,335.444253 L617.122537,335.458421 L617.305143,335.464017 L617.21436,335.444253 Z M612.974298,336.715145 L612.700972,336.855486 L613.222985,336.895582 L612.974298,336.715145 Z M611.525917,337.466724 L611.403316,337.762639 L611.845986,337.454389 L611.525917,337.466724 Z M608.199934,338.494072 L608.053583,338.616521 L608.390653,338.500263 L608.199934,338.494072 Z M602.262925,338.173483 L602.045927,338.142734 L602.387399,338.352643 L602.262925,338.173483 Z M601.730163,337.406659 L601.569849,337.175914 L601.616435,337.663584 L601.730163,337.406659 Z M602.120354,333.340555 L602.112679,333.199768 L602.053346,333.464611 L602.120354,333.340555 Z M604.979328,314.576209 L604.944321,314.467423 L604.963599,314.6894 L604.979328,314.576209 Z M604.677143,306.835915 L603.870036,306.152712 L603.60106,307.031411 L604.646362,306.917708 L604.677143,306.835915 Z M604.341791,305.040168 L603.644738,304.657754 L603.695166,305.502769 L604.341791,305.040168 Z M604.088004,303.16957 L603.506493,302.981101 L603.787964,303.702159 L604.088004,303.16957 Z M604.728907,301.866911 L603.56674,300.83934 L603.185421,301.711399 L604.728907,301.866911 Z M604.854786,300.959152 L604.208004,300.511206 L604.174594,301.354527 L604.854786,300.959152 Z M608.069955,295.271655 L607.697061,295.14029 L608.028119,295.664791 L608.069955,295.271655 Z M608.095554,295.031096 L608.131935,294.689212 L607.763297,295.119495 L608.095554,295.031096 Z M610.21128,291.605732 L610.053445,291.152792 L609.765285,291.782239 L610.21128,291.605732 Z M609.470975,290.072679 L608.887318,289.729647 L608.971456,290.529632 L609.470975,290.072679 Z M606.085674,285.898467 L605.92375,285.758934 L606.096691,286.111932 L606.085674,285.898467 Z M605.929522,282.87293 L605.915013,282.591802 L605.696684,283.031138 L605.929522,282.87293 Z M607.072929,281.136893 L607.16123,280.760498 L606.686427,281.146157 L607.072929,281.136893 Z M610.250062,278.750895 L610.371114,278.614002 L610.069267,278.777469 L610.250062,278.750895 Z M612.224663,275.032397 L612.105648,274.792145 L612.090402,275.264473 L612.224663,275.032397 Z M613.795971,269.967356 L613.626745,269.547124 L613.394418,270.177088 L613.795971,269.967356 Z M617.342801,265.181334 L617.406583,265.013631 L617.186943,265.27022 L617.342801,265.181334 Z M616.430338,263.148098 L616.027353,262.907849 L616.21619,263.56554 L616.430338,263.148098 Z M616.513587,262.985821 L616.64443,262.730767 L616.227374,263.00177 L616.513587,262.985821 Z M615.38705,262.847283 L615.332158,262.952994 L615.270974,262.859165 L614.967733,262.890205 L615.28588,263.042117 L615.262686,263.086786 L615.31086,263.054044 L615.437473,263.114501 L615.371276,263.012983 L615.655514,262.819802 L615.38705,262.847283 Z M615.332158,262.952994 L615.28588,263.042117 L615.31086,263.054044 L615.371276,263.012983 L615.332158,262.952994 Z M615.013147,262.46377 L614.827554,262.179152 L614.81685,262.741113 L615.013147,262.46377 Z M608.516474,264.237499 L608.428354,264.355215 L608.654291,264.186229 L608.516474,264.237499 Z M607.38553,264.658225 L607.032168,264.78968 L607.609103,264.961804 L607.38553,264.658225 Z M603.305527,263.44412 L602.992392,263.948656 L603.749375,263.838592 L603.305527,263.44412 Z M599.785535,264.455452 L600.169883,264.987774 L600.400888,264.226474 L599.785535,264.455452 Z M594.591867,267.322033 L594.483967,267.431109 L594.742375,267.29225 L594.591867,267.322033 Z M591.30409,270.196353 L591.271642,270.305495 L591.380596,270.112023 L591.30409,270.196353 Z M589.84418,271.805554 L589.628703,272.043066 L590.149916,271.902338 L589.84418,271.805554 Z M586.797909,273.532884 L586.703006,273.858296 L587.135333,273.500562 L586.797909,273.532884 Z M585.682994,274.962772 L585.809559,275.621384 L586.350329,275.029507 L585.682994,274.962772 Z M582.404663,277.390365 L582.334625,277.604096 L582.61105,277.300978 L582.404663,277.390365 Z M581.050998,284.374208 L581.248449,284.524277 L581.050998,284.126201 L581.050998,284.374208 Z M581.050998,284.777733 L581.050998,284.991147 L581.205104,284.630096 L581.050998,284.777733 Z M579.685111,286.086279 L579.336418,286.420334 L580.031102,286.423132 L579.685111,286.086279 Z M577.065859,285.716941 L577.437169,286.081924 L577.445567,285.360703 L577.065859,285.716941 Z M576.571254,290.145265 L576.573947,290.576192 L576.997065,290.079012 L576.571254,290.145265 Z M574.17616,290.517924 L573.571141,290.61206 L574.147463,291.12955 L574.17616,290.517924 Z M569.427976,290.780333 L569.179221,290.970015 L569.707351,290.921073 L569.427976,290.780333 Z M566.542858,291.090732 L566.358321,291.167141 L566.729251,291.162496 L566.542858,291.090732 Z M564.922943,290.467043 L564.717818,290.388067 L565.003435,290.671579 L564.922943,290.467043 Z M555.286513,286.009786 L554.754629,285.849938 L555.07194,286.52199 L555.286513,286.009786 Z M547.971018,283.043014 L547.872933,283.064418 L548.069762,283.061132 L547.971018,283.043014 Z M544.959097,282.4904 L544.8904,282.477796 L545.021711,282.521346 L544.959097,282.4904 Z M540.355706,280.215183 L539.791985,279.936565 L539.957246,280.701639 L540.355706,280.215183 Z M543.42623,274.060277 L543.451755,273.892411 L543.303761,274.177886 L543.42623,274.060277 Z M545.770537,267.423938 L545.481717,267.341967 L545.833929,267.717395 L545.770537,267.423938 Z M539.271814,264.098653 L539.170455,264.163757 L539.391701,264.086854 L539.271814,264.098653 Z M535.6414,266.433695 L535.631631,266.948538 L536.155732,266.458609 L535.6414,266.433695 Z M532.360145,269.327231 L532.303708,269.474261 L532.490657,269.239086 L532.360145,269.327231 Z M530.67911,271.484805 L530.822926,271.801355 L530.925796,271.239787 L530.67911,271.484805 Z M528.664773,280.984616 L528.743257,281.292716 L528.910497,280.78286 L528.664773,280.984616 Z M528.2987,285.471609 L528.416035,285.679468 L528.386541,285.249671 L528.2987,285.471609 Z M527.192042,288.267676 L527.088842,288.52842 L527.468346,288.219776 L527.192042,288.267676 Z M524.614711,289.805694 L524.465117,290.086623 L524.932553,289.822312 L524.614711,289.805694 Z M514.753732,292.303033 L514.672002,292.348278 L514.846284,292.29035 L514.753732,292.303033 Z M510.460661,292.891329 L510.369223,292.903859 L510.550546,292.912268 L510.460661,292.891329 Z M504.843396,293.627154 L504.767612,293.878408 L505.093228,293.546806 L504.843396,293.627154 Z M501.795681,294.426459 L501.58253,294.467273 L501.970644,294.552992 L501.795681,294.426459 Z M489.516096,287.523667 L489.203085,287.450964 L489.579981,287.838597 L489.516096,287.523667 Z M488.875291,284.364705 L488.788385,283.936281 L488.46231,284.508041 L488.875291,284.364705 Z M489.928316,279.08627 L489.485682,278.599963 L489.341384,279.382801 L489.928316,279.08627 Z M499.604772,271.516905 L499.697982,271.371325 L499.441551,271.573831 L499.604772,271.516905 Z M500.169877,264.390222 L500.013538,264.182865 L500.090154,264.637371 L500.169877,264.390222 Z M482.287133,267.150766 L482.11381,267.267935 L482.492252,267.191946 L482.287133,267.150766 Z M476.090414,265.906713 L476.029712,265.894527 L476.14631,265.933337 L476.090414,265.906713 Z M466.47383,271.025896 L466.984052,271.41779 L466.979559,270.62822 L466.47383,271.025896 Z M463.150982,274.111523 L463.077267,274.427944 L463.470063,274.050336 L463.150982,274.111523 Z M462.325616,274.269794 L462.211295,274.291717 L462.437865,274.30062 L462.325616,274.269794 Z M459.73056,274.239034 L459.458237,274.376925 L459.977659,274.418244 L459.73056,274.239034 Z M455.470919,272.498594 L455.081663,272.390176 L455.446601,272.901934 L455.470919,272.498594 Z M453.842114,270.970959 L453.686124,270.929941 L453.944729,271.0954 L453.842114,270.970959 Z M453.072243,270.037346 L452.841685,269.75775 L452.87828,270.343465 L453.072243,270.037346 Z M449.984896,269.456988 L449.667299,269.560026 L450.201767,269.710861 L449.984896,269.456988 Z M447.639274,268.414584 L446.962,268.68658 L447.648299,269.144379 L447.639274,268.414584 Z M441.870362,262.336235 L441.362362,262.334446 L441.860507,262.844142 L441.870362,262.336235 Z M438.776924,260.429136 L438.51909,260.374162 L438.877224,260.672942 L438.776924,260.429136 Z M433.56555,256.751437 L433.488197,256.734251 L433.633799,256.791698 L433.56555,256.751437 Z M425.327037,254.443554 L424.176318,254.479771 L424.567983,255.309178 L425.327037,254.443554 Z M427.231352,252.27188 L427.29315,252.201406 L427.148223,252.315187 L427.231352,252.27188 Z M433.875894,246.667637 L433.911379,246.608979 L433.82593,246.714579 L433.875894,246.667637 Z M425.910108,238.309687 L425.764666,238.424043 L426.094956,238.317549 L425.910108,238.309687 Z M410.769406,243.445189 L410.632928,243.577881 L410.959574,243.436852 L410.769406,243.445189 Z M405.278643,243.685904 L404.535965,243.718463 L405.028774,244.386044 L405.278643,243.685904 Z M400.068619,234.093038 L399.773574,234.186851 L400.284101,234.315344 L400.068619,234.093038 Z M394.725815,228.58103 L394.366594,228.210433 L394.344009,228.928313 L394.725815,228.58103 Z M387.928263,206.757195 L387.435384,205.884329 L386.934493,206.625866 L387.928263,206.757195 Z M433.093539,208.764888 L433.149041,208.755807 L433.037407,208.761413 L433.093539,208.764888 Z M438.721935,208.165648 L438.885313,207.958448 L438.458681,208.147703 L438.721935,208.165648 Z M462.671525,211.708181 L462.831004,211.739882 L462.561231,211.588892 L462.671525,211.708181 Z M477.944411,217.560678 L478.03615,217.562586 L477.859326,217.52632 L477.944411,217.560678 Z M507.123225,221.890743 L507.704284,221.823794 L507.147484,221.306343 L507.123225,221.890743 Z M514.025603,225.861974 L514.204753,225.869733 L513.892216,225.742128 L514.025603,225.861974 Z M519.735292,224.226952 L519.785717,224.188407 L519.676836,224.251676 L519.735292,224.226952 Z M553.10424,212.791589 L553.194993,212.623564 L552.924583,212.856335 L553.10424,212.791589 Z M555.453175,211.945062 L555.519981,211.920986 L555.382308,211.949585 L555.453175,211.945062 Z M556.230973,211.895419 L556.485352,211.879183 L556.068401,211.699097 L556.230973,211.895419 Z M568.171635,211.967341 L568.315554,211.944329 L568.037893,211.909417 L568.171635,211.967341 Z M572.903618,212.065585 L572.982633,212.05998 L572.82674,212.046492 L572.903618,212.065585 Z M580.29607,212.054139 L580.424026,211.995038 L580.156084,212.03771 L580.29607,212.054139 Z M594.564312,209.14913 L594.668267,209.090979 L594.445305,209.154165 L594.564312,209.14913 Z M605.043499,204.963234 L605.058594,204.656153 L604.762653,205.088339 L605.043499,204.963234 Z M609.060952,201.516257 L609.100352,201.451331 L609.004051,201.566556 L609.060952,201.516257 Z M614.564183,196.651626 L614.636063,196.588086 L614.47389,196.684048 L614.564183,196.651626 Z M620.614264,194.479165 L620.663913,194.461337 L620.561987,194.486239 L620.614264,194.479165 Z M626.265047,190.525314 L626.378273,190.392004 L626.093411,190.558977 L626.265047,190.525314 Z M624.182624,183.176677 L624.046585,183.129232 L624.272558,183.289236 L624.182624,183.176677 Z M620.449006,178.503753 L620.262669,178.270536 L620.332115,178.778431 L620.449006,178.503753 Z M623.154122,172.147129 L623.174075,172.100242 L623.12512,172.189028 L623.154122,172.147129 Z M626.045111,167.970583 L626.083873,167.914584 L625.992783,168.014174 L626.045111,167.970583 Z M628.274333,166.113529 L628.41948,165.992614 L628.085493,166.108255 L628.274333,166.113529 Z M636.592073,166.345834 L636.728167,166.349635 L636.476694,166.273559 L636.592073,166.345834 Z M644.58951,169.864816 L644.651175,169.868879 L644.53069,169.845863 L644.58951,169.864816 Z M653.813212,171.175468 L653.88512,171.177278 L653.744731,171.153462 L653.813212,171.175468 Z M671.573474,160.586454 L671.629758,160.356713 L671.360158,160.688655 L671.573474,160.586454 Z M673.450587,159.687115 L673.501361,159.662789 L673.395675,159.699541 L673.450587,159.687115 Z M675.0628,159.322295 L675.173522,159.29724 L674.952113,159.29708 L675.0628,159.322295 Z M678.624967,160.133769 L679.01391,160.222371 L678.624967,159.734861 L678.624967,160.133769 Z M694.72781,156.354813 L694.772072,156.315025 L694.675445,156.383099 L694.72781,156.354813 Z M696.750127,155.262418 L696.816648,155.226485 L696.675956,155.277076 L696.750127,155.262418 Z M700.329343,149.936197 L700.290354,149.704876 L700.176366,150.114039 L700.329343,149.936197 Z M705.354773,144.093932 L705.470977,143.95884 L705.179322,144.125082 L705.354773,144.093932 Z M709.729373,142.466278 L709.933819,142.312979 L709.485367,142.390385 L709.729373,142.466278 Z M719.477228,138.746492 L719.575409,138.397459 L719.114966,138.761631 L719.477228,138.746492 Z M721.528196,138.660781 L721.762271,138.650999 L721.370882,138.487174 L721.528196,138.660781 Z M726.620441,138.714201 L726.684294,138.647173 L726.536824,138.753924 L726.620441,138.714201 Z M733.122497,134.939732 L733.209438,134.521969 L732.696261,134.919537 L733.122497,134.939732 Z M736.691987,134.611892 L736.944052,134.483303 L736.45198,134.461999 L736.691987,134.611892 Z M739.384204,134.627212 L739.552248,134.521649 L739.189507,134.588802 L739.384204,134.627212 Z M743.720546,134.492524 L744.43635,134.323357 L743.826575,133.764684 L743.720546,134.492524 Z M745.89559,135.028213 L746.195747,135.040377 L745.765393,134.75749 L745.89559,135.028213 Z M748.054748,135.920669 L748.237856,135.887819 L747.894699,135.825843 L748.054748,135.920669 Z M750.936789,137.628218 L751.03513,137.686483 L750.873534,137.533011 L750.936789,137.628218 Z M751.458253,138.413087 L751.768946,138.880718 L751.958607,138.15842 L751.458253,138.413087 Z M754.809712,139.173574 L754.889786,139.034375 L754.66356,139.240115 L754.809712,139.173574 Z M758.315518,131.738888 L758.254851,131.641449 L758.327613,131.853031 L758.315518,131.738888 Z M758.170503,130.370373 L758.107004,129.771125 L757.569828,130.322214 L758.170503,130.370373 Z M758.967136,127.962089 L758.969131,127.925192 L757.237089,126.924095 L757.380138,126.857291 L756.892015,126.724647 L756.406572,126.444068 L756.367933,127.329994 L756.996816,127.036304 L757.748837,128.127965 L758.967136,127.962089 Z M752.634773,123.713014 L752.493525,123.702931 L752.749757,123.795666 L752.634773,123.713014 Z M750.442515,122.137203 L750.245198,121.99537 L750.452908,122.379984 L750.442515,122.137203 Z M748.115771,120.253695 L747.94859,120.300984 L748.276253,120.320264 L748.115771,120.253695 Z M747.61659,120.046634 L747.354887,119.938078 L747.657955,120.326922 L747.61659,120.046634 Z M741.236232,114.923761 L741.160923,114.898026 L741.29983,114.971605 L741.236232,114.923761 Z M732.564638,111.181102 L732.438511,111.180073 L732.675185,111.241835 L732.564638,111.181102 Z M730.956224,110.688429 L729.999521,110.855623 L730.085597,111.348159 L730.536491,111.564248 L730.956224,110.688429 Z M717.926894,117.839892 L717.628717,118.240967 L718.328106,118.137886 L717.926894,117.839892 Z M703.545051,114.178561 L703.436975,114.219091 L703.659955,114.189506 L703.545051,114.178561 Z M694.420516,117.201305 L694.114759,117.443015 L694.729539,117.438827 L694.420516,117.201305 Z M687.940747,112.220814 L686.878461,111.404318 L686.603262,112.299876 L687.940747,112.220814 Z M688.028984,108.627279 L687.947428,108.197464 L687.613803,108.765183 L688.028984,108.627279 Z M693.134011,101.842032 L693.134011,101.642657 L692.996823,101.986703 L693.134011,101.842032 Z M697.044092,94.894691 L696.918975,94.6536534 L696.910013,95.130861 L697.044092,94.894691 Z M707.22517,76.9614883 L707.473281,76.5244591 L706.789407,76.7111596 L707.22517,76.9614883 Z M719.696466,80.9196095 L719.785836,80.9212203 L719.613189,80.8871349 L719.696466,80.9196095 Z M730.335278,80.279714 L730.469272,80.1828945 L730.169978,80.2775788 L730.335278,80.279714 Z M732.538301,78.807582 L732.620421,78.7184781 L732.424499,78.8492042 L732.538301,78.807582 Z M735.130125,77.0194341 L735.175678,76.650691 L734.763919,77.0822019 L735.130125,77.0194341 Z M737.819867,75.0521825 L737.938485,74.9150639 L737.640932,75.0814055 L737.819867,75.0521825 Z M750.502559,67.7841002 L750.381022,67.4685481 L750.254947,68.0143879 L750.502559,67.7841002 Z M747.807772,65.7879891 L747.63601,65.7905491 L747.94484,65.8915312 L747.807772,65.7879891 Z M747.389981,65.4723879 L747.240761,65.3596655 L747.459395,65.4064097 L747.65053,65.2247348 L747.222011,65.3455019 L746.919658,65.1171026 L746.96275,65.8784733 L747.389981,65.4723879 Z M749.648355,61.443085 L749.692817,61.2940178 L749.527171,61.5406175 L749.648355,61.443085 Z M753.612113,55.3294008 L753.638905,55.1685958 L753.495687,55.4435104 L753.612113,55.3294008 Z M757.614432,49.2785022 L757.653564,48.8454772 L757.180167,49.2998715 L757.614432,49.2785022 Z M758.431749,47.7394333 L758.420817,47.4725354 L758.215971,47.8968937 L758.431749,47.7394333 Z M760.136991,45.4804438 L759.884401,45.1292201 L759.825723,45.7808977 L760.136991,45.4804438 Z M761.205977,43.3896091 L761.105076,43.102872 L760.997863,43.6111666 L761.205977,43.3896091 Z M762.992781,39.9431499 L763.095641,39.6178436 L762.652365,39.9659815 L762.992781,39.9431499 Z M769.200645,35.779484 L769.337536,35.4399823 L768.835652,35.7515453 L769.200645,35.779484 Z M770.58695,35.0929147 L770.690264,34.8693828 L770.346772,35.1472754 L770.58695,35.0929147 Z M772.884641,32.1101348 L772.695139,31.7307246 L772.541234,32.3590018 L772.884641,32.1101348 Z M773.720322,28.4949632 L773.581919,28.2925742 L773.645052,28.7283106 L773.720322,28.4949632 Z M771.707484,26.0588889 L771.531716,25.9534771 L771.758695,26.2573409 L771.707484,26.0588889 Z M771.633315,25.7714746 L771.589995,25.6036025 L771.563414,25.9301301 L771.633315,25.7714746 Z M763.973195,20.3899848 L763.834377,20.476249 L764.136164,20.4023676 L763.973195,20.3899848 Z M762.40562,20.2708757 L762.150685,20.2515049 L762.539169,20.4888943 L762.40562,20.2708757 Z M762.051717,19.6931273 L761.929251,19.4932004 L761.976336,19.9151328 L762.051717,19.6931273 Z M762.168561,17.0796972 L762.029353,16.6601268 L761.769211,17.2692701 L762.168561,17.0796972 Z M770.070844,10.9542175 L770.145717,10.874936 L769.969758,10.9951228 L770.070844,10.9542175 Z M772.617114,8.73928774 L772.680959,8.64032416 L772.515811,8.79935198 L772.617114,8.73928774 Z M775.200049,6.68827512 L775.268642,6.34514376 L774.854177,6.74134741 L775.200049,6.68827512 Z M778.52219,6.17850952 L778.721319,6.14795406 L778.357501,6.06247495 L778.52219,6.17850952 Z M782.862341,5.711753 L782.954056,5.66323695 L782.758894,5.71977038 L782.862341,5.711753 Z M785.446463,5.51147657 L785.613831,5.49850506 L785.305177,5.42082012 L785.446463,5.51147657 Z M859.213281,56.2105095 L858.525192,55.643182 L859.338328,55.3275085 L859.213281,56.2105095 Z M852.372173,65.7307861 L851.283023,65.6001485 L851.756341,64.8230065 L852.372173,65.7307861 Z M761.371928,41.7523325 L761.449895,41.6693296 L761.337596,41.8609122 L761.371928,41.7523325 Z" stroke-linejoin="square"></path>
                </g>
            </g>
        </g>
    </g>
</svg>