<?xml version="1.0" encoding="UTF-8"?>
<svg width="1004px" height="575px" viewBox="0 0 1004 575" version="1.1" xmlns="http://www.w3.org/2000/svg" xmlns:xlink="http://www.w3.org/1999/xlink">
    <!-- Generator: Sketch 57.1 (83088) - https://sketch.com -->
    <title>东北 2</title>
    <desc>Created with Sketch.</desc>
    <defs>
        <path d="M814.256309,-5.89839887e-15 L817.288585,0.654394474 L817.534796,1.15777484 L818.104968,1.22824809 L818.351178,0.140946502 L818.636264,1.38932981 L819.543356,0.281893004 L821.150203,1.53027631 L824.078812,1.61081717 L828.303267,4.63109935 L830.441411,4.16798942 L833.823566,7.50036743 L837.957311,7.91313933 L838.242397,8.74875073 L840.056579,9.10111699 L840.756336,9.91659318 L840.989588,8.49706055 L842.505726,7.83259847 L846.082258,7.90307172 L850.371504,9.77564668 L851.123094,10.9233539 L852.626274,10.3293651 L854.855128,12.2321429 L854.621875,13.2892416 L853.559283,13.8328924 L853.805493,14.920194 L856.4231,14.1147854 L858.638994,16.9337155 L859.973715,16.1887125 L860.841931,16.6920929 L859.857089,17.3968254 L860.077382,18.8062904 L858.690828,19.1183862 L858.742662,20.1352146 L859.261,20.6990006 L860.310634,20.2962963 L862.345111,21.6554233 L862.26736,23.1051587 L863.407704,23.0346855 L864.794257,24.5548942 L864.548047,26.4174015 L866.36223,26.8603762 L864.055626,28.481261 L868.28008,30.2531599 L867.619199,32.0653292 L866.452939,32.2968842 L866.738025,33.9278366 L869.925803,38.3676514 L871.014313,38.6394768 L871.195731,40.2905644 L870.236806,41.0557025 L872.802579,42.4550999 L872.102822,44.478689 L874.163216,45.324368 L874.150257,46.1901822 L872.569327,46.6130218 L872.945122,47.9620811 L873.955881,48.2137713 L873.46346,46.8647119 L875.122141,46.6633598 L873.917005,49.0393151 L874.240966,51.888448 L877.376911,54.4657554 L879.359554,57.6169165 L880.370313,58.220973 L880.124102,59.4290858 L881.432905,61.5030129 L880.253686,63.6071429 L881.406988,64.654174 L881.134861,66.7985744 L885.268606,68.6208113 L885.164938,69.9799383 L883.506257,72.7283951 L884.348556,74.5405644 L884.102346,76.6748971 L886.188656,77.4601705 L886.758828,79.5038948 L888.689636,81.1147119 L890.361276,81.3865373 L891.125825,80.6616696 L892.991841,82.0711346 L895.700157,82.4537037 L895.946368,82.8966784 L898.175221,81.1851852 L900.68916,80.9032922 L903.514101,81.6482951 L904.071315,81.1147119 L904.978406,81.6684303 L904.200899,83.3295855 L908.218018,83.8631687 L909.682323,85.7659465 L911.664966,84.8699295 L913.867902,85.7961493 L914.580616,84.2356702 L916.006046,84.2356702 L916.822428,84.6182393 L917.301891,86.9740594 L919.997248,87.2257496 L920.47671,88.7862287 L922.122433,89.3701499 L922.083558,90.2963698 L923.23686,90.7393445 L923.392361,91.8870517 L928.316572,95.1791593 L931.608018,94.5146972 L933.111198,95.4610523 L935.573303,95.0986185 L933.253741,100.051881 L934.497752,100.716343 L934.821713,102.49831 L937.050566,102.367431 L936.648854,103.726558 L938.177951,106.052175 L935.327092,109.827528 L935.76768,110.934965 L939.318295,113.723692 L940.743724,117.448707 L942.60974,117.780938 L945.188472,116.794312 L948.337375,116.643298 L951.149358,118.183642 L952.458161,117.287625 L954.207552,118.002425 L956.864034,118.103101 L957.408289,117.327895 L961.425408,117.327895 L962.617585,116.452014 L966.621745,117.136611 L968.384094,112.767269 L970.599989,113.139771 L971.766249,111.760509 L973.917352,111.41821 L974.306105,110.683275 L976.418332,109.757055 L979.463568,109.746987 L981.627629,110.45172 L986.577756,107.985156 L988.042061,108.216711 L988.456731,106.787111 L990.348665,106.454879 L990.97067,105.417916 L996.542803,104.421223 L998.538404,105.156158 L999.497329,104.793724 L1000.48217,106.062243 L1001.81689,106.515285 L999.186326,111.88132 L999.808332,113.52234 L1000.92276,113.77403 L1001.2208,115.113022 L1002.80173,116.421811 L1002.50369,117.831276 L998.24036,122.240888 L995.635711,122.381834 L993.134731,124.496032 L992.603435,125.9357 L993.691944,126.871987 L993.795612,128.321723 L992.033263,129.368754 L990.504166,133.828704 L990.97067,134.724721 L990.400498,136.939594 L988.741817,138.278586 L987.705141,140.32231 L989.22128,141.751911 L988.003185,142.708333 L988.858443,143.050632 L988.689983,144.097663 L987.692183,145.275573 L987.096094,144.852734 L985.061618,146.272266 L985.813208,148.094503 L984.646947,150.087889 L983.739856,150.097957 L983.338144,151.406746 L982.327385,150.923501 L981.653546,151.527557 L981.355501,152.624927 L981.964548,152.926955 L980.746454,154.537772 L981.601712,154.718989 L981.070415,155.34318 L981.433252,155.997575 L980.422493,156.098251 L980.565036,156.73251 L979.398776,157.175485 L978.997064,158.162111 L978.154765,157.648663 L976.340582,158.665491 L975.18728,162.803277 L975.93887,164.867137 L973.34718,166.689374 L971.364538,166.045047 L968.824682,172.588992 L966.595829,174.99515 L962.591668,173.917916 L959.248388,171.682907 L960.427607,167.816946 L958.380172,162.813345 L956.30682,162.018004 L955.632981,161.001176 L954.583347,161.494489 L953.754006,163.236185 L952.147158,163.145576 L951.628821,164.242945 L952.289701,164.998016 L948.855713,167.162551 L949.088965,167.625661 L946.678693,167.373971 L945.577225,168.400867 L942.687491,168.300191 L942.415364,169.014991 L940.290178,169.659318 L942.726366,172.558789 L945.836394,183.41167 L944.372089,187.921958 L944.78676,191.86846 L944.20363,193.147046 L945.564267,193.962522 L946.043729,195.472663 L944.164754,198.68423 L944.346173,199.932613 L942.622699,201.946135 L943.11512,203.496546 L941.210228,203.738169 L941.326854,204.7852 L938.113159,204.513374 L937.296777,205.24831 L935.871347,204.99662 L931.297015,207.10075 L932.191148,207.835685 L933.357408,207.523589 L934.873547,208.812243 L934.782838,210.161302 L933.862788,210.322384 L934.731004,212.235229 L933.940538,212.074148 L933.124156,209.053865 L932.437358,208.973325 L932.437358,209.95995 L931.815353,210.141167 L931.763519,209.184744 L930.934178,209.204879 L928.731242,207.292034 L928.91266,204.100603 L926.437597,203.919386 L927.059602,202.832084 L926.398721,202.530056 L924.869625,202.89249 L922.977691,202.25823 L920.787713,207.18129 L920.995048,209.144474 L919.984289,212.184891 L918.843946,212.164756 L918.442234,211.580835 L917.042722,213.171517 L915.591375,211.943269 L913.893819,211.822457 L913.440273,212.889624 L912.144428,213.090976 L912.416556,213.986993 L911.289171,215.174971 L911.820467,216.070988 L907.557137,218.195253 L907.388678,219.191946 L904.097232,218.759039 L903.229016,219.30269 L902.218257,218.889918 L900.429991,219.55438 L897.034877,218.859715 L893.056634,219.856408 L893.328761,222.645135 L894.274728,224.185479 L896.957127,226.249339 L894.248811,230.044827 L893.600888,230.296517 L890.711154,229.007863 L889.674479,229.591784 L885.981321,229.541446 L884.283764,228.423942 L882.236329,228.736038 L881.925326,228.293063 L879.683515,228.333333 L879.903808,227.779615 L877.195493,227.346708 L878.426545,226.400353 L876.119941,225.051293 L876.754905,224.578116 L876.353194,223.953924 L874.357592,223.3398 L874.331676,222.745811 L872.919205,224.135141 L872.336074,223.863316 L872.025072,224.708995 L870.262723,223.792842 L871.092063,224.467372 L870.36639,225.212375 L869.148296,225.182172 L868.331914,226.11846 L868.759543,227.08495 L867.424823,229.14881 L867.722867,230.467666 L866.491814,230.447531 L863.874208,233.729571 L860.997432,235.098765 L861.334352,235.571943 L860.336551,236.981408 L858.84633,237.786817 L859.533127,238.098912 L858.146573,238.53182 L857.797,237.931 L856.08618,238.733172 L855.541925,238.310332 L854.492291,238.78351 L853.351948,239.598986 L854.116496,240.374192 L852.017227,240.354056 L851.693266,241.078924 L849.65879,242.005144 L849.762457,242.639403 L847.326269,242.246767 L846.756097,242.981702 L843.075898,244.220018 L843.412818,245.478469 L841.572718,245.59928 L841.171006,245.126102 L838.644109,246.918136 L838.488607,247.74368 L836.389339,248.518886 L832.799848,251.02572 L831.86684,252.022413 L832.44997,253.069444 L830.091533,254.478909 L829.054857,256.129997 L826.489084,256.381687 L825.892995,255.767563 L824.467566,255.918577 L824.363898,255.4454 L821.888835,255.90851 L820.035777,255.616549 L816.847998,257.509259 L816.757289,256.140065 L814.65802,256.129997 L813.958264,257.348178 L814.645062,258.123383 L810.226231,258.314668 L809.526475,259.180482 L806.947744,259.814741 L806.066569,259.542916 L806.494198,260.126837 L804.900309,260.932246 L804.511555,260.328189 L803.125001,261.888668 L800.105683,262.160494 L797.760204,263.972663 L797.70837,264.898883 L795.635018,265.915711 L796.075605,266.982878 L795.103722,267.64734 L794.274381,267.425852 L794.831594,268.482951 L793.78196,268.251396 L793.146996,268.986332 L792.201029,268.241329 L790.905184,268.784979 L792.11032,269.529982 L791.682691,270.285053 L789.920342,268.895723 L789.194669,268.935994 L789.363129,269.489712 L788.404204,269.056805 L788.287578,269.882349 L786.965816,270.375661 L789.155794,271.050191 L788.831833,271.674383 L787.01765,271.452895 L785.151633,272.449588 L781.160431,272.671076 L780.655052,274 L779.592459,273.939594 L779.151872,271.89587 L780.25334,271.322016 L778.866786,271.191138 L779.009329,270.597149 L779.773877,270.204512 L781.043805,270.597149 L783.000531,269.882349 L782.715445,269.278292 L783.492952,268.503086 L784.620337,269.248089 L788.248703,268.180923 L788.663373,267.315109 L786.965816,266.268078 L788.326453,265.75463 L787.095401,265.019694 L789.324254,264.989491 L789.661173,263.710905 L791.579024,263.660567 L792.965578,262.945767 L792.524991,262.251102 L791.825234,262.432319 L792.123279,262.905497 L789.85555,263.147119 L789.155794,261.908804 L788.624498,261.868533 L788.598581,262.673942 L787.004691,262.422252 L786.032808,263.237728 L784.516669,261.133598 L783.42816,260.791299 L782.223024,261.485964 L780.953096,261.073192 L782.197107,259.643592 L784.814714,259.160347 L786.214226,259.7342 L785.838431,258.01264 L785.462636,258.284465 L784.749921,257.348178 L785.371927,256.784392 L785.047966,256.260876 L788.702248,254.277557 L789.907384,254.539315 L791.94186,253.109715 L790.814475,252.656673 L793.691251,250.965315 L793.678292,250.109568 L795.259223,249.243754 L795.03893,248.267196 L796.801278,247.149691 L796.930863,246.183201 L799.107882,245.196576 L798.978298,244.371032 L798.110082,244.411302 L796.101522,243.07231 L796.257024,241.763521 L792.823035,240.102366 L792.317655,239.216417 L791.319855,239.367431 L790.542348,237.061949 L789.298337,239.015065 L786.43452,239.085538 L785.307135,238.330467 L780.201506,237.686141 L778.542825,238.682834 L778.478032,239.357363 L776.974852,238.793577 L776.417639,239.75 L777.013728,240.00169 L776.067761,240.817166 L777.389523,241.099059 L774.48683,241.813859 L773.916659,243.132716 L771.791473,244.240153 L771.778515,245.095899 L770.508587,245.548942 L770.612254,247.059083 L769.096116,247.693342 L769.147949,248.871252 L768.2279,249.817607 L765.869462,250.049162 L758.301728,253.240594 L758.301728,252.284171 L757.187302,252.334509 L756.720797,249.948486 L754.764072,249.243754 L755.11395,248.639697 L754.258692,247.411449 L753.869939,244.159612 L749.010521,244.220018 L748.090471,243.656232 L748.258931,243.07231 L746.937169,243.102513 L747.364798,241.632643 L745.34328,242.075617 L742,239.830541 L742.764548,237.14249 L744.306604,237.18276 L744.811983,236.478028 L743.438388,235.944444 L743.567972,235.370591 L745.654282,235.058495 L745.822742,234.243019 L747.507341,233.377205 L747.209296,232.753013 L748.34964,232.179159 L748.414432,231.162331 L749.567734,230.57841 L749.826903,230.910641 L749.477025,229.672325 L751.083872,228.444077 L750.371158,227.185626 L751.226415,226.58157 L750.280449,226.249339 L749.399274,224.578116 L749.878737,220.611479 L750.345241,219.55438 L750.708077,217.963698 L748.401474,215.8495 L749.127147,214.913213 L752.029839,213.815844 L752.69072,212.879556 L754.414194,215.1347 L756.772631,215.980379 L758.353562,215.859568 L758.275811,217.772413 L761.515423,222.675338 L761.321047,224.26602 L762.435473,224.688859 L765.610293,220.450397 L768.64257,219.161743 L768.512986,217.74221 L770.443794,216.685112 L771.104675,216.896531 L775.355046,214.963551 L777.894902,215.225309 L781.691728,213.080908 L782.663611,211.721781 L785.125716,211.027116 L786.926941,210.67475 L788.054326,212.033877 L788.948459,211.832525 L791.345772,210.46333 L792.576824,207.765212 L794.546508,207.120885 L796.308857,207.755144 L796.943821,207.070547 L799.950181,207.886023 L801.038691,206.436287 L799.587345,206.194665 L799.224508,205.369121 L799.755805,204.986552 L802.619622,205.328851 L803.837716,206.245003 L805.483439,206.073854 L807.245788,207.110817 L808.126962,206.375882 L811.094447,206.245003 L813.880514,205.278513 L812.934547,204.82547 L812.999339,203.577087 L814.07489,202.499853 L817.897633,201.644106 L819.556314,202.358907 L820.994702,199.006393 L820.787367,197.858686 L821.551915,197.496252 L821.525998,195.915638 L821.487123,195.754556 L823.011,193.794 L822.977344,193.76117 L821.422331,195.734421 L821.461206,195.845165 L819.659982,195.855232 L817.884674,194.143739 L817.094209,194.969283 L815.241151,193.670561 L815.318901,192.603395 L817.029417,192.784612 L816.770248,191.848325 L818.286386,191.959068 L818.817682,191.435553 L817.58663,189.170341 L817.781007,187.327969 L815.318901,183.623089 L816.264868,182.032407 L814.917189,181.518959 L813.478802,179.042328 L812.15704,178.398001 L812.286624,175.66968 L810.329899,175.96164 L807.867793,177.733539 L801.518154,180.693416 L797.967539,180.21017 L798.408126,176.585832 L797.423284,176.535494 L797.021572,175.216637 L795.531351,174.612581 L795.660935,171.984935 L794.961179,171.602366 L796.334774,171.078851 L795.272182,170.958039 L794.131838,168.904248 L795.000054,168.602219 L795.531351,164.303351 L797.475118,163.054968 L797.501035,162.279762 L795.971938,161.65557 L796.244065,159.199074 L794.002254,158.323192 L793.095162,156.953998 L793.626459,155.524397 L793.121079,154.537772 L791.177312,154.125 L789.129877,154.688786 L787.535988,153.430335 L789.479755,152.755805 L790.723766,150.319444 L789.959218,149.040858 L791.02181,148.537478 L792.913744,149.352954 L793.535749,149.141534 L795.129639,151.155056 L797.70837,152.544386 L799.574386,151.336273 L799.691012,150.601337 L800.468519,150.59127 L802.477079,153.077969 L805.314979,154.608245 L806.779284,153.007496 L807.103245,151.285935 L806.442364,147.722002 L810.679777,147.178351 L811.833079,146.513889 L811.638702,145.819224 L812.843838,144.439962 L810.23919,141.278733 L810.018896,138.500073 L810.770486,138.318857 L810.796403,137.624192 L813.608386,138.167842 L814.489561,136.859053 L819.750691,136.315403 L820.346779,134.080394 L819.413771,133.828704 L820.035777,133.526675 L819.828441,132.650794 L819.361937,132.58032 L819.115727,133.828704 L818.182718,133.838771 L817.793965,133.305188 L818.636264,131.392343 L816.66658,131.543357 L815.1634,130.415785 L815.111566,131.180923 L816.200076,131.754777 L815.902032,133.04343 L813.478802,133.335391 L812.623544,135.298574 L810.161439,135.771752 L808.23063,133.949515 L808.191755,131.311802 L806.675616,131.664168 L806.209112,130.989638 L807.453123,129.549971 L803.578547,128.251249 L800.027932,124.113463 L801.777323,122.955688 L802.9695,120.54953 L812.947505,115.535861 L815.072691,112.475309 L819.452646,110.965168 L826.346541,104.612507 L830.791289,101.662698 L831.581754,102.558715 L831.413294,104.833995 L832.126009,106.324001 L833.331145,107.159612 L833.097893,108.166373 L834.186402,108.63955 L833.279311,110.119489 L834.639948,109.404688 L835.806208,106.092446 L834.769532,104.632643 L835.37858,102.96142 L834.821366,101.310332 L836.143128,99.7196502 L836.350463,97.5047766 L836.946552,96.0550412 L837.737017,95.7026749 L837.827726,94.1723986 L838.527482,94.1824662 L839.745577,91.7863757 L839.473449,90.4574515 L840.989588,89.1486626 L843.270275,89.2292034 L844.553161,90.2057613 L846.289593,88.9875808 L847.0671,83.8531011 L846.030424,82.2221487 L846.561721,82.2120811 L846.496928,81.1147119 L844.760496,80.0777484 L845.227,79.4938272 L845.836047,80.3797766 L846.276635,79.6347737 L846.380302,77.0574662 L845.550962,76.4332745 L846.380302,76.3124633 L846.691305,75.6379336 L845.615754,73.9365079 L847.429937,73.0203557 L846.717222,72.1243386 L848.168568,71.9531893 L847.131892,71.5806878 L847.248518,70.6041299 L848.816491,70.3524397 L848.142651,69.8289242 L850.280795,68.6006761 L850.203045,67.2918871 L851.213804,66.9596561 L851.654391,66.013301 L850.99351,65.0367431 L852.08202,65.167622 L851.874684,64.372281 L853.027986,64.321943 L854.194247,63.526602 L853.779576,63.2648442 L856.202806,62.2278807 L855.606718,59.6103028 L856.189848,59.1270576 L855.062463,58.1605673 L855.619676,57.7175926 L856.513809,57.9994856 L856.293515,57.3551587 L857.835571,56.4692093 L857.382025,55.9658289 L858.353909,56.0060994 L858.470535,55.1805556 L859.079582,55.6839359 L860.414302,53.811361 L859.623837,53.0764256 L860.077382,52.502572 L858.729704,51.4958113 L859.040706,50.7004703 L858.081781,50.9521605 L856.850729,50.247428 L856.66931,48.9084362 L854.99767,48.4956643 L854.103538,46.45194 L848.414779,40.5019841 L844.877122,40.300632 L844.64387,39.7469136 L843.879322,40.3711052 L843.64607,42.2436802 L841.494967,43.069224 L841.728219,44.0961199 L840.652668,45.4049089 L838.942153,45.2639624 L838.242397,46.1599794 L836.648507,46.5526161 L835.715499,45.6666667 L834.328945,45.4653145 L833.447771,46.0089653 L832.942391,47.6701205 L831.996424,47.6701205 L829.974907,46.0895062 L825.089571,47.0861993 L823.715976,45.7270723 L822.938469,45.8579512 L821.6815,45.0827454 L820.76145,46.7036302 L814.683937,48.09296 L811.055572,46.6734274 L809.954104,46.8345091 L809.31914,45.1834215 L807.556791,43.4819959 L808.06217,42.1631393 L805.833317,38.0454879 L806.196154,37.3105526 L805.120602,35.045341 L805.444564,33.2130364 L804.64114,33.1929012 L803.785882,31.4008671 L803.88955,29.9611993 L805.63894,29.608833 L806.442364,27.5550412 L801.388569,26.6590241 L800.870231,24.6253674 L800.235267,24.9676661 L798.641378,22.9340094 L796.95678,23.0548207 L796.269982,22.1084656 L792.706409,26.6086861 L790.853351,26.9107143 L788.870708,26.1959142 L787.795157,23.6085391 L785.669971,23.3165785 L782.469235,20.9406232 L780.318132,20.4171076 L787.030608,15.3833039 L787.108359,14.2255291 L790.542348,10.5508524 L789.466797,8.79908877 L787.872908,8.09435626 L788.10616,6.68489124 L785.307135,4.89285714 L791.35873,2.93974133 L794.922303,2.98001176 L795.933062,1.99338624 L797.591744,2.0739271 L798.861672,1.32892416 L800.740647,2.54710464 L807.323539,2.30548207 L810.666818,1.05709877 L812.299583,1.22824809 L814.256309,-5.89839887e-15 Z M855.593759,238.018372 L854.391,238.631 L854.41454,238.652631 L855.612,238.042 L855.593759,238.018372 Z M857.783737,237.907628 L856.122,238.611 L856.138014,238.632496 L857.796,237.929 L857.783737,237.907628 Z M853.49449,237.887493 L852.164,238.075 L852.146812,238.088845 L853.495,237.888 L853.49449,237.887493 Z" id="path-1"></path>
        <filter x="-3.3%" y="-3.1%" width="106.5%" height="106.2%" filterUnits="objectBoundingBox" id="filter-2">
            <feGaussianBlur stdDeviation="8" in="SourceAlpha" result="shadowBlurInner1"></feGaussianBlur>
            <feOffset dx="-1" dy="-1" in="shadowBlurInner1" result="shadowOffsetInner1"></feOffset>
            <feComposite in="shadowOffsetInner1" in2="SourceAlpha" operator="arithmetic" k2="-1" k3="1" result="shadowInnerInner1"></feComposite>
            <feColorMatrix values="0 0 0 0 0.206573933   0 0 0 0 0.918783158   0 0 0 0 1  0 0 0 1 0" type="matrix" in="shadowInnerInner1" result="shadowMatrixInner1"></feColorMatrix>
            <feGaussianBlur stdDeviation="0.5" in="SourceAlpha" result="shadowBlurInner2"></feGaussianBlur>
            <feOffset dx="0" dy="2" in="shadowBlurInner2" result="shadowOffsetInner2"></feOffset>
            <feComposite in="shadowOffsetInner2" in2="SourceAlpha" operator="arithmetic" k2="-1" k3="1" result="shadowInnerInner2"></feComposite>
            <feColorMatrix values="0 0 0 0 0.199599848   0 0 0 0 0.961825321   0 0 0 0 1  0 0 0 1 0" type="matrix" in="shadowInnerInner2" result="shadowMatrixInner2"></feColorMatrix>
            <feGaussianBlur stdDeviation="0.5" in="SourceAlpha" result="shadowBlurInner3"></feGaussianBlur>
            <feOffset dx="0" dy="-2" in="shadowBlurInner3" result="shadowOffsetInner3"></feOffset>
            <feComposite in="shadowOffsetInner3" in2="SourceAlpha" operator="arithmetic" k2="-1" k3="1" result="shadowInnerInner3"></feComposite>
            <feColorMatrix values="0 0 0 0 0   0 0 0 0 0.862745098   0 0 0 0 0.976470588  0 0 0 1 0" type="matrix" in="shadowInnerInner3" result="shadowMatrixInner3"></feColorMatrix>
            <feMerge>
                <feMergeNode in="shadowMatrixInner1"></feMergeNode>
                <feMergeNode in="shadowMatrixInner2"></feMergeNode>
                <feMergeNode in="shadowMatrixInner3"></feMergeNode>
            </feMerge>
        </filter>
    </defs>
    <g id="组件" stroke="none" stroke-width="1" fill="none" fill-rule="evenodd">
        <g id="画板备份" fill-rule="nonzero">
            <g id="东北-2" transform="translate(0.198267, 0.000000)">
                <g id="东北">
                    <use fill="#0B9BF2" xlink:href="#path-1"></use>
                    <use fill="black" fill-opacity="1" filter="url(#filter-2)" xlink:href="#path-1"></use>
                    <path stroke="#FFFFFF" stroke-width="1" d="M816.946008,1.09197383 L817.183109,1.14314257 L816.839433,0.874081239 L816.946008,1.09197383 Z M818.204466,1.74435089 L818.492692,1.77997563 L818.838832,0.251371713 L817.863727,0.252262832 L818.204466,1.74435089 Z M819.621393,0.975687494 L819.930162,0.598722484 L819.236598,0.676734229 L819.621393,0.975687494 Z M823.912318,2.10642739 L824.065067,2.11062819 L823.788014,2.01755568 L823.912318,2.10642739 Z M830.283051,4.71388308 L830.547254,4.6566583 L830.090488,4.52415403 L830.283051,4.71388308 Z M837.58786,8.3787346 L837.907631,8.4106651 L837.484093,8.07458706 L837.58786,8.3787346 Z M839.790439,9.55876886 L839.961247,9.59194452 L839.67713,9.42672095 L839.790439,9.55876886 Z M841.438951,8.84603297 L841.482971,8.57813145 L841.190289,8.95501141 L841.438951,8.84603297 Z M842.605763,8.33466668 L842.706427,8.29054932 L842.495876,8.33250143 L842.605763,8.33466668 Z M845.97317,8.40101928 L846.072408,8.40297469 L845.882205,8.36130601 L845.97317,8.40101928 Z M850.034863,10.1742503 L850.171451,10.233881 L849.953214,10.049569 L850.034863,10.1742503 Z M852.530347,10.9048926 L852.810026,10.7943763 L852.301634,10.7096391 L852.530347,10.9048926 Z M854.302195,12.4175239 L854.530487,12.6124168 L854.366872,12.1244078 L854.302195,12.4175239 Z M854.184387,12.9514315 L854.13362,13.1815066 L854.394138,12.8441173 L854.184387,12.9514315 Z M856.242111,14.6936067 L856.570141,14.5926754 L856.03001,14.4237842 L856.242111,14.6936067 Z M859.574839,16.9839695 L859.969018,16.7639499 L860.591141,17.1246485 L860.550963,16.2854751 L860.077656,16.6241644 L859.722925,16.6212681 L859.921119,16.7361787 L859.574839,16.9839695 Z M859.51113,18.4212371 L859.58338,18.883501 L859.967586,18.3184947 L859.51113,18.4212371 Z M860.248096,20.8558261 L860.489736,20.7631181 L860.032887,20.7120563 L860.248096,20.8558261 Z M861.830578,21.9129995 L862.067363,22.0711833 L861.845828,21.6286463 L861.830578,21.9129995 Z M863.199607,23.5484998 L863.438545,23.5337334 L863.038284,23.3716263 L863.199607,23.5484998 Z M864.268085,24.7199727 L864.424838,24.891835 L864.29857,24.4893677 L864.268085,24.7199727 Z M865.173286,27.0847575 L866.243628,27.3461061 L866.074754,26.4512827 L865.173286,27.0847575 Z M867.646975,30.5298126 L868.086684,30.7142433 L867.810343,30.0818511 L867.646975,30.5298126 Z M867.245859,31.6296942 L867.149462,31.8940204 L867.521827,31.5749021 L867.245859,31.6296942 Z M870.555336,39.0402145 L870.893172,39.1245797 L870.517304,38.6940871 L870.555336,39.0402145 Z M870.668648,40.0714695 L870.698722,40.3451747 L870.883881,39.8997323 L870.668648,40.0714695 Z M872.191782,42.6914985 L872.563168,42.894056 L872.330034,42.2916942 L872.191782,42.6914985 Z M873.658173,45.6575534 L873.874526,45.7463547 L873.655969,45.8048106 L873.650313,46.1826997 L873.962392,45.7824188 L873.973363,45.7869216 L873.966725,45.7768608 L874.021067,45.7071606 L873.93579,45.729969 L873.663272,45.3168855 L873.658173,45.6575534 Z M873.563324,48.6312888 L874.748245,48.9263475 L874.189751,47.3962712 L873.563324,48.6312888 Z M874.149187,47.28514 L873.933149,46.6932704 L873.523714,47.3610681 L874.149187,47.28514 Z M874.25248,47.2726011 L875.182395,47.159716 L874.676223,46.4371805 L874.25248,47.2726011 Z M876.996852,54.8005971 L877.059442,54.8520368 L876.953708,54.7320253 L876.996852,54.8005971 Z M879.809616,58.4683711 L880.113814,58.6501682 L879.880383,58.1211265 L879.809616,58.4683711 Z M880.851238,61.5181804 L881.010065,61.769857 L880.996732,61.2585683 L880.851238,61.5181804 Z M880.878201,64.8494263 L881.070903,65.0243717 L880.910966,64.5912281 L880.878201,64.8494263 Z M884.743143,68.935602 L885.066923,69.0783304 L884.770054,68.5827842 L884.743143,68.935602 Z M884.675428,69.8233738 L884.666387,69.9419112 L884.736854,69.721591 L884.675428,69.8233738 Z M883.835685,74.6233957 L883.895141,74.7513124 L883.85185,74.4832658 L883.835685,74.6233957 Z M885.775192,77.8387907 L886.012523,77.9281204 L885.707047,77.5945328 L885.775192,77.8387907 Z M891.162455,81.3159416 L891.469837,81.0245135 L890.824465,81.0606459 L891.162455,81.3159416 Z M895.383954,82.9140016 L895.630223,82.9487887 L895.263126,82.6966107 L895.383954,82.9140016 Z M898.369306,81.6665556 L898.47974,81.5817558 L898.230938,81.6820711 L898.369306,81.6665556 Z M900.652013,81.4105911 L900.744877,81.4001781 L900.561657,81.3867621 L900.652013,81.4105911 Z M904.139222,81.7419606 L904.417128,81.4758397 L903.810801,81.5414816 L904.139222,81.7419606 Z M904.335774,81.8619428 L904.717892,82.0952 L904.525555,81.4564726 L904.335774,81.8619428 Z M907.947622,84.3316442 L908.152183,84.3588155 L907.82177,84.1681065 L907.947622,84.3316442 Z M911.672179,85.415359 L911.870879,85.3255604 L911.471174,85.3308468 L911.672179,85.415359 Z M914.901934,84.7356702 L915.035425,84.443394 L914.580616,84.7356702 L914.901934,84.7356702 Z M915.894702,84.7356702 L916.006046,84.7356702 L915.793879,84.6884231 L915.894702,84.7356702 Z M916.382611,84.9643121 L916.610261,85.0709922 L916.332472,84.7179563 L916.382611,84.9643121 Z M919.617581,87.6924718 L919.950761,87.7235838 L919.519299,87.3726009 L919.617581,87.6924718 Z M921.607395,89.7179486 L921.95524,89.8413678 L921.622873,89.3491823 L921.607395,89.7179486 Z M922.781146,91.0999215 L923.057583,91.206099 L922.741387,90.8064755 L922.781146,91.0999215 Z M931.510896,95.0443903 L931.706959,95.00481 L931.34163,94.9378253 L931.510896,95.0443903 Z M934.726127,95.7287152 L935.646121,95.5932876 L935.120493,94.8865724 L934.726127,95.7287152 Z M934.049038,101.043526 L934.262185,101.157374 L934.005815,100.805777 L934.049038,101.043526 Z M936.369322,102.908295 L937.079876,102.866571 L936.571072,102.225709 L936.369322,102.908295 Z M937.566456,106.032251 L937.760167,106.326869 L937.778935,105.750868 L937.566456,106.032251 Z M938.900728,114.031511 L939.009455,114.116907 L938.851317,113.902387 L938.900728,114.031511 Z M945.292379,117.289904 L945.367142,117.261299 L945.212423,117.293738 L945.292379,117.289904 Z M948.220668,117.14947 L948.361326,117.142724 L948.097164,117.081817 L948.220668,117.14947 Z M952.518369,117.852354 L952.740615,117.700202 L952.26904,117.750478 L952.518369,117.852354 Z M957.668174,117.827895 L957.817505,117.615197 L957.408289,117.827895 L957.668174,117.827895 Z M962.742557,116.980635 L962.913622,116.854955 L962.533322,116.944862 L962.742557,116.980635 Z M968.697483,113.326967 L968.847796,112.954301 L968.301205,113.260351 L968.697483,113.326967 Z M972.028176,112.22512 L972.148053,112.083349 L971.844824,112.254296 L972.028176,112.22512 Z M974.666564,111.071171 L974.748081,110.917063 L974.506901,111.141184 L974.666564,111.071171 Z M976.523931,110.256708 L976.619128,110.214964 L976.419985,110.257052 L976.523931,110.256708 Z M979.385012,110.24725 L979.465221,110.246984 L979.308744,110.222413 L979.385012,110.24725 Z M986.657615,108.503997 L986.800748,108.432676 L986.49966,108.479019 L986.657615,108.503997 Z M988.850129,107.225679 L988.936938,106.926399 L988.54321,107.279575 L988.850129,107.225679 Z M991.282503,105.870074 L991.399448,105.675111 L991.058708,105.910104 L991.282503,105.870074 Z M996.497306,104.937297 L996.630841,104.913411 L996.370009,104.890416 L996.497306,104.937297 Z M999.328777,105.391952 L999.674103,105.261432 L999.102384,105.100348 L999.328777,105.391952 Z M1001.11756,106.80593 L1001.65618,106.988754 L1001.36794,106.295196 L1001.11756,106.80593 Z M1000.50354,114.191945 L1000.81261,114.261746 L1000.4347,113.882666 L1000.50354,114.191945 Z M1002.25,116.614161 L1002.48289,116.806956 L1002.31255,116.318369 L1002.25,116.614161 Z M1002.04426,117.587129 L1002.01451,117.727834 L1002.14422,117.483735 L1002.04426,117.587129 Z M998.017335,121.752225 L997.880894,121.893347 L998.213342,121.741618 L998.017335,121.752225 Z M993.208066,127.115297 L993.365891,127.251051 L993.193218,126.90765 L993.208066,127.115297 Z M993.27487,128.049515 L993.296885,128.357385 L993.540228,127.891863 L993.27487,128.049515 Z M990.438684,134.785649 L990.527178,134.955621 L990.486457,134.60007 L990.438684,134.785649 Z M989.957571,136.654566 L989.916285,136.814944 L990.086431,136.550542 L989.957571,136.654566 Z M988.455738,141.717288 L988.878261,142.115694 L988.912499,141.358649 L988.455738,141.717288 Z M988.301243,143.366183 L988.672656,143.514834 L988.364792,142.971207 L988.301243,143.366183 Z M988.218454,143.880744 L988.196332,144.018238 L988.308467,143.774483 L988.218454,143.880744 Z M987.607235,144.602292 L987.310666,144.952393 L987.981469,144.867758 L987.607235,144.602292 Z M985.256458,148.055979 L985.350981,148.285151 L985.381644,147.84201 L985.256458,148.055979 Z M984.358335,149.591062 L984.215383,149.835397 L984.641398,149.58792 L984.358335,149.591062 Z M983.030388,150.705401 L982.860153,151.260034 L983.553813,150.955651 L983.030388,150.705401 Z M981.201712,153.106766 L981.742411,153.3749 L981.565738,152.625376 L981.201712,153.106766 Z M980.676871,155.034129 L981.49807,155.208129 L981.220963,154.394905 L980.676871,155.034129 Z M980.627438,155.575363 L980.99597,156.240031 L981.383695,155.500037 L980.627438,155.575363 Z M979.982121,156.419064 L980.077204,156.842145 L980.387499,156.265091 L979.982121,156.419064 Z M978.755567,157.429325 L978.533977,157.973561 L979.257312,157.735179 L978.755567,157.429325 Z M975.33801,164.678386 L975.469053,165.038229 L975.651286,164.458119 L975.33801,164.678386 Z M973.264037,166.136613 L973.059597,166.280356 L973.501716,166.213855 L973.264037,166.136613 Z M968.393065,172.319174 L968.358559,172.408079 L968.457872,172.249212 L968.393065,172.319174 Z M966.434183,174.433885 L966.229019,174.65537 L966.725724,174.512318 L966.434183,174.433885 Z M962.801086,173.456477 L962.721564,173.435084 L962.869548,173.502244 L962.801086,173.456477 Z M959.834973,171.473607 L959.526268,171.267236 L959.726635,171.828785 L959.834973,171.473607 Z M956.635247,161.608464 L956.485898,161.551173 L956.723609,161.741803 L956.635247,161.608464 Z M953.446923,162.718074 L953.302572,163.021226 L953.782156,162.736978 L953.446923,162.718074 Z M951.528097,164.887036 L951.913461,165.327323 L952.023084,164.575032 L951.528097,164.887036 Z M948.230789,167.033329 L948.642408,167.850576 L949.140894,167.128365 L948.230789,167.033329 Z M945.387711,167.893961 L945.236269,168.035151 L945.594634,167.90117 L945.387711,167.893961 Z M942.035408,168.607713 L941.948081,168.837095 L942.270292,168.5365 L942.035408,168.607713 Z M942.275049,172.7989 L942.343555,172.880434 L942.245712,172.696526 L942.275049,172.7989 Z M945.31366,183.402563 L945.35574,183.549407 L945.360829,183.257273 L945.31366,183.402563 Z M944.275245,191.785071 L944.289497,191.920709 L944.331839,191.660982 L944.275245,191.785071 Z M945.144958,194.29414 L945.307229,194.391394 L945.087709,194.113827 L945.144958,194.29414 Z M945.499894,195.412066 L945.567172,195.623968 L945.612165,195.22017 L945.499894,195.412066 Z M943.818729,199.779909 L943.85137,200.004519 L943.96632,199.607479 L943.818729,199.779909 Z M942.456947,203.076025 L942.638578,203.647899 L943.052202,203.000521 L942.456947,203.076025 Z M940.762553,204.235684 L940.829927,204.840551 L941.368995,204.286979 L940.762553,204.235684 Z M937.143522,204.713515 L936.962246,204.876706 L937.383717,204.755927 L937.143522,204.713515 Z M933.233376,208.074374 L933.486662,208.006594 L933.033593,207.904567 L933.233376,208.074374 Z M934.357772,209.030062 L934.549732,209.19322 L934.374673,208.778699 L934.357772,209.030062 Z M934.310276,209.736433 L934.283964,210.127759 L934.696609,209.668794 L934.310276,209.736433 Z M933.848453,209.817288 L933.140682,209.941204 L934.275708,212.441882 L934.830842,211.745298 L934.342707,211.645826 L933.848453,209.817288 Z M931.937358,208.680376 L931.937358,209.584833 L931.675496,209.661125 L931.937358,209.846722 L931.937358,209.95995 L931.992817,209.886028 L932.31462,210.114109 L932.281412,209.501355 L932.297502,209.479908 L932.280518,209.484856 L932.236525,208.673113 L931.937358,208.680376 Z M931.115718,208.700325 L930.922043,208.705027 L931.261999,208.827343 L931.115718,208.700325 Z M929.244364,207.075398 L929.059063,206.914498 L929.230436,207.320411 L929.244364,207.075398 Z M927.265741,203.478682 L926.474108,203.42072 L926.8716,204.167663 L927.265741,203.478682 Z M924.893208,202.373047 L924.754307,202.40597 L925.028553,202.41842 L924.893208,202.373047 Z M920.486451,209.089401 L920.497814,209.196988 L920.52058,208.986741 L920.486451,209.089401 Z M919.625735,211.678482 L919.509821,212.027159 L919.993117,211.684969 L919.625735,211.678482 Z M919.110041,211.669377 L918.852773,211.664834 L919.255879,211.881364 L919.110041,211.669377 Z M916.991319,212.472998 L916.667331,212.841241 L917.365721,212.789848 L916.991319,212.472998 Z M913.088832,212.438232 L912.980108,212.694053 L913.363503,212.395553 L913.088832,212.438232 Z M911.853575,213.853874 L911.938133,214.132294 L912.053874,213.64281 L911.853575,213.853874 Z M911.116053,215.863343 L911.390389,216.326004 L911.597482,215.623464 L911.116053,215.863343 Z M906.975997,218.633362 L906.89567,219.108618 L907.453878,218.696215 L906.975997,218.633362 Z M903.180832,218.742926 L902.96366,218.878913 L903.418049,218.839801 L903.180832,218.742926 Z M900.390001,219.035839 L900.25584,219.085688 L900.530218,219.064528 L900.390001,219.035839 Z M896.269978,226.351511 L896.652227,226.645617 L896.550121,225.958915 L896.269978,226.351511 Z M893.928552,229.632834 L893.841805,229.754403 L894.067762,229.578756 L893.928552,229.632834 Z M893.614148,229.754966 L893.41984,229.830446 L893.804529,229.839865 L893.614148,229.754966 Z M889.546527,229.089994 L889.429095,229.156139 L889.681293,229.091831 L889.546527,229.089994 Z M886.134218,229.043484 L885.988135,229.041493 L886.256248,229.123816 L886.134218,229.043484 Z M882.467427,228.195035 L882.160983,228.241747 L882.645545,228.448736 L882.467427,228.195035 Z M880.425891,227.819917 L879.674535,227.833414 L880.148098,228.518165 L880.425891,227.819917 Z M878.419956,227.036083 L877.274413,226.852975 L877.500225,227.743114 L878.419956,227.036083 Z M877.024256,225.000959 L876.372371,224.619693 L876.418709,225.452214 L877.024256,225.000959 Z M874.841743,222.965652 L874.504656,222.861917 L874.857117,223.318005 L874.841743,222.965652 Z M872.815958,223.535358 L872.568583,223.77868 L873.130455,223.68196 L872.815958,223.535358 Z M871.751813,224.003417 L871.555799,224.536417 L872.255695,224.265359 L871.751813,224.003417 Z M870.352332,224.510222 L870.776573,224.855271 L870.733894,224.118496 L870.352332,224.510222 Z M870.160545,224.707117 L870.008221,224.863499 L870.378784,224.712529 L870.160545,224.707117 Z M868.193007,227.040244 L868.3023,227.28726 L868.339691,226.813427 L868.193007,227.040244 Z M867.094929,229.957329 L867.235165,230.57788 L867.731044,229.967733 L867.094929,229.957329 Z M863.555209,233.327654 L863.483307,233.417806 L863.65933,233.278098 L863.555209,233.327654 Z M860.721149,235.57278 L860.927052,235.861955 L860.926262,235.283044 L860.721149,235.57278 Z M859.995995,236.597113 L859.928461,236.692509 L860.098819,236.54154 L859.995995,236.597113 Z M858.17272,237.582524 L857.723026,237.825567 L858.133504,238.012097 L857.997559,238.054541 L858.578746,238.28037 L858.526586,238.190722 L859.326273,238.554117 L859.384113,237.621634 L858.378205,237.935696 L858.17272,237.582524 Z M856.151144,238.150477 L855.873914,238.280465 L856.392938,238.33833 L856.151144,238.150477 Z M852.909668,239.862593 L853.760504,240.72529 L854.121292,239.874215 L852.909668,239.862593 Z M851.313955,240.702232 L851.236782,240.87491 L851.486094,240.623864 L851.313955,240.702232 Z M849.157098,242.035386 L849.269005,242.720056 L849.842015,242.145773 L849.157098,242.035386 Z M846.453573,242.555949 L846.361045,242.675216 L846.596642,242.50781 L846.453573,242.555949 Z M842.772316,245.019444 L842.929828,245.607777 L843.380061,244.979543 L842.772316,245.019444 Z M841.791038,245.08387 L841.539961,245.100354 L841.953882,245.275684 L841.791038,245.08387 Z M838.049681,247.372762 L837.997248,247.651127 L838.315402,247.274639 L838.049681,247.372762 Z M831.777179,252.889037 L832.013148,253.312727 L832.193472,252.640249 L831.777179,252.889037 Z M828.761868,255.656338 L828.631405,255.864123 L829.006043,255.632386 L828.761868,255.656338 Z M826.680056,255.860554 L826.440271,255.884076 L826.847866,256.033441 L826.680056,255.860554 Z M824.860156,255.374187 L824.414889,255.42136 L824.467566,255.918577 L824.955981,255.811571 L824.860156,255.374187 Z M821.881554,255.401195 L821.796875,255.417039 L821.966653,255.414602 L821.881554,255.401195 Z M817.293064,256.663515 L816.592732,257.07933 L817.346905,257.476207 L817.293064,256.663515 Z M813.574715,257.669249 L814.270813,258.454952 L814.623438,257.623851 L813.574715,257.669249 Z M809.243484,258.735184 L809.137602,258.866193 L809.407055,258.694953 L809.243484,258.735184 Z M806.9628,259.296136 L806.828324,259.329212 L807.095131,259.336958 L806.9628,259.296136 Z M805.742401,259.946518 L806.090804,260.422258 L806.268697,259.680575 L805.742401,259.946518 Z M805.076933,260.282786 L804.674808,260.485984 L805.320761,260.661654 L805.076933,260.282786 Z M802.882835,261.408448 L802.751233,261.556559 L803.080168,261.390682 L802.882835,261.408448 Z M797.2255,264.578803 L797.209151,264.870945 L797.488208,264.449964 L797.2255,264.578803 Z M795.458729,266.79894 L795.613444,267.173684 L795.793411,266.570123 L795.458729,266.79894 Z M795.010992,267.105051 L794.821528,267.234585 L795.232732,267.16427 L795.010992,267.105051 Z M793.886601,267.762458 L794.389281,268.716101 L794.939307,267.994691 L793.886601,267.762458 Z M793.081003,268.297914 L792.768647,268.659449 L793.456354,268.593524 L793.081003,268.297914 Z M790.248935,268.518079 L789.816219,268.699618 L791.43813,269.702267 L791.24762,270.038653 L791.805135,269.929146 L791.847407,269.955278 L791.839004,269.922494 L791.992239,269.892395 L791.790534,269.733383 L791.675249,269.283583 L791.534721,269.531715 L790.248935,268.518079 Z M788.667278,268.464491 L788.530897,268.47206 L788.563819,268.580272 L788.002368,268.326805 L787.936371,268.793963 L788.571959,268.607025 L788.884777,269.635243 L789.568861,269.033999 L788.602913,268.597921 L788.603449,268.597763 L788.667278,268.464491 Z M787.834098,269.517909 L787.792494,269.812407 L788.112746,269.413911 L787.834098,269.517909 Z M787.202548,270.971756 L788.435993,271.351667 L788.388044,271.444053 L788.516318,271.376408 L789.008613,271.528038 L788.867533,271.191195 L788.892426,271.178068 L788.860397,271.174157 L788.712006,270.819861 L788.547922,271.136009 L787.202548,270.971756 Z M785.013564,271.956481 L784.916066,272.008558 L785.123929,271.950357 L785.013564,271.956481 Z M780.317859,273.480024 L780.187705,273.822272 L780.68343,273.500806 L780.317859,273.480024 Z M780.000988,273.462011 L779.620837,273.4404 L780.08123,273.834225 L780.000988,273.462011 Z M779.720981,272.163159 L779.640643,271.790501 L779.382893,272.339299 L779.720981,272.163159 Z M781.555141,270.942673 L779.99117,270.795047 L781.057096,271.124611 L781.555141,270.942673 Z M779.76081,270.773303 L779.487444,270.7475 L779.495525,270.713824 L779.470336,270.745885 L778.913773,270.69335 L779.352982,271.307813 L779.441956,270.937052 L779.76081,270.773303 Z M779.820949,270.742419 L780.002294,270.649288 L779.626185,270.682201 L779.820949,270.742419 Z M783.318017,269.383565 L783.167616,269.064889 L783.068474,269.632369 L783.318017,269.383565 Z M783.557343,269.144947 L783.845981,268.857163 L783.217291,268.920233 L783.557343,269.144947 Z M788.094296,266.376652 L787.228298,265.842515 L787.142345,266.735878 L788.094296,266.376652 Z M788.868184,265.495718 L787.3517,264.59038 L787.102175,265.519648 L788.868184,265.495718 Z M790.049124,264.200895 L790.144669,263.838311 L789.674292,264.210733 L790.049124,264.200895 Z M791.27272,262.493292 L791.70021,263.171979 L792.070304,262.408311 L791.27272,262.493292 Z M790.129238,262.615128 L789.802576,262.649934 L790.290856,262.901134 L790.129238,262.615128 Z M788.117057,262.091709 L788.098839,262.657861 L788.676569,262.180061 L788.117057,262.091709 Z M786.123783,262.5087 L785.711421,262.8547 L786.438468,262.945428 L786.123783,262.5087 Z M782.16604,260.941693 L781.973326,261.052777 L782.377582,261.010452 L782.16604,260.941693 Z M781.82639,260.831295 L781.107654,260.59768 L781.330284,261.401414 L781.82639,260.831295 Z M782.459639,260.103574 L782.574295,259.971814 L782.28788,260.135283 L782.459639,260.103574 Z M784.760982,259.678716 L784.905486,259.652038 L784.625022,259.622967 L784.760982,259.678716 Z M785.564945,257.593369 L785.169595,257.879339 L785.462636,258.284465 L785.860484,257.981617 L785.564945,257.593369 Z M785.425715,257.410464 L785.14777,257.04533 L785.085712,257.718643 L785.425715,257.410464 Z M785.75166,256.447849 L785.473142,255.997769 L785.286471,256.700325 L785.75166,256.447849 Z M788.777565,254.805575 L788.940754,254.717006 L788.596122,254.766165 L788.777565,254.805575 Z M791.944895,252.572073 L791.000911,252.192731 L791.067889,253.087696 L791.944895,252.572073 Z M794.182798,250.403343 L794.178235,250.101997 L793.918464,250.548108 L794.182798,250.403343 Z M795.604193,248.50081 L795.526674,248.15717 L795.306686,248.689459 L795.604193,248.50081 Z M797.38961,246.524248 L797.426428,246.249645 L797.137257,246.638615 L797.38961,246.524248 Z M798.250864,243.904235 L798.086915,243.911839 L798.387425,243.995272 L798.250864,243.904235 Z M796.634242,242.826525 L796.378866,242.656281 L796.59803,243.131302 L796.634242,242.826525 Z M793.180455,239.719836 L793.040767,239.652263 L793.257342,239.854621 L793.180455,239.719836 Z M791.659638,238.810312 L791.245033,238.873061 L791.793638,239.207651 L791.659638,238.810312 Z M789.019726,238.521769 L788.876616,238.746455 L789.286036,238.515216 L789.019726,238.521769 Z M786.580886,238.581785 L786.422219,238.585689 L786.712757,238.670106 L786.580886,238.581785 Z M778.042709,238.660079 L777.980323,239.309556 L778.65362,238.889208 L778.042709,238.660079 Z M776.077115,240.148962 L776.819236,240.462313 L776.687261,239.622983 L776.077115,240.148962 Z M775.156386,241.134041 L777.285233,241.588062 L777.269967,240.613563 L775.156386,241.134041 Z M773.528161,242.771348 L773.457712,242.934303 L773.685598,242.689308 L773.528161,242.771348 Z M771.283824,244.741514 L771.278572,245.088329 L771.610512,244.624969 L771.283824,244.741514 Z M770.088901,246.736033 L770.113428,247.093326 L770.41929,246.597819 L770.088901,246.736033 Z M768.638941,248.677528 L768.648433,248.893233 L768.789449,248.522716 L768.638941,248.677528 Z M767.996945,249.337879 L767.869399,249.469072 L768.179044,249.32 L767.996945,249.337879 Z M758.801728,252.487093 L758.10744,252.779885 L758.801728,253.240594 L758.801728,252.487093 Z M757.595308,251.81557 L757.16474,251.835018 L757.678011,252.238568 L757.595308,251.81557 Z M755.496843,248.976228 L754.933498,248.773334 L755.196735,249.494358 L755.496843,248.976228 Z M754.740341,247.228162 L754.669016,247.125731 L754.755157,247.352097 L754.740341,247.228162 Z M749.148665,243.718262 L749.004306,243.720056 L749.271763,243.793693 L749.148665,243.718262 Z M748.676448,243.428898 L748.351713,243.229907 L748.570878,243.794828 L748.676448,243.428898 Z M747.607861,242.587057 L746.925747,242.602644 L747.417264,243.242187 L747.607861,242.587057 Z M745.444791,241.541509 L745.236254,241.587206 L745.622023,241.660524 L745.444791,241.541509 Z M742.580298,239.617948 L742.278743,239.415448 L742.480925,239.967328 L742.580298,239.617948 Z M743.139335,237.652448 L743.245474,237.279277 L742.751496,237.642319 L743.139335,237.652448 Z M744.344428,235.760003 L744.020998,235.634364 L744.055692,235.480725 L743.928843,235.598566 L743.619436,235.478374 L743.764608,235.751137 L743.641945,235.865089 L743.811737,235.839689 L743.926107,236.054579 L743.980328,235.814469 L744.344428,235.760003 Z M744.020998,235.634364 L743.928843,235.598566 L743.764608,235.751137 L743.811737,235.839689 L743.980328,235.814469 L744.020998,235.634364 Z M746.264018,234.578394 L746.312403,234.344172 L746.051301,234.687722 L746.264018,234.578394 Z M747.871518,232.979505 L747.660499,232.537569 L747.434056,233.199648 L747.871518,232.979505 Z M748.895247,231.479326 L748.91342,231.194126 L748.640286,231.608414 L748.895247,231.479326 Z M749.426545,231.210328 L749.793588,231.024493 L749.567734,230.57841 L749.173499,230.885947 L749.426545,231.210328 Z M750.05055,229.863273 L749.958188,229.536376 L749.780669,230.069566 L750.05055,229.863273 Z M751.029227,227.332977 L750.806229,226.939226 L750.659609,227.594032 L751.029227,227.332977 Z M750.631233,225.842597 L750.446131,225.777587 L750.722735,226.016137 L750.631233,225.842597 Z M749.914402,224.483066 L749.84156,224.344914 L749.895661,224.638116 L749.914402,224.483066 Z M750.366199,220.74531 L750.375124,220.671479 L750.336174,220.813348 L750.366199,220.74531 Z M749.078671,215.791953 L748.739319,215.480908 L748.796671,216.155799 L749.078671,215.791953 Z M749.435921,215.331018 L749.522344,215.219512 L749.303959,215.380906 L749.435921,215.331018 Z M752.706727,213.72393 L753.09921,213.16789 L752.293452,213.183165 L752.706727,213.72393 Z M757.831144,216.400948 L758.39166,216.358114 L757.853974,215.839261 L757.831144,216.400948 Z M760.996788,222.797403 L761.098263,222.950977 L761.019115,222.614691 L760.996788,222.797403 Z M765.929762,220.857908 L766.010476,220.750153 L765.805855,220.910566 L765.929762,220.857908 Z M769.040725,218.02331 L769.010915,217.696756 L768.753099,218.180782 L769.040725,218.02331 Z M770.495754,217.226696 L770.683908,217.123684 L770.291447,217.161337 L770.495754,217.226696 Z M775.438636,215.474814 L775.562036,215.418694 L775.303788,215.460916 L775.438636,215.474814 Z M782.96826,212.155347 L783.070325,212.012614 L782.799382,212.202995 L782.96826,212.155347 Z M786.731416,211.222195 L787.022934,211.165449 L786.542104,210.993969 L786.731416,211.222195 Z M792.94069,208.172255 L793.031713,207.972761 L792.732279,208.240431 L792.94069,208.172255 Z M794.538761,207.649492 L794.701963,207.596105 L794.377193,207.591344 L794.538761,207.649492 Z M797.104776,207.632273 L797.310414,207.410561 L796.812926,207.553109 L797.104776,207.632273 Z M799.936256,205.745871 L799.669456,205.701453 L800.045085,205.993483 L799.936256,205.745871 Z M799.845074,205.538409 L799.827619,205.498695 L799.889891,205.506138 L800.047975,205.392306 L799.808071,205.454217 L799.682248,205.167939 L799.516679,205.774875 L799.845074,205.538409 Z M802.426643,205.809344 L802.560282,205.825317 L802.31908,205.728444 L802.426643,205.809344 Z M805.371602,206.588181 L805.535158,206.571172 L805.229877,206.50479 L805.371602,206.588181 Z M808.317604,206.86796 L808.447215,206.759859 L808.148993,206.875396 L808.317604,206.86796 Z M813.451152,204.518499 L813.150516,204.374519 L813.433875,204.851386 L813.451152,204.518499 Z M813.488723,203.794598 L813.498667,203.603003 L813.353169,203.930364 L813.488723,203.794598 Z M814.325994,202.956017 L814.42872,202.85313 L814.184115,202.987777 L814.325994,202.956017 Z M817.848644,202.167448 L818.006858,202.13203 L817.699753,202.103283 L817.848644,202.167448 Z M821.347456,198.146512 L821.279402,197.769799 L821.001545,198.310491 L821.347456,198.146512 Z M822.022502,195.880503 L822.012044,195.798336 L821.973168,195.637254 L821.487123,195.754556 L821.881896,196.061401 L822.022502,195.880503 Z M821.090862,195.347227 L820.859541,195.640764 L820.98943,196.010776 L821.461206,195.845165 L821.458411,195.345172 L821.090862,195.347227 Z M819.860577,195.354103 L819.657187,195.35524 L820.007006,195.495268 L819.860577,195.354103 Z M817.029808,194.313575 L816.733066,194.623485 L817.381174,194.559831 L817.029808,194.313575 Z M815.760444,193.423937 L815.528116,193.26111 L815.739829,193.706894 L815.760444,193.423937 Z M815.780035,193.155047 L815.81758,192.639727 L815.266225,193.100612 L815.780035,193.155047 Z M817.44139,192.398679 L817.252127,191.714938 L816.733823,192.346996 L817.44139,192.398679 Z M818.100182,189.06819 L818.025945,188.93159 L818.08387,189.222802 L818.100182,189.06819 Z M815.909423,183.608313 L815.735331,183.346348 L815.748651,183.878658 L815.909423,183.608313 Z M815.260643,181.114752 L815.095201,181.051721 L815.349558,181.267847 L815.260643,181.114752 Z M812.672098,178.092835 L812.376132,177.948559 L812.656477,178.421722 L812.672098,178.092835 Z M801.440379,180.178221 L801.306904,180.240234 L801.585583,180.197983 L801.440379,180.178221 Z M798.523366,179.78121 L798.034968,179.714738 L798.463885,180.270508 L798.523366,179.78121 Z M797.799324,176.054062 L797.448807,176.036146 L797.901589,176.389807 L797.799324,176.054062 Z M796.048232,174.282582 L795.71918,174.149202 L796.030744,174.637209 L796.048232,174.282582 Z M796.152035,171.683582 L795.201032,171.163652 L795.139248,172.069583 L796.152035,171.683582 Z M795.584385,170.490314 L795.328665,170.46124 L795.709319,170.715324 L795.584385,170.490314 Z M794.857513,169.181196 L794.568976,168.661532 L794.296118,169.376489 L794.857513,169.181196 Z M795.998818,164.59736 L796.027575,164.364679 L795.801548,164.724056 L795.998818,164.59736 Z M796.51047,161.33535 L796.160905,161.192654 L796.468898,161.710623 L796.51047,161.33535 Z M794.331653,157.915082 L794.18421,157.857476 L794.419079,158.047046 L794.331653,157.915082 Z M793.652423,156.889829 L793.511987,156.677851 L793.563843,157.128178 L793.652423,156.889829 Z M789.241108,154.139547 L788.997136,154.206728 L789.439717,154.296359 L789.241108,154.139547 Z M788.562156,153.603483 L787.845828,153.037908 L787.699909,153.902701 L788.562156,153.603483 Z M790.670996,149.256936 L790.388349,148.784253 L790.173277,149.49272 L790.670996,149.256936 Z M791.031535,149.086138 L791.23587,148.989339 L790.823898,148.996641 L791.031535,149.086138 Z M793.362661,149.728461 L793.696658,149.614935 L793.143712,149.451868 L793.362661,149.728461 Z M800.118797,151.09584 L800.137605,150.977315 L800.232155,151.094372 L800.474993,151.091228 L800.144191,150.935813 L800.184833,150.679701 L799.697486,151.101296 L800.118797,151.09584 Z M807.030377,148.150659 L806.933983,147.630838 L806.505992,148.217937 L807.030377,148.150659 Z M812.193023,145.944721 L812.120207,145.684492 L812.015223,146.14821 L812.193023,145.944721 Z M810.725184,141.082284 L810.625078,140.960786 L810.737626,141.239217 L810.725184,141.082284 Z M810.551068,138.886089 L810.517332,138.460557 L810.136093,138.986144 L810.551068,138.886089 Z M811.274304,138.225845 L811.296055,137.642833 L810.701494,138.115101 L811.274304,138.225845 Z M814.77366,137.332359 L814.904316,137.138298 L814.540954,137.356405 L814.77366,137.332359 Z M820.572493,133.623409 L819.543997,133.34596 L819.632171,134.278483 L820.614632,133.801428 L820.572493,133.623409 Z M818.703836,133.333119 L818.625176,133.731956 L819.110332,133.328733 L818.703836,133.333119 Z M818.435059,133.336019 L818.3262,133.337194 L818.36753,133.243333 L818.198083,133.010759 L818.233395,133.338195 L818.177324,133.3388 L818.236673,133.368589 L818.251565,133.506687 L818.298673,133.399708 L818.586837,133.544342 L818.435059,133.336019 Z M816.816037,131.030431 L816.628358,131.04482 L816.966612,131.143381 L816.816037,131.030431 Z M815.626131,132.017425 L815.966899,132.197076 L815.712935,131.642109 L815.626131,132.017425 Z M815.493939,132.588983 L815.414891,132.930763 L815.842222,132.54702 L815.493939,132.588983 Z M812.2704,134.857293 L812.165154,135.098878 L812.529179,134.80756 L812.2704,134.857293 Z M810.318456,135.232426 L810.067074,135.280737 L810.504621,135.408123 L810.318456,135.232426 Z M808.727462,133.730896 L808.573812,133.585886 L808.730576,133.942147 L808.727462,133.730896 Z M806.893507,131.100202 L806.744446,131.134845 L806.840548,131.023628 L806.620344,130.70523 L806.595353,131.169496 L806.562428,131.177148 L806.594279,131.189454 L806.587438,131.316548 L806.671484,131.219283 L807.086849,131.37976 L806.893507,131.100202 Z M803.868199,127.820997 L803.737453,127.777172 L803.957997,127.925645 L803.868199,127.820997 Z M800.776288,124.217772 L800.407382,123.787859 L800.303881,124.530419 L800.776288,124.217772 Z M803.343325,120.921264 L803.417523,120.771511 L803.19399,120.996301 L803.343325,120.921264 Z M815.390174,112.89473 L815.483388,112.760489 L815.235668,112.948001 L815.390174,112.89473 Z M830.704306,102.319894 L831.067772,102.0793 L830.416341,101.993477 L830.704306,102.319894 Z M831.06758,102.731676 L831.206807,102.889494 L831.083119,102.521797 L831.06758,102.731676 Z M832.767484,107.377218 L833.046243,107.570503 L832.844047,107.046758 L832.767484,107.377218 Z M833.459473,108.868751 L833.98707,109.098099 L833.760106,108.378262 L833.459473,108.868751 Z M835.329199,104.557186 L835.177195,104.343142 L835.239309,104.803844 L835.329199,104.557186 Z M835.384421,101.415074 L835.295115,101.15045 L835.205929,101.629881 L835.384421,101.415074 Z M836.841321,97.6257922 L836.848287,97.5513781 L836.812899,97.6949166 L836.841321,97.6257922 Z M837.332893,96.4302502 L837.408987,96.2451811 L837.150127,96.5117219 L837.332893,96.4302502 Z M838.298561,94.6792244 L838.32685,94.2019848 L837.820533,94.6723468 L838.298561,94.6792244 Z M840.022099,90.6443625 L839.963285,90.3571465 L839.800173,90.8359375 L840.022099,90.6443625 Z M841.167891,89.6552709 L841.316311,89.5271486 L840.971942,89.6483511 L841.167891,89.6552709 Z M843.093846,89.7232846 L843.252628,89.7288919 L842.967426,89.6270507 L843.093846,89.7232846 Z M846.929917,82.7051939 L846.452396,81.9539325 L846.039897,82.722059 L846.929917,82.7051939 Z M846.371139,80.4572219 L845.508747,79.9422183 L845.617641,79.8059165 L845.258924,79.7930284 L845.016854,79.6484689 L845.041623,79.7852212 L844.81497,79.7770779 L845.120703,80.2218114 L845.151137,80.3898377 L845.196865,80.3326005 L845.867723,81.3084638 L846.371139,80.4572219 Z M846.748243,76.7086003 L845.851635,76.0337806 L845.623037,76.9280525 L846.720791,76.7681409 L846.748243,76.7086003 Z M846.332547,74.1346697 L846.03839,73.6693398 L845.841142,74.3828263 L846.332547,74.1346697 Z M847.667445,72.5157485 L847.108528,71.8130838 L846.775778,72.6208979 L847.667445,72.5157485 Z M847.675566,71.2447435 L847.30097,71.1101427 L847.628364,71.6399793 L847.675566,71.2447435 Z M847.700254,71.0380182 L847.74499,70.6634214 L847.327764,71.0978102 L847.700254,71.0380182 Z M849.037891,69.891283 L848.449409,69.4340829 L848.391706,70.2624811 L849.037891,69.891283 Z M850.725001,67.6466404 L850.702165,67.2622361 L850.359174,67.7668856 L850.725001,67.6466404 Z M852.02172,65.663973 L851.407599,64.7565104 L850.933821,65.5331676 L852.02172,65.663973 Z M852.514581,64.8448275 L852.358515,64.2461527 L851.896487,64.8718054 L852.514581,64.8448275 Z M854.851304,63.3500807 L854.046471,62.8420357 L853.779576,63.2648442 L853.976285,63.724524 L854.851304,63.3500807 Z M856.16251,59.7990891 L856.094236,59.4992824 L855.925758,59.9952875 L856.16251,59.7990891 Z M856.103389,58.3943529 L855.847646,58.1751084 L855.930825,58.1089831 L855.798994,58.1333994 L855.38789,57.7809657 L855.373611,58.5519579 L855.722795,58.274363 L856.103389,58.3943529 Z M856.899961,57.5833855 L856.766627,57.193403 L856.542596,57.7887008 L856.899961,57.5833855 Z M858.549514,56.5146334 L857.753487,55.6311414 L857.361325,56.4654003 L858.549514,56.5146334 Z M858.840645,56.1351275 L858.965619,55.250497 L858.151998,55.5659573 L858.840645,56.1351275 Z M860.302232,53.0244419 L859.964294,52.7102442 L860.016111,53.3864597 L860.302232,53.0244419 Z M859.334073,51.3231843 L859.028943,51.0952416 L859.195368,51.6779005 L859.334073,51.3231843 Z M858.152681,50.4166155 L857.954845,50.4685416 L858.330189,50.5182325 L858.152681,50.4166155 Z M857.3131,49.9359864 L857.099136,49.8135 L857.346202,50.180297 L857.3131,49.9359864 Z M855.356917,48.0693542 L855.117534,48.010244 L855.455749,48.2952542 L855.356917,48.0693542 Z M845.216855,39.8191593 L844.905535,39.8014399 L845.337908,40.1065275 L845.216855,39.8191593 Z M843.186969,41.8843156 L843.149904,42.1818767 L843.466921,41.7768764 L843.186969,41.8843156 Z M841.186371,43.9679531 L841.240639,44.2068703 L841.341925,43.7786666 L841.186371,43.9679531 Z M840.432678,44.8850871 L840.266374,45.0874555 L840.693729,44.9065977 L840.432678,44.8850871 Z M837.954817,45.7158743 L837.84833,45.8522276 L838.122802,45.6744928 L837.954817,45.7158743 Z M836.794471,46.0017124 L836.528913,46.0671295 L836.992799,46.1900371 L836.794471,46.0017124 Z M832.571881,47.1701205 L832.464039,47.5245896 L832.942391,47.1701205 L832.571881,47.1701205 Z M832.168694,47.1701205 L831.996424,47.1701205 L832.304404,47.2762316 L832.168694,47.1701205 Z M825.251361,46.5428918 L824.989622,46.5962911 L825.441248,46.730779 L825.251361,46.5428918 Z M823.040891,45.3336759 L822.855471,45.364888 L823.200932,45.4323771 L823.040891,45.3336759 Z M820.435332,46.2652831 L820.326617,46.4568096 L820.650023,46.2162042 L820.435332,46.2652831 Z M814.722666,47.5712082 L814.572511,47.605534 L814.866108,47.6273272 L814.722666,47.5712082 Z M810.277295,46.2819263 L809.881752,46.3397716 L810.420783,46.6550367 L810.277295,46.2819263 Z M808.142047,43.3520277 L807.904072,43.1222796 L808.023685,43.6609077 L808.142047,43.3520277 Z M806.396148,38.0349225 L806.273032,37.8074736 L806.281655,38.2668318 L806.396148,38.0349225 Z M805.640769,34.9751393 L805.572274,34.8308816 L805.612966,35.1323935 L805.640769,34.9751393 Z M804.960279,32.7007424 L804.653667,32.6930582 L805.092383,32.9775429 L804.960279,32.7007424 Z M804.29409,31.304866 L804.237126,31.1855088 L804.284591,31.4367782 L804.29409,31.304866 Z M804.360955,30.3762898 L804.388259,29.9971103 L803.988278,30.4513551 L804.360955,30.3762898 Z M801.793422,26.2230052 L801.475856,26.166702 L801.873079,26.5355323 L801.793422,26.2230052 Z M800.368888,24.3276078 L799.998005,24.5275449 L800.628801,24.6592322 L800.368888,24.3276078 Z M797.198213,22.5362222 L796.921014,22.5561015 L797.361445,22.7611435 L797.198213,22.5362222 Z M792.434721,26.1463703 L792.314424,26.2982865 L792.625976,26.115198 L792.434721,26.1463703 Z M790.900923,26.3963627 L790.772917,26.4172262 L791.022931,26.4403499 L790.900923,26.3963627 Z M789.247753,25.8003471 L789.040288,25.7255498 L789.332406,26.00399 L789.247753,25.8003471 Z M785.865043,22.8386814 L785.738023,22.8212311 L785.967993,22.9151024 L785.865043,22.8386814 Z M781.465402,20.1817252 L780.436366,19.931288 L780.618111,20.8171234 L781.465402,20.1817252 Z M787.5953,14.4367656 L787.607235,14.2590313 L787.473674,14.5669161 L787.5953,14.4367656 Z M788.429457,7.79373953 L788.075099,7.63706133 L788.366198,8.17599085 L788.429457,7.79373953 Z M786.469249,5.04318759 L785.576732,4.47176641 L785.460706,5.36868874 L786.469249,5.04318759 Z M791.43466,3.44063131 L791.512302,3.41557293 L791.35308,3.43970941 L791.43466,3.44063131 Z M796.126417,2.50336411 L796.282319,2.35118534 L795.908812,2.49279783 L796.126417,2.50336411 Z M798.848557,1.91630737 L799.114674,1.7601898 L798.589673,1.7484674 L798.848557,1.91630737 Z M810.731601,1.56662881 L810.841723,1.52550917 L810.614693,1.55437429 L810.731601,1.56662881 Z M814.349764,0.531679506 L814.522132,0.423483357 L814.150832,0.488748096 L814.349764,0.531679506 Z M859.399119,20.1104732 L859.629078,20.3605944 L859.081898,20.2321788 L859.399119,20.1104732 Z M876.081811,224.456144 L876.456138,224.177195 L876.334453,224.848707 L876.081811,224.456144 Z M872.617667,224.546235 L872.124825,224.316497 L872.805347,224.035893 L872.617667,224.546235 Z M869.370761,225.687842 L869.135902,225.682019 L869.525156,225.51077 L869.370761,225.687842 Z M791.99415,268.870341 L791.098618,269.246047 L791.168098,268.359684 L791.99415,268.870341 Z M785.476699,258.891385 L785.522583,258.9102 L785.51278,258.865287 L785.476699,258.891385 Z M816.351559,192.21 L817.082093,192.287395 L816.547537,192.917999 L816.351559,192.21 Z M834.520152,108.239433 L834.913332,108.410349 L833.705607,110.380776 L833.046775,109.676852 L834.407412,108.962052 L834.168329,109.238629 L834.520152,108.239433 Z M846.031916,81.7220307 L846.552248,81.7121709 L846.06259,82.2415514 L846.031916,81.7220307 Z M845.784766,79.4225699 L846.248078,80.0965258 L845.405675,80.1252586 L845.846262,79.3802556 L845.777039,79.6146783 L845.784766,79.4225699 Z M846.039813,75.8567856 L846.308227,75.8176853 L845.926241,76.103111 L846.039813,75.8567856 Z M857.922168,55.4877809 L858.374609,55.506528 L857.858825,55.936158 L857.922168,55.4877809 Z M853.522686,238.512154 L855.736219,237.384686 L856.376129,238.213598 L854.332111,239.255922 L853.522686,238.512154 Z M855.607546,238.045439 L855.593759,238.018372 L855.197975,238.323912 L855.216216,238.347541 L855.607546,238.045439 Z M854.399045,238.622245 L854.41454,238.652631 L854.752846,238.284461 L854.729306,238.26283 L854.399045,238.622245 Z M855.34046,238.398861 L857.996893,237.274458 L858.510227,238.169096 L855.971719,239.246203 L855.34046,238.398861 Z M857.793412,237.930485 L857.783737,237.907628 L857.350057,238.156469 L857.36232,238.177841 L857.793412,237.930485 Z M856.127238,238.607098 L856.138014,238.632496 L856.538977,238.333784 L856.522963,238.312288 L856.127238,238.607098 Z M852.17001,238.117645 L852.46046,238.478235 L852.477648,238.464391 L852.164,238.075 L852.17001,238.117645 Z M853.671016,237.357674 L854.553046,238.235897 L850.398861,238.854762 L851.957714,237.599131 L853.671016,237.357674 Z" stroke-linejoin="square"></path>
                </g>
            </g>
        </g>
    </g>
</svg>