<?xml version="1.0" encoding="UTF-8"?>
<svg width="1003px" height="576px" viewBox="0 0 1003 576" version="1.1" xmlns="http://www.w3.org/2000/svg" xmlns:xlink="http://www.w3.org/1999/xlink">
    <!-- Generator: Sketch 57.1 (83088) - https://sketch.com -->
    <title>西北</title>
    <desc>Created with Sketch.</desc>
    <defs>
        <path d="M233.848317,89.2121608 L234.405809,90.3101911 L233.848317,91.6701368 L235.196669,92.8689038 L232.772228,93.8259027 L232.499965,94.8332699 L233.679773,95.4981323 L233.38158,96.213363 L235.365213,97.1905092 L236.596881,97.1905092 L237.984127,98.2482448 L236.830249,99.255612 L236.246828,102.046019 L236.596881,100.8674 L242.119938,102.640366 L243.351606,104.292448 L245.062975,103.879428 L246.553942,105.400552 L246.229818,107.374992 L249.146926,109.158032 L252.751175,110.235915 L253.60686,111.192914 L253.658719,112.754333 L256.368388,112.66367 L259.026198,110.930998 L262.254463,110.830261 L263.097183,112.784554 L266.027256,115.202235 L268.451697,115.222382 L268.77582,113.943026 L270.48719,114.36612 L270.668698,116.179381 L274.895263,118.23441 L274.752649,119.020157 L276.852967,121.437838 L277.851266,125.981064 L281.39069,130.514217 L284.333727,131.410774 L285.085693,133.959413 L286.771133,136.074884 L286.200676,138.089618 L287.017466,138.623523 L284.294833,143.38837 L284.70971,145.312441 L286.096957,146.904082 L286.109922,148.556164 L280.898023,154.267936 L280.236812,157.7635 L282.401954,160.251697 L282.687182,161.923927 L284.035534,162.357095 L283.763271,163.626378 L287.912046,163.445051 L291.879313,165.19787 L293.292489,164.48264 L295.457631,165.973543 L302.393865,165.832512 L304.947955,166.527595 L308.27994,166.205238 L310.561767,166.900321 L319.650178,166.749216 L326.832745,167.696141 L338.125193,173.115777 L339.979177,174.465649 L340.225511,175.523384 L344.335391,176.923625 L346.293095,178.706665 L351.116046,180.358747 L358.220824,179.744253 L356.924331,184.065858 L360.295211,185.063152 L362.577038,190.492861 L365.714549,195.348371 L365.921988,197.725758 L372.974906,204.384455 L373.636117,207.245378 L378.718367,206.802137 L382.944932,207.325968 L387.067778,206.298453 L397.802734,225.357841 L394.068836,228.752668 L399.980841,234.867387 L400.486473,234.706209 L406.191039,238.453615 L406.476267,239.219214 L404.622283,244.437376 L411.03992,244.155313 L414.657134,240.629528 L419.739384,238.755825 L426.118126,239.01774 L427.907285,237.607426 L434.726835,238.443541 L436.904942,241.143285 L437.112381,243.168093 L433.521097,246.562921 L431.667113,249.645465 L426.947881,252.103441 L424.225247,255.206132 L429.333427,255.044953 L433.404413,257.452561 L437.293889,258.318896 L438.434803,261.09923 L441.40377,261.733871 L441.37784,263.07367 L447.082406,263.093817 L447.160196,269.399936 L448.586337,268.825737 L449.83097,270.286419 L453.17592,269.198462 L452.449884,270.326714 L453.551903,271.666512 L455.003974,272.049312 L454.93915,273.127195 L458.25817,274.053972 L459.671347,275.091561 L460.643716,274.597951 L462.303226,275.041192 L463.560824,274.799424 L463.729368,274.07412 L467.268792,271.273639 L462.925542,267.919106 L469.23946,266.800928 L473.42713,265.440983 L475.90343,266.619602 L482.372927,267.919106 L488.259002,263.929932 L496.050921,262.076376 L497.762291,261.985713 L500.212661,262.751312 L499.57738,264.725752 L502.092575,268.070211 L501.573978,270.548335 L499.240292,271.364302 L496.686202,275.36355 L489.088757,279.211693 L490.268565,280.52127 L491.253899,283.29153 L488.271967,284.329118 L489.062827,288.237703 L493.289392,289.224923 L501.638803,295.269126 L503.285348,294.946769 L505.191191,294.332275 L505.42456,293.556602 L508.134229,293.183876 L510.390126,293.707707 L514.863024,293.093213 L518.674711,290.977742 L521.578854,290.453911 L524.846015,290.61509 L525.520191,289.355881 L527.490859,289.013376 L528.800316,285.729359 L527.607543,283.634035 L527.866842,282.525931 L529.176299,281.458122 L528.579913,279.100882 L528.96886,275.585171 L529.88937,273.187637 L531.224757,271.857912 L530.900634,271.142681 L532.715723,269.913693 L533.804777,267.103139 L536.073638,267.213949 L536.112533,265.148846 L539.379693,264.836562 L541.285537,263.617648 L544.319329,263.627722 L545.278733,268.080285 L547.119753,268.604116 L547.353121,269.802883 L542.906153,274.084193 L542.45238,277.076074 L539.522308,280.662301 L544.747172,283.241162 L547.936543,283.835508 L550.607317,283.251235 L553.252161,284.329118 L554.885741,285.840169 L554.561618,286.615842 L558.54185,287.804535 L563.688924,289.13426 L564.479785,291.148994 L566.489348,291.924667 L568.382226,291.138921 L569.41942,291.662752 L570.210281,291.048257 L572.829195,290.756121 L573.60709,290.83671 L573.58116,291.390762 L577.0039,290.856858 L576.97797,286.706505 L577.716971,286.011421 L577.185409,285.477517 L578.041094,285.527885 L579.60985,287.04901 L581.476799,285.26597 L581.476799,284.399634 L579.4802,282.868436 L580.128447,280.32987 L581.424939,278.597199 L582.734396,278.022999 L583.149274,276.76379 L585.016223,275.675834 L586.22196,275.796718 L585.949697,274.37633 L587.09061,274.26552 L587.531418,272.78469 L588.983489,272.351522 L589.916964,272.643658 L591.667228,270.709513 L592.315474,268.513453 L594.75288,268.03999 L596.243846,266.528939 L600.470411,264.947373 L599.070199,263.013228 L599.355428,262.036081 L600.924183,262.338292 L603.309729,264.47391 L603.789431,263.67809 L605.474871,263.315438 L607.095487,265.521572 L608.716102,264.917152 L611.296122,261.461882 L615.457862,260.051568 L615.756055,260.635841 L614.303984,262.711018 L614.90037,263.647869 L615.587511,263.577353 L617.441495,264.685457 L616.754354,265.078331 L615.367107,268.735074 L612.981562,269.984209 L613.616843,271.565775 L611.477631,275.272887 L612.035122,276.401138 L611.322051,278.325209 L609.81812,278.54683 L607.756698,280.883922 L606.4991,280.914143 L606.187942,282.243868 L605.241503,282.888583 L605.423011,286.414368 L609.247664,289.718533 L608.456803,290.443837 L610.012594,291.360541 L609.403243,291.602309 L609.882945,292.982403 L609.195804,294.463232 L607.458504,294.926621 L607.354785,295.903768 L608.495698,296.306714 L608.249365,297.314082 L605.617485,300.13471 L603.750536,301.222666 L604.359888,301.645761 L603.063396,301.514803 L603.983905,302.33077 L603.18008,303.761232 L603.893151,303.992926 L603.906115,304.919704 L603.23194,305.40324 L604.385818,306.037882 L604.113554,306.763186 L603.374554,306.843776 L605.202608,308.395121 L604.295063,314.943008 L606.978802,323.304156 L601.44278,333.579302 L601.598359,336.440225 L600.989008,337.820318 L601.805798,338.998937 L603.244904,339.200411 L603.543098,339.824978 L602.894852,340.671167 L603.97094,342.182218 L604.800695,342.111702 L605.124818,343.320543 L603.932045,344.045847 L604.165414,344.690562 L607.471469,345.909476 L606.52503,347.964506 L608.003031,349.173346 L606.693574,349.969166 L606.888048,350.613881 L609.662541,351.500365 L610.570086,353.43451 L613.435334,354.965708 L613.798352,358.501567 L613.033421,359.740628 L611.892508,360.516301 L610.557121,360.506227 L610.323752,361.36249 L609.143944,361.412858 L608.573488,362.188531 L607.704838,361.302048 L606.784328,361.302048 L606.162012,359.780923 L603.906115,361.040132 L600.742674,361.231532 L599.627691,360.476006 L597.436619,360.737922 L594.506546,359.891733 L592.302509,360.113354 L590.967122,359.468639 L590.396666,360.123428 L588.85384,360.153649 L587.738856,361.342342 L593.508247,362.581404 L593.06744,365.029306 L593.599002,365.462474 L594.75288,364.958791 L597.358829,365.553137 L599.238743,366.52021 L599.459147,368.313323 L600.314832,369.169586 L599.627691,369.753859 L598.408988,369.411354 L597.216215,370.459016 L595.465951,369.774006 L590.694859,369.763932 L590.980087,370.549679 L589.177963,372.161466 L588.659366,374.166127 L590.448525,375.576441 L590.746719,377.117713 L590.176262,378.276185 L590.889333,379.4951 L590.137367,380.139815 L591.006017,381.469539 L590.072543,382.668306 L585.288486,382.879854 L585.068082,381.610571 L583.784555,381.27814 L581.126746,379.182816 L578.728235,378.739574 L576.381584,377.047197 L575.123986,377.016976 L572.673616,375.515999 L572.0513,374.619442 L569.536105,375.082831 L568.084033,374.518706 L567.267243,375.274231 L564.596469,375.364894 L563.805609,376.462924 L561.731221,375.566367 L558.580745,372.655076 L556.389673,372.927065 L555.235794,372.393161 L554.820917,370.670563 L553.978197,370.5799 L552.227932,372.564413 L551.566721,372.423382 L549.181175,370.720931 L549.414544,368.917744 L548.105087,367.829787 L544.228575,368.363692 L544.18968,367.688756 L543.567364,367.678682 L538.251745,369.451648 L537.084902,368.675976 L533.299145,367.789493 L532.46939,367.144777 L532.987986,366.449694 L532.171196,365.653874 L531.57481,366.228073 L528.579913,366.359031 L528.035386,367.42684 L527.374175,367.144777 L524.80712,368.192439 L523.212434,365.019233 L522.240065,364.747243 L521.280661,365.553137 L522.525294,367.598093 L516.963342,369.78408 L515.744639,368.98826 L513.177584,369.713564 L512.295969,368.756565 L510.753143,369.109144 L510.091932,368.555092 L509.093633,368.726344 L508.017545,367.718977 L503.635401,366.207926 L503.389067,364.54577 L504.685559,364.495402 L505.670894,363.417519 L504.179927,363.004498 L504.867068,361.987057 L503.68726,359.08584 L505.256016,359.347755 L505.722753,358.803777 L503.518716,358.602303 L502.274084,357.564715 L501.223925,355.459318 L501.457294,354.411656 L499.434766,353.233036 L494.884078,353.65613 L491.94104,352.830089 L490.527863,353.323699 L490.592688,351.349259 L489.373985,352.25589 L488.025633,352.3667 L484.797367,351.349259 L485.264105,349.969166 L484.239876,349.032315 L484.836262,348.377526 L484.343595,347.561559 L485.082596,347.037728 L484.084297,345.748298 L482.009909,345.456161 L481.478347,343.975331 L480.544873,343.622753 L479.766977,344.277542 L477.925958,344.388352 L477.290677,345.385645 L475.890465,345.990066 L476.707255,347.198906 L472.934463,347.088096 L472.273252,348.88121 L470.354443,348.609221 L468.980161,349.203567 L470.10811,350.714618 L469.809916,351.65147 L471.145304,352.084638 L470.743391,352.830089 L471.508321,352.517805 L471.443497,354.260551 L473.232656,354.905266 L473.764218,356.637937 L471.76762,357.71582 L470.224794,357.312873 L468.876442,358.582156 L469.498758,358.975029 L469.21353,360.304754 L467.670704,359.599597 L467.061353,360.717775 L465.622246,360.637185 L463.871982,361.997131 L463.055192,361.795658 L463.26263,360.627112 L462.173577,359.780923 L463.807157,358.904514 L464.94807,356.92 L463.275595,354.351214 L462.666244,354.250477 L462.251366,355.358581 L462.264331,356.748748 L461.227137,356.869632 L460.332558,358.199357 L460.228838,358.773556 L461.60312,359.458566 L460.176979,361.936689 L457.311731,360.204017 L456.067098,360.274533 L455.924484,361.352416 L455.081764,360.415564 L452.125761,361.342342 L451.54234,364.989012 L453.422254,366.258294 L452.761043,368.333471 L451.49048,369.149438 L451.425656,368.595386 L450.64776,368.464429 L448.430758,369.622901 L444.333843,368.474502 L444.930229,369.502017 L444.022684,369.360985 L444.100474,370.841815 L441.637139,372.544266 L440.53512,371.56712 L442.544683,370.227321 L440.859243,368.262955 L439.757225,367.326104 L438.745961,367.829787 L437.462433,367.527577 L436.671573,369.59268 L435.128747,369.09907 L434.623115,368.60546 L435.401011,367.708903 L434.973168,365.794905 L433.624816,365.190485 L433.624816,364.495402 L432.600587,364.495402 L431.446709,362.782877 L430.928112,364.555844 L429.346392,364.475254 L429.735339,365.563211 L428.957444,367.890229 L422.708351,364.999085 L421.243315,365.351664 L419.894963,363.085088 L414.38487,361.261753 L413.697729,359.670113 L412.919834,359.347755 L413.256922,358.159062 L412.466062,357.353168 L412.569781,356.355875 L411.130675,355.419023 L410.599113,354.220256 L411.286254,353.777014 L408.057988,350.744839 L407.163408,350.432555 L404.700073,350.845576 L404.713038,349.818061 L400.810596,349.213641 L396.674786,350.533292 L396.233978,350.09005 L396.830365,348.840915 L394.937486,348.226421 L394.431854,349.666956 L390.412728,350.110198 L390.114534,350.986607 L391.073939,353.222962 L390.684991,354.220256 L392.55194,354.824676 L393.187221,356.587569 L396.648856,357.3028 L394.28924,358.451198 L393.861397,359.760776 L392.020378,361.120721 L392.953853,362.974277 L392.253747,363.266414 L392.52601,363.760024 L390.386798,364.203265 L389.881166,364.999085 L391.035044,368.121924 L396.00061,370.751152 L395.05417,371.536899 L390.088605,370.771299 L389.582973,372.000287 L390.827605,373.440823 L389.907096,373.591928 L390.8665,374.045243 L388.740253,374.397821 L388.33834,375.908872 L389.064376,377.429997 L387.599339,377.016976 L387.858638,377.782575 L386.756619,378.195596 L383.294985,377.671765 L383.424634,378.689206 L382.36151,378.386996 L381.67437,378.971269 L379.522192,378.256038 L380.909439,380.260699 L380.105614,380.885266 L381.402106,382.758969 L380.883509,383.585011 L379.716666,383.494348 L378.809122,382.718675 L376.631014,382.78919 L374.919645,381.832192 L372.871187,379.545468 L370.757904,380.240551 L371.017203,380.875193 L370.135588,380.865119 L369.87629,381.509834 L371.302431,382.386244 L371.808063,383.373463 L371.224642,384.562157 L371.872888,384.813999 L370.913483,385.509082 L369.318798,382.950369 L365.520075,382.829485 L364.677355,383.454053 L363.601267,382.225065 L361.565774,381.902707 L359.815509,382.396317 L357.365139,379.22311 L358.519017,378.528027 L358.039315,378.034417 L358.674596,377.621397 L358.376403,376.301746 L357.10584,376.059977 L356.31498,374.871284 L352.607012,374.9418 L351.556853,373.974727 L349.702869,373.410602 L350.169607,372.866623 L349.57322,371.768593 L348.250798,371.436162 L347.304359,370.710857 L347.719236,370.448942 L344.996602,368.595386 L342.261004,370.166879 L341.301599,369.673269 L340.834862,370.851889 L338.215948,370.922405 L337.113929,372.161466 L335.804472,371.617488 L335.065471,371.98014 L334.274611,371.365646 L332.589171,371.577193 L331.82424,370.378426 L330.333274,369.985553 L329.231256,370.076216 L327.027219,371.526825 L326.05485,370.317984 L324.732428,370.761226 L322.55432,368.746491 L319.533493,369.230028 L318.716703,367.50743 L316.395982,368.192439 L313.465909,367.174999 L312.700979,367.839861 L309.602362,367.185072 L306.464851,367.860008 L305.466552,367.406693 L305.894394,366.097116 L304.468253,365.381885 L301.59004,366.379178 L299.567512,364.465181 L296.935633,363.74995 L293.538823,361.906468 L291.840418,359.861512 L292.540524,359.287313 L292.086751,358.813851 L289.390047,358.723188 L288.469538,360.012618 L285.461676,360.002544 L283.07613,361.976984 L280.820233,361.523668 L277.397493,359.649965 L275.452755,359.539155 L273.274648,357.514347 L273.132034,356.01337 L269.151802,354.069151 L269.48889,353.122226 L267.946065,352.457363 L268.179433,351.46007 L265.936502,350.442629 L263.525026,347.652222 L264.328851,346.52397 L266.27359,345.899403 L266.532888,343.894742 L267.232994,343.310469 L266.092081,342.303102 L266.027256,338.837759 L265.106746,338.515401 L264.899308,337.336781 L267.168169,335.896246 L266.092081,334.344901 L262.591551,334.667258 L262.617481,331.322799 L261.476568,330.990368 L260.387514,329.509538 L261.645112,328.703644 L261.13948,328.612981 L261.126515,327.424288 L264.251062,326.557952 L265.456799,325.651322 L264.445535,324.60366 L265.456799,323.898503 L264.821518,322.93143 L266.027256,319.828739 L261.645112,319.586971 L259.868918,318.730709 L259.557759,317.531942 L259.972637,316.867079 L261.204305,317.108848 L264.964132,316.202217 L260.970936,315.154555 L256.822161,312.898053 L255.084861,313.552841 L251.726946,311.800022 L249.146926,312.797316 L246.774345,311.407149 L246.203889,310.389708 L244.725887,310.520666 L244.25915,309.946467 L240.641937,310.137866 L238.762023,310.822876 L236.272758,310.651624 L234.794756,311.709359 L232.162877,311.477665 L229.518033,312.152601 L227.897417,311.840317 L227.677014,311.004202 L226.380521,310.984055 L225.187748,311.810096 L223.346729,312.04179 L222.620694,312.857758 L220.105499,312.676432 L218.549708,313.341294 L217.979251,312.696579 L216.216022,312.898053 L214.854705,313.814757 L212.119106,314.348661 L211.250456,314.056525 L207.931436,315.023597 L207.036856,315.507134 L206.738663,317.018184 L204.690205,319.939549 L203.06959,320.906622 L198.868955,321.420379 L197.222409,323.052314 L196.042601,322.860914 L196.042601,322.044947 L191.816036,320.967064 L187.978419,321.490895 L184.776083,323.153051 L178.462166,324.583512 L178.436236,325.671469 L173.989267,327.535098 L170.916581,326.547878 L168.919982,327.48473 L164.836032,327.877603 L163.513609,327.78694 L162.787574,326.970973 L161.141029,327.172446 L158.612869,326.578099 L156.71999,326.910531 L154.619672,325.570732 L153.997356,322.659441 L151.300652,322.397525 L150.237528,323.183272 L148.565053,322.32701 L145.751665,321.924063 L144.688541,322.901209 L143.768032,322.971725 L143.495768,324.492849 L139.0488,326.124784 L138.517238,328.008561 L137.078131,328.129445 L137.324465,328.532392 L136.027973,329.056223 L132.929356,329.45917 L130.984618,329.308065 L129.065809,327.535098 L125.474525,328.139519 L123.503857,326.769499 L122.401838,327.18252 L122.311084,328.300697 L117.293659,327.887677 L116.256465,326.970973 L114.687709,326.960899 L114.311726,326.124784 L113.144883,325.953532 L110.34446,327.504877 L109.942547,329.529685 L107.971879,331.564567 L106.364229,332.168988 L105.404824,335.231384 L103.65456,335.392563 L103.356367,336.964055 L104.212051,337.719581 L103.265612,338.243412 L103.226717,340.348809 L102.254348,341.104335 L99.7132231,341.597945 L98.053713,341.144629 L92.8807087,342.101628 L91.6360761,341.66846 L90.4303382,342.111702 L89.7691272,343.320543 L88.446705,342.524723 L87.9670029,342.776564 L82.1068577,339.0896 L79.6175924,339.190337 L79.3064343,338.525475 L77.4265204,338.233338 L76.5708355,337.467739 L74.13343,331.816409 L74.807606,331.000442 L73.4722189,329.962853 L72.6424638,327.696277 L74.4834829,325.580806 L72.1497968,325.651322 L71.1903924,326.467289 L69.751286,325.056975 L67.7935826,325.641248 L62.9706312,325.832648 L61.5055949,324.865575 L59.4441722,324.895796 L53.9729746,322.669515 L52.3393943,322.62922 L49.7723396,320.896548 L49.3056023,318.821372 L45.7272836,320.141023 L42.8750005,320.141023 L42.6675617,318.660193 L41.5136836,317.310321 L40.0356824,317.249879 L39.1281378,316.443985 L38.9725587,315.436618 L40.3209107,314.922861 L40.1134719,314.066599 L40.9172971,313.965862 L39.8152787,312.928274 L40.1523667,310.409856 L37.5853119,306.904218 L34.3181513,305.433461 L32.5808516,305.463682 L32.3215532,306.158766 L31.0769205,306.178913 L30.2082707,302.673275 L27.5115667,302.441581 L26.0335655,301.454361 L24.0369673,301.585319 L22.3515273,302.804233 L21.1846843,301.958045 L20.8735261,300.779425 L19.3955249,301.414066 L18.4361206,300.255594 L17.8008393,300.275741 L16.5691717,301.222666 L14.3392049,299.923163 L15.2467495,299.076974 L15.2597144,297.918502 L18.0731027,298.059533 L19.4084898,297.384597 L20.4456836,298.371817 L21.8329304,298.250933 L22.5589661,297.162977 L25.5279335,296.669367 L25.8650215,294.906474 L24.5296344,293.365202 L22.4422818,292.901813 L21.9366498,291.279952 L23.5702301,289.527133 L22.1181587,288.419029 L22.2218781,285.638696 L21.3402633,285.296191 L20.1215606,282.79792 L20.0048763,280.229134 L21.3791581,279.523976 L21.3661932,277.650273 L20.6790523,277.972631 L17.5804357,276.370917 L13.2371864,275.202371 L9.2828849,275.041192 L8.38830521,277.217106 L6.00275937,277.136516 L3.6561083,275.897454 L4.00616122,275.313181 L2.35961599,271.757175 L3.09861661,270.679292 L4.55068799,270.538261 L4.70626707,269.964062 L4.29138953,269.047357 L3.05972184,269.097726 L2.03549292,266.841223 L-1.20221048e-14,265.35032 L1.8021243,263.698237 L1.64654523,261.975639 L4.6673723,261.995787 L6.22316306,259.860168 L5.76939076,257.674181 L4.48586337,256.938803 L6.93623383,253.161176 L6.33984737,252.778377 L7.88267321,251.69042 L9.04951629,251.861673 L10.9942547,251.106147 L12.8223089,251.771009 L16.841435,248.607876 L18.4620504,248.748908 L18.7732086,247.419183 L20.380859,247.338594 L21.3013686,247.892646 L21.9755446,247.560215 L20.1734203,245.746954 L20.8087015,244.437376 L23.4276159,245.676438 L27.2133735,245.827543 L31.167675,243.037136 L33.3457821,242.201021 L34.1236775,244.739586 L35.4460996,245.213049 L34.1625722,246.794615 L35.0960467,248.557508 L37.1445045,247.51992 L38.6743654,248.416477 L39.4652258,246.905426 L41.5007187,246.391669 L43.0824393,246.804689 L44.806774,245.495112 L45.4420553,247.187489 L48.5536368,245.474964 L48.8259002,244.266124 L50.6020946,242.674483 L50.3946559,240.548939 L52.909851,238.977446 L52.8839211,237.144037 L54.1674485,236.126597 L57.1623457,235.481882 L58.8996454,236.207186 L62.2834903,235.935197 L65.3950718,236.600059 L72.4998497,235.179671 L73.7444823,235.935197 L75.8836946,235.14945 L77.2320466,232.892948 L79.0860306,231.915802 L79.2027149,229.568636 L83.2607358,228.561269 L84.3757192,227.191249 L86.4760367,226.768155 L95.9015358,222.25515 L96.9776244,222.214855 L97.0943087,223.292738 L100.141066,223.131559 L103.6027,218.900617 L110.162951,218.527891 L109.566565,215.777779 L110.253706,214.901369 L108.957213,212.221772 L109.086863,211.264773 L110.085162,210.710722 L108.671985,209.783944 L108.347862,208.232598 L109.774003,205.321307 L112.05583,205.341454 L115.219271,204.152761 L112.159549,202.591342 L112.00397,201.533606 L115.258166,200.06285 L118.266028,199.76064 L118.642011,199.226735 L117.967835,197.252295 L116.360184,196.909791 L117.760396,194.361151 L114.052428,187.783044 L111.16125,176.339352 L112.159549,174.062702 L111.459443,173.226587 L113.520866,172.33003 L113.443077,171.856568 L110.124056,169.94257 L106.040106,170.637653 L104.886227,169.247487 L103.006314,168.874761 L106.895791,166.890247 L106.882826,166.18509 L109.112792,166.517521 L110.577829,165.872806 L111.783567,166.275753 L113.235638,164.956102 L115.465605,165.097134 L117.475168,163.948735 L120.132977,164.734481 L121.131276,164.069619 L123.153804,163.938661 L123.646471,163.132768 L124.61884,163.283873 L128.702791,161.893706 L129.869634,162.1254 L133.214584,160.473318 L134.8352,161.551201 L135.327867,163.394683 L136.624359,163.314094 L137.557834,164.261019 L142.44561,162.830557 L146.270262,164.905734 L148.007561,162.911147 L148.642843,160.604276 L148.18907,159.304772 L145.129349,158.579468 L142.756768,156.786354 L146.568455,149.281468 L146.970368,145.604578 L150.406072,139.469712 L151.534021,135.188401 L153.647303,130.30267 L154.580777,129.496776 L155.190129,126.585485 L157.549745,126.363864 L158.690658,127.220126 L160.440923,127.300715 L161.387362,128.257714 L162.191187,128.076388 L164.20075,129.456481 L171.694476,131.179079 L174.585654,130.544438 L178.099148,130.342964 L179.36971,130.947385 L182.312748,130.453775 L183.946328,132.246889 L182.455362,133.516171 L184.270451,133.757939 L186.837506,132.921825 L187.05791,132.126004 L188.600736,131.7835 L191.102966,129.537071 L196.133356,129.436334 L196.898286,126.988432 L198.868955,126.232906 L199.037499,123.523088 L197.339094,120.823344 L197.624322,119.171262 L196.32783,112.905438 L197.455778,108.775232 L199.504236,104.695395 L201.38415,103.607438 L204.080854,103.194418 L207.348014,103.456333 L209.046419,102.207198 L210.939298,102.328082 L213.480423,101.401304 L214.219423,99.8298113 L216.332706,98.0971397 L216.073407,96.827857 L217.136531,95.6391637 L215.853004,94.2489969 L215.68446,92.7782408 L217.421759,91.6197685 L218.005181,90.4210015 L219.703586,90.6526959 L222.42622,89.6755497 L227.067662,90.9851271 L228.506769,90.5519592 L228.610488,89.8568758 L229.543963,90.1389386 L231.72207,89.3128975 L233.848317,89.2121608 Z" id="path-1"></path>
        <filter x="-1.4%" y="-2.9%" width="102.8%" height="105.7%" filterUnits="objectBoundingBox" id="filter-2">
            <feGaussianBlur stdDeviation="8" in="SourceAlpha" result="shadowBlurInner1"></feGaussianBlur>
            <feOffset dx="-1" dy="-1" in="shadowBlurInner1" result="shadowOffsetInner1"></feOffset>
            <feComposite in="shadowOffsetInner1" in2="SourceAlpha" operator="arithmetic" k2="-1" k3="1" result="shadowInnerInner1"></feComposite>
            <feColorMatrix values="0 0 0 0 0.206573933   0 0 0 0 0.918783158   0 0 0 0 1  0 0 0 1 0" type="matrix" in="shadowInnerInner1" result="shadowMatrixInner1"></feColorMatrix>
            <feGaussianBlur stdDeviation="0.5" in="SourceAlpha" result="shadowBlurInner2"></feGaussianBlur>
            <feOffset dx="0" dy="2" in="shadowBlurInner2" result="shadowOffsetInner2"></feOffset>
            <feComposite in="shadowOffsetInner2" in2="SourceAlpha" operator="arithmetic" k2="-1" k3="1" result="shadowInnerInner2"></feComposite>
            <feColorMatrix values="0 0 0 0 0.199599848   0 0 0 0 0.961825321   0 0 0 0 1  0 0 0 1 0" type="matrix" in="shadowInnerInner2" result="shadowMatrixInner2"></feColorMatrix>
            <feGaussianBlur stdDeviation="0.5" in="SourceAlpha" result="shadowBlurInner3"></feGaussianBlur>
            <feOffset dx="0" dy="-2" in="shadowBlurInner3" result="shadowOffsetInner3"></feOffset>
            <feComposite in="shadowOffsetInner3" in2="SourceAlpha" operator="arithmetic" k2="-1" k3="1" result="shadowInnerInner3"></feComposite>
            <feColorMatrix values="0 0 0 0 0   0 0 0 0 0.862745098   0 0 0 0 0.976470588  0 0 0 1 0" type="matrix" in="shadowInnerInner3" result="shadowMatrixInner3"></feColorMatrix>
            <feMerge>
                <feMergeNode in="shadowMatrixInner1"></feMergeNode>
                <feMergeNode in="shadowMatrixInner2"></feMergeNode>
                <feMergeNode in="shadowMatrixInner3"></feMergeNode>
            </feMerge>
        </filter>
    </defs>
    <g id="组件" stroke="none" stroke-width="1" fill="none" fill-rule="evenodd">
        <g id="画板备份" fill-rule="nonzero">
            <g id="西北" transform="translate(0.000000, 0.070796)">
                <g>
                    <use fill="#0B9BF2" xlink:href="#path-1"></use>
                    <use fill="black" fill-opacity="1" filter="url(#filter-2)" xlink:href="#path-1"></use>
                    <path stroke="#FFFFFF" stroke-width="1" d="M233.856327,90.3323916 L233.95998,90.536547 L233.943172,90.1205395 L233.856327,90.3323916 Z M234.256813,92.7023495 L234.864451,93.2425766 L235.013089,92.4038251 L234.256813,92.7023495 Z M233.047361,95.7156737 L233.4343,95.9337274 L233.218276,95.3057254 L233.047361,95.7156737 Z M236.428007,97.6905092 L236.596881,97.6905092 L236.293717,97.5881165 L236.428007,97.6905092 Z M237.193851,98.2744428 L237.680963,98.6458521 L237.655296,97.8715885 L237.193851,98.2744428 Z M236.930678,101.499683 L237.076187,101.009755 L236.444056,101.343472 L236.930678,101.499683 Z M241.814734,103.067522 L241.967113,103.116438 L241.719078,102.939216 L241.814734,103.067522 Z M244.904491,104.432031 L245.180277,104.365473 L244.7059,104.229423 L244.904491,104.432031 Z M246.019499,105.569594 L246.196866,105.750548 L246.060545,105.319556 L246.019499,105.569594 Z M252.47259,110.674482 L252.607914,110.714952 L252.378442,110.569187 L252.47259,110.674482 Z M253.11316,111.390896 L253.234127,111.526186 L253.107135,111.209511 L253.11316,111.390896 Z M259.181862,111.426384 L259.299256,111.349853 L259.041792,111.430755 L259.181862,111.426384 Z M261.930035,111.340628 L262.270058,111.330018 L261.795331,111.028246 L261.930035,111.340628 Z M269.138417,114.547723 L269.260507,114.065821 L268.65582,114.428413 L269.138417,114.547723 Z M270.024805,114.766861 L270.36719,114.851507 L269.989676,114.415922 L270.024805,114.766861 Z M274.335577,118.518251 L274.676628,118.684076 L274.403301,118.145119 L274.335577,118.518251 Z M276.391958,121.669574 L276.475508,121.765749 L276.364617,121.545145 L276.391958,121.669574 Z M283.930381,131.810586 L284.18802,131.889072 L283.854165,131.552267 L283.930381,131.810586 Z M286.220109,136.18567 L286.380074,136.386449 L286.290045,135.938668 L286.220109,136.18567 Z M286.349692,138.784367 L286.743896,139.042043 L286.583339,138.375463 L286.349692,138.784367 Z M285.598425,147.09308 L285.720031,147.232604 L285.596972,146.908005 L285.598425,147.09308 Z M285.608398,148.363997 L285.609937,148.560088 L285.740576,148.219142 L285.608398,148.363997 Z M281.932663,160.474073 L282.024763,160.579916 L281.909072,160.335767 L281.932663,160.474073 Z M283.451741,162.694715 L283.882603,162.833133 L283.546655,162.252229 L283.451741,162.694715 Z M287.816995,163.949683 L287.933878,163.944575 L287.70998,163.902402 L287.816995,163.949683 Z M293.253413,165.062808 L293.518276,164.928757 L293.008919,164.89445 L293.253413,165.062808 Z M302.332043,166.333872 L302.404029,166.332408 L302.262568,166.314965 L302.332043,166.333872 Z M308.229241,166.712477 L308.328089,166.702914 L308.134242,166.683539 L308.229241,166.712477 Z M326.688138,168.181342 L326.767392,168.191852 L326.616404,168.146914 L326.688138,168.181342 Z M339.534178,174.759273 L339.684874,174.869859 L339.492208,174.579058 L339.534178,174.759273 Z M344.075644,177.363352 L344.174142,177.39691 L343.998713,177.293284 L344.075644,177.363352 Z M357.53033,180.305841 L358.263908,180.242393 L357.741911,179.600578 L357.53033,180.305841 Z M359.926087,185.475368 L360.153362,185.542609 L359.834261,185.256866 L359.926087,185.475368 Z M365.227201,195.515137 L365.294595,195.619735 L365.216442,195.391834 L365.227201,195.515137 Z M372.521777,204.644283 L372.63166,204.748023 L372.487748,204.497046 L372.521777,204.644283 Z M378.709238,207.304831 L378.761809,207.300246 L378.656869,207.29834 L378.709238,207.304831 Z M386.819068,206.875732 L387.188691,206.783613 L386.632127,206.543828 L386.819068,206.875732 Z M397.171508,225.255982 L397.367083,225.603215 L397.466377,224.987889 L397.171508,225.255982 Z M400.411197,235.254993 L400.638328,235.182591 L400.211951,235.124105 L400.411197,235.254993 Z M405.779663,238.781611 L405.916517,238.871512 L405.722499,238.628172 L405.779663,238.781611 Z M405.944206,239.223269 L406.007727,239.393771 L406.005121,239.051818 L405.944206,239.223269 Z M414.929933,241.061852 L415.006133,240.987577 L414.830092,241.098661 L414.929933,241.061852 Z M419.818646,239.259501 L419.912342,239.224958 L419.718871,239.255404 L419.818646,239.259501 Z M428.053209,238.129061 L428.216812,238.0001 L427.846438,238.10371 L428.053209,238.129061 Z M434.464901,238.915171 L434.665988,238.939825 L434.337691,238.757495 L434.464901,238.915171 Z M436.422662,241.341798 L436.515798,241.45724 L436.407545,241.194243 L436.422662,241.341798 Z M436.589876,242.973977 L436.614984,243.219051 L436.768905,242.804741 L436.589876,242.973977 Z M431.31123,249.267069 L431.23864,249.387761 L431.436142,249.202009 L431.31123,249.267069 Z M429.203968,255.549287 L429.349195,255.544704 L429.078903,255.475322 L429.203968,255.549287 Z M436.930411,258.750189 L437.185184,258.806937 L436.831321,258.508712 L436.930411,258.750189 Z M440.895882,262.136602 L441.299252,262.222825 L440.903864,261.724196 L440.895882,262.136602 Z M446.588515,263.592076 L447.08064,263.593814 L446.582444,263.099984 L446.588515,263.592076 Z M448.4392,269.423983 L448.773082,269.289554 L448.20576,269.150022 L448.4392,269.423983 Z M451.996046,270.108003 L453.330572,269.673944 L452.755455,268.927891 L451.996046,270.108003 Z M454.480276,272.428335 L454.876517,272.532794 L454.504876,272.019296 L454.480276,272.428335 Z M458.035809,274.511009 L458.123698,274.53555 L457.962255,274.457004 L458.035809,274.511009 Z M460.699487,275.130374 L460.870042,275.043794 L460.514693,275.081017 L460.699487,275.130374 Z M464.176796,274.357684 L464.216391,274.187293 L464.039613,274.466227 L464.176796,274.357684 Z M464.12576,268.214331 L463.231174,267.523392 L463.012734,268.411445 L464.12576,268.214331 Z M473.391829,265.977927 L473.581565,265.916535 L473.212248,265.892453 L473.391829,265.977927 Z M488.463752,264.395178 L488.539514,264.343831 L488.374714,264.416358 L488.463752,264.395178 Z M497.697727,262.489378 L497.788742,262.485013 L497.613178,262.462961 L497.697727,262.489378 Z M499.582246,263.078181 L500.063549,263.22856 L499.736692,262.598168 L499.582246,263.078181 Z M501.556756,268.189614 L501.692968,268.370735 L501.603176,267.967795 L501.556756,268.189614 Z M501.142416,270.169547 L501.084579,270.445918 L501.408951,270.076353 L501.142416,270.169547 Z M496.338363,274.979253 L496.264807,275.094429 L496.460277,274.917503 L496.338363,274.979253 Z M489.830709,280.782261 L489.897086,280.855939 L489.797477,280.688828 L489.830709,280.782261 Z M490.614097,282.98475 L490.782811,283.459088 L491.089583,282.819301 L490.614097,282.98475 Z M493.077694,289.688934 L493.175666,289.711817 L492.996198,289.629938 L493.077694,289.688934 Z M505.810839,294.008176 L505.90336,293.700653 L505.492695,294.051938 L505.810839,294.008176 Z M508.110985,293.691781 L508.202364,293.679212 L508.021135,293.670918 L508.110985,293.691781 Z M518.84495,291.455104 L518.917346,291.414924 L518.763466,291.469801 L518.84495,291.455104 Z M521.611333,290.956121 L521.667609,290.94597 L521.554218,290.953304 L521.611333,290.956121 Z M525.845945,289.80676 L525.960989,289.591882 L525.605808,289.848496 L525.845945,289.80676 Z M528.139062,283.55706 L528.042071,283.386678 L528.094392,283.747958 L528.139062,283.55706 Z M528.31487,282.805751 L528.35369,282.639854 L528.182828,282.913426 L528.31487,282.805751 Z M529.086828,279.065946 L529.06464,278.978245 L529.076881,279.155862 L529.086828,279.065946 Z M529.458741,275.704214 L529.465828,275.640151 L529.435639,275.764386 L529.458741,275.704214 Z M530.317862,273.466571 L530.356148,273.366852 L530.242171,273.54194 L530.317862,273.466571 Z M531.53008,271.320319 L531.356052,270.936298 L531.180966,271.556703 L531.53008,271.320319 Z M534.14067,267.620139 L534.270999,267.283794 L533.780386,267.602543 L534.14067,267.620139 Z M536.604046,265.604145 L536.612444,265.158262 L536.160107,265.646578 L536.604046,265.604145 Z M541.430996,264.118134 L541.554935,264.038867 L541.283877,264.117645 L541.430996,264.118134 Z M543.915301,264.126383 L544.317669,264.127719 L543.830547,263.733041 L543.915301,264.126383 Z M546.687631,269.001009 L546.982917,269.085028 L546.628966,268.699659 L546.687631,269.001009 Z M546.810347,269.631376 L546.862335,269.898426 L547.00634,269.442684 L546.810347,269.631376 Z M541.978563,276.86574 L541.958034,277.001098 L542.065184,276.759721 L541.978563,276.86574 Z M550.562445,283.772876 L550.714172,283.739684 L550.418615,283.71426 L550.562445,283.772876 Z M552.979332,284.757857 L553.06346,284.792143 L552.912641,284.696169 L552.979332,284.757857 Z M554.289642,285.969885 L554.546222,286.20722 L554.424399,285.647392 L554.289642,285.969885 Z M563.316746,289.554508 L563.563858,289.618365 L563.223498,289.316957 L563.316746,289.554508 Z M568.361814,291.688761 L568.57392,291.600714 L568.15682,291.58523 L568.361814,291.688761 Z M570.405772,291.529552 L570.517058,291.443083 L570.265711,291.545175 L570.405772,291.529552 Z M572.831171,291.259002 L572.884626,291.253039 L572.777671,291.253459 L572.831171,291.259002 Z M573.085546,291.285355 L573.555566,291.334049 L573.107637,290.813336 L573.085546,291.285355 Z M577.479322,286.921364 L577.477961,286.703381 L577.320536,287.070715 L577.479322,286.921364 Z M578.129376,286.309942 L578.434245,286.02319 L577.539739,285.124742 L577.156028,285.976653 L577.826343,286.01611 L578.129376,286.309942 Z M580.046289,282.672463 L579.784475,282.471678 L579.964655,282.992146 L580.046289,282.672463 Z M580.588314,280.549862 L580.612901,280.45358 L580.52878,280.629425 L580.588314,280.549862 Z M581.746361,279.002213 L581.825273,278.896753 L581.625733,279.055109 L581.746361,279.002213 Z M583.564832,277.100329 L583.624162,276.920254 L583.40102,277.19579 L583.564832,277.100329 Z M585.127785,276.189525 L585.267969,276.107834 L584.966344,276.17334 L585.127785,276.189525 Z M586.544027,274.820959 L586.440757,274.282202 L585.998032,274.873988 L586.544027,274.820959 Z M587.933484,273.186522 L588.010636,272.927342 L587.674349,273.263825 L587.933484,273.186522 Z M588.979988,272.87434 L589.12642,272.830657 L588.834153,272.8287 L588.979988,272.87434 Z M592.709017,268.946353 L592.795018,268.655007 L592.410816,269.004278 L592.709017,268.946353 Z M596.522328,266.958592 L596.599757,266.880119 L596.419078,266.997227 L596.522328,266.958592 Z M599.618767,262.918326 L599.475208,262.720024 L599.550169,263.153331 L599.618767,262.918326 Z M599.707843,262.613165 L599.835397,262.176184 L599.260845,262.527054 L599.707843,262.613165 Z M600.693756,262.803095 L600.829601,262.829264 L600.590683,262.710821 L600.693756,262.803095 Z M604.106016,264.121415 L604.217652,263.936212 L603.894608,264.166903 L604.106016,264.121415 Z M605.263565,263.872347 L605.580048,263.804251 L605.071911,263.61145 L605.263565,263.872347 Z M611.603778,261.885554 L611.696757,261.761033 L611.456596,261.935431 L611.603778,261.885554 Z M615.100488,260.700603 L615.208988,260.663835 L615.310703,260.863134 L615.327325,260.623733 L615.618336,260.525116 L615.341972,260.41278 L615.346388,260.349183 L615.310764,260.400094 L615.01251,260.278861 L615.174078,260.595433 L615.100488,260.700603 Z M615.473454,264.091684 L615.638554,264.074741 L615.330993,264.006537 L615.473454,264.091684 Z M616.450886,264.675883 L617.184977,265.114641 L617.19332,264.251396 L616.450886,264.675883 Z M614.966964,268.3802 L614.899617,268.557723 L615.135168,268.292124 L614.966964,268.3802 Z M613.062235,271.526492 L613.152874,271.752142 L613.183775,271.315871 L613.062235,271.526492 Z M611.4914,276.429443 L611.586859,276.622634 L611.566284,276.227384 L611.4914,276.429443 Z M610.956139,277.873731 L610.853213,278.151456 L611.249158,277.830551 L610.956139,277.873731 Z M607.526254,280.389316 L607.381722,280.553176 L607.744686,280.384067 L607.526254,280.389316 Z M605.745473,281.940292 L605.701093,282.129944 L605.906448,281.830636 L605.745473,281.940292 Z M608.495747,289.729689 L608.920794,290.096893 L608.909713,289.350037 L608.495747,289.729689 Z M608.87844,291.272615 L609.758769,291.791323 L609.828197,290.895786 L608.87844,291.272615 Z M609.344238,292.955463 L609.410662,293.146562 L609.429395,292.771944 L609.344238,292.955463 Z M608.840779,294.040447 L608.742254,294.252774 L609.066944,293.980122 L608.840779,294.040447 Z M607.902527,296.627486 L608.329188,296.778174 L608.010009,296.187948 L607.902527,296.627486 Z M607.794696,297.068456 L607.763675,297.195315 L607.883791,296.972971 L607.794696,297.068456 Z M605.302135,299.739775 L605.251912,299.7936 L605.365739,299.70271 L605.302135,299.739775 Z M603.110389,301.017006 L602.820751,301.185791 L604.07472,302.056467 L604.410137,301.148292 L603.110389,301.017006 Z M603.350444,302.437413 L603.652237,302.704931 L603.548012,302.085827 L603.350444,302.437413 Z M603.398207,304.357839 L603.73864,304.468454 L603.393199,303.99992 L603.398207,304.357839 Z M603.402512,304.665594 L603.406164,304.926698 L603.614706,304.513403 L603.402512,304.665594 Z M603.765597,306.267393 L603.812291,306.293075 L603.753552,306.299481 L603.645448,306.587469 L603.936588,306.36144 L604.144856,306.475988 L603.917711,305.862165 L603.765597,306.267393 Z M604.669627,308.598594 L604.879086,308.776348 L604.707342,308.326477 L604.669627,308.598594 Z M606.437688,323.254342 L606.502725,323.456966 L606.538625,323.066998 L606.437688,323.254342 Z M601.092595,336.347809 L601.099097,336.467375 L601.14096,336.238269 L601.092595,336.347809 Z M602.909467,339.658326 L603.028178,339.674945 L602.959934,339.764029 L603.091886,340.040404 L603.128613,339.689006 L603.175581,339.695582 L603.131315,339.663155 L603.146182,339.52091 L603.071037,339.619 L602.793693,339.415837 L602.909467,339.658326 Z M604.426116,342.645337 L604.843034,342.609906 L604.317754,342.241192 L604.426116,342.645337 Z M604.544818,343.088046 L604.641877,343.450032 L604.865036,342.893327 L604.544818,343.088046 Z M606.791093,346.191528 L607.298505,346.378607 L607.017319,345.700318 L606.791093,346.191528 Z M607.139533,349.113038 L607.68648,349.56038 L607.743353,348.746067 L607.139533,349.113038 Z M609.302562,351.910249 L609.510364,351.976644 L609.209894,351.712757 L609.302562,351.910249 Z M612.965111,355.281337 L613.199673,355.406688 L612.937948,355.016773 L612.965111,355.281337 Z M613.283607,358.383546 L613.300966,358.552632 L613.372896,358.238913 L613.283607,358.383546 Z M612.664035,359.387151 L612.607965,359.477975 L612.752303,359.32714 L612.664035,359.387151 Z M611.740347,360.015139 L611.61139,360.102813 L611.89628,360.016315 L611.740347,360.015139 Z M609.937416,360.878528 L609.841348,361.231013 L610.302426,360.862945 L609.937416,360.878528 Z M608.519069,361.418593 L608.170689,361.892299 L608.930615,361.838588 L608.519069,361.418593 Z M607.119996,360.802048 L606.784328,360.802048 L607.247098,361.112721 L607.119996,360.802048 Z M603.762038,360.547935 L603.662417,360.603542 L603.875919,360.541045 L603.762038,360.547935 Z M600.882305,360.722169 L600.712478,360.732445 L601.023153,360.817609 L600.882305,360.722169 Z M597.477942,360.229423 L597.377273,360.241456 L597.575347,360.257553 L597.477942,360.229423 Z M592.392853,359.601749 L592.252486,359.615863 L592.519896,359.663084 L592.392853,359.601749 Z M590.165267,359.627865 L590.01967,359.794986 L590.386874,359.623524 L590.165267,359.627865 Z M592.93046,362.968717 L593.403259,363.070257 L593.016162,362.492791 L592.93046,362.968717 Z M594.802115,365.482859 L594.95291,365.417035 L594.641698,365.446273 L594.802115,365.482859 Z M597.186175,366.026599 L597.247648,366.040619 L597.130107,365.997756 L597.186175,366.026599 Z M598.774755,366.843803 L599.010021,366.964829 L598.742478,366.581209 L598.774755,366.843803 Z M599.578104,369.139706 L599.690447,369.252125 L599.506644,369.200469 L599.303801,369.372945 L599.720171,369.281869 L599.961159,369.52302 L599.990942,368.788672 L599.578104,369.139706 Z M597.114968,369.88246 L596.886253,370.08335 L597.398443,369.993405 L597.114968,369.88246 Z M590.39471,370.402424 L590.510095,370.720287 L590.646763,370.176992 L590.39471,370.402424 Z M589.992952,375.853994 L590.138998,375.969115 L589.957628,375.671416 L589.992952,375.853994 Z M590.22389,377.047643 L590.255822,377.212688 L590.298153,376.89683 L590.22389,377.047643 Z M590.24696,379.387239 L590.457758,379.747573 L590.563887,379.115515 L590.24696,379.387239 Z M590.392143,381.444063 L590.587419,381.742991 L590.611516,381.162344 L590.392143,381.444063 Z M589.819857,382.178991 L589.678042,382.361111 L590.050455,382.168795 L589.819857,382.178991 Z M585.705856,382.360909 L585.266398,382.380342 L585.781114,382.794311 L585.705856,382.360909 Z M584.011612,380.820449 L583.909918,380.79411 L584.094109,380.885487 L584.011612,380.820449 Z M578.929578,378.268316 L578.819096,378.247899 L579.020705,378.334036 L578.929578,378.268316 Z M575.270463,376.520352 L575.135998,376.517121 L575.385158,376.590609 L575.270463,376.520352 Z M573.024425,375.144539 L572.934788,375.089632 L573.084364,375.230892 L573.024425,375.144539 Z M569.584979,374.565412 L569.445511,374.591107 L569.717169,374.616767 L569.584979,374.565412 Z M567.064317,374.780832 L566.927723,374.90718 L567.25028,374.774519 L567.064317,374.780832 Z M563.634886,375.844436 L563.39989,376.170704 L564.003975,376.003957 L563.634886,375.844436 Z M562.007901,375.141248 L561.929588,375.107401 L562.07056,375.199149 L562.007901,375.141248 Z M556.46992,372.413266 L556.328078,372.430874 L556.599638,372.473287 L556.46992,372.413266 Z M555.665263,372.040948 L555.44576,371.939383 L555.721895,372.276086 L555.665263,372.040948 Z M552.046316,372.014429 L551.852941,372.233685 L552.332232,372.075413 L552.046316,372.014429 Z M551.772615,371.95605 L551.671021,371.934381 L551.85717,372.016393 L551.772615,371.95605 Z M549.715494,370.487981 L549.471624,370.313943 L549.67704,370.785106 L549.715494,370.487981 Z M544.696604,367.794511 L544.160355,367.868368 L544.727747,368.334926 L544.696604,367.794511 Z M538.325189,368.900073 L538.093543,368.977336 L538.528546,369.035258 L538.325189,368.900073 Z M533.519591,367.327588 L533.413142,367.302661 L533.605922,367.394667 L533.519591,367.327588 Z M533.163345,367.050787 L532.776167,366.749952 L532.87014,367.443775 L533.163345,367.050787 Z M531.364162,365.736807 L531.22802,365.867883 L531.552967,365.728551 L531.364162,365.736807 Z M527.802083,366.783723 L527.589959,367.199696 L528.231573,366.966938 L527.802083,366.783723 Z M525.046265,367.554803 L524.618189,367.729508 L525.253878,367.967923 L525.046265,367.554803 Z M521.789093,367.350207 L522.098183,367.858047 L522.3424,367.132744 L521.789093,367.350207 Z M517.020637,369.22433 L516.780448,369.31873 L517.23672,369.365434 L517.020637,369.22433 Z M513.337215,369.148887 L513.041635,369.232401 L513.545324,369.374791 L513.337215,369.148887 Z M510.883893,368.566374 L510.641751,368.62171 L511.074275,368.725902 L510.883893,368.566374 Z M509.253965,368.191536 L509.009096,368.233542 L509.435339,368.361327 L509.253965,368.191536 Z M504.08548,365.834232 L503.798393,365.735238 L504.129999,366.134626 L504.08548,365.834232 Z M503.965367,365.023758 L503.883665,364.47247 L503.408477,365.045393 L503.965367,365.023758 Z M504.983362,362.708232 L504.313408,362.522645 L504.594282,363.284338 L504.983362,362.708232 Z M504.487499,359.726366 L504.150427,358.897488 L503.604921,359.579013 L504.487499,359.726366 Z M503.719286,358.118553 L503.564232,358.104379 L503.83888,358.218253 L503.719286,358.118553 Z M502.674739,357.247766 L502.594248,357.180664 L502.721513,357.34154 L502.674739,357.247766 Z M501.750533,355.394882 L501.671354,355.236143 L501.711964,355.568029 L501.750533,355.394882 Z M494.930017,353.149703 L494.83779,353.158277 L495.019194,353.174733 L494.930017,353.149703 Z M491.051527,352.611165 L490.362986,352.851666 L491.027594,353.340106 L491.051527,352.611165 Z M489.190383,351.769293 L489.075546,351.854724 L489.333032,351.75757 L489.190383,351.769293 Z M488.082407,351.860349 L487.98468,351.86838 L488.175929,351.889824 L488.082407,351.860349 Z M485.434566,351.025838 L484.947663,350.872383 L485.271014,351.509443 L485.434566,351.025838 Z M484.945501,349.000126 L484.577342,348.663375 L484.60953,349.368998 L484.945501,349.000126 Z M485.011749,347.700819 L484.771626,347.303121 L484.632741,347.969474 L485.011749,347.700819 Z M482.378529,345.00314 L482.079636,344.961047 L482.480508,345.287234 L482.378529,345.00314 Z M479.571662,343.788393 L479.44499,343.895018 L479.736937,343.778445 L479.571662,343.788393 Z M476.951494,344.987464 L476.868969,345.117015 L477.092519,344.926588 L476.951494,344.987464 Z M475.746771,346.670481 L476.292962,347.478837 L476.721935,346.699122 L475.746771,346.670481 Z M471.94378,348.329509 L471.80413,348.708221 L472.343425,348.386158 L471.94378,348.329509 Z M469.553731,350.807808 L469.707431,351.013711 L469.631662,350.562968 L469.553731,350.807808 Z M470.4206,352.375208 L470.991029,352.560242 L470.705195,351.847352 L470.4206,352.375208 Z M470.979862,353.273612 L471.697305,352.980715 L471.008667,352.49922 L470.979862,353.273612 Z M472.827966,355.290909 L473.063153,355.375658 L472.754645,355.051913 L472.827966,355.290909 Z M473.165979,356.392693 L473.286207,356.784585 L473.526691,356.197959 L473.165979,356.392693 Z M471.703406,357.182277 L471.530093,357.275842 L471.893969,357.232048 L471.703406,357.182277 Z M468.936666,359.211478 L469.231844,359.397825 L469.009879,358.870164 L468.936666,359.211478 Z M468.855208,359.591231 L468.72465,360.199889 L469.421377,359.850002 L468.855208,359.591231 Z M466.773613,360.200878 L466.622312,360.478519 L467.089309,360.218557 L466.773613,360.200878 Z M463.75651,361.453662 L463.602473,361.573347 L463.62929,361.422281 L463.174935,361.310208 L463.547495,361.883051 L463.598592,361.595211 L463.991725,361.511681 L463.75651,361.453662 Z M463.087632,359.857949 L462.480354,359.386097 L462.409955,360.22152 L463.087632,359.857949 Z M461.760163,356.304124 L461.764353,356.753411 L462.206448,356.252109 L461.760163,356.304124 Z M460.904986,359.669252 L461.380069,359.906056 L461.169759,359.20917 L460.904986,359.669252 Z M459.99848,361.244434 L459.743618,361.687293 L460.43571,361.508836 L459.99848,361.244434 Z M455.571035,360.211844 L455.428804,361.286833 L456.296219,361.018031 L455.571035,360.211844 Z M452.832198,366.463197 L453.142466,366.672684 L452.945852,366.106499 L452.832198,366.463197 Z M452.339317,368.010078 L452.284641,368.181676 L452.490857,367.912758 L452.339317,368.010078 Z M451.894042,368.296038 L451.220294,368.728725 L451.987093,369.091334 L451.894042,368.296038 Z M448.374863,369.087961 L448.199196,369.179754 L448.565711,369.141457 L448.374863,369.087961 Z M443.97199,368.847106 L444.497792,369.753011 L445.007007,369.007947 L443.97199,368.847106 Z M443.586516,370.589228 L443.601162,370.868045 L443.8162,370.43049 L443.586516,370.589228 Z M441.675455,371.909994 L441.352865,372.13294 L441.96886,372.170153 L441.675455,371.909994 Z M441.352157,371.623329 L440.866842,371.193006 L440.812483,371.983136 L441.352157,371.623329 Z M438.68473,367.301698 L438.523044,367.382229 L438.860554,367.343096 L438.68473,367.301698 Z M436.373702,368.972412 L436.204642,369.413862 L436.823935,369.116459 L436.373702,368.972412 Z M435.393547,368.658823 L435.281109,368.622849 L435.478022,368.741289 L435.393547,368.658823 Z M435.309757,368.577024 L434.97239,368.247679 L435.000776,368.933137 L435.309757,368.577024 Z M434.124816,364.86668 L433.82934,364.734229 L434.124816,365.190485 L434.124816,364.86668 Z M432.866601,363.995402 L432.600587,363.995402 L433.015245,364.216011 L432.866601,363.995402 Z M430.559102,364.036394 L430.44822,364.415474 L430.953554,364.056491 L430.559102,364.036394 Z M429.206308,365.568695 L429.264522,365.731529 L429.261134,365.404689 L429.206308,365.568695 Z M428.660359,367.201864 L428.483238,367.731708 L429.167389,367.436442 L428.660359,367.201864 Z M421.484617,364.779316 L421.126324,364.865543 L421.673028,365.096034 L421.484617,364.779316 Z M414.754979,360.857561 L414.541948,360.787067 L414.843918,361.063573 L414.754979,360.857561 Z M413.52224,359.056159 L413.111248,358.885845 L413.400867,359.484166 L413.52224,359.056159 Z M412.987717,357.17088 L412.822928,357.002959 L412.963379,357.40489 L412.987717,357.17088 Z M411.527674,355.080853 L411.403462,354.999992 L411.587753,355.216343 L411.527674,355.080853 Z M411.22957,354.408577 L411.056192,354.017576 L410.870144,354.640425 L411.22957,354.408577 Z M405.207583,350.253504 L404.617393,350.352459 L405.200033,350.851884 L405.207583,350.253504 Z M396.854354,349.951159 L396.813866,349.964078 L396.588504,349.737472 L396.636699,350.020608 L396.522796,350.056953 L396.648097,350.087569 L396.685189,350.305476 L396.774483,350.11845 L397.029311,350.180713 L396.837054,349.987395 L396.854354,349.951159 Z M394.064284,349.204461 L393.960072,349.50136 L394.377045,349.169969 L394.064284,349.204461 Z M390.53374,353.231984 L390.614438,353.42009 L390.608112,353.041289 L390.53374,353.231984 Z M392.164673,355.22485 L392.397936,355.300368 L392.081551,354.994187 L392.164673,355.22485 Z M395.11038,357.495486 L396.547684,357.792457 L396.430049,356.853218 L395.11038,357.495486 Z M393.435755,359.45357 L393.386119,359.605501 L393.564316,359.358603 L393.435755,359.45357 Z M392.265773,362.719612 L392.507286,363.199174 L392.761306,362.512838 L392.265773,362.719612 Z M391.760801,363.407954 L392.088194,364.001513 L392.424566,363.270423 L391.760801,363.407954 Z M395.106576,370.843534 L395.766638,371.193031 L395.681226,370.366452 L395.106576,370.843534 Z M394.90794,371.008444 L394.734787,371.152198 L395.130361,371.042738 L394.90794,371.008444 Z M389.865498,373.092064 L390.328262,373.627667 L389.206151,373.813738 L390.652895,374.497319 L390.784706,373.551979 L390.511014,373.597363 L390.746612,372.947426 L389.865498,373.092064 Z M390.328262,373.627667 L390.449263,373.767713 L390.511014,373.597363 L390.328262,373.627667 Z M388.137693,376.649258 L388.61314,377.645372 L389.200047,376.948755 L388.137693,376.649258 Z M387.229724,377.484321 L387.385062,377.942969 L387.683164,377.314378 L387.229724,377.484321 Z M386.702885,377.681772 L386.581146,377.727398 L386.83143,377.701224 L386.702885,377.681772 Z M382.83292,378.001192 L382.928645,378.752408 L383.561351,378.20826 L382.83292,378.001192 Z M381.564928,378.40801 L381.35048,378.590355 L381.832054,378.496784 L381.564928,378.40801 Z M380.229054,380.156164 L380.498286,380.545221 L380.602662,379.865873 L380.229054,380.156164 Z M380.803337,382.772348 L380.99094,383.043473 L380.978643,382.493115 L380.803337,382.772348 Z M380.620806,383.063092 L380.460046,383.319156 L380.922242,383.086513 L380.620806,383.063092 Z M379.917743,383.008464 L379.755399,382.99585 L380.041525,383.11426 L379.917743,383.008464 Z M376.753746,382.284955 L376.614836,382.289452 L376.875051,382.352789 L376.753746,382.284955 Z M375.236443,381.436479 L375.163681,381.39579 L375.292068,381.498573 L375.236443,381.436479 Z M370.269287,380.366614 L370.554346,381.064304 L371.022916,380.375225 L370.269287,380.366614 Z M370.921276,382.738878 L371.040646,382.812235 L370.857406,382.614175 L370.921276,382.738878 Z M371.248742,383.378239 L371.363038,383.601395 L371.359212,383.153163 L371.248742,383.378239 Z M370.775522,384.342402 L370.535748,384.830931 L370.836187,384.94765 L370.620134,385.10418 L371.337818,385.244621 L371.253866,385.109918 L371.691823,385.280063 L371.579538,384.409096 L371.054266,384.789653 L370.775522,384.342402 Z M364.749921,382.777922 L364.37964,383.05235 L365.053534,383.124675 L364.749921,382.777922 Z M360.004838,381.823419 L359.679793,381.915088 L360.211252,382.090723 L360.004838,381.823419 Z M358.103941,379.361775 L357.760881,378.917516 L357.623139,379.651405 L358.103941,379.361775 Z M358.82175,378.122107 L358.397884,377.685951 L358.31185,378.453613 L358.82175,378.122107 Z M357.40573,375.60807 L357.199306,375.568791 L357.522124,375.783016 L357.40573,375.60807 Z M352.798117,374.438075 L352.597505,374.44189 L352.945716,374.573996 L352.798117,374.438075 Z M350.580887,373.155129 L349.848419,372.932255 L350.082336,373.736186 L350.580887,373.155129 Z M348.472914,370.976441 L348.372696,370.951249 L348.554935,371.039298 L348.472914,370.976441 Z M348.178135,370.750537 L347.608495,370.313994 L347.304359,370.710857 L347.571273,371.133654 L348.178135,370.750537 Z M342.247841,369.597811 L342.011944,369.733325 L342.489752,369.722273 L342.247841,369.597811 Z M340.491497,370.360953 L340.369986,370.667796 L340.821404,370.35207 L340.491497,370.360953 Z M336.976941,371.563131 L336.740319,371.829178 L337.305747,371.699724 L336.976941,371.563131 Z M335.125602,371.393671 L334.845198,371.531275 L335.372249,371.585314 L335.125602,371.393671 Z M332.840602,371.041712 L332.526902,371.081086 L333.01067,371.308235 L332.840602,371.041712 Z M327.131965,370.859309 L326.752333,371.109167 L327.416819,371.213438 L327.131965,370.859309 Z M324.854448,370.19299 L324.573528,370.287147 L325.071947,370.394175 L324.854448,370.19299 Z M319.824656,368.677057 L319.454466,368.736313 L319.985279,369.015808 L319.824656,368.677057 Z M316.408372,367.667455 L316.254434,367.712894 L316.559996,367.720105 L316.408372,367.667455 Z M312.560831,367.299203 L312.372972,367.462486 L312.804354,367.350664 L312.560831,367.299203 Z M306.521181,367.336452 L306.359697,367.371191 L306.67158,367.404746 L306.521181,367.336452 Z M306.080833,367.136496 L305.673281,366.951431 L305.94183,367.561968 L306.080833,367.136496 Z M301.713205,365.807338 L301.42634,365.906736 L301.933715,366.016016 L301.713205,365.807338 Z M297.122949,363.28272 L297.066755,363.267449 L297.174128,363.310496 L297.122949,363.28272 Z M293.861944,361.512941 L293.777319,361.467014 L293.923462,361.587012 L293.861944,361.512941 Z M292.546491,359.929076 L292.225057,359.542056 L292.157495,360.248116 L292.546491,359.929076 Z M288.212762,359.511755 L288.062595,359.722105 L288.471212,359.51262 L288.212762,359.511755 Z M282.940949,361.439824 L282.757327,361.591802 L283.174634,361.486783 L282.940949,361.439824 Z M280.993466,361.048484 L280.918737,361.033468 L281.060326,361.085085 L280.993466,361.048484 Z M275.661164,359.050219 L275.481199,359.039965 L275.793186,359.172949 L275.661164,359.050219 Z M273.754412,357.277667 L273.615079,357.148141 L273.772406,357.467053 L273.754412,357.277667 Z M269.772669,353.815962 L269.371255,353.619884 L269.622846,354.236834 L269.772669,353.815962 Z M268.528265,352.163805 L268.143942,351.998185 L268.432913,352.571287 L268.528265,352.163805 Z M266.243027,350.032637 L266.143054,349.987287 L266.314807,350.115696 L266.243027,350.032637 Z M264.160148,347.622461 L263.903331,347.325289 L263.932245,347.942346 L264.160148,347.622461 Z M264.639764,346.949271 L264.736071,346.814095 L264.481739,347.000022 L264.639764,346.949271 Z M267.003632,344.153126 L267.028757,343.958882 L266.853256,344.278623 L267.003632,344.153126 Z M266.58788,342.073859 L266.423017,341.928294 L266.591993,342.29375 L266.58788,342.073859 Z M265.548413,338.140298 L265.272003,338.0435 L265.599178,338.428732 L265.548413,338.140298 Z M265.449725,337.579579 L265.391739,337.250113 L265.16731,337.758889 L265.449725,337.579579 Z M263.095819,334.118706 L262.545701,334.169365 L263.091536,334.671135 L263.095819,334.118706 Z M261.77903,330.557705 L261.616438,330.51033 L261.879366,330.694136 L261.77903,330.557705 Z M261.106207,329.64284 L260.790313,329.213306 L260.657286,329.930517 L261.106207,329.64284 Z M261.634938,328.193846 L261.227726,328.12083 L261.63945,328.607528 L261.634938,328.193846 Z M261.630679,327.803363 L261.626485,327.418835 L261.260109,327.90611 L261.630679,327.803363 Z M265.212571,324.678359 L264.805283,324.256411 L264.731524,325.013795 L265.212571,324.678359 Z M265.380918,322.872315 L265.239415,322.656909 L265.287564,323.11254 L265.380918,322.872315 Z M261.772322,319.093229 L261.672656,319.08773 L261.862237,319.136575 L261.772322,319.093229 Z M260.294687,318.380895 L260.086043,318.280313 L260.35288,318.605089 L260.294687,318.380895 Z M260.095712,317.614325 L260.041722,317.406322 L259.981948,317.796638 L260.095712,317.614325 Z M260.214425,317.424082 L260.396826,317.131775 L259.876328,317.357716 L260.214425,317.424082 Z M261.156523,314.686324 L261.097823,314.670923 L261.209834,314.71532 L261.156523,314.686324 Z M255.117887,313.006059 L254.90852,313.08497 L255.316234,313.109596 L255.117887,313.006059 Z M249.191609,312.24399 L248.966653,312.330945 L249.399697,312.365915 L249.191609,312.24399 Z M247.14414,311.044316 L247.027116,310.975748 L247.210472,311.162622 L247.14414,311.044316 Z M244.946339,309.999174 L244.681758,310.022617 L245.113878,310.205288 L244.946339,309.999174 Z M238.69051,310.316774 L238.590841,310.353092 L238.79634,310.324055 L238.69051,310.316774 Z M234.654259,311.195057 L234.503769,311.302756 L234.838604,311.211286 L234.654259,311.195057 Z M229.502793,311.640466 L229.3944,311.668127 L229.61264,311.661633 L229.502793,311.640466 Z M228.300758,311.40884 L227.992024,311.349349 L228.380901,311.712868 L228.300758,311.40884 Z M225.003781,311.329304 L224.903079,311.399044 L225.125315,311.314009 L225.003781,311.329304 Z M222.410922,312.341337 L222.247155,312.525389 L222.656646,312.359052 L222.410922,312.341337 Z M218.685046,312.739715 L218.353224,312.881518 L218.924168,313.009964 L218.685046,312.739715 Z M214.659475,313.343426 L214.575426,313.400024 L214.758927,313.324016 L214.659475,313.343426 Z M212.153134,313.832586 L212.023328,313.85792 L212.278489,313.874745 L212.153134,313.832586 Z M206.268589,316.817674 L206.248123,316.921381 L206.329278,316.731124 L206.268589,316.817674 Z M204.342193,319.564963 L204.28082,319.652489 L204.43399,319.510185 L204.342193,319.564963 Z M202.904063,320.423141 L202.813374,320.477258 L203.00889,320.41032 L202.904063,320.423141 Z M197.051222,322.518006 L196.870435,322.697189 L197.302477,322.558767 L197.051222,322.518006 Z M196.542601,322.435492 L196.122669,322.367367 L196.542601,322.860914 L196.542601,322.435492 Z M184.60285,322.679627 L184.545741,322.709269 L184.665605,322.665409 L184.60285,322.679627 Z M177.944099,325.335581 L177.936378,325.659556 L178.242981,325.210326 L177.944099,325.335581 Z M173.966362,327.002566 L173.796012,327.073956 L174.142212,327.059065 L173.966362,327.002566 Z M168.785947,326.995316 L168.70759,327.032083 L168.872104,326.987028 L168.785947,326.995316 Z M163.752513,327.30326 L163.547808,327.288111 L163.887148,327.454571 L163.752513,327.30326 Z M161.16873,326.665327 L161.080301,326.676148 L161.255454,326.685715 L161.16873,326.665327 Z M156.824985,326.384439 L156.633502,326.418067 L156.988889,326.488994 L156.824985,326.384439 Z M155.064905,325.261679 L154.888572,325.149196 L155.108626,325.466214 L155.064905,325.261679 Z M150.189551,322.596989 L149.940343,322.781176 L150.465388,322.73821 L150.189551,322.596989 Z M144.477685,322.415897 L144.350187,322.533084 L144.650351,322.40267 L144.477685,322.415897 Z M143.054144,324.12231 L143.00359,324.404755 L143.323513,324.023458 L143.054144,324.12231 Z M138.130123,327.539317 L138.036029,327.872774 L138.475386,327.510316 L138.130123,327.539317 Z M136.590141,328.289816 L136.897866,328.793185 L137.324465,328.532392 L137.137157,328.068802 L136.590141,328.289816 Z M135.900017,328.568652 L135.840665,328.592633 L135.963495,328.560398 L135.900017,328.568652 Z M132.916345,328.956652 L132.864878,328.963344 L132.968089,328.960672 L132.916345,328.956652 Z M131.196433,328.823016 L131.023351,328.809567 L131.323939,328.940831 L131.196433,328.823016 Z M125.59256,327.612621 L125.391541,327.646453 L125.759934,327.72898 L125.59256,327.612621 Z M121.853218,327.761316 L121.812723,328.260249 L122.352104,327.802383 L121.853218,327.761316 Z M117.500279,327.402994 L117.334679,327.389362 L117.624781,327.513033 L117.500279,327.402994 Z M115.012029,326.462971 L114.69092,326.460909 L115.143725,326.755839 L115.012029,326.462971 Z M109.480817,329.287742 L109.452116,329.432338 L109.583372,329.181845 L109.480817,329.287742 Z M107.690819,331.136066 L107.612704,331.216726 L107.795922,331.096551 L107.690819,331.136066 Z M105.027275,334.764036 L104.927691,335.081905 L105.358974,334.733491 L105.027275,334.764036 Z M103.349853,337.625312 L103.881115,338.094389 L103.969926,337.282117 L103.349853,337.625312 Z M102.731217,340.10062 L102.726803,340.339574 L102.91994,339.953983 L102.731217,340.10062 Z M102.041829,340.636271 L101.947571,340.709509 L102.159006,340.613509 L102.041829,340.636271 Z M99.7324204,341.08487 L99.6178809,341.107119 L99.844977,341.115616 L99.7324204,341.08487 Z M92.9199779,341.585879 L92.7897527,341.609971 L93.0450544,341.62941 L92.9199779,341.585879 Z M89.5805006,342.623473 L89.3304609,343.080601 L90.0269386,342.892135 L89.5805006,342.623473 Z M87.9895403,342.200015 L87.7345872,342.333865 L88.2332669,342.353358 L87.9895403,342.200015 Z M79.9295388,338.677304 L79.5973747,338.690746 L80.0704517,338.978397 L79.9295388,338.677304 Z M77.6495858,337.762001 L77.5032984,337.739268 L77.7599145,337.860715 L77.6495858,337.762001 Z M76.9863264,337.168569 L76.9042296,337.095115 L77.0299536,337.269723 L76.9863264,337.168569 Z M74.7136432,331.899162 L74.5925481,331.618392 L74.518884,332.134882 L74.7136432,331.899162 Z M73.8923832,329.656128 L73.7789965,329.568027 L73.9417456,329.790968 L73.8923832,329.656128 Z M73.2135194,327.80173 L73.1119905,327.524391 L73.019636,328.024517 L73.2135194,327.80173 Z M71.2142597,325.79061 L70.8664591,326.086412 L71.5403554,326.110181 L71.2142597,325.79061 Z M67.7108841,325.144136 L67.6505909,325.162131 L67.7737556,325.141641 L67.7108841,325.144136 Z M63.1116985,325.326656 L62.9508042,325.333041 L63.2460818,325.415362 L63.1116985,325.326656 Z M59.5384753,324.39436 L59.4368428,324.39585 L59.6326228,324.432669 L59.5384753,324.39436 Z M52.4979131,322.132978 L52.3517238,322.129372 L52.6191207,322.214789 L52.4979131,322.132978 Z M50.2165958,320.593169 L50.052066,320.482117 L50.2601534,320.786832 L50.2165958,320.593169 Z M45.6380241,319.641023 L45.5542782,319.671908 L45.7272836,319.641023 L45.6380241,319.641023 Z M43.3098411,319.641023 L42.8750005,319.641023 L43.3701658,320.071659 L43.3098411,319.641023 Z M40.2343158,316.757584 L40.0561125,316.750297 L40.3676773,316.876008 L40.2343158,316.757584 Z M39.5947921,316.189691 L39.4601326,316.070114 L39.6222793,316.367669 L39.5947921,316.189691 Z M39.5284129,315.759889 L39.4667002,315.360302 L39.1505864,315.90385 L39.5284129,315.759889 Z M40.7312569,314.493088 L40.5994151,313.948874 L40.1756464,314.562718 L40.7312569,314.493088 Z M40.3449119,312.740194 L40.1580301,312.564239 L40.3108591,312.994607 L40.3449119,312.740194 Z M31.972334,305.664353 L31.8530884,305.984007 L32.3134605,305.658831 L31.972334,305.664353 Z M31.4665691,305.67254 L31.0688279,305.678979 L31.5622435,306.058657 L31.4665691,305.67254 Z M27.6824138,301.954417 L27.5543678,301.943416 L27.7892839,302.025801 L27.6824138,301.954417 Z M22.3519307,302.186887 L22.0585211,302.399082 L22.6450628,302.399465 L22.3519307,302.186887 Z M21.622597,301.657978 L21.4782197,301.553277 L21.6681209,301.830416 L21.622597,301.657978 Z M19.5419988,300.807026 L19.1982469,300.95463 L19.7806129,301.09515 L19.5419988,300.807026 Z M16.5307082,300.621548 L16.2644197,300.826275 L16.8209178,300.790667 L16.5307082,300.621548 Z M15.1723469,299.829969 L14.590951,299.491163 L14.6801802,300.288862 L15.1723469,299.829969 Z M15.7538658,298.443901 L15.7596831,297.924097 L15.2346815,298.417875 L15.7538658,298.443901 Z M19.3192478,297.989937 L19.6340307,297.830839 L19.0637691,297.746768 L19.3192478,297.989937 Z M22.8546323,297.620683 L22.9748622,297.44052 L22.6409687,297.656206 L22.8546323,297.620683 Z M22.8334122,292.476471 L22.5506429,292.413697 L22.9196222,292.752997 L22.8334122,292.476471 Z M22.5004272,291.408391 L22.4139902,291.131136 L22.3024255,291.620845 L22.5004272,291.408391 Z M22.6274705,288.178737 L22.4214857,288.021546 L22.6178112,288.437668 L22.6274705,288.178737 Z M21.7038122,284.901021 L21.5213279,284.830127 L21.7896451,285.076974 L21.7038122,284.901021 Z M20.6163463,282.671779 L20.5709424,282.578703 L20.6210455,282.775231 L20.6163463,282.671779 Z M20.5189377,280.527343 L20.5043612,280.206445 L20.2331364,280.67399 L20.5189377,280.527343 Z M20.6897648,277.415319 L20.4666948,277.519967 L20.9086485,277.528463 L20.6897648,277.415319 Z M8.05796705,276.705661 L7.92586263,277.026982 L8.40518676,276.717391 L8.05796705,276.705661 Z M6.13454893,276.640683 L6.01964092,276.636801 L6.23621993,276.694367 L6.13454893,276.640683 Z M4.35624929,275.701718 L3.88956886,275.455305 L4.08502013,276.154427 L4.35624929,275.701718 Z M2.93287876,271.805258 L2.81333748,271.547088 L2.77200167,272.039908 L2.93287876,271.805258 Z M3.37910785,271.154402 L3.51100229,270.962025 L3.14695132,271.176951 L3.37910785,271.154402 Z M3.37581048,268.584382 L3.03929169,268.598143 L3.51501554,268.891067 L3.37581048,268.584382 Z M0.7871024,265.30706 L0.295450941,264.946948 L0.337877313,265.718883 L0.7871024,265.30706 Z M2.19406943,262.479302 L2.14451835,261.930664 L1.64321056,262.475628 L2.19406943,262.479302 Z M5.19287483,256.767625 L4.73442544,256.504964 L4.90534312,257.2109 L5.19287483,256.767625 Z M7.23510929,252.758878 L6.60993068,252.357598 L6.62799503,253.186997 L7.23510929,252.758878 Z M8.00763304,252.214116 L8.17082087,252.099041 L7.81006821,252.185121 L8.00763304,252.214116 Z M11.000057,251.6403 L11.1753193,251.572211 L10.823357,251.576034 L11.000057,251.6403 Z M16.9951902,249.123146 L17.1506629,249.000786 L16.7980872,249.105994 L16.9951902,249.123146 Z M19.174272,247.899706 L19.260057,247.533107 L18.7982415,247.918556 L19.174272,247.899706 Z M20.253631,247.845599 L20.4058919,247.837967 L20.1230138,247.766981 L20.253631,247.845599 Z M20.7780885,245.646063 L20.528061,245.394491 L20.6232822,245.965183 L20.7780885,245.646063 Z M21.0424502,245.101105 L21.2585634,244.655606 L20.5948665,244.889344 L21.0424502,245.101105 Z M31.4050404,243.481592 L31.455957,243.445662 L31.3468623,243.503925 L31.4050404,243.481592 Z M33.0247172,242.859843 L33.5249694,242.66781 L32.8677234,242.347513 L33.0247172,242.859843 Z M34.6131752,245.445919 L35.2775624,245.683788 L35.057863,244.897974 L34.6131752,245.445919 Z M37.127067,248.089235 L37.3704355,247.965964 L36.891699,247.951301 L37.127067,248.089235 Z M39.8044864,247.335477 L39.9082189,247.137281 L39.5875881,247.390222 L39.8044864,247.335477 Z M41.4986068,246.907882 L41.623081,246.876465 L41.3743938,246.875447 L41.4986068,246.907882 Z M44.5745838,246.299305 L45.1091814,245.893295 L44.3386677,245.670829 L44.5745838,246.299305 Z M49.2785738,244.531862 L49.3136814,244.375985 L49.1595785,244.638493 L49.2785738,244.531862 Z M50.9223902,240.808781 L50.8922916,240.500373 L50.6595942,240.972976 L50.9223902,240.808781 Z M53.3873509,237.383009 L53.3838711,237.136967 L53.1945193,237.535865 L53.3873509,237.383009 Z M54.3866679,236.590859 L54.4780467,236.518424 L54.2726735,236.615399 L54.3866679,236.590859 Z M57.1143484,236.003668 L57.2675708,235.970684 L56.9697146,235.943285 L57.1143484,236.003668 Z M62.250591,236.439454 L62.3235505,236.433589 L62.179012,236.424159 L62.250591,236.439454 Z M72.4068863,235.708151 L72.5978701,235.669969 L72.2403968,235.607087 L72.4068863,235.708151 Z M77.5892918,233.269856 L77.661258,233.149419 L77.4651748,233.335273 L77.5892918,233.269856 Z M79.6836567,229.964422 L79.7020982,229.593462 L79.3231792,230.053907 L79.6836567,229.964422 Z M84.6502973,227.645981 L84.7635208,227.50686 L84.4744572,227.681403 L84.6502973,227.645981 Z M96.0239044,222.750918 L96.1174643,222.706121 L95.9202454,222.7548 L96.0239044,222.750918 Z M96.5306795,222.731942 L96.996334,222.714505 L96.4805286,222.268667 L96.5306795,222.731942 Z M103.850501,219.387344 L103.989681,219.217233 L103.631062,219.399812 L103.850501,219.387344 Z M110.104996,215.901404 L110.055207,215.671812 L109.960043,216.086282 L110.104996,215.901404 Z M109.472911,212.139612 L109.407299,212.004004 L109.452687,212.288897 L109.472911,212.139612 Z M109.548683,211.580309 L109.582336,211.331898 L109.329497,211.701956 L109.548683,211.580309 Z M109.119122,209.479249 L108.946185,209.365836 L109.161417,209.681687 L109.119122,209.479249 Z M108.872404,208.298387 L108.837294,208.130341 L108.796881,208.452557 L108.872404,208.298387 Z M110.084487,205.824068 L110.223022,205.541266 L109.769589,205.821287 L110.084487,205.824068 Z M112.616675,202.263277 L112.386823,202.145981 L112.654227,202.518581 L112.616675,202.263277 Z M112.553523,201.833927 L112.498648,201.460846 L112.209894,201.989233 L112.553523,201.833927 Z M115.389545,200.552167 L115.464089,200.518476 L115.308151,200.560345 L115.389545,200.552167 Z M117.12233,196.560942 L116.46437,196.420766 L116.798404,197.150547 L117.12233,196.560942 Z M114.520822,187.595757 L114.487995,187.537522 L114.537196,187.66057 L114.520822,187.595757 Z M111.688017,176.383116 L111.646018,176.216878 L111.619161,176.540144 L111.688017,176.383116 Z M112.272159,173.418362 L111.842799,172.905591 L111.65886,173.685099 L112.272159,173.418362 Z M106.240597,170.09634 L105.956213,170.144742 L106.424841,170.318312 L106.240597,170.09634 Z M104.518049,168.664756 L103.103555,168.384308 L103.233557,169.320138 L104.518049,168.664756 Z M107.393605,166.76676 L107.382741,166.175899 L106.809103,166.679625 L107.393605,166.76676 Z M110.602487,166.408229 L110.779224,166.330453 L110.419349,166.347026 L110.602487,166.408229 Z M113.415295,165.468463 L113.571917,165.326125 L113.204079,165.455105 L113.415295,165.468463 Z M117.538012,164.488707 L117.72325,164.382849 L117.333414,164.42822 L117.538012,164.488707 Z M121.297085,164.55993 L121.408433,164.485773 L121.163583,164.568574 L121.297085,164.55993 Z M123.899162,163.678037 L124.07307,163.393561 L123.569693,163.626838 L123.899162,163.678037 Z M128.736953,162.410251 L128.863911,162.367035 L128.60541,162.384131 L128.736953,162.410251 Z M133.177628,161.049231 L133.436002,160.92162 L132.937684,160.889643 L133.177628,161.049231 Z M134.400945,161.862868 L134.558299,161.967526 L134.352152,161.680295 L134.400945,161.862868 Z M136.42813,163.827256 L136.655379,163.813131 L136.268286,163.665109 L136.42813,163.827256 Z M142.38828,163.368308 L142.586049,163.310429 L142.207158,163.270035 L142.38828,163.368308 Z M145.346958,158.117196 L145.244677,158.09295 L145.430818,158.180574 L145.346958,158.117196 Z M143.392031,156.63973 L143.058237,156.387461 L143.202565,157.012772 L143.392031,156.63973 Z M147.456348,145.760086 L147.467407,145.658908 L147.406615,145.848889 L147.456348,145.760086 Z M154.060528,130.606477 L154.106213,130.501168 L153.974046,130.681139 L154.060528,130.606477 Z M155.603986,127.048815 L155.679524,126.687918 L155.236884,127.083294 L155.603986,127.048815 Z M157.404142,126.87974 L157.5965,126.861673 L157.249615,126.763767 L157.404142,126.87974 Z M160.22278,127.791201 L160.417925,127.800186 L160.085413,127.652302 L160.22278,127.791201 Z M162.088164,128.612192 L162.301212,128.564133 L161.908129,128.488551 L162.088164,128.612192 Z M177.999521,130.849263 L178.127772,130.842144 L177.884358,130.794479 L177.999521,130.849263 Z M182.126674,130.991967 L182.395453,130.946887 L181.943135,130.790503 L182.126674,130.991967 Z M183.228472,132.201365 L183.576715,132.583617 L183.622213,131.866166 L183.228472,132.201365 Z M187.45958,132.549007 L187.539771,132.259457 L187.166271,132.614121 L187.45958,132.549007 Z M191.298735,130.033251 L191.43699,129.90913 L191.112977,130.03697 L191.298735,130.033251 Z M197.303322,127.368634 L197.375528,127.137562 L197.077275,127.455297 L197.303322,127.368634 Z M197.864432,120.719427 L197.762311,120.557099 L197.831804,120.90841 L197.864432,120.719427 Z M196.841748,112.921519 L196.817458,112.804126 L196.810166,113.037163 L196.841748,112.921519 Z M199.8835,105.053599 L199.951075,104.91975 L199.754682,105.12815 L199.8835,105.053599 Z M201.553016,104.087406 L201.634596,104.040193 L201.459846,104.101675 L201.553016,104.087406 Z M204.098967,103.697474 L204.15655,103.688655 L204.040899,103.692819 L204.098967,103.697474 Z M209.196107,102.717776 L209.342662,102.609989 L209.014553,102.706181 L209.196107,102.717776 Z M214.623811,100.144829 L214.671891,100.042586 L214.536439,100.216465 L214.623811,100.144829 Z M216.613573,96.9739202 L216.56329,96.7277802 L216.446097,97.1611771 L216.613573,96.9739202 Z M216.331158,94.0298112 L216.220366,93.9098145 L216.349753,94.1920711 L216.331158,94.0298112 Z M216.215984,93.0247764 L216.181209,92.7213149 L215.961855,93.1942358 L216.215984,93.0247764 Z M218.296326,90.9653502 L218.454764,90.6398064 L217.937598,90.9164129 L218.296326,90.9653502 Z M222.44448,90.2002228 L222.59512,90.1461586 L222.290446,90.1567623 L222.44448,90.2002228 Z M229.019635,90.5028329 L229.105013,89.9306681 L228.465864,90.3355029 L229.019635,90.5028329 Z M231.825088,89.8085776 L231.899371,89.7804061 L231.745732,89.8123373 L231.825088,89.8085776 Z M233.54891,89.7269069 L233.871979,89.7116006 L233.402489,89.4385167 L233.54891,89.7269069 Z M249.352339,108.697582 L249.40769,108.731415 L249.290187,108.678995 L249.352339,108.697582 Z M291.864793,164.644828 L292.081379,164.74052 L291.653526,164.751753 L291.864793,164.644828 Z M425.953847,238.510574 L426.138639,238.518161 L425.808598,238.625066 L425.953847,238.510574 Z M462.20186,359.198336 L463.44489,358.531456 L464.362,356.936228 L462.98591,354.822666 L462.752211,355.446856 L462.7685,357.193372 L461.51356,357.339634 L460.805953,358.391438 L460.787541,358.49337 L462.20186,359.198336 Z M444.554294,369.949598 L443.945907,369.855055 L444.521996,369.334756 L444.554294,369.949598 Z M441.798772,370.123691 L442.26732,369.811305 L442.165217,370.552906 L441.798772,370.123691 Z M380.785343,379.202707 L379.364507,378.730522 L379.933346,377.971516 L380.785343,379.202707 Z M357.721447,378.424764 L358.261017,378.099733 L358.160448,378.876493 L357.721447,378.424764 Z M73.7981075,235.382838 L74.0039351,235.507781 L73.5720903,235.465856 L73.7981075,235.382838 Z" stroke-linejoin="square"></path>
                </g>
            </g>
        </g>
    </g>
</svg>