<?xml version="1.0" encoding="UTF-8"?>
<svg width="1004px" height="575px" viewBox="0 0 1004 575" version="1.1" xmlns="http://www.w3.org/2000/svg" xmlns:xlink="http://www.w3.org/1999/xlink">
    <!-- Generator: Sketch 57.1 (83088) - https://sketch.com -->
    <title>华南 2</title>
    <desc>Created with Sketch.</desc>
    <defs>
        <path d="M607.538636,546.197699 L609.052593,548.200575 L611.640553,548.301222 L613.19333,553.071891 L610.359513,554.78289 L609.686643,553.786485 L610.708887,553.534867 L609.285509,553.504673 L609.945439,554.511143 L608.703218,556.091301 L607.344539,556.554277 L607.435117,557.409777 L605.325929,559.6844 L605.571786,561.163911 L604.64012,562.562904 L604.989494,564.545651 L603.863732,564.867721 L603.048524,566.317038 L600.913456,566.186197 L599.515958,566.860532 L597.898482,568.108555 L597.096215,570.000719 L595.194063,569.557872 L592.489645,569.859813 L591.829715,572.265277 L590.263998,572.053918 L589.604068,573 L589.48761,572.979871 L589.332333,572.33573 L588.335968,572.1445 L587.831315,572.597412 L588.064232,571.762042 L587.430182,571.32926 L582.823612,571.289001 L581.684909,570.272466 L579.769818,570.342919 L579.291045,569.739037 L574.839753,568.370237 L574.995031,565.330697 L573.791629,563.90151 L574.38686,562.603163 L573.610472,560.409058 L574.684475,559.5133 L573.843388,558.989935 L573.972786,557.852624 L574.852693,556.725377 L575.69378,556.745507 L580.067434,553.94752 L584.454027,552.005032 L584.389328,551.381021 L583.017709,551.934579 L582.564816,551.209921 L584.208171,549.690151 L584.945739,549.458663 L588.064232,550.525521 L588.685342,549.04601 L589.953443,548.401869 L591.428581,548.271028 L593.110755,549.227175 L593.343672,548.572969 L593.822444,549.126528 L595.310522,548.442128 L596.604502,549.035945 L598.312556,548.36161 L598.881907,547.52624 L600.771119,548.01941 L602.362714,547.214234 L605.895281,548.391804 L606.283475,549.398275 L605.623545,547.123652 L607.538636,546.197699 Z M738.580023,433 L740.119859,433.946082 L739.524628,434.872035 L740.016341,435.717469 L738.696481,436.673616 L738.877638,437.790798 L740.313956,438.746945 L741.620876,441.534867 L741.38796,444.363048 L741.776154,445.097771 L742.68194,445.148095 L743.510088,444.634795 L745.34754,444.81596 L745.463998,445.520489 L747.31439,445.701653 L749.475337,444.081237 L750.704618,444.383178 L751.403368,442.329978 L752.127997,442.511143 L752.425612,442.058231 L753.771352,442.138749 L753.641954,443.245866 L754.897115,444.47376 L754.638318,445.570812 L756.126396,447.010065 L755.932299,447.32207 L758.740236,447.211359 L759.77542,446.285406 L760.293012,446.8289 L761.975187,445.721783 L763.76088,445.540618 L764.252592,446.094177 L765.339536,446.023724 L765.533633,446.788641 L766.685275,447.986341 L766.322961,448.237958 L766.568817,449.415528 L765.818308,448.187635 L764.692546,448.318476 L764.783124,447.473041 L763.735,447.382459 L763.812639,447.986341 L762.984492,447.764917 L762.906853,448.801582 L763.411505,448.137311 L765.947706,448.539899 L766.801733,449.787922 L765.870068,450.401869 L764.006736,450.109993 L764.123194,451.760604 L762.583358,452.092739 L763.527963,452.22358 L763.489144,452.938174 L761.690511,452.666427 L761.328197,453.471603 L760.603568,453.199856 L760.48711,454.176132 L761.975187,454.588785 L761.276438,455.172538 L762.311622,455.585191 L761.405836,456.088426 L761.949307,456.722502 L761.263498,457.145219 L761.017641,456.712437 L758.999032,457.265996 L757.84739,458.574407 L756.889844,458.413372 L757.16158,457.578001 L759.024912,456.984184 L761.004702,454.729691 L758.546139,454.94105 L757.588594,456.752696 L757.071001,455.856937 L756.255794,455.846873 L757.17452,454.457944 L756.398132,454.719626 L756.087576,454.135873 L755.259429,455.937455 L753.409037,455.182602 L753.551375,454.608914 L752.878505,454.870597 L754.159546,455.645579 L753.409037,456.823149 L752.619709,456.913731 L753.124361,457.376707 L755.375887,457.215672 L756.139336,457.658519 L755.8676,458.121495 L756.954543,459.520489 L756.022877,459.892883 L753.952509,458.886413 L752.994963,459.661395 L754.250124,459.892883 L754.625379,460.989935 L757.083941,459.812365 L757.446256,460.919482 L759.063731,460.567218 L757.873269,461.3422 L756.333433,461.483106 L756.48871,461.986341 L753.952509,462.00647 L754.185425,462.892164 L751.765682,464.905104 L755.091212,465.831057 L754.612439,467.089145 L753.629014,467.320633 L753.163181,470.249461 L751.144572,470.95399 L751.662164,471.950395 L752.994963,471.628325 L753.383158,472.051042 L752.813806,472.725377 L754.068967,473.963336 L754.107787,474.959741 L753.098482,475.1711 L752.852626,473.510424 L751.998599,474.174694 L752.774987,474.325665 L751.791562,474.597412 L750.58816,473.30913 L750.885776,472.946801 L749.100083,472.363048 L749.048323,473.842559 L748.233116,474.104242 L747.624945,473.007189 L745.800433,474.446441 L746.835617,474.859094 L746.952075,476.086988 L747.508487,475.291876 L749.320059,476.187635 L748.194296,476.529835 L748.090778,477.324946 L746.305085,477.385334 L745.451058,476.781452 L744.959346,477.335011 L746.046289,478.029475 L745.075804,478.371675 L743.885342,478.009346 L744.66173,476.630482 L743.057195,476.781452 L743.290111,476.187635 L744.286476,476.117182 L741.633816,476.278217 L742.02201,477.153846 L743.096014,477.18404 L742.397265,477.938893 L742.901917,478.281093 L741.36208,478.220705 L740.896247,478.72394 L742.70782,479.88138 L743.639486,479.096334 L743.121894,480.153127 L744.053559,480.364486 L742.03495,480.475198 L741.970251,481.129403 L743.173653,481.632638 L741.349141,481.370956 L739.214073,482.025162 L738.321227,481.441409 L737.544838,481.984903 L737.803635,482.800144 L738.903518,482.548526 L739.007036,483.081955 L739.861063,483.122214 L738.812939,484.44069 L737.725996,484.400431 L738.256528,485.416966 L736.923728,486.574407 L736.406136,485.648454 L734.465165,484.893602 L734.296948,484.058231 L733.973453,485.427031 L731.838385,485.457225 L730.790261,486.373113 L730.18209,485.96046 L730.518525,484.752696 L729.768017,484.309849 L728.784592,485.739037 L730.246789,486.493889 L729.910355,487.500359 L728.474036,487.782171 L728.150541,485.900072 L727.55531,486.322789 L728.176421,486.826024 L727.167116,487.168224 L727.671769,487.641265 L725.64022,487.188354 L725.239086,487.882818 L725.510821,488.355859 L728.137602,488.1445 L727.477672,488.949676 L728.681073,488.869159 L729.315124,489.925953 L727.412973,491.01294 L727.050658,490.721064 L726.830681,491.294752 L726.196631,490.731129 L725.61434,491.224299 L726.157812,491.54637 L725.523761,493.307692 L724.30742,493.579439 L722.858162,495.129403 L723.893346,493.227175 L722.055894,493.599569 L722.262931,494.475198 L721.124228,495.280374 L721.253626,496.659238 L720.386659,497.695902 L720.606636,495.179727 L717.876338,494.39468 L717.526963,494.88785 L718.575087,495.069015 L718.820943,496.196262 L717.902217,497.152408 L717.306986,496.679367 L715.09428,497.534867 L715.327196,498.843278 L713.76148,499.054637 L711.43,497.812 L711.432316,497.816679 L713.77442,499.064702 L712.066366,500.111431 L711.78169,498.682243 L709.400766,499.316319 L709.983058,499.990654 L708.689077,499.879942 L708.236184,501.570812 L706.502251,502.808771 L707.17512,504.610352 L705.90702,504.167505 L704.858896,505.244428 L703.319059,505.294752 L703.370818,507.166786 L702.361514,508.374551 L698.906586,508.102804 L696.486843,509.74335 L694.131799,509.793674 L691.233283,511.081955 L690.288677,509.642703 L688.308887,509.300503 L686.354977,510.880661 L686.83375,511.484543 L686.989027,510.92092 L687.765416,510.94105 L687.209004,512.340043 L683.676438,511.484543 L683.624679,510.840403 L684.414007,511.001438 L684.802201,510.457944 L681.683708,510.528397 L682.097782,509.964774 L681.411972,509.813803 L680.855561,510.588785 L680.350908,510.095615 L678.798132,510.437815 L678.384058,511.565061 L677.59473,511.816679 L676.999499,510.709561 L675.65376,510.719626 L676.067833,511.504673 L677.426513,511.836808 L676.054894,513.78936 L676.029014,513.12509 L673.699849,512.923796 L673.751609,511.071891 L675.084408,510.417685 L674.385659,509.773544 L674.126863,510.478073 L670.878972,511.061826 L670.982491,511.816679 L670.141404,511.544932 L669.804969,512.370237 L671.357745,512.279655 L669.766149,513.648454 L670.529598,513.416966 L671.603601,514.433501 L669.817909,515.087707 L669.559112,513.910137 L668.096915,512.843278 L665.327797,513.779295 L664.266733,513.547807 L662.312823,514.322789 L660.591829,514.071172 L659.776621,514.976995 L659.375487,514.413372 L660.009538,513.950395 L659.116691,513.598131 L657.615674,511.182602 L656.205236,511.041697 L655.26063,510.206326 L655.390028,510.850467 L654.432482,511.172538 L656.037018,513.004313 L654.186626,515.369518 L654.173686,515.872753 L655.506486,516.104242 L654.561881,517.140906 L654.885376,517.956147 L653.707854,518.922358 L654.212506,519.717469 L653.436118,520.260963 L651.792763,518.660676 L651.456328,520.029475 L652.051559,520.301222 L651.32693,521.378145 L649.696515,520.462257 L648.350775,521.871316 L647.005035,520.281093 L646.68154,518.197699 L646.655661,518.952552 L645.37462,519.878505 L645.749875,521.931704 L644.028881,523.23005 L643.123095,522.24371 L641.842054,521.971963 L638.891779,524.447879 L635.825045,523.612509 L635.51449,524.850467 L633.224145,525.323508 L632.137202,524.045291 L630.869101,523.984903 L627.789428,525.132279 L627.776488,526.007908 L629.212806,526.259526 L626.637785,527.225737 L625.835517,527.265996 L626.249591,526.028037 L627.129498,526.088426 L627.452993,525.484543 L626.573086,525.766355 L625.524962,524.276779 L623.959246,524.347232 L625.421444,525.202732 L625.343805,525.92739 L623.105219,527.859813 L620.297282,528.010784 L619.857328,527.225737 L616.751776,529.228613 L617.243488,528.181884 L614.189695,528.604601 L613.063932,527.698778 L612.766316,528.413372 L613.879139,528.554277 L610.708887,529.641265 L608.832616,529.470165 L606.529331,531.764917 L603.009705,532.237958 L601.573386,533.858375 L605.157712,533.948958 L604.782458,535.861251 L603.799033,534.925234 L599.515958,535.619698 L601.004035,533.576564 L598.881907,535.066139 L599.399499,536.746945 L602.530932,537.290439 L602.543872,538.780014 L601.586326,538.377426 L601.689845,538.94105 L603.786093,539.253055 L604.924795,541.930266 L603.384959,543.933142 L601.211072,544.879224 L598.351375,545.090582 L596.009271,544.396118 L594.909388,545.362329 L595.025846,543.792236 L593.848324,542.886413 L594.663532,542.483825 L595.879873,543.188354 L596.500984,542.363048 L593.43425,541.598131 L593.382491,540.541337 L591.997932,539.836808 L592.450825,538.830338 L590.742771,536.213515 L591.49328,534.029475 L590.898049,533.234364 L592.476705,531.885694 L592.282608,530.134436 L594.805869,529.983465 L595.284642,528.846154 L592.968417,528.554277 L592.11439,527.094896 L592.429,525.731 L592.424946,525.726096 L592.10145,527.12509 L592.15321,528.675054 L590.483975,527.849748 L590.691012,526.762761 L590.238119,527.306254 L589.798166,527.054637 L589.280573,524.890726 L588.711222,524.991373 L589.280573,527.115025 L588.724162,528.040978 L584.001134,529.168224 L583.794097,528.534148 L583.522361,529.32926 L582.409538,529.429907 L580.533266,528.805895 L582.461297,527.879942 L582.111922,527.094896 L580.662664,526.541337 L578.398199,526.621855 L577.414774,525.635514 L577.634751,524.337168 L577.117158,525.544932 L577.67357,526.450755 L575.629081,526.732566 L573.972786,524.588785 L573.390495,525.222861 L572.782324,524.729691 L572.924662,523.179727 L572.38119,522.807333 L571.294247,523.57225 L572.808204,525.836808 L571.346006,527.27606 L569.948507,527.386772 L570.259063,525.836808 L569.405036,526.742631 L569.508554,525.997843 L568.667467,525.997843 L568.706286,527.074766 L566.985292,528.141625 L567.464065,526.541337 L565.924229,527.215672 L566.584159,527.678648 L565.561914,527.879942 L565.005503,527.376707 L562.779856,527.588066 L561.2012,526.017973 L555.779423,526.903666 L554.808938,525.877067 L553.100884,526.772825 L552.117459,524.840403 L550.978756,525.313444 L547.575588,523.773544 L548.144939,522.253774 L546.540403,522.424874 L543.408971,521.156722 L542.037352,521.599569 L542.15381,517.553559 L541.50682,516.687994 L539.992863,516.557153 L540.458696,516.124371 L539.966983,515.208483 L540.782191,513.115025 L542.82668,513.255931 L543.344272,511.192667 L544.508854,510.317038 L539.410572,508.354421 L538.970619,508.948239 L536.576755,509.622574 L535.386293,509.441409 L534.053493,507.780733 L530.883242,507.750539 L530.805603,508.445004 L528.709355,508.666427 L526.470769,506.774263 L523.831049,506.643422 L524.154544,505.616822 L523.287577,504.982746 L523.054661,504.237958 L524.076905,503.312006 L525.125029,502.768512 L525.74614,503.070453 L525.06033,502.114306 L527.609471,501.168224 L527.932966,500.503954 L530.546807,500.866283 L530.766783,501.439971 L533.083008,499.759166 L533.005369,496.639109 L534.001734,495.59238 L532.358379,493.408339 L530.805603,492.01941 L529.459863,492.109993 L529.136368,493.086269 L528.191762,493.408339 L527.066,492.784328 L525.280307,493.207045 L524.361581,491.86844 L523.171119,492.009346 L522.381791,493.478792 L519.690312,492.150252 L518.693947,492.814522 L517.399967,491.848311 L518.253994,491.153846 L517.399967,489.865564 L517.632883,489.120776 L515.239019,487.671459 L513.518026,488.134436 L509.791362,487.611071 L509.454927,489.32207 L508.031549,488.50683 L506.375254,485.829619 L506,484.752696 L506.802268,483.645579 L510.076038,485.185478 L511.91349,484.370237 L512.405203,483.494608 L515.019043,482.759885 L515.666033,481.069015 L517.891679,479.961898 L518.900984,480.847592 L521.411306,480.837527 L522.769985,482.59885 L524.219243,482.608914 L527.70005,484.048167 L529.69278,483.716032 L531.180857,484.943925 L533.665299,483.142344 L534.105253,481.783609 L533.264165,480.434939 L538.051893,479.55931 L540.406937,478.653487 L541.558579,477.516175 L545.388761,477.294752 L545.893413,476.409058 L546.967417,476.539899 L547.355611,475.060388 L546.540403,473.842559 L548.287277,472.695183 L548.157879,472.091301 L550.862298,471.44716 L550.926997,472.121495 L552.68681,473.107836 L552.208037,473.943206 L554.00667,474.406183 L554.200767,475.865564 L555.003035,475.704529 L554.899516,476.912293 L558.005069,475.49317 L558.483842,477.133717 L559.441387,476.529835 L559.829581,478.200575 L561.032983,478.21064 L563.504485,477.153846 L565.225479,477.113587 L565.704252,474.617541 L566.51946,474.245147 L565.924229,473.762042 L567.399366,473.963336 L568.706286,472.47376 L570.259063,473.762042 L571.488344,473.611071 L573.261097,475.402588 L573.248157,473.399712 L574.632716,472.62473 L574.322161,471.900072 L575.111489,471.225737 L576.289011,471.10496 L576.703085,472.544213 L578.812273,472.121495 L580.468567,472.634795 L581.037919,472.272466 L580.390929,470.873472 L581.024979,469.625449 L579.912156,469.685838 L578.876972,470.511143 L578.152343,469.967649 L579.291045,469.705967 L579.692179,468.961179 L581.671969,468.618979 L582.021344,469.43422 L582.771852,469.212797 L582.590695,468.629044 L583.703518,469.786485 L585.282174,469.595255 L585.295114,468.286844 L587.753677,465.448598 L588.504185,465.921639 L590.341637,465.21711 L591.674437,466.082674 L590.678072,467.542056 L592.748441,467.723221 L593.382491,467.028756 L592.81314,465.609633 L594.08124,465.418404 L595.672836,463.093458 L596.669201,463.647017 L597.626746,463.485981 L597.329131,465.247304 L598.752509,465.609633 L599.425379,464.905104 L600.357045,466.39468 L601.534567,466.213515 L602.375654,464.542775 L604.510722,463.37527 L606.218776,461.161035 L607.823311,461.754853 L608.327964,461.442847 L608.651459,462.358735 L611.278239,462.278217 L612.067567,460.456506 L612.50752,461.362329 L616.881174,462.167505 L616.919993,464.059669 L615.845989,465.820992 L616.143605,467.370956 L617.13997,467.974838 L617.929298,467.310568 L620.569018,467.813803 L619.469134,468.226456 L619.714991,469.122214 L617.502284,469.917326 L618.071636,471.457225 L617.372886,473.721783 L614.137935,475.946082 L614.215574,476.902229 L612.468701,477.687275 L611.808771,479.921639 L612.455761,481.008627 L613.296848,480.948239 L614.099116,480.706686 L614.124996,479.498922 L616.894113,477.898634 L618.123395,478.572969 L618.964482,478.099928 L619.637352,478.522646 L619.339736,479.317757 L620.154944,479.619698 L619.546773,480.273904 L620.336101,482.709561 L619.650291,484.511143 L621.654,484.942 L622.048822,484.293356 L622.463,484.293 L624.036885,482.92092 L629.141,483.547 L629.212806,483.524802 L631.386693,482.135873 L631.684308,481.07908 L630.752643,480.112868 L632.2666,477.063264 L633.107687,477.657081 L634.776921,477.20417 L635.346273,477.898634 L636.122661,477.345075 L637.701317,478.120058 L639.590528,478.059669 L641.596198,481.330697 L642.928997,481.330697 L645.309921,480.867721 L644.831149,479.53918 L645.4005,478.72394 L644.649991,477.707405 L645.749875,477.173976 L644.869968,476.34867 L643.045456,476.439252 L642.941937,475.241553 L644.05476,475.624012 L645.465199,475.060388 L647.302651,474.1445 L647.820243,473.087707 L650.071769,472.634795 L650.239986,473.661395 L651.262231,474.3156 L654.044288,474.798706 L654.678339,475.533429 L657.563915,474.838965 L657.770952,475.32207 L658.676738,475.291876 L659.750742,473.812365 L660.980023,473.520489 L662.209304,474.838965 L662.118726,476.358735 L663.580923,475.553559 L667.889878,475.473041 L670.309621,474.063983 L673.622211,476.00647 L672.716424,477.506111 L673.518692,478.250899 L672.172953,478.844716 L670.762514,478.734004 L670.296681,479.609633 L668.032216,480.595974 L668.109854,481.632638 L666.984092,483.444285 L664.422011,484.491014 L666.143004,485.115025 L666.608837,485.890007 L667.411105,485.678648 L668.627447,487.077642 L672.35411,485.80949 L673.182257,486.483825 L673.777488,485.316319 L675.809037,486.051042 L676.481907,484.621855 L679.069868,484.028037 L679.794497,484.621855 L684.750441,482.981308 L685.772686,483.283249 L687.299583,485.185478 L688.981757,485.517613 L689.680506,486.322789 L691.621477,485.98059 L690.314557,483.464414 L691.297982,481.280374 L692.669601,481.622574 L692.371985,480.817398 L693.184,480.978 L693.188,480.972 L692.359046,480.807333 L692.72136,480.092739 L692.216708,479.599569 L693.161313,479.146657 L691.932032,476.932423 L694.481173,475.362329 L694.157678,473.419842 L695.257562,471.920201 L695.192863,470.239396 L697.211472,469.021567 L696.422144,467.843997 L700.278205,466.344357 L700.666399,465.287563 L702.257995,464.291157 L701.92156,463.385334 L700.756978,463.284687 L700.808737,462.066858 L702.749708,460.194824 L704.108387,460.547088 L704.703618,459.248742 L703.112022,457.869878 L703.590795,456.772825 L702.659129,455.836808 L703.422577,455.001438 L703.25436,453.964774 L705.648224,451.88138 L709.659563,451.378145 L711.406436,450.291157 L711.678172,449.244428 L713.373286,447.795111 L712.338102,446.949676 L712.48044,444.654925 L711.949908,443.628325 L710.979422,443.678648 L710.927663,442.420561 L711.587593,442.108555 L712.273403,442.742631 L712.389861,441.937455 L713.968517,441.917326 L715.547173,440.629044 L715.327196,439.25018 L715.961247,438.837527 L716.232983,439.451474 L719.183258,437.569375 L720.516057,439.260244 L722.612306,440.226456 L724.643855,438.173257 L727.464732,437.589504 L728.525796,437.941769 L729.043388,436.623293 L732.666533,436.029475 L733.106486,434.731129 L732.226579,434.197699 L734.012272,433.281812 L735.008637,434.016535 L735.163915,433.432782 L736.432015,433.291876 L736.923728,433.795111 L738.580023,433 Z M606.050558,535.478792 L606.749308,535.760604 L606.218776,536.696621 L605.468267,536.636233 L606.050558,535.478792 Z M606.438752,532.046729 L605.015374,533.657081 L604.873036,532.278217 L606.438752,532.046729 Z M643.226613,524.367362 L642.049091,525.514738 L642.243188,526.883537 L641.531499,527.175413 L640.871569,526.551402 L641.777355,525.695902 L640.483375,525.363767 L643.226613,524.367362 Z M639.577588,525.142344 L639.745806,526.239396 L637.52016,526.883537 L638.594163,525.454349 L639.577588,525.142344 Z M649.735334,521.961898 L650.00707,522.676492 L649.101284,522.787203 L649.075404,522.082674 L649.735334,521.961898 Z M712.778055,500.916607 L713.205069,501.450036 L712.752176,502.214953 L709.763081,501.721783 L710.384192,501.228613 L710.940603,501.550683 L712.778055,500.916607 Z M717.190528,496.810208 L717.785759,497.504673 L719.131498,497.253055 L719.209137,497.766355 L718.691545,497.665708 L718.730365,498.561467 L717.69518,498.571531 L717.889277,499.578001 L715.948307,499.708843 L717.630481,498.329978 L716.310621,498.128684 L717.190528,496.810208 Z M751.105752,476.278217 L752.813806,476.982746 L752.438552,477.586628 L750.665799,477.03307 L751.105752,476.278217 Z M756.178155,470.571531 L756.204035,471.356578 L757.937968,471.98059 L756.669868,472.352983 L756.618108,472.98706 L757.485075,473.349389 L755.84172,473.751977 L755.738202,474.33573 L754.418342,473.268871 L755.557044,472.735442 L755.427646,471.557872 L754.974753,471.859813 L754.754777,471.457225 L756.178155,470.571531 Z" id="path-1"></path>
        <filter x="-3.3%" y="-6.1%" width="106.5%" height="112.1%" filterUnits="objectBoundingBox" id="filter-2">
            <feGaussianBlur stdDeviation="8" in="SourceAlpha" result="shadowBlurInner1"></feGaussianBlur>
            <feOffset dx="-1" dy="-1" in="shadowBlurInner1" result="shadowOffsetInner1"></feOffset>
            <feComposite in="shadowOffsetInner1" in2="SourceAlpha" operator="arithmetic" k2="-1" k3="1" result="shadowInnerInner1"></feComposite>
            <feColorMatrix values="0 0 0 0 0.206573933   0 0 0 0 0.918783158   0 0 0 0 1  0 0 0 1 0" type="matrix" in="shadowInnerInner1" result="shadowMatrixInner1"></feColorMatrix>
            <feGaussianBlur stdDeviation="0.5" in="SourceAlpha" result="shadowBlurInner2"></feGaussianBlur>
            <feOffset dx="0" dy="2" in="shadowBlurInner2" result="shadowOffsetInner2"></feOffset>
            <feComposite in="shadowOffsetInner2" in2="SourceAlpha" operator="arithmetic" k2="-1" k3="1" result="shadowInnerInner2"></feComposite>
            <feColorMatrix values="0 0 0 0 0.199599848   0 0 0 0 0.961825321   0 0 0 0 1  0 0 0 1 0" type="matrix" in="shadowInnerInner2" result="shadowMatrixInner2"></feColorMatrix>
            <feGaussianBlur stdDeviation="0.5" in="SourceAlpha" result="shadowBlurInner3"></feGaussianBlur>
            <feOffset dx="0" dy="-2" in="shadowBlurInner3" result="shadowOffsetInner3"></feOffset>
            <feComposite in="shadowOffsetInner3" in2="SourceAlpha" operator="arithmetic" k2="-1" k3="1" result="shadowInnerInner3"></feComposite>
            <feColorMatrix values="0 0 0 0 0   0 0 0 0 0.862745098   0 0 0 0 0.976470588  0 0 0 1 0" type="matrix" in="shadowInnerInner3" result="shadowMatrixInner3"></feColorMatrix>
            <feMerge>
                <feMergeNode in="shadowMatrixInner1"></feMergeNode>
                <feMergeNode in="shadowMatrixInner2"></feMergeNode>
                <feMergeNode in="shadowMatrixInner3"></feMergeNode>
            </feMerge>
        </filter>
    </defs>
    <g id="组件" stroke="none" stroke-width="1" fill="none" fill-rule="evenodd">
        <g id="画板备份" fill-rule="nonzero">
            <g id="华南-2" transform="translate(0.390033, 0.000000)">
                <g id="华南">
                    <use fill="#0B9BF2" xlink:href="#path-1"></use>
                    <use fill="black" fill-opacity="1" filter="url(#filter-2)" xlink:href="#path-1"></use>
                    <path stroke="#FFFFFF" stroke-width="1" d="M611.272947,548.787304 L611.621123,548.800844 L611.165104,548.455973 L611.272947,548.787304 Z M610.507914,554.109219 L610.101077,554.354859 L610.77388,554.503069 L610.507914,554.109219 Z M610.502147,554.100678 L610.10101,553.506664 L609.806147,554.271993 L610.502147,554.100678 Z M609.330211,554.484713 L609.527307,554.785307 L609.552361,554.20213 L609.330211,554.484713 Z M608.401706,555.665811 L608.31014,555.782288 L608.541947,555.618024 L608.401706,555.665811 Z M606.91397,557.23644 L606.937896,557.462422 L607.068483,557.069808 L606.91397,557.23644 Z M605.046183,561.051102 L605.078549,561.245874 L605.155624,560.886766 L605.046183,561.051102 Z M604.418917,564.188828 L604.497081,564.632418 L604.851967,564.064936 L604.418917,564.188828 Z M602.766349,565.798808 L602.612732,566.071915 L603.079108,565.817974 L602.766349,565.798808 Z M596.800032,569.418392 L596.635883,569.805541 L597.209589,569.513742 L596.800032,569.418392 Z M591.463229,571.711269 L591.347531,572.132992 L591.896604,571.769771 L591.463229,571.711269 Z M589.746785,571.921438 L589.193979,572.713946 L589.497036,572.92534 L589.48761,572.979871 L589.552712,572.964177 L589.604068,573 L589.612762,572.949701 L589.973687,572.862696 L589.746785,571.921438 Z M588.604263,571.686868 L588.18661,571.606709 L587.497353,572.225298 L588.312945,572.731699 L588.604263,571.686868 Z M583.016185,570.790665 L582.827981,570.78902 L583.15659,570.916005 L583.016185,570.790665 Z M580.004374,569.833952 L579.751436,569.843257 L580.16162,570.032288 L580.004374,569.833952 Z M575.358972,568.006794 L574.986715,567.892323 L575.339102,568.395747 L575.358972,568.006794 Z M574.378192,563.821845 L574.174101,563.579461 L574.246141,564.109882 L574.378192,563.821845 Z M574.197879,560.570219 L574.081832,560.242267 L573.930723,560.793036 L574.197879,560.570219 Z M574.375915,558.732403 L574.107547,558.565412 L574.340183,559.046458 L574.375915,558.732403 Z M574.453648,558.049183 L574.469581,557.909147 L574.366926,558.160282 L574.453648,558.049183 Z M575.09211,557.23125 L575.246833,557.033036 L574.84073,557.225234 L575.09211,557.23125 Z M583.219462,551.313972 L583.16492,551.335984 L583.208202,551.295956 L582.98882,550.944929 L582.923498,551.433417 L582.830583,551.470916 L582.914821,551.498301 L582.904296,551.577008 L582.970005,551.51624 L583.441713,551.669588 L583.219462,551.313972 Z M584.465134,550.13355 L584.547651,550.057238 L584.357896,550.167207 L584.465134,550.13355 Z M584.939028,549.984817 L585.095465,549.935719 L584.783895,549.931745 L584.939028,549.984817 Z M589.075351,549.40871 L589.146365,549.239551 L588.911783,549.491796 L589.075351,549.40871 Z M590.093797,548.891383 L590.179883,548.847655 L589.997619,548.899914 L590.093797,548.891383 Z M591.317239,548.782867 L591.472756,548.769073 L591.181505,548.705716 L591.317239,548.782867 Z M593.526876,549.549122 L593.814708,548.740672 L592.965497,548.900053 L593.526876,549.549122 Z M595.310752,548.992369 L595.519445,548.896387 L595.101979,548.896561 L595.310752,548.992369 Z M599.096599,548.09904 L599.295072,547.807834 L598.755617,548.010028 L599.096599,548.09904 Z M602.402384,547.754507 L602.588422,547.660391 L602.204595,547.688574 L602.402384,547.754507 Z M605.513586,548.791616 L605.737161,548.866144 L605.428777,548.571734 L605.513586,548.791616 Z M606.221424,547.389953 L606.103743,546.984333 L605.841191,547.573797 L606.221424,547.389953 Z M607.387064,546.826362 L607.756282,546.647844 L607.139767,546.499201 L607.387064,546.826362 Z M590.499512,572.590246 L590.197109,572.549424 L590.674088,572.339972 L590.499512,572.590246 Z M739.423328,434.104964 L739.858114,434.372097 L739.699265,433.675711 L739.423328,434.104964 Z M739.356742,435.577889 L739.584127,435.968849 L739.723008,435.312555 L739.356742,435.577889 Z M739.920552,439.085713 L740.036887,439.163157 L739.861232,438.959172 L739.920552,439.085713 Z M741.111635,441.626532 L741.168152,441.747095 L741.122563,441.493828 L741.111635,441.626532 Z M743.62956,445.148999 L743.773501,445.059781 L743.461028,445.132382 L743.62956,445.148999 Z M744.916785,445.275914 L745.29848,445.313547 L744.854234,444.897503 L744.916785,445.275914 Z M749.585933,444.623264 L749.775302,444.481263 L749.35607,444.566804 L749.585933,444.623264 Z M751.72847,442.926647 L751.876708,442.491067 L751.282095,442.815049 L751.72847,442.926647 Z M752.684575,442.57462 L752.84347,442.332813 L752.39575,442.557339 L752.684575,442.57462 Z M753.213307,442.606255 L753.741489,442.637857 L753.274732,442.080705 L753.213307,442.606255 Z M754.34565,444.633744 L754.547465,444.831174 L754.410472,444.35896 L754.34565,444.633744 Z M755.488576,447.088775 L755.778788,447.369465 L756.126396,447.010065 L755.701843,446.745953 L755.488576,447.088775 Z M759.747559,446.981166 L760.108765,446.658074 L759.413344,446.630226 L759.747559,446.981166 Z M762.147645,446.206853 L762.250069,446.139443 L762.025655,446.219229 L762.147645,446.206853 Z M763.556905,446.063879 L763.811347,446.038065 L763.387061,445.872672 L763.556905,446.063879 Z M764.95712,446.54956 L765.371877,446.522677 L764.854895,446.146701 L764.95712,446.54956 Z M765.070405,446.996005 L765.081528,447.039841 L765.307248,447.274587 L765.334648,447.018842 L765.070405,446.996005 Z M765.71295,447.696514 L765.918392,447.910173 L765.76586,448.016103 L766.079371,449.517716 L766.995438,449.154771 L766.430821,448.23101 L766.685275,447.986341 L766.40007,447.575661 L766.140458,447.755954 L766.078182,447.654065 L765.71295,447.696514 Z M765.256358,447.749582 L764.634822,447.821819 L765.1897,448.37174 L765.256358,447.749582 Z M763.221668,447.310768 L763.316721,448.050099 L763.941788,447.503308 L763.221668,447.310768 Z M763.628635,448.678038 L763.809642,448.43978 L763.333118,448.631129 L763.628635,448.678038 Z M765.656667,448.999961 L765.86932,449.033717 L765.535071,448.822268 L765.656667,448.999961 Z M766.101758,449.650389 L766.389098,450.070291 L766.52661,449.370421 L766.101758,449.650389 Z M765.756407,449.877968 L765.594944,449.984368 L765.947445,449.907893 L765.756407,449.877968 Z M763.593917,451.363267 L763.624434,451.795794 L764.017771,451.271844 L763.593917,451.363267 Z M761.255967,452.413651 L763.003749,452.655743 L762.98988,452.911052 L763.259902,452.691224 L763.459361,452.718852 L763.365627,452.605152 L763.563839,452.443785 L763.185468,452.386618 L763.028699,452.196458 L763.019729,452.361578 L761.390184,452.115378 L761.255967,452.413651 Z M761.064669,452.838773 L760.872233,453.266428 L761.503765,453.003441 L761.064669,452.838773 Z M759.966752,454.317078 L759.939775,454.543222 L760.923367,454.815978 L760.312308,455.326471 L760.929877,455.572651 L761.462953,454.965608 L761.841576,455.070603 L761.748629,454.640294 L762.201145,454.12499 L759.966752,454.317078 Z M761.148092,455.659638 L762.126476,456.049648 L762.068793,455.148116 L761.148092,455.659638 Z M760.872008,456.233914 L761.189019,456.603776 L761.001143,456.719579 L761.263498,457.145219 L761.525516,456.996371 L761.569672,457.04789 L761.582799,456.963829 L761.698244,456.898247 L761.615724,456.752986 L761.686952,456.296861 L761.44228,456.447672 L761.260351,456.12742 L760.872008,456.233914 Z M761.189019,456.603776 L761.525516,456.996371 L761.582799,456.963829 L761.615724,456.752986 L761.44228,456.447672 L761.189019,456.603776 Z M760.183348,456.422764 L758.722541,456.823358 L757.765941,457.910177 L759.309006,457.418423 L760.183348,456.422764 Z M757.655912,458.035184 L757.472067,458.244054 L757.930313,458.081331 L757.655912,458.035184 Z M757.544734,458.016486 L757.471172,458.004115 L757.557732,457.97653 L757.637057,457.732668 L757.379492,457.988697 L756.972767,457.920296 L757.365321,458.568039 L757.544734,458.016486 Z M757.569102,455.71958 L757.146542,456.51905 L758.021517,456.502542 L757.569102,455.71958 Z M757.178502,455.358227 L756.261966,455.346911 L756.672818,456.122719 L757.178502,455.358227 Z M756.64035,454.110349 L756.238433,454.245816 L756.839553,454.484791 L756.64035,454.110349 Z M755.00506,455.293684 L754.805128,455.728623 L755.44829,455.474495 L755.00506,455.293684 Z M753.998514,454.883071 L753.597898,454.719643 L753.894323,455.303007 L753.998514,454.883071 Z M753.462819,455.808461 L753.900738,456.073386 L753.737901,455.376849 L753.462819,455.808461 Z M753.115405,456.353564 L752.987392,456.554419 L753.352032,456.326409 L753.115405,456.353564 Z M755.258094,457.725374 L755.411557,457.714398 L755.125008,457.648176 L755.258094,457.725374 Z M755.45373,457.838855 L755.888457,458.091023 L755.708123,457.405426 L755.45373,457.838855 Z M756.152185,459.302735 L756.559708,459.827255 L756.768965,459.056204 L756.152185,459.302735 Z M756.042619,459.34653 L755.837299,459.428598 L756.241481,459.443202 L756.042619,459.34653 Z M753.871724,460.331527 L754.159439,460.38459 L753.777035,460.054706 L753.871724,460.331527 Z M754.272746,461.503913 L754.334265,461.683763 L754.717124,461.500386 L754.272746,461.503913 Z M756.785982,460.509471 L757.299928,460.263308 L756.608741,459.967879 L756.785982,460.509471 Z M756.922654,460.927099 L757.111487,461.504111 L759.17013,461.055766 L758.790945,460.148186 L757.70432,460.855571 L756.922654,460.927099 Z M755.81282,461.491689 L756.010937,462.133762 L756.484742,461.486357 L755.81282,461.491689 Z M753.620889,462.711402 L753.701866,463.019328 L753.865663,462.507779 L753.620889,462.711402 Z M754.428893,466.165663 L754.957095,466.312734 L754.623906,465.653221 L754.428893,466.165663 Z M754.239531,466.663258 L754.145133,466.911309 L754.497875,466.602446 L754.239531,466.663258 Z M752.71632,469.875845 L752.669388,470.170923 L752.998419,469.777387 L752.71632,469.875845 Z M752.563302,472.247027 L752.825995,472.183548 L753.014886,472.389237 L753.009675,472.139161 L753.112408,472.114336 L753.008499,472.082714 L753.001118,471.728481 L752.764682,472.008514 L752.626692,471.96652 L752.717056,472.064921 L752.563302,472.247027 Z M752.518768,473.136661 L753.436788,474.042098 L753.221787,472.589846 L752.518768,473.136661 Z M753.436788,474.042098 L753.577046,474.180434 L753.591715,474.556966 L753.515378,474.572952 L753.436788,474.042098 Z M753.577046,474.180434 L753.717862,474.31932 L753.569346,473.982801 L753.577046,474.180434 Z M753.591715,474.556966 L753.608166,474.979206 L754.005304,474.470356 L753.591715,474.556966 Z M753.515378,474.572952 L752.996,474.681715 L753.593091,475.097875 L753.515378,474.572952 Z M751.703562,473.770736 L750.823189,474.455499 L752.679548,474.816472 L752.641814,473.843726 L751.95025,474.034824 L751.703562,473.770736 Z M751.252596,473.287962 L750.953545,472.967819 L750.58816,473.30913 L750.97453,473.626492 L751.252596,473.287962 Z M748.560915,473.473889 L748.554649,473.652993 L748.471306,473.502653 L748.080296,473.628168 L748.549025,473.813755 L748.548629,473.825078 L748.555311,473.816244 L748.670415,473.861817 L748.607154,473.747704 L748.895504,473.366486 L748.560915,473.473889 Z M748.554649,473.652993 L748.549025,473.813755 L748.555311,473.816244 L748.607154,473.747704 L748.554649,473.652993 Z M746.366696,475.210431 L746.650472,475.323552 L746.337851,474.906304 L746.366696,475.210431 Z M746.524818,476.877618 L746.529974,476.931983 L746.456363,476.879933 L746.288186,476.88562 L746.532513,476.958753 L746.582616,477.487017 L747.020806,476.860844 L746.524818,476.877618 Z M746.529974,476.931983 L746.532513,476.958753 L746.593758,476.977085 L746.529974,476.931983 Z M747.671883,475.930455 L747.918143,475.57855 L747.286867,475.740078 L747.671883,475.930455 Z M747.966947,476.076353 L749.09844,476.635836 L749.174643,475.709248 L747.966947,476.076353 Z M747.64975,476.839575 L747.594963,477.260394 L748.073879,476.825232 L747.64975,476.839575 Z M745.48273,476.191477 L745.374392,476.114871 L744.196476,477.440942 L744.6163,477.709174 L744.030928,477.531011 L744.321025,478.254663 L744.625029,477.714752 L744.913169,477.898849 L744.909534,477.90013 L744.91499,477.900012 L745.777087,478.450818 L745.880019,477.557931 L745.064347,477.845542 L744.626433,477.712258 L745.48273,476.191477 Z M744.291986,476.163063 L743.010357,476.283651 L743.522669,476.964028 L743.640303,476.664121 L744.321743,476.615937 L744.291986,476.163063 Z M741.980682,477.652882 L743.081963,477.683843 L742.729088,476.844386 L741.980682,477.652882 Z M741.898773,477.741368 L741.635113,478.026197 L742.621303,478.694923 L742.921511,477.781477 L741.898773,477.741368 Z M741.93352,479.980009 L742.479182,480.328641 L742.394819,480.500887 L743.94294,480.852096 L744.026178,479.865236 L743.466503,479.895932 L743.96167,479.478691 L743.190451,478.876407 L742.669709,479.939633 L741.93352,479.980009 Z M741.491853,480.886308 L741.436296,481.448073 L742.980752,482.093929 L743.244639,481.137703 L741.491853,480.886308 Z M739.291595,481.478463 L739.06759,481.5471 L739.487687,481.60667 L739.291595,481.478463 Z M738.511147,483.151205 L739.015021,483.035935 L738.412675,482.64378 L738.511147,483.151205 Z M738.861852,483.575667 L739.837519,483.62166 L739.469667,482.811073 L738.861852,483.575667 Z M738.578842,483.931677 L738.421543,484.129549 L738.831446,483.941033 L738.578842,483.931677 Z M737.630602,485.298312 L737.813265,485.648306 L737.928683,485.039451 L737.630602,485.298312 Z M737.060146,485.793712 L736.595883,486.196892 L737.36017,486.330443 L737.060146,485.793712 Z M734.901329,484.526747 L734.646395,484.427602 L734.955326,484.794899 L734.901329,484.526747 Z M733.576532,484.932594 L733.486857,485.312031 L733.966382,484.927081 L733.576532,484.932594 Z M730.764991,485.731194 L730.751759,485.742757 L730.462825,485.546711 L730.587388,485.88639 L730.461257,485.996607 L730.624157,485.986657 L730.663752,486.094632 L730.695035,485.982328 L731.070996,485.959364 L730.760179,485.74847 L730.764991,485.731194 Z M730.751759,485.742757 L730.587388,485.88639 L730.624157,485.986657 L730.695035,485.982328 L730.760179,485.74847 L730.751759,485.742757 Z M728.539748,485.212818 L728.051042,485.923042 L728.721294,486.269056 L728.539748,485.212818 Z M729.63677,486.741666 L730.017427,486.938179 L729.772582,486.335375 L729.63677,486.741666 Z M729.528434,487.065761 L729.436147,487.341845 L729.814088,487.009714 L729.528434,487.065761 Z M728.880096,487.192967 L728.37777,487.291526 L728.96681,487.697473 L728.880096,487.192967 Z M727.157096,486.643665 L727.861659,487.214515 L728.015875,486.3525 L727.157096,486.643665 Z M726.497674,486.867239 L726.216576,486.962544 L727.329825,488.006059 L727.780567,487.153246 L726.497674,486.867239 Z M727.005317,488.737223 L728.177703,488.64289 L727.750894,487.827551 L727.005317,488.737223 Z M728.409543,489.388444 L728.714453,489.368043 L728.252322,489.126399 L728.409543,489.388444 Z M728.62361,489.745238 L728.886373,490.183193 L729.067047,489.491835 L728.62361,489.745238 Z M727.461032,490.409595 L727.164895,490.578823 L727.412973,491.01294 L727.726645,490.62357 L727.461032,490.409595 Z M726.622621,490.440813 L726.363825,491.115739 L727.162871,490.921054 L726.622621,490.440813 Z M725.547398,491.765832 L725.902903,491.976511 L725.687366,491.377016 L725.547398,491.765832 Z M725.146434,492.879666 L725.053315,493.138339 L725.414742,492.819722 L725.146434,492.879666 Z M724.583226,493.005494 L724.047679,493.125142 L722.492943,494.787914 L723.297342,495.368403 L724.583226,493.005494 Z M721.698689,494.261803 L721.776347,494.590247 L721.974258,494.066948 L721.698689,494.261803 Z M720.983182,494.767737 L720.599391,495.039116 L720.736335,496.498393 L720.00311,497.375138 L720.88476,497.739449 L721.140604,494.813001 L720.983182,494.767737 Z M718.158289,495.504387 L718.489926,495.561709 L718.086571,495.175562 L718.158289,495.504387 Z M718.275584,496.042183 L718.332427,496.302809 L718.460405,495.849834 L718.275584,496.042183 Z M717.857005,496.477811 L717.541679,496.805981 L718.213302,496.760967 L717.857005,496.477811 Z M714.743547,498.417531 L714.834935,498.930908 L715.260307,498.347773 L714.743547,498.417531 Z M713.854371,498.537562 L713.694591,498.559131 L713.996654,498.613396 L713.854371,498.537562 Z M711.275435,498.299639 L712.326906,498.85993 L712.167958,498.061947 L711.275435,498.299639 Z M712.768056,499.095003 L713.539287,499.505964 L713.513165,498.638385 L712.768056,499.095003 Z M712.416627,499.310365 L711.805111,499.685114 L712.556733,500.013756 L712.416627,499.310365 Z M708.801846,499.387764 L709.604621,500.317436 L710.025681,499.492474 L708.801846,499.387764 Z M707.79963,501.268138 L707.753209,501.441449 L707.945653,501.163883 L707.79963,501.268138 Z M706.333855,503.786953 L706.706723,504.785293 L707.339968,504.138308 L706.333855,503.786953 Z M704.641142,504.751278 L704.500584,504.895699 L704.842564,504.744695 L704.641142,504.751278 Z M702.865778,506.991402 L702.871009,507.180606 L702.987151,506.846163 L702.865778,506.991402 Z M702.143376,507.855849 L701.977846,508.053927 L702.40072,507.87609 L702.143376,507.855849 Z M696.328503,509.246619 L696.206259,509.329499 L696.476161,509.243464 L696.328503,509.246619 Z M691.418277,510.45257 L691.030207,510.625053 L691.651294,510.807608 L691.418277,510.45257 Z M686.289519,511.602913 L687.054087,512.567273 L687.237919,511.900004 L687.32669,511.85409 L687.255329,511.836809 L687.367159,511.430892 L687.752456,511.440882 L687.300813,510.756267 L687.061821,511.357169 L686.976068,511.420752 L687.035915,511.422304 L686.904818,511.751924 L686.289519,511.602913 Z M684.848161,511.253852 L684.145846,511.083769 L684.123072,510.800355 L683.876682,511.018584 L683.794123,510.998591 L683.839392,511.051612 L683.52473,511.330311 L684.632174,511.556247 L684.848161,511.253852 Z M682.688236,510.005575 L681.672415,510.028524 L682.086655,510.824427 L682.688236,510.005575 Z M680.788809,509.824443 L680.449402,510.297177 L681.205023,510.231187 L680.788809,509.824443 Z M677.999085,511.162991 L677.922726,511.370866 L677.838489,511.214185 L677.442872,511.340297 L678.035117,511.579909 L677.927741,511.380192 L678.2322,511.08868 L677.999085,511.162991 Z M675.607607,510.219957 L674.827996,510.225788 L675.194494,510.920636 L675.960054,510.54486 L675.607607,510.219957 Z M676.596438,512.148615 L677.307782,512.322506 L677.017373,511.549398 L676.596438,512.148615 Z M676.249641,512.642293 L675.645754,513.50195 L676.554515,513.769895 L676.511465,512.664921 L676.249641,512.642293 Z M674.212832,512.466266 L673.742901,512.425653 L674.199654,512.937765 L674.212832,512.466266 Z M674.242978,511.387688 L674.251413,511.08586 L673.971924,511.520735 L674.242978,511.387688 Z M673.756344,510.036656 L673.657526,510.305671 L674.038414,509.985959 L673.756344,510.036656 Z M670.379014,511.096252 L670.487127,511.884611 L671.136212,511.340895 L670.379014,511.096252 Z M669.910381,512.864938 L671.386863,512.778806 L671.031722,511.900566 L669.910381,512.864938 Z M669.481007,513.234207 L667.643398,514.814581 L670.105732,514.067968 L670.006808,513.617845 L669.481007,513.234207 Z M670.396791,513.979714 L670.674682,513.895454 L670.185893,513.780102 L670.396791,513.979714 Z M670.673604,514.241716 L671.259897,514.796636 L671.431601,513.964016 L670.673604,514.241716 Z M670.183386,514.421312 L669.645908,514.618222 L670.306254,514.980382 L670.183386,514.421312 Z M665.298973,513.261246 L665.167686,513.305624 L665.434373,513.290786 L665.298973,513.261246 Z M662.252809,513.808699 L662.128478,513.858013 L662.385156,513.828049 L662.252809,513.808699 Z M660.380038,513.559064 L659.822268,514.178834 L659.782851,514.123449 L659.763229,514.244435 L659.404967,514.64252 L659.69597,514.659163 L659.670343,514.817179 L659.872891,514.669281 L660.183984,514.687072 L660.069269,514.525888 L661.037888,513.818613 L660.380038,513.559064 Z M659.454069,513.193731 L659.300196,513.133022 L659.541375,513.334231 L659.454069,513.193731 Z M656.415554,510.560219 L656.254939,510.544173 L656.536469,510.667151 L656.415554,510.560219 Z M654.813052,510.517008 L654.899821,510.948942 L655.230628,510.376556 L654.813052,510.517008 Z M655.388096,513.022321 L655.660906,513.333767 L655.643214,512.696225 L655.388096,513.022321 Z M654.523238,516.440951 L655.420924,516.596866 L655.136904,515.767479 L654.523238,516.440951 Z M654.285969,517.801208 L654.420628,518.140563 L654.56821,517.569616 L654.285969,517.801208 Z M653.534267,519.58192 L653.661753,519.782782 L653.488433,519.614005 L653.149379,519.851353 L653.735348,519.898737 L653.790356,519.985405 L653.925767,519.307859 L653.534267,519.58192 Z M653.661753,519.782782 L653.735348,519.898737 L653.784946,519.902747 L653.661753,519.782782 Z M651.307606,520.511221 L651.843906,520.756063 L651.636725,520.022093 L651.307606,520.511221 Z M651.169623,520.716287 L650.912096,521.099016 L651.571812,520.942218 L651.169623,520.716287 Z M648.373243,521.123858 L647.989191,521.52598 L648.732448,521.548321 L648.373243,521.123858 Z M647.477541,520.065432 L647.386709,519.958098 L647.499115,520.204375 L647.477541,520.065432 Z M646.164343,518.690743 L646.155954,518.93542 L646.362758,518.547326 L646.164343,518.690743 Z M645.202583,521.718263 L645.258022,522.021598 L645.448747,521.532552 L645.202583,521.718263 Z M644.090123,522.557521 L643.727754,522.830898 L644.397153,522.891855 L644.090123,522.557521 Z M638.770763,523.896697 L638.570359,524.064879 L639.023189,523.965457 L638.770763,523.896697 Z M635.105906,524.424302 L635.029517,524.728807 L635.413356,524.360802 L635.105906,524.424302 Z M633.413136,524.773922 L633.123011,524.833843 L633.605047,524.999605 L633.413136,524.773922 Z M627.29116,525.011356 L627.270242,526.426837 L627.32029,526.435604 L626.943835,526.57686 L627.41765,526.609378 L627.4944,526.466105 L629.126529,526.752026 L629.037152,525.791396 L627.558651,526.346166 L628.477183,524.631504 L627.29116,525.011356 Z M626.542933,526.727288 L626.534997,526.730266 L625.810458,526.766624 L626.309696,527.424599 L626.538061,526.741855 L626.612726,526.726365 L626.542055,526.729912 L626.542933,526.727288 Z M626.601116,526.553339 L626.723769,526.186641 L626.215357,526.526864 L626.601116,526.553339 Z M626.770539,525.178098 L626.42058,525.290181 L626.982002,525.478626 L626.770539,525.178098 Z M624.889841,525.470995 L625.168947,525.634293 L624.924289,525.149467 L624.889841,525.470995 Z M624.867676,525.677876 L624.84665,525.874126 L625.017082,525.548903 L624.867676,525.677876 Z M622.907802,527.369705 L622.778496,527.481326 L623.078375,527.360534 L622.907802,527.369705 Z M620.581275,527.494792 L620.270438,527.511505 L620.733457,527.766344 L620.581275,527.494792 Z M617.945277,527.863917 L616.48078,528.808421 L617.204329,529.441205 L617.945277,527.863917 Z M614.334961,528.079725 L614.121136,528.109324 L614.503141,528.215048 L614.334961,528.079725 Z M612.137426,528.622887 L612.052428,528.826971 L613.816331,529.050317 L613.716971,528.081307 L612.137426,528.622887 Z M610.647839,529.133623 L610.546719,529.168294 L610.754295,529.143331 L610.647839,529.133623 Z M606.295773,531.291812 L606.176434,531.410708 L606.462729,531.269373 L606.295773,531.291812 Z M602.960129,531.740126 L602.758852,531.767177 L600.486256,534.331061 L601.062465,534.345623 L602.960129,531.740126 Z M603.819964,534.41531 L603.993114,534.419686 L603.963983,534.391959 L603.819964,534.41531 Z M604.553027,534.433836 L605.14508,534.448798 L604.667069,533.852678 L604.553027,534.433836 Z M604.467248,534.870963 L604.291815,535.764971 L605.127174,535.499076 L604.467248,534.870963 Z M600.635668,534.931617 L599.435932,535.126144 L599.920122,535.914063 L600.635668,534.931617 Z M602.034573,537.711765 L602.44543,537.783074 L602.030951,537.294782 L602.034573,537.711765 Z M602.037291,538.024634 L602.043891,538.784358 L602.737659,538.319095 L602.037291,538.024634 Z M603.435563,539.70639 L603.712484,539.747607 L603.325982,539.448755 L603.435563,539.70639 Z M604.350338,541.857125 L604.464685,542.125966 L604.528403,541.625515 L604.350338,541.857125 Z M603.067176,543.526143 L602.988567,543.62839 L603.185434,543.474677 L603.067176,543.526143 Z M601.089468,544.386847 L601.011547,544.420759 L601.174218,544.380584 L601.089468,544.386847 Z M598.405781,544.585197 L598.314521,544.591942 L598.493515,544.611212 L598.405781,544.585197 Z M595.498512,544.179276 L594.579398,544.986687 L595.408018,545.399314 L595.498512,544.179276 Z M595.5436,543.571396 L595.544421,543.56033 L594.789235,542.979394 L594.884929,542.932136 L594.720725,542.926692 L594.153187,542.490107 L594.069721,543.334724 L594.644735,543.050755 L595.5436,543.571396 Z M593.915489,541.202845 L593.555255,541.112994 L593.933652,541.573671 L593.915489,541.202845 Z M592.649479,539.607337 L592.224687,539.391183 L592.453896,540.041983 L592.649479,539.607337 Z M591.295055,536.144877 L591.161472,535.940221 L591.215631,536.376006 L591.295055,536.144877 Z M591.579264,533.310011 L591.298315,532.934719 L591.222824,533.614523 L591.579264,533.310011 Z M592.837505,530.602129 L592.779565,530.079356 L592.31247,530.633543 L592.837505,530.602129 Z M593.275469,528.089016 L593.03093,528.058201 L593.399956,528.301742 L593.275469,528.089016 Z M592.646235,527.013765 L592.545929,526.84236 L592.601596,527.20728 L592.646235,527.013765 Z M591.625593,527.856414 L591.653488,528.691742 L592.374814,528.226845 L591.625593,527.856414 Z M591.046252,527.569975 L590.705579,527.401539 L590.975145,527.943301 L591.046252,527.569975 Z M590.19734,526.574147 L590.122402,526.664077 L590.046395,526.620607 L590.099531,526.691523 L589.854002,526.98617 L590.264832,526.912141 L590.284448,526.938322 L590.277634,526.909834 L590.486349,526.872225 L590.234136,526.727979 L590.19734,526.574147 Z M588.742655,527.039455 L588.797629,527.244503 L588.851999,526.857491 L588.742655,527.039455 Z M588.403776,527.603401 L588.295587,527.783444 L588.608087,527.554638 L588.403776,527.603401 Z M584.333376,528.574884 L583.885059,528.681884 L584.476438,529.013029 L584.333376,528.574884 Z M583.154163,528.86052 L583.049229,529.167563 L583.477323,528.831292 L583.154163,528.86052 Z M582.468368,528.922545 L582.3645,528.931939 L582.56733,528.955458 L582.468368,528.922545 Z M581.863912,528.721515 L580.691059,528.331446 L580.749727,529.256611 L581.863912,528.721515 Z M578.598329,526.114423 L578.380432,526.122171 L578.752275,526.268825 L578.598329,526.114423 Z M577.950795,525.464968 L577.76885,525.282484 L577.907748,525.719038 L577.950795,525.464968 Z M576.846747,526.059996 L577.247527,526.712456 L577.605296,525.955438 L576.846747,526.059996 Z M575.847691,526.197706 L575.560807,526.23725 L576.024747,526.426873 L575.847691,526.197706 Z M573.340236,524.538372 L573.297749,524.584637 L573.304648,524.509513 L573.097248,524.341331 L573.230622,524.657733 L573.022223,524.884666 L573.705419,524.834502 L573.340236,524.538372 Z M572.162577,525.770723 L572.392539,526.114698 L572.457457,525.48047 L572.162577,525.770723 Z M571.125017,526.792001 L570.99526,526.919722 L571.306519,526.777622 L571.125017,526.792001 Z M570.568786,526.836066 L569.90902,526.888334 L570.438764,527.485001 L570.568786,526.836066 Z M569.891457,525.497843 L569.041234,526.399632 L569.900275,526.811465 L570.082856,525.497843 L569.891457,525.497843 Z M568.156133,525.692419 L568.165145,525.942426 L568.252577,525.650184 L568.156133,525.692419 Z M568.196155,526.802722 L568.206611,527.092778 L568.442845,526.649798 L568.196155,526.802722 Z M567.842097,527.022206 L566.721851,527.716656 L567.464314,528.284938 L567.842097,527.022206 Z M565.280855,526.951579 L564.909189,527.114341 L566.297001,528.087965 L566.487557,527.188069 L565.711335,527.340918 L565.280855,526.951579 Z M562.96612,527.068128 L562.732587,527.090306 L563.132447,527.233553 L562.96612,527.068128 Z M555.960567,526.367447 L555.698812,526.410207 L556.142767,526.560183 L555.960567,526.367447 Z M553.316926,526.09494 L552.868664,526.330023 L553.546498,526.546049 L553.316926,526.09494 Z M550.987256,524.768485 L550.786938,524.851701 L551.184881,524.857908 L550.987256,524.768485 Z M548.207929,523.510868 L547.781713,523.318009 L548.043809,523.948954 L548.207929,523.510868 Z M546.611963,521.914409 L546.487386,521.927693 L546.728085,521.961435 L546.611963,521.914409 Z M542.557516,520.906212 L541.883728,521.123754 L542.537145,521.613954 L542.557516,520.906212 Z M541.037582,516.145577 L540.035914,516.05901 L540.333183,516.923462 L541.081807,516.227953 L541.037582,516.145577 Z M540.516558,515.175093 L540.407511,514.971977 L540.432904,515.389916 L540.516558,515.175093 Z M541.114674,513.639126 L541.248112,513.296458 L540.747813,513.613842 L541.114674,513.639126 Z M543.786188,511.485963 L543.829245,511.314328 L543.644753,511.592306 L543.786188,511.485963 Z M538.670585,508.513297 L538.568869,508.650586 L538.835048,508.466969 L538.670585,508.513297 Z M536.545173,509.112011 L536.441185,509.141304 L536.651979,509.128265 L536.545173,509.112011 Z M535.654229,508.976427 L535.461517,508.9471 L535.776239,509.128452 L535.654229,508.976427 Z M530.353357,507.989992 L530.308698,508.389451 L530.753081,507.94777 L530.353357,507.989992 Z M528.869105,508.146771 L528.656833,508.169193 L529.032124,508.284564 L528.869105,508.146771 Z M524.502547,506.176092 L523.855802,506.144035 L524.307933,506.793694 L524.502547,506.176092 Z M523.715642,504.676365 L523.582744,504.579167 L523.764786,504.833509 L523.715642,504.676365 Z M523.627302,504.393883 L523.53187,504.088721 L523.390329,504.608534 L523.627302,504.393883 Z M524.36457,503.726064 L524.412574,503.682582 L524.307071,503.755879 L524.36457,503.726064 Z M525.132269,503.327982 L525.355195,503.212385 L524.906426,503.218192 L525.132269,503.327982 Z M525.848397,502.35515 L525.466624,501.822886 L525.234303,502.583063 L525.848397,502.35515 Z M528.223657,501.04903 L528.382494,500.722871 L527.864313,500.999218 L528.223657,501.04903 Z M530.185669,501.321003 L530.478153,501.361548 L530.079951,501.045296 L530.185669,501.321003 Z M533.510368,496.833781 L533.505215,496.626671 L533.367528,496.983842 L533.510368,496.833781 Z M528.739883,492.693189 L528.661746,492.929 L528.975011,492.613021 L528.739883,492.693189 Z M528.240252,492.863542 L528.030405,492.935091 L528.434165,492.971028 L528.240252,492.863542 Z M525.498622,492.641546 L525.165128,492.720492 L525.692553,492.924108 L525.498622,492.641546 Z M522.169917,492.816614 L521.941316,493.242187 L522.603103,493.030438 L522.169917,492.816614 Z M518.710275,492.202703 L518.416589,492.398502 L518.993099,492.413888 L518.710275,492.202703 Z M518.213151,491.831503 L517.699119,491.447676 L517.715418,492.236241 L518.213151,491.831503 Z M517.948209,489.787659 L517.816711,489.589296 L517.877176,490.014801 L517.948209,489.787659 Z M513.486594,487.625115 L513.388135,487.651602 L513.587562,487.639295 L513.486594,487.625115 Z M509.098764,488.541874 L508.964322,489.225602 L509.703429,488.888196 L509.098764,488.541874 Z M508.390057,488.135962 L508.280051,488.072955 L508.456755,488.24377 L508.390057,488.135962 Z M506.829345,485.61325 L506.80046,485.566559 L506.847411,485.665096 L506.829345,485.61325 Z M506.558057,484.834694 L506.472157,484.588173 L506.404873,485.046086 L506.558057,484.834694 Z M506.964159,484.27428 L507.207141,483.938968 L506.589448,484.098025 L506.964159,484.27428 Z M512.739802,483.919933 L512.841167,483.739425 L512.540504,483.975954 L512.739802,483.919933 Z M516.063323,481.429833 L516.133015,481.2477 L515.888721,481.516687 L516.063323,481.429833 Z M517.814024,480.558971 L518.114367,480.40957 L517.561889,480.337715 L517.814024,480.558971 Z M521.166288,481.338513 L521.41331,481.337523 L521.015408,481.142921 L521.166288,481.338513 Z M524.118282,483.108225 L524.215771,483.108902 L524.02819,483.070974 L524.118282,483.108225 Z M529.550269,484.246682 L529.774982,484.209228 L529.374553,484.101689 L529.550269,484.246682 Z M534.077639,480.794456 L533.688423,480.170354 L533.354118,480.926781 L534.077639,480.794456 Z M541.77572,478.004457 L541.909912,477.871935 L541.587436,478.015342 L541.77572,478.004457 Z M546.163159,476.945617 L546.327843,476.656588 L545.832948,476.905389 L546.163159,476.945617 Z M547.236479,473.983572 L546.955905,473.564425 L546.814897,474.260475 L547.236479,473.983572 Z M548.749186,472.46445 L548.646781,471.986541 L548.273729,472.577695 L548.749186,472.46445 Z M550.419436,472.066628 L550.978147,471.933554 L550.364583,471.494913 L550.419436,472.066628 Z M552.00199,473.297188 L552.442349,473.544 L552.253006,472.859212 L552.00199,473.297188 Z M553.555488,474.806345 L553.88203,474.890398 L553.511034,474.472102 L553.555488,474.806345 Z M554.447941,476.325923 L555.101435,476.194751 L554.504861,475.66183 L554.447941,476.325923 Z M557.687054,476.188222 L558.212881,475.947939 L557.525091,475.633246 L557.687054,476.188222 Z M559.113467,477.327767 L559.708105,476.952755 L558.954361,476.642995 L559.113467,477.327767 Z M563.612487,477.651456 L563.701064,477.613582 L563.516179,477.653709 L563.612487,477.651456 Z M566.146695,474.965128 L566.1953,474.711731 L565.912006,475.072336 L566.146695,474.965128 Z M567.272825,474.450702 L567.460507,474.364967 L566.239321,473.373819 L565.856626,474.257451 L567.272825,474.450702 Z M568.761353,473.169128 L569.082132,472.803518 L568.387028,472.858564 L568.761353,473.169128 Z M571.305617,474.137269 L571.549292,474.107343 L571.132934,473.962758 L571.305617,474.137269 Z M573.750055,473.691781 L573.748147,473.396482 L573.49237,473.836015 L573.750055,473.691781 Z M574.926651,472.041267 L574.781736,471.703119 L574.646936,472.280231 L574.926651,472.041267 Z M575.317671,471.707212 L575.436264,471.605896 L575.162505,471.723127 L575.317671,471.707212 Z M575.924102,471.645012 L576.340027,471.602351 L575.808502,471.243203 L575.924102,471.645012 Z M578.785785,472.636747 L578.910527,472.611746 L578.664263,472.599086 L578.785785,472.636747 Z M580.946549,470.883721 L580.844748,470.663595 L580.836699,471.099943 L580.946549,470.883721 Z M581.571437,469.653733 L581.863314,469.079221 L581.712435,469.087408 L581.212394,468.815932 L581.337456,469.107757 L579.72545,469.195234 L578.867635,469.879131 L578.45235,469.567655 L578.264327,470.454947 L579.623829,470.142524 L580.017042,469.412442 L581.367962,469.17894 L581.571437,469.653733 Z M581.712435,469.087408 L581.337456,469.107757 L581.367962,469.17894 L581.75713,469.111673 L581.712435,469.087408 Z M578.867635,469.879131 L578.565279,470.120186 L579.176979,470.111149 L578.867635,469.879131 Z M582.918069,469.690965 L583.399672,469.548877 L583.068229,468.48085 L582.230263,468.975582 L582.918069,469.690965 Z M585.793274,468.475414 L585.79509,468.291789 L585.673041,468.614214 L585.793274,468.475414 Z M587.850403,466.100595 L588.131604,465.775968 L587.487069,465.871588 L587.850403,466.100595 Z M590.282874,465.775136 L590.520643,465.683968 L590.06931,465.63644 L590.282874,465.775136 Z M590.972994,466.223323 L591.40211,466.502005 L591.261499,465.800749 L590.972994,466.223323 Z M593.512439,466.009832 L593.277186,465.423458 L592.887697,466.104043 L593.512439,466.009832 Z M595.82814,463.751727 L596.08542,463.375902 L595.430007,463.530532 L595.82814,463.751727 Z M597.016649,464.095606 L597.709669,463.979057 L597.133735,463.402676 L597.016649,464.095606 Z M599.342621,465.71569 L599.786963,465.25044 L599.001467,465.170243 L599.342621,465.71569 Z M602.752213,464.906736 L602.822255,464.767603 L602.615543,464.98147 L602.752213,464.906736 Z M606.390083,461.757576 L606.614673,461.466429 L606.045236,461.629953 L606.390083,461.757576 Z M608.063149,462.194415 L608.590898,461.86813 L607.856507,461.609367 L608.063149,462.194415 Z M612.093484,461.654321 L612.526352,460.655293 L611.617809,460.674951 L612.093484,461.654321 Z M616.389642,462.585418 L616.790646,462.659242 L616.381279,462.177761 L616.389642,462.585418 Z M616.417104,463.923987 L616.420098,464.069925 L616.493098,463.799361 L616.417104,463.923987 Z M618.069281,467.846259 L618.251244,467.693125 L617.835664,467.801722 L618.069281,467.846259 Z M618.889193,468.002567 L620.475384,468.304958 L620.393382,467.345666 L618.86616,467.918647 L618.889193,468.002567 Z M619.110312,468.808197 L619.232822,469.254554 L619.545906,468.651671 L619.110312,468.808197 Z M617.543907,471.471703 L617.602664,471.630619 L617.593863,471.309804 L617.543907,471.471703 Z M616.946364,473.408263 L616.895113,473.574362 L617.089598,473.309778 L616.946364,473.408263 Z M613.688646,476.590861 L613.717214,476.942695 L614.010619,476.446166 L613.688646,476.590861 Z M614.618852,479.791009 L614.624881,479.509633 L614.375176,479.93183 L614.618852,479.791009 Z M616.900505,478.472429 L617.144294,478.331543 L616.653639,478.337008 L616.900505,478.472429 Z M618.950348,478.68153 L619.068974,478.614813 L619.026172,478.729165 L619.371369,478.946029 L619.16908,478.347369 L619.099576,478.533058 L618.6985,478.523311 L618.950348,478.68153 Z M619.278401,479.828234 L619.98128,480.08857 L619.788741,479.279264 L619.278401,479.828234 Z M619.806177,482.69622 L619.860454,482.863705 L619.868813,482.531679 L619.806177,482.69622 Z M622.329967,484.793115 L622.475923,484.553328 L622.048822,484.293356 L622.049253,484.793356 L622.329967,484.793115 Z M624.197354,483.444351 L624.365449,483.29781 L623.97601,483.417201 L624.197354,483.444351 Z M631.35721,480.019517 L631.112572,479.765808 L631.200491,480.3352 L631.35721,480.019517 Z M632.454955,477.808301 L632.714448,477.285596 L631.978223,477.471723 L632.454955,477.808301 Z M634.59547,477.771481 L634.907852,477.686722 L634.390258,477.521173 L634.59547,477.771481 Z M636.17007,477.925349 L636.412931,477.752191 L635.902323,477.793909 L636.17007,477.925349 Z M639.316136,478.568696 L639.606502,478.559414 L639.164277,478.32103 L639.316136,478.568696 Z M645.389307,479.613218 L645.301536,479.369665 L645.241075,479.825467 L645.389307,479.613218 Z M645.409735,477.89464 L645.052239,477.410425 L644.868179,478.157287 L645.409735,477.89464 Z M644.837499,475.849666 L643.502092,475.915966 L643.44008,475.198498 L642.779426,475.714406 L643.383087,475.921874 L643.020663,475.939867 L643.543598,476.396197 L643.506261,475.964207 L644.067862,476.15722 L644.837499,475.849666 Z M648.160746,473.529228 L648.269278,473.307633 L647.918847,473.577888 L648.160746,473.529228 Z M649.662172,473.227204 L650.170372,473.124976 L649.578349,472.715646 L649.662172,473.227204 Z M653.782574,475.260742 L653.958743,475.291334 L653.665754,475.125373 L653.782574,475.260742 Z M657.270584,475.423836 L657.680908,475.325085 L657.104339,475.035918 L657.270584,475.423836 Z M660.046523,474.256037 L660.15537,474.106092 L659.866249,474.29884 L660.046523,474.256037 Z M660.812611,474.074139 L661.09553,474.006964 L660.614316,473.861456 L660.812611,474.074139 Z M661.697438,475.023168 L661.843597,475.179932 L661.71019,474.809217 L661.697438,475.023168 Z M663.713839,476.051162 L663.822105,475.991544 L663.590265,476.053471 L663.713839,476.051162 Z M670.308741,474.643091 L670.561229,474.496063 L670.056701,474.495296 L670.308741,474.643091 Z M672.932333,476.181554 L673.36929,476.437784 L673.194222,475.747964 L672.932333,476.181554 Z M672.621532,478.100264 L673.17851,478.617335 L673.316841,477.793453 L672.621532,478.100264 Z M672.08642,478.336386 L671.971102,478.387271 L672.21208,478.346249 L672.08642,478.336386 Z M669.937154,479.220861 L669.85526,479.374798 L670.097013,479.151231 L669.937154,479.220861 Z M667.599067,481.5073 L667.611251,481.66998 L667.68517,481.368738 L667.599067,481.5073 Z M666.644952,483.042721 L666.559407,483.180385 L666.794991,482.981423 L666.644952,483.042721 Z M665.805834,485.524624 L665.972568,485.58508 L665.714464,485.372616 L665.805834,485.524624 Z M667.237798,486.241367 L667.538485,486.162151 L667.033779,486.006711 L667.237798,486.241367 Z M672.253087,486.372023 L672.515185,486.282834 L672.038401,486.197211 L672.253087,486.372023 Z M674.022475,485.936615 L674.222936,485.543423 L673.607439,485.786514 L674.022475,485.936615 Z M676.830711,485.054814 L676.934279,484.834834 L676.593728,485.10919 L676.830711,485.054814 Z M678.942645,484.570222 L679.181689,484.515373 L678.752949,484.41477 L678.942645,484.570222 Z M684.758947,483.505176 L684.907569,483.455978 L684.608805,483.460828 L684.758947,483.505176 Z M685.48082,483.718396 L685.63105,483.762769 L685.382763,483.596236 L685.48082,483.718396 Z M688.716582,485.974909 L688.884905,486.008143 L688.604128,485.845328 L688.716582,485.974909 Z M690.869906,483.448869 L690.758273,483.233945 L690.77047,483.669702 L690.869906,483.448869 Z M691.582347,481.866645 L691.753895,481.485662 L691.176949,481.765504 L691.582347,481.866645 Z M693.150345,481.481029 L692.90905,480.828223 L693.103161,480.445378 L692.456464,480.316915 L692.697464,480.812366 L692.274973,481.307896 L693.150345,481.481029 Z M693.07728,479.741452 L692.56617,479.241971 L692.43288,480.050423 L693.07728,479.741452 Z M692.601136,477.107534 L692.369182,476.689729 L692.194249,477.358148 L692.601136,477.107534 Z M694.685508,473.5456 L694.650886,473.337705 L694.560862,473.715549 L694.685508,473.5456 Z M695.703844,470.515066 L695.692493,470.220164 L695.451149,470.667518 L695.703844,470.515066 Z M697.184857,468.083855 L696.837471,467.565603 L696.603373,468.309997 L697.184857,468.083855 Z M701.07674,465.620572 L701.135736,465.459965 L700.931716,465.711364 L701.07674,465.620572 Z M701.27685,462.827753 L700.800029,462.786544 L701.256527,463.305919 L701.27685,462.827753 Z M701.299794,462.287906 L701.308286,462.08809 L701.155842,462.426745 L701.299794,462.287906 Z M702.895269,460.749095 L703.096812,460.55471 L702.624222,460.678821 L702.895269,460.749095 Z M703.71739,457.732792 L703.439417,457.491972 L703.570283,458.069871 L703.71739,457.732792 Z M703.349938,455.822083 L703.013505,455.484079 L703.028214,456.174116 L703.349938,455.822083 Z M703.792465,454.159298 L703.747904,453.884687 L703.582608,454.341938 L703.792465,454.159298 Z M705.861583,452.358533 L705.976472,452.258545 L705.710462,452.377492 L705.861583,452.358533 Z M712.122617,449.522271 L712.16213,449.370066 L712.003097,449.624459 L712.122617,449.522271 Z M712.853021,446.724649 L712.654377,446.562417 L712.837143,446.980631 L712.853021,446.724649 Z M712.529094,443.659994 L712.246052,443.112297 L711.953139,443.127486 L712.529094,443.659994 Z M711.458226,443.153149 L710.95353,443.179319 L711.479,443.658095 L711.458226,443.153149 Z M711.440858,442.730995 L711.437558,442.650797 L711.496068,442.704893 L711.801305,442.560581 L711.431512,442.503825 L711.427241,442.400008 L711.370139,442.494406 L711.248158,442.475684 L711.33365,442.554727 L711.141375,442.872587 L711.440858,442.730995 Z M711.437558,442.650797 L711.431512,442.503825 L711.370139,442.494406 L711.33365,442.554727 L711.437558,442.650797 Z M712.823539,442.431966 L712.884712,442.009029 L712.396236,442.437414 L712.823539,442.431966 Z M715.96676,440.085365 L715.872114,439.492103 L716.233982,439.256592 L715.504029,439.039894 L715.691397,439.463224 L715.599932,439.669244 L715.741736,439.576956 L715.96676,440.085365 Z M715.872114,439.492103 L715.820952,439.171409 L715.691397,439.463224 L715.741736,439.576956 L715.872114,439.492103 Z M719.070692,438.234263 L719.452168,437.990904 L718.79058,437.878897 L719.070692,438.234263 Z M724.89306,438.63228 L724.999277,438.524931 L724.745178,438.662883 L724.89306,438.63228 Z M727.434597,438.106334 L727.566055,438.07913 L727.307191,438.064036 L727.434597,438.106334 Z M729.404891,437.070715 L729.508809,436.806002 L729.124257,437.116709 L729.404891,437.070715 Z M733.251152,434.234125 L732.485784,433.770133 L732.454767,434.642593 L733.251152,434.234125 Z M733.964836,433.868074 L734.24046,433.726705 L733.715526,433.684232 L733.964836,433.868074 Z M735.559165,433.891941 L735.647112,433.561312 L735.219133,433.929724 L735.559165,433.891941 Z M736.244837,433.815752 L736.487233,433.788818 L736.074391,433.641312 L736.244837,433.815752 Z M738.550598,433.568754 L738.796408,433.450752 L738.318277,433.426015 L738.550598,433.568754 Z M764.024913,452.293302 L762.688781,452.581499 L762.65196,451.597468 L764.052177,451.791417 L764.024913,452.293302 Z M756.693132,457.401726 L756.765429,457.179473 L757.18117,457.046982 L756.780394,456.353388 L755.625087,456.339124 L755.513798,456.581227 L754.436288,456.141665 L754.008956,456.812162 L755.49368,456.70597 L756.693132,457.401726 Z M758.164172,456.733713 L758.740817,456.549945 L759.808259,455.334391 L758.860729,455.415849 L758.164172,456.733713 Z M755.315543,460.104976 L754.758484,459.834172 L754.916492,460.296108 L755.315543,460.104976 Z M743.333783,477.969825 L743.757224,477.217795 L743.745044,477.218941 L743.159417,477.851589 L743.333783,477.969825 Z M743.222283,478.794041 L741.85043,478.740241 L742.666985,479.26195 L743.222283,478.794041 Z M738.468552,482.135116 L738.330794,482.045048 L738.13257,482.18381 L738.140906,482.21007 L738.468552,482.135116 Z M729.743572,485.671409 L729.933868,484.988266 L729.915565,484.977466 L729.518141,485.555032 L729.743572,485.671409 Z M728.644804,488.370468 L728.605974,488.361811 L728.596215,488.373719 L728.644804,488.370468 Z M726.11221,487.805854 L725.889622,487.75623 L725.848712,487.827055 L726.11221,487.805854 Z M721.711782,496.189936 L722.342181,495.03153 L721.649066,495.521632 L721.711782,496.189936 Z M722.736802,494.306384 L722.941493,493.930251 L722.661295,493.987038 L722.736802,494.306384 Z M655.709315,511.2706 L654.929397,510.580872 L655.750837,510.107851 L655.967004,511.183927 L655.709315,511.2706 Z M652.324128,519.876018 L652.0698,519.628355 L652.040728,519.746635 L652.324128,519.876018 Z M573.450047,525.897232 L573.440754,525.907351 L572.260001,524.949868 L572.327234,524.217743 L573.450047,525.897232 Z M572.327234,524.217743 L572.399916,523.426282 L572.384993,523.416057 L571.981231,523.700197 L572.327234,524.217743 Z M519.727662,492.726283 L519.469,492.598605 L519.96767,492.566272 L519.727662,492.726283 Z M598.592716,465.053012 L598.875854,465.125086 L598.390925,465.264298 L598.592716,465.053012 Z M654.857716,474.975983 L655.056873,475.206762 L654.561345,475.047309 L654.857716,474.975983 Z M671.050043,479.258112 L670.723387,479.232471 L671.203935,478.968839 L671.050043,479.258112 Z M673.017965,485.705253 L673.497967,486.096104 L672.736809,486.256721 L673.017965,485.705253 Z M606.290378,536.114647 L606.562291,536.224311 L606.428294,535.840506 L606.497219,535.703501 L606.394047,535.742413 L606.314321,535.514055 L606.128018,535.842749 L605.863541,535.9425 L606.03279,536.010759 L605.941027,536.172657 L605.508369,536.137844 L605.914928,536.860941 L606.244491,536.205858 L606.258878,536.198232 L606.248738,536.197416 L606.290378,536.114647 Z M605.941027,536.172657 L605.783789,536.450072 L606.244491,536.205858 L606.248738,536.197416 L605.941027,536.172657 Z M605.157207,532.741638 L604.640741,533.325946 L605.512731,533.60574 L605.419528,532.702855 L606.511882,532.541352 L606.06412,531.715594 L605.39568,532.471839 L605.370393,532.226876 L604.946165,532.77284 L605.157207,532.741638 Z M642.174244,525.281567 L641.543511,525.510663 L641.518419,525.333709 L641.697513,525.159201 L642.174244,525.281567 Z M641.680301,526.475326 L641.599532,526.551611 L641.64046,526.590311 L641.693521,526.56855 L641.680301,526.475326 Z M641.4957,526.649679 L641.414519,526.726353 L641.341775,526.712807 L641.4957,526.649679 Z M641.7053,526.651623 L641.845369,526.784067 L641.833707,526.804417 L641.724072,526.784 L641.7053,526.651623 Z M639.185034,525.881174 L639.251582,526.315178 L639.606802,525.759107 L639.185034,525.881174 Z M638.819318,525.987018 L637.381156,526.403248 L637.919876,527.183915 L638.819318,525.987018 Z M638.897804,525.882576 L638.99388,525.754727 L638.745368,525.930938 L638.897804,525.882576 Z M639.171914,525.795611 L639.728793,525.618933 L639.083365,525.218126 L639.171914,525.795611 Z M649.462282,522.65057 L649.539719,522.854209 L649.594527,522.763374 L649.600947,522.768849 L649.600389,522.753659 L649.775898,522.462779 L649.825346,522.453729 L649.792521,522.43523 L649.946408,522.180185 L649.580964,522.224852 L649.575067,522.06432 L649.437775,522.235305 L649.267983,522.139615 L649.312857,522.257622 L649.040621,522.290897 L649.249842,522.46936 L649.165416,522.574505 L649.336419,522.54321 L649.462282,522.65057 Z M712.607981,501.50423 L712.774158,501.71182 L712.49616,501.665954 L712.321933,501.960215 L712.796022,501.739133 L712.814731,501.762504 L712.812544,501.731428 L712.83357,501.721623 L712.8116,501.717998 L712.792091,501.440697 L712.941159,501.389256 L712.785298,501.344145 L712.774826,501.195298 L712.701121,501.319782 L712.387717,501.229075 L712.598745,501.492692 L712.587787,501.511199 L712.607981,501.50423 Z M712.254753,501.626124 L709.844476,501.228452 L710.073997,502.113358 L710.428424,501.831938 L710.887797,502.097839 L712.254753,501.626124 Z M710.993409,501.003527 L711.191085,501.117949 L710.777499,501.078034 L710.993409,501.003527 Z M717.240214,497.636491 L717.16257,497.752835 L717.366604,497.783953 L717.240214,497.636491 Z M718.20172,497.911317 L718.273141,497.92221 L718.202762,497.935369 L718.20172,497.911317 Z M718.651327,498.139709 L718.226702,498.487771 L718.208446,498.066517 L718.725504,498.06149 L718.651327,498.139709 Z M717.473858,499.10487 L717.314079,499.23584 L717.291196,499.117183 L717.473858,499.10487 Z M717.977567,496.960145 L718.165394,497.179285 L717.693865,497.01319 L717.977567,496.960145 Z M751.318177,476.906701 L752.07771,477.219989 L752.013868,477.322728 L752.17842,477.261529 L752.623151,477.44497 L752.522754,477.133467 L752.587585,477.109356 L752.506858,477.084148 L752.389122,476.718846 L752.218144,476.993994 L751.413704,476.7428 L751.537736,476.529991 L751.150904,476.660739 L750.814832,476.555797 L751.097782,477.284844 L751.318177,476.906701 Z M755.905618,471.330013 L755.706962,471.453625 L755.684934,470.785407 L755.834795,470.685496 L755.905618,471.330013 Z M754.997539,471.847363 L754.754777,471.457225 L755.193549,471.217477 L755.413525,471.620065 L754.997539,471.847363 Z M755.957167,471.799128 L756.093131,473.036454 L755.470474,473.328139 L756.101216,473.173621 L756.199466,471.970009 L756.32751,471.932408 L755.957167,471.799128 Z M755.403517,473.359506 L755.354348,473.382539 L755.39378,473.414413 L755.403517,473.359506 Z M754.998314,472.445038 L755.020958,472.43443 L755.020498,472.430248 L754.998314,472.445038 Z" stroke-linejoin="square"></path>
                </g>
            </g>
        </g>
    </g>
</svg>