<?xml version="1.0" encoding="UTF-8"?>
<svg width="1004px" height="575px" viewBox="0 0 1004 575" version="1.1" xmlns="http://www.w3.org/2000/svg" xmlns:xlink="http://www.w3.org/1999/xlink">
    <!-- Generator: Sketch 57.1 (83088) - https://sketch.com -->
    <title>西南 2</title>
    <desc>Created with Sketch.</desc>
    <defs>
        <path d="M243.703932,310 L244.170588,310.574638 L245.648335,310.44358 L246.218693,311.461799 L248.590865,312.853029 L251.170441,311.854973 L254.527777,313.609132 L256.264778,312.953843 L260.412838,315.212071 L264.405347,316.260533 L260.646167,317.167857 L259.414711,316.925904 L258.999905,317.591275 L259.31101,318.790958 L261.086898,319.647875 L265.468287,319.889828 L264.262757,322.994892 L264.897929,323.962703 L263.886839,324.6684 L264.897929,325.716863 L263.692399,326.624186 L260.56839,327.491184 L260.581353,328.680787 L261.086898,328.771519 L259.829517,329.578029 L260.918383,331.059991 L262.0591,331.392676 L262.033174,334.739693 L265.533101,334.417089 L266.609004,335.96962 L264.340533,337.411257 L264.547936,338.590778 L265.468287,338.913382 L265.533101,342.381374 L266.673817,343.389512 L265.973832,343.974231 L265.714578,345.980425 L263.770175,346.60547 L262.966488,347.734584 L265.377548,350.527125 L267.620094,351.545344 L267.386765,352.5434 L268.929325,353.20877 L268.592295,354.15642 L272.571841,356.102125 L272.71443,357.60425 L274.892162,359.630606 L276.836566,359.741501 L280.258716,361.616637 L282.514224,362.070298 L284.899359,360.094349 L287.906702,360.10443 L288.827053,358.814014 L291.523293,358.904747 L291.976987,359.378571 L291.277002,359.95321 L292.975114,361.999729 L296.371339,363.84462 L299.002765,364.560398 L301.024944,366.475859 L303.902661,365.477803 L305.328557,366.19358 L304.900788,367.504159 L305.898915,367.957821 L309.035886,367.282369 L312.133969,367.937658 L312.898768,367.272288 L315.828335,368.290506 L318.148657,367.604973 L318.965306,369.328888 L321.985613,368.844982 L324.163345,370.861257 L325.485539,370.417676 L326.457741,371.627441 L328.661398,370.175723 L329.763227,370.084991 L331.253936,370.478165 L332.018735,371.677848 L333.703884,371.466139 L334.494608,372.081103 L335.233481,371.718174 L336.542713,372.262568 L337.644542,371.022559 L340.263005,370.951989 L340.729662,369.772468 L341.688901,370.266456 L344.424028,368.693761 L347.146193,370.548734 L346.731387,370.81085 L347.677663,371.536709 L348.999858,371.869394 L349.596141,372.968264 L349.129485,373.512658 L350.983149,374.077215 L352.033127,375.045027 L355.740456,374.974458 L356.53118,376.16406 L357.801524,376.406013 L358.099666,377.726673 L357.464494,378.140009 L357.944113,378.633996 L356.790434,379.329611 L359.240382,382.505244 L360.990345,382.011257 L363.025488,382.333861 L364.101391,383.563788 L364.943966,382.938743 L368.742034,383.05972 L370.336444,385.620389 L371.295683,384.924774 L370.647549,384.67274 L371.23087,383.483137 L370.725325,382.495163 L369.299429,381.618083 L369.558683,380.972875 L370.440146,380.982957 L370.180892,380.34783 L372.29381,379.652215 L374.341915,381.940687 L376.05299,382.898418 L378.230722,382.827848 L379.13811,383.604114 L380.304753,383.694846 L380.82326,382.868174 L379.526991,380.993038 L380.330678,380.367993 L378.94367,378.361799 L381.095477,379.077577 L381.782499,378.492857 L382.84544,378.795298 L382.715813,377.77708 L386.176851,378.301311 L387.278679,377.887975 L387.019426,377.12179 L388.48421,377.535127 L387.758299,376.012839 L388.160142,374.500633 L390.286023,374.147785 L389.326784,373.694123 L390.247135,373.542902 L389.002717,372.101266 L389.508262,370.871338 L394.472972,371.637523 L395.419248,370.851175 L390.454538,368.219937 L389.300859,365.094711 L389.806404,364.298282 L391.945248,363.854702 L391.673031,363.360714 L392.373016,363.068354 L391.439703,361.213382 L393.280405,359.852396 L393.708173,358.541817 L396.067383,357.392541 L392.606345,356.676763 L391.971173,354.912523 L390.104546,354.30764 L390.493426,353.309584 L389.534187,351.071519 L389.832329,350.194439 L393.850763,349.750859 L394.356308,348.309222 L396.248861,348.924186 L395.652577,350.174277 L396.093308,350.617857 L400.228406,349.297197 L404.130176,349.90208 L404.117213,350.93038 L406.580124,350.517043 L407.47455,350.829566 L410.702259,353.86406 L410.015237,354.30764 L410.546707,355.507324 L411.985565,356.444892 L411.881864,357.442948 L412.672588,358.249458 L412.335558,359.43906 L413.113319,359.761664 L413.800342,361.354521 L419.309485,363.17925 L420.657605,365.447559 L422.122389,365.094711 L428.370405,367.988065 L429.148166,365.659268 L428.759286,364.570479 L430.340734,364.65113 L430.859241,362.876808 L432.012921,364.590642 L433.036973,364.590642 L433.036973,365.286257 L434.385093,365.891139 L434.812861,367.8066 L434.0351,368.703843 L434.540645,369.19783 L436.083205,369.691817 L436.873929,367.625136 L438.157235,367.927577 L439.168325,367.423508 L440.270154,368.361076 L441.955303,370.326944 L439.946086,371.667767 L441.047915,372.64566 L443.510826,370.941908 L443.43305,369.459946 L444.340438,369.601085 L443.744154,368.572785 L447.840364,369.722061 L450.056984,368.562703 L450.834746,368.693761 L450.899559,369.248237 L452.169903,368.431646 L452.831,366.354882 L450.95141,365.084629 L451.534731,361.435172 L454.490224,360.507685 L455.332799,361.445253 L455.475388,360.366546 L456.719807,360.295976 L459.584561,362.029973 L461.010457,359.549955 L459.636412,358.864421 L459.740113,358.289783 L460.634539,356.959042 L461.671554,356.838065 L461.658591,355.446835 L462.073397,354.337884 L462.682644,354.438698 L464.354831,357.009448 L463.214114,358.995479 L461.580815,359.872559 L462.669681,360.719394 L462.462278,361.888834 L463.278927,362.090461 L465.02889,360.729476 L466.467749,360.810127 L467.076995,359.691094 L468.619555,360.39679 L468.904735,359.066049 L468.282526,358.672875 L469.630645,357.402622 L471.173205,357.805877 L473.169459,356.72717 L472.637989,354.993174 L470.849138,354.347966 L470.913951,352.603888 L470.149153,352.91641 L470.550996,352.170389 L469.215839,351.73689 L469.513981,350.799322 L468.386227,349.287116 L469.760272,348.692315 L471.67875,348.964512 L472.339847,347.170027 L476.11199,347.280922 L475.29534,346.071157 L476.695311,345.466275 L477.330483,344.468219 L479.171185,344.357324 L479.948946,343.702034 L480.88226,344.054882 L481.41373,345.536844 L483.48776,345.829204 L484.485887,347.11962 L483.747014,347.643852 L484.239596,348.460443 L483.643312,349.115732 L484.667365,350.0533 L484.200708,351.434448 L487.428418,352.452667 L488.776537,352.341772 L489.99503,351.434448 L489.930217,353.410398 L491.34315,352.91641 L494.28568,353.743083 L498.835584,353.319665 L500.857764,354.499186 L500.624436,355.547649 L501.674413,357.654656 L502.918832,358.693038 L505.122489,358.894665 L504.655832,359.43906 L503.087347,359.176944 L504.266951,362.08038 L503.579929,363.098599 L505.070638,363.511935 L504.085474,364.590642 L502.789205,364.641049 L503.035496,366.304476 L507.416885,367.816682 L508.492788,368.824819 L509.490915,368.653436 L510.152012,369.207911 L511.694572,368.855063 L512.576035,369.812794 L515.142648,369.086935 L516.361141,369.883363 L521.922134,367.695705 L520.677716,365.649186 L521.636955,364.842676 L522.609157,365.114873 L524.203568,368.290506 L526.77018,367.242043 L527.431277,367.524322 L527.97571,366.455696 L530.970091,366.324638 L531.566375,365.75 L532.383025,366.546429 L531.864517,367.242043 L532.694129,367.887251 L536.479234,368.774412 L537.645877,369.550678 L542.960579,367.776356 L543.582788,367.786438 L543.621676,368.46189 L547.49752,367.927577 L548.806752,369.016365 L548.573424,370.820931 L550.958559,372.524684 L551.619656,372.665823 L553.369619,370.679792 L554.212194,370.770524 L554.627,372.494439 L555.780679,373.028752 L557.971374,372.756555 L561.121307,375.670072 L563.195337,376.567315 L563.986061,375.468445 L566.656375,375.377712 L567.473025,374.621609 L568.924846,375.186166 L571.439608,374.722423 L572.061817,375.619665 L574.511765,377.12179 L575.769146,377.152034 L578.115393,378.845705 L580.51349,379.289286 L583.170842,381.386212 L584.454148,381.718897 L584.674514,382.98915 L589.457746,382.777441 L591.946582,383.251266 L591.868806,385.418761 L593.33359,385.217134 L595.952053,385.973237 L595.459471,386.527712 L598.661256,387.797966 L599.516793,391.437342 L598.2983,392.203526 L599.089024,393.856872 L597.637203,396.55868 L596.677964,396.105018 L596.392785,395.117043 L592.685456,395.842902 L589.444783,398.726175 L588.783686,398.443897 L587.435567,399.220163 L585.607827,401.10538 L584.94673,399.048779 L582.224565,400.52066 L581.381991,400.056917 L581.86161,398.837071 L580.604229,398.726175 L577.065415,401.065054 L575.574706,401.024729 L574.887683,399.724231 L573.941407,399.774638 L574.161773,400.409765 L572.956242,401.387658 L570.53222,401.196112 L570.143339,402.64783 L572.969205,404.724593 L571.802563,407.587703 L572.385884,408.505108 L572.100705,410.269349 L570.700735,410.05764 L569.832234,411.035533 L570.454443,411.075859 L570.739623,412.225136 L571.893302,412.577984 L573.267347,410.440732 L574.34325,410.511302 L574.693243,412.850181 L575.989512,413.515552 L576.469131,413.142541 L576.520982,413.707098 L577.480221,413.465145 L577.804288,414.281736 L578.361684,414.261573 L577.713549,416.066139 L578.91908,416.852486 L578.530199,418.213472 L581.083849,417.195253 L582.159752,419.070389 L581.783834,419.987794 L583.767125,421.157233 L585.193021,422.256103 L583.818976,424.685714 L583.909715,426.117269 L584.933767,426.792722 L582.963439,428.385579 L585.193021,428.808996 L584.441185,430.109494 L582.64,431.307 L582.643,431.315 L584.441185,430.119575 L584.41526,432.781058 L584.843029,433.345615 L586.230036,433.476673 L584.868954,436.531329 L586.126335,436.894259 L584.907842,437.972966 L585.594865,439.717043 L585.102282,440.442902 L587.085574,441.037703 L587.435567,443.376582 L584.94673,444.747649 L584.843029,445.554159 L583.339357,445.181148 L582.496782,445.665054 L582.211603,445.292043 L581.731983,446.521971 L580.733856,446.915145 L580.941259,447.46962 L578.374647,448.548327 L577.972803,450.040371 L576.456169,450.453707 L577.946878,451.633228 L581.86161,449.848825 L581.654207,450.554521 L582.704185,450.554521 L584.000454,449.405244 L587.681858,449.66736 L587.474455,450.62509 L588.329992,450.544439 L589.04294,452.328843 L587.085574,453.296655 L588.36888,453.367224 L588.420731,455.000407 L584.596738,455.867405 L585.789305,456.452125 L586.644842,458.155877 L584.402297,461.119801 L585.491163,462.168264 L587.785559,461.593626 L587.137425,462.379973 L588.278141,464.033318 L587.604082,464.658363 L587.83741,465.333816 L585.42635,468.166682 L585.413387,469.47726 L583.831939,469.668807 L582.717148,468.509448 L582.898625,469.094168 L582.146789,469.315958 L581.796797,468.499367 L579.813505,468.842134 L579.411662,469.588156 L578.270945,469.850271 L578.996856,470.394665 L580.033871,469.567993 L581.148662,469.507505 L580.51349,470.757595 L581.161625,472.158906 L580.591267,472.521835 L578.932042,472.007685 L576.819124,472.431103 L576.404318,470.989467 L575.224713,471.110443 L574.433989,471.785895 L574.745094,472.511754 L573.358086,473.28802 L573.371049,475.294213 L571.59516,473.499729 L570.363705,473.650949 L568.808182,472.360533 L567.49895,473.852577 L566.021204,473.650949 L566.617487,474.134855 L565.800838,474.507866 L565.321218,477.008047 L563.597181,477.048373 L561.121307,478.106917 L559.915777,478.096835 L559.526896,476.423327 L558.567657,477.02821 L558.088038,475.384946 L554.976992,476.80642 L555.080694,475.596655 L554.277007,475.757957 L554.082567,474.296157 L552.280753,473.832414 L552.760372,472.99566 L550.997447,472.007685 L550.932633,471.332233 L548.223431,471.977441 L548.353058,472.582324 L546.603095,473.7316 L547.419744,474.951447 L547.030864,476.433409 L545.95496,476.302351 L545.449416,477.189512 L541.612459,477.411302 L540.45878,478.550497 L538.099571,479.457821 L533.303376,480.334901 L534.14595,481.685805 L533.705219,483.04679 L531.216383,484.851356 L529.725673,483.621429 L527.729419,483.954114 L524.242456,482.512477 L522.790634,482.502396 L521.429552,480.738156 L518.91479,480.748237 L517.903701,479.861076 L515.674118,480.970027 L515.025984,482.663698 L512.40752,483.399638 L511.914938,484.276718 L510.074236,485.093309 L506.794676,483.550859 L505.990989,484.65981 L506.37987,485.738517 L508.039094,488.420163 L509.46499,489.236754 L509.80202,487.52292 L513.535274,488.047152 L515.259312,487.59349 L517.670372,489.045208 L517.437044,489.79123 L518.279619,491.081646 L517.424081,491.77726 L518.72035,492.745072 L519.718477,492.079702 L522.401754,493.410443 L523.192478,491.938562 L524.398008,491.787342 L525.318359,493.128165 L527.094247,492.704747 L528.222001,493.329792 L529.18124,493.007188 L529.505308,492.019213 L530.853427,491.928481 L532.40895,493.319711 L534.055212,495.507369 L533.057084,496.555832 L533.134861,499.681058 L530.814539,501.364647 L530.594173,500.790009 L527.97571,500.42708 L527.651643,501.09245 L525.097993,502.040099 L525.785016,502.99783 L525.162807,502.70547 L524.112829,503.239783 L523.088776,504.167269 L523.322105,504.913291 L519.835141,502.171157 L518.18888,503.844665 L515.894484,503.854747 L513.664901,505.19557 L512.705662,505.155244 L512.40752,505.840778 L511.150139,505.800452 L512.226043,508.300633 L510.100162,510.004385 L507.572437,509.60113 L504.059548,511.808951 L502.516988,511.14358 L502.659578,509.782595 L499.989264,510.165687 L498.757808,511.375452 L497.772644,514.349458 L492.54868,510.488291 L490.993157,511.687975 L490.448724,513.169937 L488.724687,511.496429 L488.906164,510.861302 L486.987686,510.085036 L486.313626,511.990416 L484.771066,512.474322 L484.719216,513.653843 L483.085917,514.299051 L482.917402,515.155967 L480.59708,514.66198 L479.482289,512.917902 L475.29534,511.244394 L474.686094,511.637568 L473.545377,510.599186 L471.639862,511.929928 L471.912079,512.635624 L469.838048,514.460353 L469.656571,515.619711 L468.425115,515.337432 L467.738093,515.801175 L465.754801,515.034991 L464.043726,515.337432 L463.538181,516.073373 L461.94377,514.490597 L460.271583,514.833363 L459.351233,517.363788 L457.938299,517.88802 L458.871613,519.097785 L458.430882,519.732911 L459.19568,521.698779 L460.530837,522.041546 L460.582688,522.737161 L461.775255,523.573915 L461.308599,525.055877 L462.527091,526.699141 L461.464151,527.051989 L461.101196,530.620796 L462.851159,531.467631 L462.773383,532.001944 L461.801181,532.133002 L461.878957,533 L460.5438,532.868942 L460.025292,532.19349 L458.897538,532.506013 L458.975315,531.759991 L458.210516,531.518038 L453.647649,532.465687 L452.766186,530.65104 L453.375433,529.814286 L452.221753,529.300136 L452.558783,527.364512 L451.508805,527.233454 L451.781022,526.215235 L450.899559,525.902712 L451.055111,524.350181 L446.271879,526.074096 L443.718229,528.332324 L440.659034,528.67509 L438.844258,527.545976 L435.849877,528.886799 L434.462869,527.011664 L435.422108,525.922875 L434.877675,525.459132 L432.816607,525.418807 L432.233286,524.844168 L431.740704,523.715054 L432.596242,521.618128 L432.116622,520.569665 L430.664801,520.378119 L430.133331,520.952758 L428.461144,520.216817 L427.735233,520.690642 L426.905621,519.853888 L424.883441,519.894213 L424.027904,519.400226 L421.759433,519.914376 L418.94653,519.097785 L420.748343,516.516953 L420.3465,515.98264 L422.602008,514.450271 L421.55203,510.99236 L423.561247,509.621293 L423.522359,508.300633 L424.559374,508.834946 L425.4538,508.421609 L424.598262,506.415416 L421.914986,505.70972 L418.026179,506.284358 L417.041014,505.729882 L417.157679,505.19557 L414.331812,504.933454 L415.226238,503.522061 L414.344775,503.007911 L414.966984,501.737658 L414.228111,500.830335 L413.424424,501.042043 L413.074431,500.094394 L414.448476,499.045931 L413.346648,497.069982 L411.013364,496.364286 L411.467058,494.600045 L410.961513,494.317767 L413.592939,493.057595 L414.266999,491.605877 L409.807834,492.442631 L408.615266,491.958725 L402.107996,492.351899 L397.959936,493.622152 L394.097054,495.910624 L392.230427,494.620208 L393.824838,493.763291 L395.872943,491.40425 L395.393323,490.930425 L395.937756,489.892043 L394.421121,489.49887 L394.31742,489.014964 L395.211845,488.833499 L394.602599,487.573327 L392.256352,487.704385 L392.541531,483.450045 L396.365525,481.978165 L395.211845,480.103029 L397.298838,476.090642 L399.009913,476.705606 L402.120959,474.38689 L401.88763,472.642812 L402.795019,472.088336 L402.626504,471.100362 L404.959788,472.199231 L405.750512,471.96736 L407.746766,468.499367 L408.887483,467.93481 L410.287453,468.559855 L411.441132,467.682776 L411.518909,467.158544 L409.846722,465.948779 L409.224513,464.124051 L410.468931,463.740958 L410.767073,464.517224 L411.596685,463.912342 L411.868901,463.16632 L410.857811,462.269078 L410.922625,461.341591 L411.920752,460.373779 L412.6337,457.036844 L411.946677,453.599096 L412.361483,450.897288 L411.324468,450.090778 L411.09114,448.598734 L411.830013,447.126854 L411.078177,444.989602 L411.363356,443.568128 L410.75411,442.882595 L409.626356,443.074141 L408.952296,442.25755 L408.498602,442.590235 L406.85234,441.813969 L406.696788,443.406826 L405.296818,444.122604 L403.469079,441.199005 L403.598705,439.827939 L402.548728,439.394439 L403.23575,438.648418 L402.107996,437.801582 L402.095033,435.240913 L400.954317,434.363834 L400.085817,434.434403 L400.189518,433.557324 L398.167339,431.964467 L396.572928,432.539105 L395.108144,429.988517 L393.863726,430.5934 L392.917449,429.544937 L391.323039,431.893897 L391.206374,433.426266 L390.389725,433.133906 L389.313822,434.010986 L386.306478,433.063336 L384.971321,432.045118 L383.402835,432.811302 L381.808425,431.813246 L379.902909,432.035036 L377.971468,430.653888 L374.588207,431.32934 L373.628967,432.408047 L373.162311,431.692269 L371.464198,431.460398 L373.188236,430.351447 L372.410475,429.675995 L373.745632,429.242495 L373.654893,428.798915 L375.171528,428.17387 L374.821535,427.448011 L376.6752,426.964105 L377.167782,426.137432 L374.899311,423.022288 L375.690035,421.79236 L372.760467,422.467812 L369.804974,424.302622 L369.467944,423.838879 L370.116079,423.11302 L368.962399,421.812523 L372.760467,420.461618 L373.512303,419.211528 L373.032684,418.78811 L371.075318,419.524051 L368.405004,416.207278 L366.382824,417.376718 L365.125443,417.255741 L361.15886,419.312342 L360.510726,419.140958 L360.303323,419.776085 L359.512599,419.836573 L359.655188,421.066501 L358.838539,420.905199 L358.034852,422.417405 L355.066396,422.104882 L354.807142,421.348779 L352.694224,421.247966 L350.659082,420.431374 L351.073888,421.046338 L348.598014,420.259991 L347.392484,420.552351 L347.055454,419.4434 L344.618469,417.880787 L343.464789,419.614783 L341.390759,419.645027 L337.838982,421.72179 L336.86678,423.596926 L334.235354,425.230108 L334.352019,426.187839 L333.1076,427.679882 L331.772443,427.165732 L330.644689,427.730289 L325.991084,427.508499 L325.705905,427.941998 L325.239248,427.619394 L323.463359,428.143626 L322.465232,430.089331 L320.935635,431.026899 L321.739322,431.591456 L321.531919,432.559268 L318.330134,433.002848 L317.954216,434.04123 L317.357933,433.597649 L312.820991,435.553436 L312.419148,436.460759 L313.676529,437.509222 L310.746961,439.918671 L309.774759,439.626311 L306.74149,440.533635 L305.885953,439.394439 L305.00449,439.384358 L300.23422,441.440958 L299.274981,441.128436 L298.678697,440.079973 L297.408354,440.180787 L295.632465,439.444846 L296.150973,438.214919 L293.117704,437.680606 L290.434427,436.067586 L286.856725,437.801582 L285.547493,437.731013 L284.082709,436.743038 L281.334619,436.68255 L280.699447,436.047423 L276.292133,436.823689 L278.949484,434.242857 L274.555132,433.738788 L272.234811,432.750814 L271.042244,433.285127 L268.812661,432.690325 L267.244176,433.002848 L265.623839,434.111799 L265.546063,434.837658 L262.409092,435.099774 L260.166547,436.601899 L259.635077,437.630199 L258.222144,437.882233 L258.403621,439.344033 L256.796248,439.797694 L254.579628,442.822107 L252.051904,444.485533 L251.98709,447.711573 L248.876045,445.150904 L248.616791,443.558047 L249.91306,442.106329 L250.548232,439.374277 L249.692694,437.186618 L248.344574,436.299458 L246.970529,436.289376 L246.218693,435.472785 L244.857611,436.803526 L240.03549,438.093942 L238.246639,437.892315 L237.909609,439.263382 L236.042982,438.557685 L233.981915,440.13038 L231.065309,439.596067 L229.483861,440.049729 L229.172757,439.2533 L227.267241,439.90859 L226.528368,439.485172 L221.926613,439.878345 L222.108091,439.344033 L220.397016,438.235081 L218.621128,437.942722 L217.247083,436.954747 L216.36562,437.085805 L214.797134,435.80547 L211.712014,437.005154 L211.880529,438.466953 L210.156491,438.648418 L210.273156,437.841908 L209.093551,438.15443 L206.82508,437.529385 L206.021393,434.918309 L204.543647,436.077667 L205.360296,438.235081 L203.351079,438.51736 L202.508505,438.174593 L201.562228,435.704656 L196.143824,432.851627 L194.14757,432.619756 L193.13648,433.285127 L191.049487,433.305289 L190.258763,432.458454 L188.781017,432.569349 L190.064323,428.456148 L189.053233,427.599231 L184.581105,429.182007 L181.833015,428.536799 L181.301545,426.893535 L177.386813,426.742315 L177.659029,425.68377 L177.075708,425.078888 L174.794275,424.191727 L173.005424,424.605063 L173.264677,423.123101 L172.460991,422.215778 L173.75726,419.866817 L172.098035,418.92925 L169.18143,418.384855 L167.016661,419.493807 L165.811131,419.423237 L164.501899,420.4717 L162.881563,419.917224 L158.04648,414.463201 L151.565135,412.618309 L145.926365,408.263156 L141.000543,407.023146 L141.194984,405.793219 L140.196857,403.555154 L131.784071,402.012703 L130.980385,402.113517 L130.824832,402.930108 L129.295235,402.174005 L128.050817,402.305063 L127.700824,405.389964 L126.936025,406.146067 L125.717533,406.256962 L125.574943,407.527215 L124.641629,407.940552 L122.95648,407.214693 L123.073144,406.16623 L121.569472,404.522966 L118.289912,403.686212 L114.582582,401.226356 L113.636306,401.710262 L108.464193,399.825045 L107.971611,398.46406 L108.891962,397.496248 L107.686432,396.467948 L106.701267,396.921609 L105.729066,395.963879 L103.616147,395.258183 L102.579132,393.957685 L100.790281,393.564512 L98.0551534,394.340778 L96.8366606,393.080606 L95.3978021,393.11085 L94.8792945,391.911166 L93.5311748,391.457505 L92.4552716,389.904973 L92.6886,389.269846 L90.7441966,387.162839 L89.4090396,386.689014 L88.4627633,388.302034 L87.3998227,388.745615 L87.2183451,389.783996 L86.6609494,389.652939 L85.9091135,388.140732 L84.9628371,387.717315 L85.2739417,386.95113 L83.8221205,385.973237 L85.8572627,384.5316 L85.0146879,383.422649 L84.2758146,383.392405 L83.5758294,381.880199 L84.8720983,378.795298 L82.0332693,376.97057 L81.9554932,375.518852 L79.4407314,375.105515 L80.7499631,372.524684 L79.4277688,371.950045 L79,370.458002 L81.1777318,369.611166 L82.4999261,369.691817 L84.4702549,368.350995 L85.0406133,371.667767 L88.2553602,373.663879 L89.434965,373.048915 L90.3423532,373.23038 L90.7053085,371.83915 L91.9497267,371.133454 L92.857115,370.951989 L93.7385779,371.496383 L95.9681604,370.00434 L97.5625712,369.681736 L97.8736758,368.734087 L95.9811231,365.437477 L94.399675,364.076492 L95.3459513,361.062161 L89.849771,360.306058 L89.7201441,359.277758 L85.7276358,356.43481 L83.8998966,353.823734 L85.092464,352.059494 L83.8998966,349.740778 L84.8720983,348.258816 L83.8221205,347.452306 L88.2164722,344.84123 L88.4627633,343.681872 L87.4387108,342.855199 L87.9183303,342.603165 L89.2405246,343.399593 L89.9016218,342.189828 L91.1071519,341.746248 L92.3515701,342.179747 L97.5236832,341.222016 L99.1829074,341.675678 L101.723595,341.181691 L102.695796,340.425588 L102.734684,338.31858 L103.680961,337.794349 L102.825423,337.038246 L103.123565,335.465552 L104.873528,335.30425 L105.832767,332.239512 L107.440141,331.634629 L109.410469,329.598192 L109.812313,327.571835 L112.612254,326.019304 L113.778896,326.190687 L114.154814,327.027441 L115.723299,327.037523 L116.760314,327.954928 L121.776875,328.368264 L121.867614,327.249231 L122.969442,326.835895 L124.939771,328.206962 L128.530436,327.60208 L130.448914,329.376401 L132.393318,329.527622 L135.4914,329.124367 L136.787669,328.600136 L136.541378,328.196881 L137.980237,328.075904 L138.511707,326.190687 L142.95791,324.557505 L143.230126,323.035217 L144.150477,322.964647 L145.213417,321.986754 L148.026321,322.390009 L149.698508,323.246926 L150.761449,322.460579 L153.457688,322.722694 L154.079897,325.636212 L156.179853,326.977034 L158.072405,326.644349 L160.60013,327.23915 L162.246391,327.037523 L162.972302,327.854114 L164.294496,327.944846 L168.377743,327.551673 L170.373998,326.614105 L173.446155,327.60208 L177.892357,325.737025 L177.918283,324.648237 L184.231113,323.216682 L187.432897,321.553255 L191.269853,321.029024 L195.49569,322.107731 L195.49569,322.924322 L196.675294,323.115868 L198.321556,321.482685 L202.521467,320.968535 L204.141804,320.000723 L206.189908,317.077125 L206.48805,315.564919 L207.382476,315.081013 L210.700924,314.113201 L211.569425,314.405561 L214.304552,313.871248 L215.665634,312.953843 L217.42856,312.752215 L217.998918,313.397423 L219.554441,312.732052 L222.069203,312.913517 L222.795114,312.096926 L224.635815,311.865054 L225.828383,311.038382 L227.124652,311.058544 L227.345018,311.895298 L228.965354,312.207821 L231.609742,311.532369 L234.241168,311.764241 L235.718915,310.705696 L238.207751,310.87708 L240.087341,310.191546 L243.703932,310 Z M589.509597,454.939919 L589.457746,455.454069 L589.04294,455.575045 L588.926276,455.595208 L589.509597,454.939919 Z" id="path-1"></path>
        <filter x="-1.6%" y="-3.8%" width="103.3%" height="107.6%" filterUnits="objectBoundingBox" id="filter-2">
            <feGaussianBlur stdDeviation="8" in="SourceAlpha" result="shadowBlurInner1"></feGaussianBlur>
            <feOffset dx="-1" dy="-1" in="shadowBlurInner1" result="shadowOffsetInner1"></feOffset>
            <feComposite in="shadowOffsetInner1" in2="SourceAlpha" operator="arithmetic" k2="-1" k3="1" result="shadowInnerInner1"></feComposite>
            <feColorMatrix values="0 0 0 0 0.206573933   0 0 0 0 0.918783158   0 0 0 0 1  0 0 0 1 0" type="matrix" in="shadowInnerInner1" result="shadowMatrixInner1"></feColorMatrix>
            <feGaussianBlur stdDeviation="0.5" in="SourceAlpha" result="shadowBlurInner2"></feGaussianBlur>
            <feOffset dx="0" dy="2" in="shadowBlurInner2" result="shadowOffsetInner2"></feOffset>
            <feComposite in="shadowOffsetInner2" in2="SourceAlpha" operator="arithmetic" k2="-1" k3="1" result="shadowInnerInner2"></feComposite>
            <feColorMatrix values="0 0 0 0 0.199599848   0 0 0 0 0.961825321   0 0 0 0 1  0 0 0 1 0" type="matrix" in="shadowInnerInner2" result="shadowMatrixInner2"></feColorMatrix>
            <feGaussianBlur stdDeviation="0.5" in="SourceAlpha" result="shadowBlurInner3"></feGaussianBlur>
            <feOffset dx="0" dy="-2" in="shadowBlurInner3" result="shadowOffsetInner3"></feOffset>
            <feComposite in="shadowOffsetInner3" in2="SourceAlpha" operator="arithmetic" k2="-1" k3="1" result="shadowInnerInner3"></feComposite>
            <feColorMatrix values="0 0 0 0 0   0 0 0 0 0.862745098   0 0 0 0 0.976470588  0 0 0 1 0" type="matrix" in="shadowInnerInner3" result="shadowMatrixInner3"></feColorMatrix>
            <feMerge>
                <feMergeNode in="shadowMatrixInner1"></feMergeNode>
                <feMergeNode in="shadowMatrixInner2"></feMergeNode>
                <feMergeNode in="shadowMatrixInner3"></feMergeNode>
            </feMerge>
        </filter>
    </defs>
    <g id="组件" stroke="none" stroke-width="1" fill="none" fill-rule="evenodd">
        <g id="画板备份" fill-rule="nonzero">
            <g id="西南-2" transform="translate(0.327194, 0.000000)">
                <g id="西南">
                    <use fill="#0B9BF2" xlink:href="#path-1"></use>
                    <use fill="black" fill-opacity="1" filter="url(#filter-2)" xlink:href="#path-1"></use>
                    <path stroke="#FFFFFF" stroke-width="1" d="M245.370227,310.970208 L245.692505,310.941626 L245.21211,310.687933 L245.370227,310.970208 Z M251.139635,312.403012 L251.350861,312.321287 L250.938898,312.29813 L251.139635,312.403012 Z M256.226915,313.502523 L256.441263,313.42166 L256.025707,313.392984 L256.226915,313.502523 Z M262.358971,316.240093 L264.278349,316.744136 L264.288034,315.77449 L262.358971,316.240093 Z M260.635208,316.656144 L260.528854,316.681814 L260.742562,316.677237 L260.635208,316.656144 Z M264.752846,320.351081 L265.440718,320.389068 L265.002184,319.708865 L264.752846,320.351081 Z M264.213298,323.830803 L264.479914,324.237045 L264.61176,323.552694 L264.213298,323.830803 Z M264.145757,325.657182 L264.538019,326.063943 L264.597256,325.317368 L264.145757,325.657182 Z M263.467411,326.167728 L263.391725,326.224692 L263.558689,326.142396 L263.467411,326.167728 Z M260.082857,328.821516 L260.08589,329.099853 L260.998572,329.263656 L260.816947,328.350655 L260.082857,328.821516 Z M261.556187,331.766834 L261.919109,331.872679 L261.559115,331.388804 L261.556187,331.766834 Z M265.288374,334.941766 L265.578993,334.914978 L265.122137,334.701886 L265.288374,334.941766 Z M265.90165,335.826725 L266.198041,336.254417 L266.340822,335.547626 L265.90165,335.826725 Z M264.974869,339.270254 L265.302892,339.385234 L264.968374,338.922724 L264.974869,339.270254 Z M265.906689,343.378824 L266.342707,343.764166 L266.353273,343.005778 L265.906689,343.378824 Z M265.259381,345.601553 L265.218702,345.916344 L265.561561,345.504415 L265.259381,345.601553 Z M267.039829,351.831003 L267.413381,352.000612 L267.133221,351.431521 L267.039829,351.831003 Z M268.301323,353.482418 L268.731291,353.667881 L268.458232,353.041227 L268.301323,353.482418 Z M272.100552,356.428262 L272.352222,356.55131 L272.074078,356.149375 L272.100552,356.428262 Z M276.695342,360.234259 L276.808095,360.24069 L276.5963,360.17999 L276.695342,360.234259 Z M285.078836,360.594953 L285.218338,360.479384 L284.897682,360.594346 L285.078836,360.594953 Z M289.078352,359.322754 L289.234125,359.104346 L288.810237,359.313732 L289.078352,359.322754 Z M291.17118,359.393181 L291.302973,359.397616 L291.615845,359.72437 L291.659732,358.992114 L291.28049,359.303445 L291.162151,359.250545 L291.242593,359.334556 L291.17118,359.393181 Z M298.750202,365.009866 L298.871527,365.042867 L298.65892,364.9234 L298.750202,365.009866 Z M303.86703,366.019378 L304.066498,365.950198 L303.678345,365.924661 L303.86703,366.019378 Z M304.719743,366.447427 L305.104241,366.640439 L304.853236,366.038437 L304.719743,366.447427 Z M309.036817,367.793628 L309.141134,367.771166 L308.932418,367.771546 L309.036817,367.793628 Z M313.00833,367.839707 L313.226949,367.64951 L312.734617,367.744574 L313.00833,367.839707 Z M317.879976,368.20572 L318.290327,368.084483 L317.696794,367.819028 L317.879976,368.20572 Z M321.824462,369.377178 L322.064713,369.338685 L321.645922,369.211874 L321.824462,369.377178 Z M325.314129,371.00257 L325.644572,370.891711 L325.095795,370.730885 L325.314129,371.00257 Z M328.829768,370.663551 L328.936463,370.593263 L328.702433,370.674037 L328.829768,370.663551 Z M329.718712,370.590349 L329.804261,370.583304 L329.635712,370.568458 L329.718712,370.590349 Z M330.937405,370.911778 L331.126422,370.961631 L330.832322,370.746943 L330.937405,370.911778 Z M333.560548,371.988077 L333.76621,371.962239 L333.396927,371.860826 L333.560548,371.988077 Z M335.250636,372.266809 L335.453921,372.166957 L335.04151,372.179852 L335.250636,372.266809 Z M337.874474,371.516543 L338.018306,371.354673 L337.658012,371.522377 L337.874474,371.516543 Z M340.991514,370.469723 L341.194597,369.956412 L340.500744,370.216987 L340.991514,370.469723 Z M344.401513,369.283471 L344.673263,369.127215 L344.142469,369.106949 L344.401513,369.283471 Z M346.235143,370.532967 L346.864633,370.961922 L347.146193,370.548734 L346.8791,370.126051 L346.235143,370.532967 Z M348.665048,372.300736 L348.877852,372.354281 L348.56039,372.107864 L348.665048,372.300736 Z M348.992504,372.904193 L349.156673,373.206734 L349.216524,372.642855 L348.992504,372.904193 Z M350.728237,374.522254 L350.837474,374.555524 L350.644274,374.444861 L350.728237,374.522254 Z M355.475833,375.479585 L355.749972,375.474367 L355.324053,375.251239 L355.475833,375.479585 Z M357.385979,376.835855 L357.707974,376.897183 L357.313798,376.516118 L357.385979,376.835855 Z M357.535318,377.497374 L357.611939,377.836778 L357.826951,377.307594 L357.535318,377.497374 Z M357.146989,378.530769 L357.585381,378.982294 L357.685936,378.205809 L357.146989,378.530769 Z M361.02051,382.522281 L361.126179,382.492452 L360.912064,382.505091 L361.02051,382.522281 Z M362.768372,382.799347 L362.947207,382.827695 L362.649156,382.663064 L362.768372,382.799347 Z M365.102046,383.444032 L365.241861,383.340313 L364.928048,383.43849 L365.102046,383.444032 Z M368.4589,383.550955 L368.726116,383.559466 L368.317588,383.324003 L368.4589,383.550955 Z M371.336178,384.404048 L370.828761,384.206733 L371.096482,384.892874 L371.336178,384.404048 Z M370.026443,381.478258 L369.920622,381.413166 L370.022631,381.159296 L369.775795,381.324082 L369.561392,381.192201 L369.63574,381.417582 L369.552965,381.472843 L369.654352,381.474002 L369.763377,381.804504 L369.895071,381.476755 L370.026443,381.478258 Z M369.920622,381.413166 L369.775795,381.324082 L369.63574,381.417582 L369.654352,381.474002 L369.895071,381.476755 L369.920622,381.413166 Z M370.846383,380.655137 L370.643811,380.15887 L370.337247,380.822754 L370.846383,380.655137 Z M372.139412,380.229446 L372.450165,380.12714 L371.921232,379.98566 L372.139412,380.229446 Z M378.053067,383.333868 L378.246916,383.327586 L377.905688,383.207786 L378.053067,383.333868 Z M380.207073,381.097537 L379.938282,380.708715 L379.833948,381.387725 L380.207073,381.097537 Z M380.206183,379.308699 L379.354948,378.077457 L378.785852,378.836239 L380.206183,379.308699 Z M381.902898,379.04696 L382.106565,378.873621 L381.645664,378.973769 L381.902898,379.04696 Z M383.295404,378.370571 L383.21181,377.713935 L382.640934,378.271441 L383.295404,378.370571 Z M387.797343,377.86083 L387.493047,376.961531 L386.883637,377.602999 L387.797343,377.86083 Z M388.288744,375.963571 L388.209613,375.797628 L388.241529,376.141249 L388.288744,375.963571 Z M388.560467,374.941028 L388.643372,374.629043 L388.242011,374.993885 L388.560467,374.941028 Z M390.98988,373.927568 L389.540553,373.242124 L389.407851,374.187507 L390.98988,373.927568 Z M389.581991,372.007152 L389.381211,371.774551 L389.465175,372.291353 L389.581991,372.007152 Z M389.821059,371.42553 L389.97072,371.061425 L389.432002,371.365488 L389.821059,371.42553 Z M390.857451,367.867594 L390.688681,367.778148 L390.923599,368.046783 L390.857451,367.867594 Z M389.855625,365.153725 L389.769919,364.921557 L389.722995,365.362668 L389.855625,365.153725 Z M390.115137,364.744893 L390.22854,364.566239 L389.90794,364.787864 L390.115137,364.744893 Z M392.379841,363.607363 L392.110943,363.119399 L391.865732,363.822089 L392.379841,363.607363 Z M392.075694,361.364969 L391.886354,360.988653 L391.736964,361.615421 L392.075694,361.364969 Z M394.117719,358.898481 L394.183495,358.696961 L393.927145,358.991318 L394.117719,358.898481 Z M392.981903,356.243852 L392.707607,356.187125 L393.076785,356.507393 L392.981903,356.243852 Z M390.762835,353.995362 L390.25868,353.831991 L390.57043,354.489166 L390.762835,353.995362 Z M390.069314,351.050841 L389.993755,350.874547 L390.007584,351.232439 L390.069314,351.050841 Z M390.203354,350.65652 L390.305726,350.355359 L389.887189,350.691421 L390.203354,350.65652 Z M394.666458,348.935736 L394.828138,348.474681 L394.201791,348.784748 L394.666458,348.935736 Z M395.552113,349.22352 L396.094344,349.399712 L395.797571,348.708924 L395.552113,349.22352 Z M400.268264,349.809349 L400.380525,349.773495 L400.151807,349.791295 L400.268264,349.809349 Z M403.624745,350.329697 L404.053577,350.396177 L403.630215,349.895777 L403.624745,350.329697 Z M406.536332,351.031385 L406.662879,351.010147 L406.415196,350.989059 L406.536332,351.031385 Z M407.209409,351.266566 L407.309622,351.301582 L407.132068,351.193855 L407.209409,351.266566 Z M409.89419,353.790632 L410.359777,354.228348 L410.431049,353.444006 L409.89419,353.790632 Z M411.456674,356.697044 L411.712599,356.863806 L411.488243,356.393218 L411.456674,356.697044 Z M412.112434,358.39232 L412.315558,358.5995 L412.191522,358.113165 L412.112434,358.39232 Z M412.734494,360.145838 L412.921752,360.22351 L412.654204,359.959687 L412.734494,360.145838 Z M418.97505,363.595191 L419.152275,363.653892 L418.879667,363.434703 L418.97505,363.595191 Z M422.070245,365.621574 L422.239483,365.580806 L421.912282,365.548423 L422.070245,365.621574 Z M429.482205,365.107997 L429.230153,364.4023 L428.73382,365.06983 L429.482205,365.107997 Z M431.040019,364.04074 L431.339169,363.017057 L430.444463,363.156019 L431.040019,364.04074 Z M432.536973,365.090642 L433.036973,365.090642 L432.536973,364.590642 L432.536973,365.090642 Z M433.95174,366.244723 L434.180409,366.347324 L433.897113,366.000117 L433.95174,366.244723 Z M434.269942,367.669569 L434.324882,367.915578 L434.435048,367.479099 L434.269942,367.669569 Z M437.18471,368.212076 L437.340916,367.803807 L436.759235,368.111803 L437.18471,368.212076 Z M439.095831,368.01834 L439.391409,367.870983 L438.844298,367.804305 L439.095831,368.01834 Z M441.209769,370.223355 L441.575686,370.652353 L441.677761,369.911047 L441.209769,370.223355 Z M443.964634,370.048643 L443.932363,369.433741 L443.356202,369.954005 L443.964634,370.048643 Z M444.794088,369.386673 L444.176694,368.321967 L443.609085,369.054195 L444.794088,369.386673 Z M450.139715,369.083693 L450.288717,369.005761 L449.973902,369.055753 L450.139715,369.083693 Z M450.381687,369.124467 L450.751664,369.18681 L450.338127,368.751812 L450.381687,369.124467 Z M451.495447,364.848823 L451.231378,364.670361 L451.445143,365.163546 L451.495447,364.848823 Z M451.979632,361.819596 L452.028464,361.514089 L451.684441,361.912232 L451.979632,361.819596 Z M454.333212,361.081001 L454.639934,360.984746 L454.118333,360.841897 L454.333212,361.081001 Z M455.916848,360.842315 L455.971077,360.432069 L455.503697,360.865744 L455.916848,360.842315 Z M456.593437,360.803946 L456.748116,360.795174 L456.460898,360.723722 L456.593437,360.803946 Z M461.205408,360.21401 L461.7083,359.339345 L461.609086,359.289846 L460.667355,359.795554 L461.205408,360.21401 Z M460.195031,358.584351 L460.157242,358.565497 L460.213552,358.481718 L460.232165,358.378581 L460.156532,358.565143 L459.859631,358.417014 L460.128464,358.953219 L460.195031,358.584351 Z M460.92111,357.429001 L461.049515,357.237958 L460.692475,357.455674 L460.92111,357.429001 Z M462.159435,355.535033 L462.15857,355.442177 L462.126902,355.622008 L462.159435,355.535033 Z M462.393051,354.910479 L462.397595,354.898329 L462.601017,354.93199 L462.427451,354.818513 L462.541708,354.513057 L461.991771,354.831176 L462.383647,354.896021 L462.393051,354.910479 Z M463.768909,357.025666 L463.935698,357.28208 L463.92126,356.760418 L463.768909,357.025666 Z M462.851698,358.622565 L462.780543,358.746449 L462.977564,358.554975 L462.851698,358.622565 Z M462.124709,360.928971 L462.362724,361.114081 L462.177364,360.632081 L462.124709,360.928971 Z M465.187961,361.239177 L465.335847,361.124162 L465.000908,361.228692 L465.187961,361.239177 Z M467.293113,360.339803 L467.51613,359.930177 L466.868987,360.145773 L467.293113,360.339803 Z M469.094682,358.594617 L468.549619,358.250192 L468.625413,359.036782 L469.094682,358.594617 Z M469.772036,357.956387 L469.973533,357.766529 L469.504185,357.886366 L469.772036,357.956387 Z M471.362357,354.001546 L471.018782,353.877624 L471.348793,354.366534 L471.362357,354.001546 Z M471.250417,351.926262 L469.960018,352.453563 L470.589354,353.153524 L471.250417,351.926262 Z M469.842933,351.414801 L469.370245,351.261328 L469.692328,351.888411 L469.842933,351.414801 Z M469.164901,349.494877 L468.78704,348.988203 L468.584857,349.745969 L469.164901,349.494877 Z M469.829568,349.207154 L469.958902,349.151168 L469.690035,349.187357 L469.829568,349.207154 Z M472.684682,347.680381 L472.809021,347.342873 L472.325154,347.669811 L472.684682,347.680381 Z M476.047037,346.291048 L475.709756,345.791407 L475.493655,346.530147 L476.047037,346.291048 Z M477.615288,344.951967 L477.752305,344.73667 L477.360551,344.967314 L477.615288,344.951967 Z M480.04666,344.273515 L480.271109,344.084409 L479.77213,344.169727 L480.04666,344.273515 Z M480.489532,344.440947 L480.705444,344.522575 L480.41161,344.22367 L480.489532,344.440947 Z M483.216653,346.295932 L483.417969,346.32431 L483.092264,346.135118 L483.216653,346.295932 Z M483.771578,347.013359 L484.090391,347.425533 L484.196562,346.711833 L483.771578,347.013359 Z M483.618958,348.39958 L483.811459,348.718703 L483.869785,348.123932 L483.618958,348.39958 Z M484.089351,350.202008 L484.329727,350.422083 L484.193673,349.893251 L484.089351,350.202008 Z M489.461277,352.455288 L490.29365,351.83548 L489.495299,351.418057 L489.461277,352.455288 Z M491.359517,353.440366 L491.508165,353.388396 L491.207916,353.397775 L491.359517,353.440366 Z M498.72221,353.832377 L498.881915,353.817514 L498.583662,353.751563 L498.72221,353.832377 Z M500.290367,354.74707 L500.605842,354.931084 L500.369704,354.390572 L500.290367,354.74707 Z M502.460117,358.961478 L502.718118,359.176762 L505.076931,359.392586 L504.742872,358.569256 L504.459888,358.899381 L502.287387,358.536326 L502.460117,358.961478 Z M503.703403,362.021656 L503.803723,362.26858 L503.852475,361.80072 L503.703403,362.021656 Z M504.152202,363.77614 L504.937041,363.993756 L504.701439,363.174752 L504.152202,363.77614 Z M503.857212,364.09914 L503.716275,364.253459 L504.066045,364.09102 L503.857212,364.09914 Z M507.15288,368.254506 L507.253756,368.289322 L507.075008,368.181539 L507.15288,368.254506 Z M509.347149,369.185438 L509.575529,369.146224 L509.169607,369.03653 L509.347149,369.185438 Z M511.523187,369.40718 L511.806064,369.342474 L511.326674,369.193665 L511.523187,369.40718 Z M515.059651,369.630018 L515.278715,369.568064 L514.86909,369.505463 L515.059651,369.630018 Z M521.327771,365.755877 L521.104935,365.389409 L520.999487,366.031891 L521.327771,365.755877 Z M521.756532,365.395383 L521.958726,365.225381 L521.502149,365.324161 L521.756532,365.395383 Z M522.261495,365.536763 L522.474351,365.596358 L522.162315,365.339222 L522.261495,365.536763 Z M526.765916,367.783895 L526.959262,367.704913 L526.573837,367.70188 L526.765916,367.783895 Z M528.288865,366.942469 L528.421223,366.682672 L527.997573,366.955218 L528.288865,366.942469 Z M531.564304,366.446387 L531.913334,366.110028 L531.217281,366.107957 L531.564304,366.446387 Z M531.720459,366.598676 L532.033931,366.904386 L531.98214,366.247611 L531.720459,366.598676 Z M536.277334,369.240641 L536.365136,369.26122 L536.202254,369.190684 L536.277334,369.240641 Z M543.037889,368.277674 L543.108878,368.253975 L543.11031,368.278848 L543.574688,368.286372 L543.083615,367.815177 L543.108775,368.252188 L542.952479,368.276291 L543.037889,368.277674 Z M547.347359,368.453006 L547.565803,368.422892 L547.177816,368.31201 L547.347359,368.453006 Z M548.275618,369.224968 L548.487048,369.400799 L548.31088,368.95225 L548.275618,369.224968 Z M553.573561,371.204644 L553.744764,371.010346 L553.316086,371.176918 L553.573561,371.204644 Z M553.808467,371.22994 L554.158661,371.26765 L553.726068,370.887495 L553.808467,371.22994 Z M557.802441,373.28139 L558.033025,373.25274 L557.631863,373.123615 L557.802441,373.28139 Z M564.248474,375.959817 L564.39191,375.760485 L564.003041,375.968156 L564.248474,375.959817 Z M567.583258,375.200948 L567.812716,374.988502 L567.291813,375.087616 L567.583258,375.200948 Z M571.21274,375.27269 L571.530283,375.214132 L571.028735,375.00735 L571.21274,375.27269 Z M575.602171,377.648163 L575.757123,377.65189 L575.476496,377.557443 L575.602171,377.648163 Z M580.300885,379.758441 L580.422547,379.780945 L580.203758,379.681798 L580.300885,379.758441 Z M584.01661,382.121998 L584.328675,382.202898 L583.961506,381.804361 L584.01661,382.121998 Z M589.421559,383.279532 L589.479855,383.276952 L589.364236,383.268619 L589.421559,383.279532 Z M591.431516,383.662188 L591.853072,383.742444 L591.446904,383.233336 L591.431516,383.662188 Z M593.29674,385.726921 L593.401772,385.712463 L593.194878,385.697508 L593.29674,385.726921 Z M595.051839,386.233721 L595.813342,386.453611 L595.578253,385.641162 L595.051839,386.233721 Z M598.234254,388.166472 L598.47687,388.262726 L598.174524,387.912386 L598.234254,388.166472 Z M598.948345,391.204148 L599.030061,391.551762 L599.250639,391.014066 L598.948345,391.204148 Z M598.528486,393.843703 L598.637957,394.072598 L598.648585,393.620201 L598.528486,393.843703 Z M597.421591,395.90361 L597.196764,396.322009 L597.850971,396.106681 L597.421591,395.90361 Z M597.09576,395.749512 L596.891732,395.653019 L597.158352,395.966354 L597.09576,395.749512 Z M589.349409,398.14178 L589.112429,398.352624 L589.641127,398.266339 L589.349409,398.14178 Z M585.828843,400.159103 L585.248844,400.757341 L586.083838,400.952365 L585.828843,400.159103 Z M582.226691,399.951101 L581.986752,400.080837 L582.465655,400.082624 L582.226691,399.951101 Z M582.008148,399.830817 L581.62308,399.618881 L581.847315,400.239873 L582.008148,399.830817 Z M576.921291,400.560973 L576.789726,400.647926 L577.078936,400.565237 L576.921291,400.560973 Z M575.880319,400.532813 L575.588226,400.524912 L576.016807,400.791177 L575.880319,400.532813 Z M573.574451,400.242367 L573.689398,400.573662 L573.846787,400.021456 L573.574451,400.242367 Z M572.796436,400.873472 L572.641257,400.999349 L572.99563,400.889212 L572.796436,400.873472 Z M572.35914,404.896752 L572.67311,405.127492 L572.50617,404.535918 L572.35914,404.896752 Z M571.861958,408.612978 L571.963953,408.773388 L571.892291,408.425322 L571.861958,408.612978 Z M571.686091,409.700965 L571.607112,410.189563 L572.175467,409.77497 L571.686091,409.700965 Z M570.057221,411.551164 L570.422106,411.574812 L569.96916,411.196276 L570.057221,411.551164 Z M573.528605,410.958943 L573.687928,410.711125 L573.234622,410.93966 L573.528605,410.958943 Z M573.908396,410.983854 L574.310525,411.01023 L573.848756,410.585299 L573.908396,410.983854 Z M576.054797,414.098192 L576.776088,413.537227 L575.971227,413.18827 L576.054797,414.098192 Z M577.177255,414.057223 L577.602508,413.94996 L577.01548,413.649579 L577.177255,414.057223 Z M577.641354,414.787957 L578.379759,414.761246 L577.891115,414.092562 L577.641354,414.787957 Z M578.336986,417.069762 L578.645914,417.271271 L578.43832,416.715117 L578.336986,417.069762 Z M580.866067,417.820371 L581.269036,417.659694 L580.650166,417.444089 L580.866067,417.820371 Z M581.60436,419.107103 L581.726069,419.319225 L581.697087,418.880806 L581.60436,419.107103 Z M584.544802,422.386595 L584.887812,422.652143 L584.7578,422.009968 L584.544802,422.386595 Z M584.087778,426.833687 L584.658466,427.210105 L584.619427,426.40389 L584.087778,426.833687 Z M584.407498,429.168755 L585.099734,429.300217 L584.760152,428.558748 L584.407498,429.168755 Z M584.066895,429.757918 L584.008316,429.859246 L584.164361,429.693118 L584.066895,429.757918 Z M583.932016,431.058475 L584.717996,430.535959 L583.941209,430.114705 L583.932016,431.058475 Z M585.490023,433.908976 L586.183001,433.974455 L585.773323,433.273172 L585.490023,433.908976 Z M585.114177,437.122522 L585.987676,437.374648 L585.794908,436.519884 L585.114177,437.122522 Z M585.032912,439.654699 L585.129657,439.900297 L585.181136,439.436279 L585.032912,439.654699 Z M586.638035,441.425486 L586.941941,441.516629 L586.59108,441.1117 L586.638035,441.425486 Z M586.889585,443.106507 L586.941072,443.450579 L587.194309,442.938638 L586.889585,443.106507 Z M584.418686,444.933739 L584.347111,445.490394 L584.963413,445.068868 L584.418686,444.933739 Z M582.627811,445.013208 L582.247769,445.231473 L582.496782,445.665054 L582.893994,445.361372 L582.627811,445.013208 Z M581.345506,446.136816 L581.266149,446.340316 L581.548732,446.056762 L581.345506,446.136816 Z M580.304635,447.194819 L580.472949,447.644793 L580.747531,447.008676 L580.304635,447.194819 Z M577.564598,449.633385 L577.490007,449.910342 L577.841331,449.557965 L577.564598,449.633385 Z M581.073373,450.75761 L582.068991,450.30379 L581.381899,449.707838 L581.073373,450.75761 Z M584.174762,449.918921 L584.332158,449.779373 L583.964944,449.903982 L584.174762,449.918921 Z M587.071132,450.125142 L587.646348,450.166097 L587.193185,449.561534 L587.071132,450.125142 Z M588.004478,451.077342 L588.376919,451.042232 L587.865681,450.729952 L588.004478,451.077342 Z M588.407236,452.085384 L588.578629,452.514356 L588.821327,451.880638 L588.407236,452.085384 Z M587.883679,453.841298 L588.341426,453.86647 L587.869132,453.38309 L587.883679,453.841298 Z M587.907893,454.60399 L587.920983,455.016273 L588.310174,454.512783 L587.907893,454.60399 Z M585.418025,456.826951 L585.569188,456.901066 L585.342476,456.676499 L585.418025,456.826951 Z M586.05842,458.10226 L586.198014,458.380252 L586.246112,457.854192 L586.05842,458.10226 Z M586.555594,462.417117 L587.907034,462.078645 L587.399728,461.27561 L586.511515,462.353231 L586.555594,462.417117 Z M587.620783,463.960994 L587.866591,464.317265 L587.938169,463.666686 L587.620783,463.960994 Z M587.271584,465.227187 L587.364813,465.49707 L587.456648,465.009748 L587.271584,465.227187 Z M584.91775,469.033638 L584.913411,469.472315 L585.353266,468.980888 L584.91775,469.033638 Z M584.019456,469.14244 L583.771818,469.172434 L584.192352,469.322248 L584.019456,469.14244 Z M582.020981,467.95321 L582.270786,468.758078 L582.005317,468.83639 L582.344602,468.995915 L582.421096,469.242377 L582.511119,469.074208 L582.606357,469.118987 L582.553351,468.995316 L582.757153,468.6146 L582.431367,468.710706 L582.10079,467.939416 L582.020981,467.95321 Z M579.078896,469.151589 L578.971461,469.351042 L579.299689,469.100855 L579.078896,469.151589 Z M580.22056,470.058599 L580.345542,469.958967 L580.060961,470.067258 L580.22056,470.058599 Z M580.310285,470.05373 L581.175752,470.00677 L580.702902,469.281014 L580.310285,470.05373 Z M580.524219,471.971856 L580.527323,471.978566 L580.518145,471.975722 L580.322842,472.099996 L580.568286,472.067132 L580.707815,472.368802 L580.893201,471.737067 L580.524219,471.971856 Z M577.172318,471.850384 L576.72088,471.94085 L577.299629,472.292846 L577.172318,471.850384 Z M574.108279,472.295178 L574.285526,472.708726 L574.500902,472.07544 L574.108279,472.295178 Z M572.863129,474.070157 L572.871059,475.297444 L573.726439,474.942506 L572.863129,474.070157 Z M570.516897,473.128382 L570.302763,473.154677 L570.682941,473.266128 L570.516897,473.128382 Z M567.300333,473.320844 L567.123123,473.522798 L567.566545,473.357167 L567.300333,473.320844 Z M565.676365,474.015032 L566.302416,474.523095 L566.409752,473.680052 L565.676365,474.015032 Z M564.906182,476.517618 L564.830172,476.913848 L565.309527,476.508184 L564.906182,476.517618 Z M561.020909,477.60606 L560.924747,477.647173 L561.125488,477.606934 L561.020909,477.60606 Z M560.313681,477.600145 L559.919958,477.596853 L560.402801,477.983664 L560.313681,477.600145 Z M558.861847,476.251589 L558.300961,476.605276 L559.047631,476.88812 L558.861847,476.251589 Z M555.548325,475.995651 L554.769199,476.351643 L555.475165,476.849123 L555.548325,475.995651 Z M554.702226,475.162643 L554.178618,475.267733 L554.772642,475.69203 L554.702226,475.162643 Z M553.040866,473.511754 L552.405379,473.348195 L552.714545,474.08106 L553.040866,473.511754 Z M551.470165,471.699441 L551.241887,471.57151 L551.495161,471.959927 L551.470165,471.699441 Z M547.792418,472.352333 L547.864158,472.687095 L548.078586,472.164394 L547.792418,472.352333 Z M546.878944,475.042419 L547.004257,475.229602 L546.936118,474.824539 L546.878944,475.042419 Z M546.658028,475.884297 L546.547237,476.306501 L547.091323,475.937077 L546.658028,475.884297 Z M545.14945,476.706016 L545.014998,476.941961 L545.420562,476.690345 L545.14945,476.706016 Z M540.1818,478.121318 L540.107467,478.194718 L540.279302,478.08382 L540.1818,478.121318 Z M533.59861,481.753051 L533.721706,481.950411 L533.67027,481.531764 L533.59861,481.753051 Z M533.279756,482.737678 L533.229539,482.89275 L533.411718,482.641997 L533.279756,482.737678 Z M531.236132,484.219437 L530.922882,484.446563 L531.534588,484.465681 L531.236132,484.219437 Z M527.788292,483.437407 L527.647225,483.460916 L527.920454,483.492047 L527.788292,483.437407 Z M523.037711,482.0041 L522.794106,482.002408 L523.186515,482.196981 L523.037711,482.0041 Z M519.102189,480.247482 L518.912786,480.248241 L519.24456,480.372402 L519.102189,480.247482 Z M514.64881,482.250333 L514.559009,482.484996 L514.890696,482.182348 L514.64881,482.250333 Z M511.560331,483.887039 L511.478986,484.03188 L511.71218,483.819674 L511.560331,483.887039 Z M510.080305,484.543623 L509.871478,484.636265 L510.287036,484.640854 L510.080305,484.543623 Z M510.20128,488.083891 L510.292623,487.619399 L509.732491,488.018063 L510.20128,488.083891 Z M515.18232,488.130771 L515.38655,488.07703 L515.001401,488.021838 L515.18232,488.130771 Z M517.075897,489.270908 L517.412461,489.473556 L517.193168,488.895956 L517.075897,489.270908 Z M517.614702,490.977856 L517.860962,491.355007 L517.964188,490.693697 L517.614702,490.977856 Z M519.755293,492.656072 L519.995814,492.495736 L519.496327,492.52764 L519.755293,492.656072 Z M523.510798,492.402551 L523.632941,492.175188 L523.25471,492.434674 L523.510798,492.402551 Z M524.158102,492.321354 L524.46024,492.283454 L523.985777,492.0703 L524.158102,492.321354 Z M527.021525,493.236101 L527.21021,493.191114 L526.851866,493.14207 L527.021525,493.236101 Z M529.87531,492.495442 L529.980402,492.17505 L529.538883,492.518085 L529.87531,492.495442 Z M530.676993,492.441487 L530.887003,492.427352 L530.520104,492.301168 L530.676993,492.441487 Z M533.402015,495.46835 L533.655696,495.808013 L533.693072,495.162615 L533.402015,495.46835 Z M532.628476,499.43073 L532.635015,499.693497 L532.841222,499.276365 L532.628476,499.43073 Z M531.048144,500.577395 L530.5209,500.959955 L531.281388,501.185617 L531.048144,500.577395 Z M527.289853,500.693391 L527.202125,500.873513 L527.477687,500.623687 L527.289853,500.693391 Z M524.719379,502.370105 L525.378738,503.289271 L525.99765,502.545296 L525.154049,502.14891 L524.719379,502.370105 Z M522.733573,503.814386 L522.51612,504.011333 L522.844901,505.062543 L523.631181,504.520262 L522.733573,503.814386 Z M517.97846,503.345585 L517.832437,503.494026 L518.186683,503.34467 L517.97846,503.345585 Z M513.535889,504.689704 L513.407219,504.767084 L513.685902,504.696011 L513.535889,504.689704 Z M512.084353,505.330156 L511.949006,505.641367 L512.423548,505.341035 L512.084353,505.330156 Z M511.616272,508.148563 L511.766763,508.498275 L511.913354,507.910471 L511.616272,508.148563 Z M509.960263,509.475744 L509.787473,509.614224 L510.178932,509.510629 L509.960263,509.475744 Z M504.016126,511.245691 L503.793487,511.385618 L504.257582,511.34984 L504.016126,511.245691 Z M503.052571,510.830069 L502.715022,510.68447 L503.014266,511.19568 L503.052571,510.830069 Z M497.514974,513.537254 L497.298008,514.19223 L498.069838,513.947369 L497.514974,513.537254 Z M490.244774,512.275143 L489.979394,512.997517 L490.796981,512.811165 L490.244774,512.275143 Z M489.287658,511.346078 L489.072943,511.137657 L489.205446,511.633798 L489.287658,511.346078 Z M485.925579,511.588122 L485.842254,511.82366 L486.163966,511.51334 L485.925579,511.588122 Z M484.233938,513.307944 L484.219698,513.631884 L484.535513,513.188812 L484.233938,513.307944 Z M482.524793,514.561177 L482.426798,515.059489 L483.021517,514.666927 L482.524793,514.561177 Z M480.905741,514.216487 L480.701195,514.17294 L481.018372,514.392696 L480.905741,514.216487 Z M474.738199,511.008865 L474.414976,511.217454 L475.022673,511.267818 L474.738199,511.008865 Z M471.32016,512.490426 L471.445582,512.815571 L471.581807,512.26023 L471.32016,512.490426 Z M469.245527,515.012522 L469.162586,515.542386 L469.768285,515.132351 L469.245527,515.012522 Z M467.674743,515.240689 L467.458355,515.386752 L467.918274,515.334769 L467.674743,515.240689 Z M463.465267,515.296458 L463.126052,515.790266 L463.890438,515.718527 L463.465267,515.296458 Z M458.960419,516.975484 L458.881348,517.192885 L459.177306,516.895014 L458.960419,516.975484 Z M458.252172,519.11342 L458.475732,519.4032 L458.460828,518.81273 L458.252172,519.11342 Z M460.058897,522.436602 L460.406507,522.525841 L460.032221,522.078713 L460.058897,522.436602 Z M461.188381,523.772939 L461.488074,523.983215 L461.298341,523.423739 L461.188381,523.772939 Z M461.714098,526.442189 L462.12546,526.996954 L462.369566,526.224604 L461.714098,526.442189 Z M461.984595,531.603754 L462.303604,531.758128 L462.278597,531.929922 L462.403405,531.806423 L462.633362,531.917703 L462.515486,531.695519 L462.706584,531.506426 L462.434616,531.543089 L462.356373,531.395609 L462.33291,531.556799 L461.984595,531.603754 Z M461.32702,532.443419 L461.380957,533.044674 L461.927802,532.502392 L461.32702,532.443419 Z M460.808404,532.392512 L460.592645,532.371334 L460.940416,532.564482 L460.808404,532.392512 Z M459.470905,531.828278 L458.764011,532.024172 L459.394843,532.557859 L459.470905,531.828278 Z M453.927252,531.896948 L453.545975,531.976134 L454.097397,532.247223 L453.927252,531.896948 Z M453.347115,530.702633 L453.215934,530.432575 L453.170394,530.945346 L453.347115,530.702633 Z M452.78118,529.002044 L452.425287,528.843436 L452.714342,529.385905 L452.78118,529.002044 Z M452.140012,526.808361 L451.570735,526.737304 L451.991841,527.362591 L452.140012,526.808361 Z M451.436153,525.562465 L451.066643,525.431456 L451.397068,525.952559 L451.436153,525.562465 Z M443.505439,527.853037 L443.387006,527.957769 L443.662555,527.835433 L443.505439,527.853037 Z M440.775823,528.158876 L440.60336,528.1782 L440.923172,528.250554 L440.775823,528.158876 Z M436.012654,528.266073 L435.645537,528.43046 L436.251858,528.58946 L436.012654,528.266073 Z M435.105074,527.03909 L434.864851,526.714324 L434.838037,527.342192 L435.105074,527.03909 Z M433.025574,524.922799 L432.826388,524.918902 L433.1675,525.062612 L433.025574,524.922799 Z M432.652965,524.555736 L432.584179,524.487974 L432.691574,524.644238 L432.652965,524.555736 Z M432.283374,523.708546 L432.198992,523.515124 L432.203655,523.903936 L432.283374,523.708546 Z M430.008373,520.351481 L429.766259,520.613261 L430.334741,520.495118 L430.008373,520.351481 Z M427.803292,520.04913 L427.461935,520.271943 L428.090299,520.338607 L427.803292,520.04913 Z M425.012787,519.391535 L424.873473,519.394313 L425.133458,519.46121 L425.012787,519.391535 Z M421.774833,519.398204 L421.648911,519.426744 L421.898829,519.4342 L421.774833,519.398204 Z M419.755798,518.812074 L419.085926,518.617609 L419.356501,519.384007 L419.755798,518.812074 Z M421.061437,516.101397 L420.746102,515.68211 L420.627482,516.396221 L421.061437,516.101397 Z M422.137138,511.19841 L422.030461,510.847087 L421.833859,511.405364 L422.137138,511.19841 Z M424.047099,509.133467 L424.022142,508.285916 L423.293349,508.745104 L424.047099,509.133467 Z M418.12233,505.764721 L417.953089,505.789729 L418.271417,505.848631 L418.12233,505.764721 Z M417.60835,505.47544 L417.286253,505.294155 L417.529506,505.836542 L417.60835,505.47544 Z M415.191447,504.511044 L414.377992,504.435591 L414.754148,505.201096 L415.191447,504.511044 Z M414.998338,502.810288 L414.596697,502.576014 L414.7938,503.227858 L414.998338,502.810288 Z M413.736145,500.442872 L413.297058,500.558538 L413.893458,500.868817 L413.736145,500.442872 Z M413.671471,500.26776 L413.543465,499.921167 L413.377741,500.491891 L413.671471,500.26776 Z M411.617014,496.02449 L411.158112,495.885696 L411.497608,496.488815 L411.617014,496.02449 Z M412.047038,494.352294 L412.047279,494.351357 L411.205271,493.88121 L411.177473,494.768723 L412.047038,494.352294 Z M409.85985,491.924143 L409.715619,491.951208 L409.995831,491.97932 L409.85985,491.924143 Z M394.117845,495.317151 L393.842206,495.480447 L394.381381,495.499336 L394.117845,495.317151 Z M393.18707,494.673698 L392.514754,494.20892 L392.467131,495.060629 L393.18707,494.673698 Z M396.008002,490.834829 L395.744721,490.574729 L395.836148,491.162602 L396.008002,490.834829 Z M395.550187,489.275042 L394.845349,489.092319 L394.806319,488.910192 L394.31742,489.014964 L394.416836,489.504981 L395.550187,489.275042 Z M392.793052,487.173626 L392.228466,487.205163 L392.755233,487.737826 L392.793052,487.173626 Z M393.019061,483.802 L393.040412,483.483486 L392.721139,483.916672 L393.019061,483.802 Z M395.786186,480.082364 L395.6377,479.841021 L395.655429,480.333753 L395.786186,480.082364 Z M397.540836,476.708928 L397.742422,476.321366 L397.129728,476.561175 L397.540836,476.708928 Z M402.42643,472.899531 L402.383215,472.576511 L402.148342,473.069461 L402.42643,472.899531 Z M403.280529,471.961053 L403.119385,471.016293 L402.41347,471.552707 L403.280529,471.961053 Z M408.104453,468.880227 L408.180103,468.748805 L407.968548,468.947489 L408.104453,468.880227 Z M408.898438,468.487272 L409.109264,468.382932 L408.683641,468.391372 L408.898438,468.487272 Z M410.268641,465.636892 L410.139797,465.543678 L410.319965,465.787409 L410.268641,465.636892 Z M409.864039,464.45033 L409.697756,463.962681 L409.371624,464.601919 L409.864039,464.45033 Z M410.169638,464.356252 L410.616042,464.218827 L410.002173,463.920227 L410.169638,464.356252 Z M411.37375,462.058439 L411.189682,461.895097 L411.356595,462.303933 L411.37375,462.058439 Z M411.408069,461.567343 L411.421409,461.376447 L411.270685,461.700554 L411.408069,461.567343 Z M412.454286,453.587696 L412.436982,453.50111 L412.440887,453.674971 L412.454286,453.587696 Z M411.787848,449.817744 L411.631425,449.696091 L411.818464,450.013526 L411.787848,449.817744 Z M411.609897,448.679822 L411.585136,448.521482 L411.537997,448.823053 L411.609897,448.679822 Z M411.59543,444.953267 L411.549844,444.82368 L411.568409,445.087954 L411.59543,444.953267 Z M409.827812,442.532763 L409.542631,442.581201 L410.011956,442.755845 L409.827812,442.532763 Z M408.442807,442.011128 L408.202934,442.187023 L408.71185,442.13799 L408.442807,442.011128 Z M406.22573,443.086107 L406.199155,443.35823 L406.469173,442.96164 L406.22573,443.086107 Z M405.477623,443.468599 L405.069202,443.677417 L405.720785,443.857553 L405.477623,443.468599 Z M403.982795,441.077514 L403.893046,440.933955 L403.966859,441.246068 L403.982795,441.077514 Z M403.402131,439.205842 L402.739537,438.93228 L402.916525,439.73315 L403.402131,439.205842 Z M402.606733,437.550815 L402.408227,437.401756 L402.60799,437.799051 L402.606733,437.550815 Z M400.654071,433.886582 L400.045323,433.936046 L400.582358,434.493112 L400.654071,433.886582 Z M396.797754,431.926593 L396.403398,432.068722 L397.006513,432.2901 L396.797754,431.926593 Z M393.983122,429.979425 L393.645142,430.14371 L394.234904,430.258397 L393.983122,429.979425 Z M390.757592,432.734527 L390.707817,433.388309 L391.3749,432.955523 L390.757592,432.734527 Z M389.206903,433.453058 L388.997895,433.623442 L389.464093,433.534101 L389.206903,433.453058 Z M386.540149,432.612732 L386.456749,432.586452 L386.609679,432.665758 L386.540149,432.612732 Z M383.432819,432.240189 L383.183376,432.362039 L383.668131,432.387488 L383.432819,432.240189 Z M380.036778,431.516079 L379.845102,431.538389 L380.193744,431.628324 L380.036778,431.516079 Z M373.690315,431.58663 L373.25533,432.07579 L374.047814,432.134977 L373.690315,431.58663 Z M372.873763,431.14823 L371.531844,430.964995 L371.734688,431.880916 L372.873763,431.14823 Z M373.406109,429.878426 L372.738326,429.298485 L372.56488,430.151556 L373.406109,429.878426 Z M374.227591,429.103688 L374.144749,428.69871 L373.654893,428.798915 L373.845411,429.261195 L374.227591,429.103688 Z M375.535875,427.778286 L375.271913,427.230849 L374.947829,427.931798 L375.535875,427.778286 Z M375.505031,423.004705 L375.303499,422.727955 L375.319892,423.29268 L375.505031,423.004705 Z M370.780462,423.108509 L369.936169,423.632658 L369.872411,423.544929 L369.865807,423.676339 L369.541255,423.877826 L369.852616,423.938797 L369.840901,424.1719 L370.019809,423.971538 L370.209441,424.008672 L370.109474,423.87112 L370.785428,423.114106 L370.780462,423.108509 Z M369.828333,422.035211 L369.336435,421.480713 L369.129957,422.283611 L369.828333,422.035211 Z M371.237939,418.928734 L370.899352,419.056038 L371.464782,419.210495 L371.237939,418.928734 Z M366.271218,416.863671 L366.132514,416.943885 L366.43071,416.879016 L366.271218,416.863671 Z M361.100073,418.779612 L360.928715,418.868458 L361.28668,418.828956 L361.100073,418.779612 Z M359.931812,419.303044 L359.828023,419.620874 L360.265186,419.277542 L359.931812,419.303044 Z M359.079572,420.443147 L359.158515,421.124082 L359.752075,420.575978 L359.079572,420.443147 Z M357.751671,421.884828 L357.593334,422.182753 L358.087203,421.920153 L357.751671,421.884828 Z M355.435923,421.641023 L355.118748,421.607631 L355.539366,421.94271 L355.435923,421.641023 Z M352.802218,420.75255 L352.718054,420.748534 L352.880418,420.783927 L352.802218,420.75255 Z M349.856006,420.134922 L350.659372,421.325938 L351.22524,420.569796 L349.856006,420.134922 Z M347.733563,419.95514 L347.274642,420.066436 L347.870878,420.406958 L347.733563,419.95514 Z M343.194311,419.118674 L343.048507,419.337818 L343.457499,419.114836 L343.194311,419.118674 Z M336.486219,423.244647 L336.422894,423.366784 L336.603112,423.172097 L336.486219,423.244647 Z M333.82954,426.033648 L333.855687,426.248299 L333.968041,425.867588 L333.82954,426.033648 Z M332.953034,427.084569 L332.723623,427.359631 L333.287281,427.213283 L332.953034,427.084569 Z M330.537835,427.224629 L330.420867,427.283184 L330.668492,427.230856 L330.537835,427.224629 Z M325.569377,427.239769 L325.288188,427.667202 L325.990232,427.53071 L325.569377,427.239769 Z M322.084367,429.73633 L322.020354,429.861113 L322.203937,429.663039 L322.084367,429.73633 Z M321.181063,431.810336 L321.451916,432.000598 L321.250422,431.486684 L321.181063,431.810336 Z M321.116404,432.112058 L321.043019,432.454496 L321.463303,432.063998 L321.116404,432.112058 Z M317.713021,433.238625 L317.484077,433.871028 L318.25265,433.64006 L317.713021,433.238625 Z M312.892612,437.506575 L313.35632,437.893236 L313.358922,437.123054 L312.892612,437.506575 Z M310.635431,439.363013 L310.429354,439.532503 L310.890951,439.439853 L310.635431,439.363013 Z M306.932044,439.954746 L306.598201,440.054606 L307.141298,440.233378 L306.932044,439.954746 Z M300.209619,440.907076 L300.036269,440.981812 L300.389108,440.965554 L300.209619,440.907076 Z M299.613915,440.712994 L299.429869,440.653031 L299.709609,440.881254 L299.613915,440.712994 Z M297.488677,439.67284 L297.368798,439.682354 L297.599772,439.718878 L297.488677,439.67284 Z M296.288619,439.175528 L295.823883,438.982938 L296.093197,439.639079 L296.288619,439.175528 Z M293.295803,437.20428 L293.204444,437.188187 L293.37531,437.252075 L293.295803,437.20428 Z M286.754778,437.295361 L286.638654,437.351643 L286.883636,437.302307 L286.754778,437.295361 Z M285.712461,437.239179 L285.574405,437.231737 L285.827083,437.316489 L285.712461,437.239179 Z M281.546253,436.187087 L281.345622,436.182671 L281.68816,436.328984 L281.546253,436.187087 Z M277.807335,436.049118 L276.205402,436.331269 L276.640484,437.182369 L277.807335,436.049118 Z M274.684227,433.250318 L274.612113,433.242046 L274.751011,433.278754 L274.684227,433.250318 Z M270.99971,432.756293 L270.837807,432.828831 L271.171125,432.802022 L270.99971,432.756293 Z M265.092906,434.37378 L265.048909,434.784388 L265.50443,434.339395 L265.092906,434.37378 Z M259.304243,437.18132 L259.190896,437.400627 L259.547274,437.137969 L259.304243,437.18132 Z M257.854524,438.979476 L257.90743,439.405633 L258.267808,438.862831 L257.854524,438.979476 Z M254.229563,442.453922 L254.176344,442.526536 L254.304768,442.404432 L254.229563,442.453922 Z M251.507923,446.669589 L251.487191,447.70153 L252.304843,447.325525 L251.507923,446.669589 Z M249.339281,444.884602 L249.193797,444.764856 L249.369551,445.070581 L249.339281,444.884602 Z M249.148615,443.71315 L249.110297,443.477724 L248.989748,443.891068 L249.148615,443.71315 Z M247.191307,435.790983 L246.974198,435.78939 L247.338366,435.950708 L247.191307,435.790983 Z M244.601766,436.354398 L244.508065,436.44601 L244.728357,436.320522 L244.601766,436.354398 Z M239.997555,437.5865 L239.906237,437.610937 L240.091493,437.597088 L239.997555,437.5865 Z M237.558731,438.596189 L237.424064,439.144027 L238.086425,438.795689 L237.558731,438.596189 Z M233.854447,439.598707 L233.678605,439.732883 L234.072014,439.638565 L233.854447,439.598707 Z M229.783849,439.443507 L229.34599,439.569113 L229.94959,439.867804 L229.783849,439.443507 Z M227.319088,439.362021 L227.104642,439.435767 L227.515844,439.474773 L227.319088,439.362021 Z M222.645984,439.315061 L221.884048,439.38016 L222.400051,440.039147 L222.645984,439.315061 Z M218.817921,437.468389 L218.702348,437.449362 L218.91302,437.536767 L218.817921,437.468389 Z M216.510634,436.558747 L216.292087,436.591241 L216.681799,436.698467 L216.510634,436.558747 Z M211.325988,438.022559 L211.383819,438.524213 L211.82819,437.9697 L211.325988,438.022559 Z M210.743357,438.083885 L210.104153,438.151165 L210.651341,438.719999 L210.743357,438.083885 Z M209.096108,437.636502 L208.9655,437.671106 L209.226369,437.672394 L209.096108,437.636502 Z M207.222281,437.120195 L206.957899,437.047349 L207.302955,437.382296 L207.222281,437.120195 Z M204.671196,437.826984 L204.892677,438.41209 L205.290734,437.739944 L204.671196,437.826984 Z M203.41481,438.003496 L203.281517,438.022222 L203.53949,438.054217 L203.41481,438.003496 Z M202.897817,437.793179 L202.696915,437.71145 L202.975411,437.995713 L202.897817,437.793179 Z M192.984526,432.786571 L192.86162,432.867452 L193.13165,432.78515 L192.984526,432.786571 Z M191.264735,432.803186 L191.044657,432.805313 L191.414941,432.964051 L191.264735,432.803186 Z M189.477532,432.015674 L188.7436,432.070751 L189.258325,432.718268 L189.477532,432.015674 Z M184.552576,428.661713 L184.414285,428.710657 L184.69539,428.695243 L184.552576,428.661713 Z M182.221939,428.114516 L181.947299,428.050035 L182.308752,428.382935 L182.221939,428.114516 Z M178.025414,426.26661 L177.406112,426.242687 L177.871057,426.866843 L178.025414,426.26661 Z M173.627955,423.948046 L172.892858,424.117899 L173.497944,424.691225 L173.627955,423.948046 Z M173.069254,422.1484 L172.835273,421.884247 L172.898757,422.457358 L173.069254,422.1484 Z M166.909915,418.986702 L166.788696,419.048799 L167.04588,418.994661 L166.909915,418.986702 Z M164.403822,419.909673 L164.189356,420.081422 L164.663782,419.998631 L164.403822,419.909673 Z M163.168223,419.486854 L163.043446,419.444156 L163.255708,419.585538 L163.168223,419.486854 Z M151.794593,412.163762 L151.702021,412.137412 L151.870768,412.222596 L151.794593,412.163762 Z M141.56577,406.649835 L141.122604,406.538274 L141.49441,407.101222 L141.56577,406.649835 Z M130.456747,402.190407 L130.333664,402.836546 L131.046398,402.48188 L130.456747,402.190407 Z M127.223891,405.158376 L127.204011,405.333599 L127.349298,405.034395 L127.223891,405.158376 Z M126.712064,405.664383 L126.584499,405.790498 L126.890708,405.648125 L126.712064,405.664383 Z M125.110077,407.186251 L125.078064,407.471439 L125.372475,407.070043 L125.110077,407.186251 Z M124.63885,407.394943 L124.439162,407.483379 L124.839429,407.48134 L124.63885,407.394943 Z M123.494363,406.901968 L123.15428,406.755481 L123.453413,407.269987 L123.494363,406.901968 Z M118.49569,403.222697 L118.413523,403.201732 L118.566351,403.269581 L118.49569,403.222697 Z M113.602733,401.165846 L113.408656,401.265093 L113.807534,401.240495 L113.602733,401.165846 Z M108.85486,399.435263 L108.635421,399.355278 L108.934347,399.654882 L108.85486,399.435263 Z M108.546976,398.584592 L108.441765,398.293897 L108.333937,398.808617 L108.546976,398.584592 Z M106.805996,396.322916 L106.492129,396.467449 L107.05216,396.565415 L106.805996,396.322916 Z M103.914851,394.830797 L103.774542,394.783935 L104.007077,394.946456 L103.914851,394.830797 Z M98.2065582,393.778059 L97.9186384,393.859775 L98.414601,393.993218 L98.2065582,393.778059 Z M95.7233964,392.603896 L95.3872947,392.61096 L95.8567689,392.912483 L95.7233964,392.603896 Z M93.8477317,391.036479 L93.6906448,390.983617 L93.9421379,391.172707 L93.8477317,391.036479 Z M93.0141556,389.833626 L92.8662347,389.620176 L92.9246025,390.077392 L93.0141556,389.833626 Z M88.1160292,387.90494 L88.0314975,388.049033 L88.2702009,387.840602 L88.1160292,387.90494 Z M86.8599901,388.930166 L86.8170256,389.176001 L86.7753913,389.166212 L86.8134631,389.196385 L86.7258106,389.697916 L87.3327869,389.297269 L87.0040805,389.219982 L86.8599901,388.930166 Z M86.8170256,389.176001 L86.8134631,389.196385 L87.1086672,389.430343 L87.0040805,389.219982 L86.8170256,389.176001 Z M85.6077335,387.458106 L85.1670537,387.260921 L85.4261037,387.905421 L85.6077335,387.458106 Z M84.7017442,385.962874 L84.1014474,385.558536 L84.1111395,386.381242 L84.7017442,385.962874 Z M84.601312,382.90531 L84.2962638,382.892823 L84.7295606,383.182371 L84.601312,382.90531 Z M84.1222796,381.870437 L84.0295754,381.670164 L84.0367878,382.073893 L84.1222796,381.870437 Z M82.5188646,376.688316 L82.3036237,376.549965 L82.5325533,376.94382 L82.5188646,376.688316 Z M80.1955036,374.722864 L79.5218254,374.612135 L79.8866371,375.331719 L80.1955036,374.722864 Z M79.8433975,371.585501 L79.6270651,371.491481 L79.9084054,371.812247 L79.8433975,371.585501 Z M79.6063504,370.758689 L79.4806366,370.320203 L79.1812119,370.924009 L79.6063504,370.758689 Z M81.2567425,370.116915 L81.3589437,370.077173 L81.1472895,370.110239 L81.2567425,370.116915 Z M84.1091715,369.201506 L84.7515533,368.76436 L83.9774876,368.435732 L84.1091715,369.201506 Z M89.509782,373.573778 L89.6661055,373.492282 L89.3369136,373.539207 L89.509782,373.573778 Z M91.1357705,372.169842 L91.189115,371.965369 L90.9519539,372.274082 L91.1357705,372.169842 Z M92.1265206,371.607998 L92.1963721,371.568386 L92.0477781,371.623746 L92.1265206,371.607998 Z M92.761992,371.480913 L92.9551663,371.442281 L92.5943821,371.377397 L92.761992,371.480913 Z M96.1641416,370.474818 L96.2462398,370.419878 L96.0673182,370.494409 L96.1641416,370.474818 Z M94.9753051,363.912213 L94.7258241,363.697511 L94.876721,364.226249 L94.9753051,363.912213 Z M90.2978758,359.862994 L89.9179137,359.810723 L90.345845,360.243523 L90.2978758,359.862994 Z M86.0878429,356.077494 L86.0176572,356.027517 L86.1372528,356.14808 L86.0878429,356.077494 Z M84.5067587,353.818785 L84.3095136,353.537004 L84.3141352,354.103746 L84.5067587,353.818785 Z M84.4778562,349.77131 L84.3445339,349.512091 L84.317964,350.01504 L84.4778562,349.77131 Z M84.7118472,347.505245 L84.1266993,347.055781 L84.0775294,347.88215 L84.7118472,347.505245 Z M88.947397,343.806728 L89.0156201,343.485584 L87.7527767,342.466145 L87.6972857,343.032543 L87.6603416,343.031466 L87.6953266,343.052539 L87.6712971,343.297809 L87.9015991,343.176788 L88.947397,343.806728 Z M90.2503944,342.594269 L90.3403826,342.429597 L90.0742818,342.659071 L90.2503944,342.594269 Z M91.1117648,342.277324 L91.2798119,342.21549 L90.9426689,342.218419 L91.1117648,342.277324 Z M97.5021986,341.734495 L97.6147215,341.713658 L97.3918144,341.704314 L97.5021986,341.734495 Z M103.229277,338.61618 L103.234599,338.327807 L102.976984,338.755949 L103.229277,338.61618 Z M103.369648,336.851937 L103.156534,336.663592 L103.316674,337.131374 L103.369648,336.851937 Z M103.544639,335.928859 L103.614816,335.55868 L103.169458,335.963441 L103.544639,335.928859 Z M106.2371,332.621586 L106.30994,332.388863 L106.008869,332.707473 L106.2371,332.621586 Z M110.257641,327.896627 L110.302762,327.669096 L110.054777,328.009112 L110.257641,327.896627 Z M112.706857,326.538568 L112.854718,326.456581 L112.539582,326.513994 L112.706857,326.538568 Z M113.435105,326.64555 L113.706224,326.685378 L113.322808,326.395588 L113.435105,326.64555 Z M115.532502,327.536307 L115.720085,327.537512 L115.392003,327.412013 L115.532502,327.536307 Z M122.340332,327.605922 L122.365978,327.289642 L122.043232,327.717375 L122.340332,327.605922 Z M122.899304,327.396231 L123.14506,327.304039 L122.683854,327.246308 L122.899304,327.396231 Z M128.371275,328.135937 L128.613496,328.095132 L128.190943,327.969155 L128.371275,328.135937 Z M137.390131,328.627283 L136.968086,327.936265 L136.541378,328.196881 L136.58327,328.695123 L137.390131,328.627283 Z M138.923693,326.57202 L138.992949,326.326356 L138.684105,326.660026 L138.923693,326.57202 Z M143.654199,323.504168 L143.722319,323.123231 L143.268352,323.533754 L143.654199,323.504168 Z M145.37733,322.515364 L145.551944,322.354722 L145.142463,322.481694 L145.37733,322.515364 Z M147.872655,322.873091 L147.955367,322.884949 L147.798292,322.834984 L147.872655,322.873091 Z M150.90433,322.976826 L151.058814,322.862541 L150.713069,322.958233 L150.90433,322.976826 Z M153.045131,323.184945 L153.409308,323.220348 L152.968714,322.827119 L153.045131,323.184945 Z M158.057835,327.154577 L158.158971,327.136798 L157.957878,327.131056 L158.057835,327.154577 Z M162.046909,327.565691 L162.307175,327.533814 L161.872698,327.369718 L162.046909,327.565691 Z M170.40835,327.150371 L170.586553,327.066675 L170.220923,327.090097 L170.40835,327.150371 Z M178.408866,325.049683 L178.418141,324.660139 L178.02886,325.135856 L178.408866,325.049683 Z M187.586478,322.036917 L187.663409,321.996948 L187.500582,322.048653 L187.586478,322.036917 Z M191.240794,321.537639 L191.337538,321.524421 L191.146186,321.513489 L191.240794,321.537639 Z M194.99569,322.496131 L195.372023,322.592196 L194.99569,322.107731 L194.99569,322.496131 Z M198.552194,321.958184 L198.673697,321.837646 L198.382312,321.97898 L198.552194,321.958184 Z M206.933062,315.892643 L206.978607,315.661635 L206.725973,316.004683 L206.933062,315.892643 Z M207.573575,315.54611 L207.620399,315.520777 L207.522467,315.561015 L207.573575,315.54611 Z M210.690198,314.637159 L210.840915,314.593203 L210.541407,314.587072 L210.690198,314.637159 Z M215.843806,313.436725 L215.945093,313.368454 L215.722449,313.450604 L215.843806,313.436725 Z M217.226512,313.278583 L217.485375,313.248977 L217.053946,313.083371 L217.226512,313.278583 Z M219.6395,313.23949 L219.751081,313.191762 L219.518455,313.230756 L219.6395,313.23949 Z M223.043993,312.569526 L223.168806,312.429121 L222.857604,312.593005 L223.043993,312.569526 Z M225.981218,311.540819 L226.113232,311.449308 L225.820607,311.538321 L225.981218,311.540819 Z M226.737713,311.552586 L227.116876,311.558484 L226.641138,311.185881 L226.737713,311.552586 Z M231.650831,312.037927 L231.733484,312.016815 L231.565854,312.030439 L231.650831,312.037927 Z M235.863926,311.216866 L236.010082,311.112171 L235.684566,311.204515 L235.863926,311.216866 Z M240.188435,310.686893 L240.258664,310.661278 L240.113786,310.690846 L240.188435,310.686893 Z M243.476233,310.51276 L243.730376,310.4993 L243.315796,310.3152 L243.476233,310.51276 Z M369.692495,380.474373 L370.445864,380.482989 L369.977227,381.171917 L369.692495,380.474373 Z M379.650579,380.263507 L380.023721,379.973306 L379.9194,380.652335 L379.650579,380.263507 Z M382.253793,378.10711 L382.982275,378.314387 L382.349443,378.858442 L382.253793,378.10711 Z M387.557887,376.754209 L388.619998,377.053918 L388.032896,377.750338 L387.557887,376.754209 Z M503.887307,359.817562 L503.004932,359.670105 L503.550575,358.988744 L503.887307,359.817562 Z M527.197883,366.880994 L527.62762,367.064486 L526.985764,367.297346 L527.197883,366.880994 Z M572.426347,410.824279 L570.894343,410.592603 L570.859443,410.631898 L571.156696,411.829833 L571.677474,411.989111 L572.426347,410.824279 Z M513.505253,487.538031 L513.604803,487.55201 L513.408036,487.563612 L513.505253,487.538031 Z M462.341909,532.564631 L461.867979,532.62852 L462.299181,532.088328 L462.341909,532.564631 Z M214.109173,313.399964 L214.208688,313.380524 L214.025093,313.456636 L214.109173,313.399964 Z M589.334465,455.031361 L589.317755,454.974066 L589.249416,454.993997 L589.01212,454.889749 L588.994098,455.068459 L588.902949,455.095043 L588.841125,455.102512 L588.926276,455.595208 L589.299742,455.927658 L589.883063,455.272368 L589.334465,455.031361 Z" stroke-linejoin="square"></path>
                </g>
            </g>
        </g>
    </g>
</svg>