<?xml version="1.0" encoding="utf-8"?>
<!-- Generator: Adobe Illustrator 22.0.0, SVG Export Plug-In . SVG Version: 6.00 Build 0)  -->
<svg version="1.1" id="图层_1" xmlns="http://www.w3.org/2000/svg" xmlns:xlink="http://www.w3.org/1999/xlink" x="0px" y="0px"
	 viewBox="0 0 58 86" style="enable-background:new 0 0 58 86;" xml:space="preserve">
<style type="text/css">
	.st0{fill:#4AE8F8;}
</style>
<path class="st0" d="M33.6,83.6H-7.9c-1.4,0-2.6-1.2-2.6-2.6c0-1.4,1.2-2.6,2.6-2.6h41.5c1.4,0,2.6,1.2,2.6,2.6
	C36.2,82.4,35,83.6,33.6,83.6z M60.7,12.5H13.1c-1.4,0-2.6-1.2-2.6-2.6s1.2-2.6,2.6-2.6h47.6c1.4,0,2.6,1.2,2.6,2.6
	S62.1,12.5,60.7,12.5z"/>
<path class="st0" d="M60.7,16.1H30.4c-1.4,0-2.6-1.2-2.6-2.6V9.9c0-1.4,1.2-2.6,2.6-2.6h30.3c1.4,0,2.6,1.2,2.6,2.6v3.6
	C63.3,14.9,62.1,16.1,60.7,16.1z M22.8,80.5h-20c-0.6,0-1.1-0.5-1.1-1.1L3.6,57c0-0.6,0.5-1.1,1.1-1.1H21c0.6,0,1.1,0.5,1.1,1.1
	l1.8,22.4C23.9,80,23.4,80.5,22.8,80.5z"/>
<path class="st0" d="M14.1,57.9h-2.6c-0.6,0-1.1-0.5-1.1-1.1V8.4c0-0.6,0.5-1.1,1.1-1.1h2.6c0.6,0,1.1,0.5,1.1,1.1v48.4
	C15.2,57.4,14.7,57.9,14.1,57.9z M46.8,33.4h-2.6c-0.6,0-1.1-0.5-1.1-1.1v-8.1c0-0.6,0.5-1.1,1.1-1.1h2.6c0.6,0,1.1,0.5,1.1,1.1v8.1
	C47.9,32.9,47.4,33.4,46.8,33.4z M61.7,28.4l-1.8,1.8c-0.4,0.4-1.1,0.4-1.5,0l-5.7-5.7c-0.4-0.4-0.4-1.1,0-1.5l1.8-1.8
	c0.4-0.4,1.1-0.4,1.5,0l5.7,5.7C62.1,27.2,62.1,28,61.7,28.4z M31,30.2l-1.8-1.8c-0.4-0.4-0.4-1.1,0-1.5l5.7-5.7
	c0.4-0.4,1.1-0.4,1.5,0l1.8,1.8c0.4,0.4,0.4,1.1,0,1.5l-5.7,5.7C32.1,30.6,31.4,30.6,31,30.2z"/>
</svg>
