<?xml version="1.0" encoding="utf-8"?>
<!-- Generator: Adobe Illustrator 22.0.0, SVG Export Plug-In . SVG Version: 6.00 Build 0)  -->
<svg version="1.1" id="图层_1" xmlns="http://www.w3.org/2000/svg" xmlns:xlink="http://www.w3.org/1999/xlink" x="0px" y="0px"
	 viewBox="0 0 58 86" style="enable-background:new 0 0 58 86;" xml:space="preserve">
<style type="text/css">
	.st0{fill:#4AE8F8;}
</style>
<path class="st0" d="M21.2,58.6c-4.8-0.7-9.5-1.8-14.8-2.9c0.9,9.9,1.5,18.3,2.5,26.7c0.1,1.2,1.8,3.3,2.8,3.4
	c10.2,0.2,20.4,0.1,30.5,0.1c1.1-10,2.1-19.4,3.3-30.3c-5.4,1.2-10.2,2.5-15,3.2C27.5,59.1,24.2,59,21.2,58.6z M4.7,43.8
	c6.2-0.5,11.6,1.1,16.9-2.2c2.1-1.3,6.9-1.3,9,0.1c5.4,3.5,10.8,1.4,16.3,2c0.5-4.1,0.8-7.7,1.2-11.7H3.5C4,36.2,4.3,39.8,4.7,43.8z
	 M56.9-0.1c-3,0.8-4.4,1-6.9,1.6C38.2,4,33,4.8,32,15.2c-0.4,3.4-0.1,2.7-3.9,2.7c-5.6,0-11.3,0.3-16.9,0c-4.1-0.2-6.8,0.9-7.8,5.4
	h44.8c-0.8-7.5-7-4.6-11.1-5.5c0.3-6.9,0.8-9.1,8.9-11.1c4-0.9,8-1.6,12-2.7L56.9-0.1z M0.3,29.9h51v-5.2H0
	C0.2,26.8,0.3,28.3,0.3,29.9z M15.6,45.9H4.8c0.6,3.1,1,5.9,1.4,8.6h9.4V45.9z M36.3,54.5h9.3c0.3-2.9,0.6-5.7,1-8.7H36.3
	C36.4,48.8,36.4,51.6,36.3,54.5z"/>
</svg>
