<?xml version="1.0" encoding="utf-8"?>
<!-- Generator: Adobe Illustrator 22.0.0, SVG Export Plug-In . SVG Version: 6.00 Build 0)  -->
<svg version="1.1" id="图层_1" xmlns="http://www.w3.org/2000/svg" xmlns:xlink="http://www.w3.org/1999/xlink" x="0px" y="0px"
	 viewBox="0 0 100 100" style="enable-background:new 0 0 100 100;" xml:space="preserve">
<style type="text/css">
	.st0{fill:url(#SVGID_1_);}
	.st1{fill:url(#SVGID_2_);}
	.st2{fill:url(#SVGID_3_);}
	.st3{fill:url(#SVGID_4_);}
	.st4{fill:url(#SVGID_5_);}
	.st5{fill:url(#SVGID_6_);}
	.st6{fill:url(#SVGID_7_);}
</style>
<g>
	<linearGradient id="SVGID_1_" gradientUnits="userSpaceOnUse" x1="93.3956" y1="36.0477" x2="100" y2="36.0477">
		<stop  offset="0" style="stop-color:#2ECBFF"/>
		<stop  offset="0.9981" style="stop-color:#18FFF7"/>
	</linearGradient>
	<path class="st0" d="M100,35.4c-0.2-1-1-1.6-1.7-1.5l-3.8,0.7c-0.8,0.2-1.2,1-1,2s1,1.6,1.7,1.5l3.8-0.8
		C99.7,37.2,100.1,36.4,100,35.4z"/>
	<g>
		<linearGradient id="SVGID_2_" gradientUnits="userSpaceOnUse" x1="87.1563" y1="22.0255" x2="92.9407" y2="22.0255">
			<stop  offset="0" style="stop-color:#2ECBFF"/>
			<stop  offset="0.9981" style="stop-color:#18FFF7"/>
		</linearGradient>
		<path class="st1" d="M87.8,24.5c0.7,0.7,1.7,0.7,2.2,0.1l2.6-2.9c0.5-0.6,0.4-1.6-0.4-2.2c-0.7-0.7-1.7-0.7-2.2-0.1l-2.6,2.9
			C86.9,22.9,87.1,23.9,87.8,24.5z"/>
		<linearGradient id="SVGID_3_" gradientUnits="userSpaceOnUse" x1="73.8974" y1="15.1842" x2="78.052" y2="15.1842">
			<stop  offset="0" style="stop-color:#2ECBFF"/>
			<stop  offset="0.9981" style="stop-color:#18FFF7"/>
		</linearGradient>
		<path class="st2" d="M75.4,18.5c1,0.2,1.8-0.3,2-1.1l0.7-3.8c0.1-0.8-0.5-1.5-1.5-1.7c-1-0.2-1.8,0.3-2,1.1l-0.7,3.8
			C73.8,17.5,74.4,18.3,75.4,18.5z"/>
		<linearGradient id="SVGID_4_" gradientUnits="userSpaceOnUse" x1="57.5836" y1="17.7175" x2="62.9545" y2="17.7175">
			<stop  offset="0" style="stop-color:#2ECBFF"/>
			<stop  offset="0.9981" style="stop-color:#18FFF7"/>
		</linearGradient>
		<path class="st3" d="M59.8,20.3c0.4,0.7,1.4,0.8,2.2,0.2c0.8-0.5,1.1-1.5,0.7-2.1l-2.1-3.3c-0.4-0.7-1.4-0.8-2.2-0.2
			c-0.8,0.5-1.1,1.5-0.7,2.1L59.8,20.3z"/>
		<linearGradient id="SVGID_5_" gradientUnits="userSpaceOnUse" x1="91.8429" y1="50.4358" x2="98.3593" y2="50.4358">
			<stop  offset="0" style="stop-color:#2ECBFF"/>
			<stop  offset="0.9981" style="stop-color:#18FFF7"/>
		</linearGradient>
		<path class="st4" d="M97.5,49.4l-3.6-1.3c-0.7-0.3-1.6,0.3-1.9,1.2c-0.3,0.9,0,1.9,0.7,2.1l3.6,1.3c0.7,0.3,1.6-0.3,1.9-1.2
			C98.6,50.6,98.2,49.7,97.5,49.4z"/>
		<linearGradient id="SVGID_6_" gradientUnits="userSpaceOnUse" x1="0" y1="56.4935" x2="90.2762" y2="56.4935">
			<stop  offset="0" style="stop-color:#2ECBFF"/>
			<stop  offset="0.9981" style="stop-color:#18FFF7"/>
		</linearGradient>
		<path class="st5" d="M75.6,46.4c-3.5-12.7-15-21.5-28.3-21.5c-11,0-21.1,6.2-26.1,16C9.3,42.1,0,52.2,0,64.6
			c0,11.9,8.7,21.9,20.3,23.6L69.9,88h2.8c10-1.8,17.6-10.7,17.6-21.2C90.3,57.5,84.3,49.3,75.6,46.4z M68.5,82.4H24.8l-1-0.1
			c-9.6-0.5-17.2-8.5-17.2-18.1c0-9.6,7.4-17.5,17-18.1c5.5,0.3,11,3.3,13.9,7.5l0,0c0.4,0.7,1.1,1.1,1.9,1.1c1.2,0,2.2-1,2.2-2.2
			c0-0.3-0.1-0.6-0.2-0.9l0,0c-0.1-0.1-0.2-0.3-0.3-0.4c-0.1-0.1-0.1-0.2-0.2-0.3C37.6,46,33.1,43,27.4,42
			c4.2-6.8,11.8-11.1,19.9-11.1c11,0,20.4,7.5,22.8,18.3l0.3,1.3l1.3,0.3c7,1.9,11.9,8.2,11.9,15.5C83.6,74.8,77,81.9,68.5,82.4z"/>
		<linearGradient id="SVGID_7_" gradientUnits="userSpaceOnUse" x1="61.6388" y1="35.4139" x2="91.5312" y2="35.4139">
			<stop  offset="0" style="stop-color:#2ECBFF"/>
			<stop  offset="0.9981" style="stop-color:#18FFF7"/>
		</linearGradient>
		<path class="st6" d="M69.5,20.4c-2.2,0.1-4.1,0.6-6,1.5c-0.3,0.1-0.5,0.2-0.8,0.4c-0.1,0-0.2,0.1-0.3,0.1l0,0.1
			c-0.5,0.5-0.8,1.2-0.8,1.9c0.1,1.4,1.2,2.4,2.6,2.3c0.1,0,0.3-0.1,0.4-0.1l0,0.1c1.6-0.7,3.3-1.2,5.1-1.3
			c8.7-0.6,16.2,6.1,16.8,14.8c0.2,2.4-0.3,4.8-1.2,6.9c0,0.1-0.1,0.1-0.1,0.2c0,0.1,0,0.1-0.1,0.2l0,0c0,0.2-0.1,0.5-0.1,0.7
			c0.1,1.4,1.3,2.5,2.7,2.4c0.7,0,1.3-0.4,1.8-0.9l0,0c0.1-0.1,0.1-0.2,0.1-0.4c0.1-0.2,0.2-0.5,0.3-0.7c1.1-2.7,1.5-5.4,1.3-8.7
			C90.7,28.4,80.9,19.6,69.5,20.4z"/>
	</g>
</g>
</svg>
