<?xml version="1.0" encoding="utf-8"?>
<!-- Generator: Adobe Illustrator 22.0.0, SVG Export Plug-In . SVG Version: 6.00 Build 0)  -->
<svg version="1.1" id="图层_1" xmlns="http://www.w3.org/2000/svg" xmlns:xlink="http://www.w3.org/1999/xlink" x="0px" y="0px"
	 viewBox="0 0 100 100" style="enable-background:new 0 0 100 100;" xml:space="preserve">
<style type="text/css">
	.st0{fill:url(#SVGID_1_);}
	.st1{fill:url(#SVGID_2_);}
</style>
<g>
	<linearGradient id="SVGID_1_" gradientUnits="userSpaceOnUse" x1="50.9569" y1="105.4222" x2="50.9569" y2="-4.5778">
		<stop  offset="0" style="stop-color:#2ECBFF"/>
		<stop  offset="0.9981" style="stop-color:#18FFF7"/>
	</linearGradient>
	<path class="st0" d="M66.2,55.1V10.7c0-8.4-6.9-15.3-15.3-15.3S35.7,2.3,35.7,10.7v44.4c-7.6,5.1-12.2,13.7-12.2,22.8
		c0,15.2,12.3,27.5,27.5,27.5s27.5-12.3,27.5-27.5C78.5,68.8,73.8,60.2,66.2,55.1z M51,99.3c-11.8,0-21.4-9.6-21.4-21.4
		c0-7.6,4.1-14.7,10.7-18.5c1-0.5,1.5-1.5,1.5-2.6V41.3H51c1.7,0,3-1.4,3-3.1c0-1.7-1.3-3-3-3.1h-9.2V29H51c1.7,0,3-1.4,3-3.1
		s-1.3-3-3-3.1h-9.2V10.7c0-5.1,4.1-9.2,9.2-9.2s9.2,4.1,9.2,9.2v46.1c0,1.1,0.6,2.1,1.5,2.6c6.6,3.8,10.7,10.9,10.7,18.5
		C72.4,89.7,62.8,99.3,51,99.3z"/>
	<linearGradient id="SVGID_2_" gradientUnits="userSpaceOnUse" x1="48.1875" y1="80.921" x2="64.9065" y2="80.921">
		<stop  offset="0" style="stop-color:#2ECBFF"/>
		<stop  offset="0.9981" style="stop-color:#18FFF7"/>
	</linearGradient>
	<path class="st1" d="M62.1,72.5c-0.7,0-1.5,0.3-2,0.8c-0.5,0.5-0.8,1.2-0.8,2c0,4.6-3.7,8.4-8.4,8.4c-1.5,0-2.8,1.3-2.8,2.8
		c0,1.5,1.2,2.8,2.8,2.8c7.7,0,13.9-6.3,13.9-13.9c0-0.7-0.3-1.5-0.8-2C63.6,72.8,62.9,72.5,62.1,72.5z"/>
</g>
</svg>
